<?xml version="1.0" encoding="UTF-8"?>
<svg id="Layer_1" xmlns="http://www.w3.org/2000/svg" xmlns:xlink="http://www.w3.org/1999/xlink" version="1.1" viewBox="0 0 1309 1152.7">
  <!-- Generator: Adobe Illustrator 30.1.0, SVG Export Plug-In . SVG Version: 2.1.1 Build 136)  -->
  <defs>
    <clipPath id="clippath">
      <path d="M711.9,597.1c1.2-9.4-5.2-18.2-14.6-19.9l-15.6-2.8-313.5-50.9c-9.8-1.6-19,5-20.6,14.8l-54.7,331.3c-1.6,9.8,5.1,19.1,14.9,20.7,110.1,17.6,219.7,34.7,329.1,52,9.9,1.6,19.1-5.2,20.6-15.1,15.4-102,36-223.8,53.9-326.6s.5-3.4.5-3.5Z" fill="none"/>
    </clipPath>
  </defs>
  <g id="streets">
    <path id="streets1" data-name="streets" d="M1142.5,624.6c28-95,62.1-213.6,83-306.6,2.9-6.9,6.4-14,10.1-18,36.5,9.5,67,17.2,73.4,18.8v-10.1c-11.3-2.9-54.7-14.1-102.3-26.6-10.2-36.3-25-79.7-36.5-116.8-8.4-25.6-19-57.2-19.5-83.3-.2-14.8,3.8-30.9,7.6-44.9,1.2-4.4,2.4-28.1,4.6-37h-9.6c-12.4,26.6-20,47.7-23.7,74.5-2.9,56.4,26.4,112.1,41.5,168.3-2.1,15.9-7.1,19.6-23.5,23.8-63.5-16.6-86.5-21.4-121.2-34.5-4.7-1.8-9.5-3.3-14.3-4.6-56.5-15.1-563.5-149.2-722.6-189.7,7.5-10.5,11.6-31.3,13.2-37.8h-23.7c-3.3,11.8-5.3,22.9-4.7,33.8-19.6-4-30.2-11.8-33.3-3.7-1.4,8.6,12.3,7.2,32.3,13.8-12.5,40.8-98.8,321.1-134.2,427.1-3.9-3.1-8.3-6.1-12.9-7.3-29.3-5.4-92.9-15.7-125.7-20.7-4.4-.7-5.6,6.3-1.1,6.9,37.7,8.7,104.1,10.3,135.5,26.8-18.5,1.7-34.6-5.2-57.1-10.9-3.2-.9-5.7-1.6-7.1-2-2.8-.9-12.9-2.9-58-10.6-6.2-1.1-11.1-1.9-12.1-2.1-4.4-.9-5.8,6.1-1.3,6.9,21.6,3.9,63.7,10.2,76.7,14.5,27.9,7.1,35.8,11.8,57.5,11.3-3.6,7.3-9.7,18.2-12.7,24.7-13.8,53.7-20.9,110.8-30.2,166.5-9.3,54.1-19.1,116.9-27.9,172.8-.4,4.8,1.2,11.5,2.4,18.6-26.1,63.5,22.8,86.7,78.8,100.1,44.2,13.1,82.9,21,136.5,44.1,91.6,34.4,231.3,104.6,359.3,127.4,55.6,9.9,113.5,14,155.1-3.9,51.1-20.5,63.1-59.1,69.9-109.4s16.7-26.6,32.4-24.3c139.4,21.1,275.4,36.8,411.7,79.2v-32.1c-34.1-9.5-41.1-11.9-69.6-14.1-4.3,0-13.5.8-21.1,1.5-50.4-8.7-101.7-17-153.1-25-6.1-1-10.2-6.7-9.2-12.8,7.1-41.4,14.2-90.3,21.3-132.2,63,10.4,146.8,23.6,211.1,34,1.9.3,3.7-1,4-2.9.3-1.9-1-3.7-2.9-4-26-4.2-56.3-9.1-86.5-13.9-4-.6-6.8-4.4-6.2-8.5,4.3-27.4,9.6-60.8,14.2-89.9,1.1-7.2,8.6-11.6,15.5-9.1,22.1,8.1,54.4,19.9,82.4,30.1v-27.5c-65.4-24.4-123.6-46-181-67.9-7.6-2.9-11.7-11-9.6-18.8,2-7.5,4.3-16.1,6.8-25.5,0-.1,3.9-7,7.6-13.5s7.3-15,9.7-23ZM1227.2,297.7c-3,4.2-5.8,9.4-8.3,15.5-3,6.1-5.6,13.1-8.5,19.4,1.1-13.1.6-26.6-1.4-39.7,6.2,1.6,12.3,3.2,18.2,4.8ZM1212.3,346.4c-9.2,39.4-21.9,83.7-34.2,126.8-18.1,57.6-27.1,108.5-45.4,160.4,20-74.7,53.1-199.6,71.1-267.1,2.2-8.5,2.8-13,8.6-20.1ZM1147.4,134.9c-9.3-29-11.3-54.4-3.4-81.8-9.7,38.1,4.8,79,16.6,115.2,10.9,35.2,24.8,76,34.8,110.8-.8-.2-1.7-.4-2.5-.7-14.7-46.1-32-98.8-45.5-143.5ZM1175.6,256.9c2,6.3,4,12.4,5.9,18.5-6.5-1.7-13.1-3.4-19.6-5.1,6.4-2.9,10.8-6.7,13.7-13.3ZM1135.6,274.1c10,2.6,20.1,5.3,30,7.8,5.4,2.4,17.7,2.1,19.9,7.3,8,45.2-7.9,94.1-20.2,138.2-5.8,19.8-11.3,38.4-17.3,59.3-.4,2.3-2.6,3.7-4.7,3.1-.2,0-59.5-19.3-60.9-19.6-.8,0-3.3-2.4-2.5-4.4,14.8-54.1,35.2-129.6,50.6-187.3.3-2.4,2.1-5.2,5-4.4ZM307.7,890.3c-9.8-1.6-16.5-10.8-14.9-20.7l54.7-331.3c1.6-9.8,10.8-16.4,20.6-14.8l313.5,50.9,15.6,2.8c9.7,1.8,16.2,11,14.5,20.8-18,103.4-38.9,226.4-54.4,329.3-1.5,9.9-10.7,16.6-20.6,15.1-109.4-17.3-219-34.4-329.1-52ZM467,936.9c-1.9,11.4-4.1,25-6.2,38.3-2,12.3-5.1,31.7-6.5,40.8s-3.1,4.7-5.8,4.2h0c-2.7-.5-4.5-3-4.1-5.7,2.4-14.7,9.4-59,12.5-79.1.4-2.8,3.1-4.7,5.9-4.2,2.8.4,4.7,3.1,4.2,5.8ZM119,730.8c44,7.3,129.8,21.5,168,27.7,4.2.7,7.1,4.7,6.4,8.9l-16.6,103.9c-1.2,7.4-8.3,12.3-15.6,10.8-33.8-6.8-123.1-20.8-167.4-27-3.7,0-6.4-3.6-5.4-7.2,7.6-36.1,14.1-72.7,20-109.5s5.6-8.5,10.6-7.6ZM112.4,713.3c4.1-26.2,8-52.4,12.1-78.6.8-5.1,5.6-8.5,10.6-7.7,43.9,7.3,130.7,21.7,169,28,4.2.7,7.1,4.7,6.4,8.9-3,18.1-10.4,63.3-13.4,81.3-.7,4.2-4.7,7.1-8.9,6.4-37.9-6.2-124.5-20.5-168.2-27.7-5-.8-8.4-5.5-7.6-10.5ZM411.5,415.2c-1.1-.2-21.6-5.9-33.5-9s-7.1-5.9-5.6-10.3l27.6-85.3c1.1-3.5,4.7-5.4,8.3-4.5l96.2,25.1c3.8,1,6,5,4.8,8.8-18.7,56.3-41.2,122.9-58.4,174.9-1.1,3.2-4.3,5.2-7.6,4.6l-97.4-15.8c-4.1-.7-6.7-4.9-5.4-8.9l24.7-76.1c1.4-4.3,5.9-6.7,10.2-5.6,12.2,3.2,34.7,9.1,35.3,9.1,3.9.1,4.8-6,.9-6.9ZM929.9,630.5c15.9-59,32.3-120.8,48.5-180.1.8-3,3.9-4.7,6.9-3.7l76.8,24.4c4.7,1.5,7.4,6.4,6.1,11.2-13.5,49.5-39.7,148.4-48,179.2-1.4,5.2-7,8-12,6.1-16.9-6.6-52.7-19.7-72.7-27.1-4.2-1.5-6.7-5.6-5.6-9.9ZM923.5,626.8c-1.2,4.5-6,7-10.4,5.4-33-12.2-139.8-54-170.9-62.8-3.7-1.1-5.9-5-4.7-8.7,5.5-17.4,17-61.8,21.1-77.1.8-2.8,3.7-4.4,6.5-3.5l175.9,56c3.6,1.1,5.6,4.9,4.7,8.5-7.5,27.7-14.9,55.1-22.1,82.2ZM1064.9,464.6l-76.2-24.2c-3.9-1.2-6-5.3-4.9-9.2,42.5-137.2,3.5-119.8,116.2-91.1,2.2.9,6,2.8,4,10.4-8.9,32.9-20.4,75.3-29.6,109-1.1,4.1-5.4,6.4-9.5,5.2ZM998.8,349.6c-7.4,26.6-14.8,53.5-22.2,80.6-.9,3.2-4.3,5.1-7.4,4.1l-176.6-56c-3-.9-4.7-4.1-3.9-7.1l19.5-72.8c.8-3.1,4.1-5,7.2-4.2l179.2,48.2c3.2.8,5,4.1,4.1,7.2ZM792.3,385.5l174.7,55.4c3.5,1.1,5.5,4.8,4.5,8.3-6.8,25-13.6,50.1-20.4,75-1,3.9-5.1,6.1-8.9,4.9l-175.8-55.9c-2.6-.8-4.1-3.6-3.4-6.2l20.6-76.7c1-3.7,4.9-5.9,8.6-4.7ZM777.3,386.9l-20.7,77.2c-.8,3-3.9,4.6-6.8,3.7,0,0-104.5-33.2-104.5-33.2-4.3-1.5-6.5,5.4-2.1,6.7l105.2,33.5c2.7.9,4.3,3.7,3.6,6.5-4.1,15.2-15.5,60.2-21.3,77.7-1.4,4.1-5.5,6.6-9.8,6-35.4-5.5-131.2-21.9-166.4-27.4-3-.5-4.9-3.4-4.2-6.3,2.6-10,6.1-20.1,9.2-29.9,8.7-4.4,13.9-10.2,18-20.1,6.7-18.2,33.1-102,37.3-117.8,6.5-26.6-22.2-30.6-29.9,4.6-4.1,11.1-8.7,23.6-11.3,31.8-6.6,28.3-29.7,73.4-20.8,99.3-3.3,10.5-7,21.3-9.7,31.9-.6,2.6-3.2,4.2-5.8,3.8l-74.2-12c-3.8-.6-6.1-4.4-4.9-8.1,20.4-61.6,46.5-138.7,67.9-203.5,1.7-5,7.1-7.8,12.1-6.2l234.9,74.5c3.2,1,5,4.3,4.1,7.5ZM580.4,401.9c2.6-8,7.1-20.5,11.2-31.5,3.4-7.7,5.2-22.2,14.7-20.4,11.2,4-32.4,114.7-35.2,128.7-3.2,7.5-6.7,11.8-12.6,15.2-3.2-28.6,14.9-62.8,22-92ZM515.4,321.4c-.9,2.8-3.8,4.4-6.7,3.6l-98.9-25.8c-3.1-.8-4.9-4-3.9-7.1l28.6-88.5c.9-2.8,3.9-4.4,6.7-3.7l99,26.5c3.1.8,4.8,4,3.9,7-8.1,25.4-18.1,55.8-28.8,87.9ZM897.7,821c8-49.7,16.9-106.3,25.3-159,.7-4.3,5.1-6.8,9.1-5.3,17.4,6.5,53.2,19.7,74.1,27.4,5.6,2,8.9,7.7,8,13.5-6.7,43.9-14.5,93.6-21.9,138.9-.7,4.3-4.7,7.2-9.1,6.5-26.5-4.3-55.9-9.1-79.1-12.9-4.3-.7-7.2-4.7-6.5-9ZM842,198.5c16.8,4.8,33.5,9.7,50.3,14.6,44,10,105.1,32,147.3,36.1s4.1.6,6.1,1.1c22.6,5.9,45.5,12,68.1,18,5,.8,11.2,3.2,9.6,9.4l-13.7,51.1c-1,3.8-5.1,5.9-8.8,4.5-13.2-5.2-38.2-9.8-46.1-13.1-35.4-10.8-43.4-12.6-50.8,10.8-1.1,3.4-4.6,5.3-8.1,4.4l-178-47.8c-3.5-1-5.6-4.6-4.7-8.1l20.5-76.3c1-3.6,4.7-5.7,8.3-4.7ZM477.1,98.2c115.2,30.7,229,61.4,343.8,94.3,4.4,1.3,7,5.8,5.8,10.2-12.7,47.5-32.1,119.8-43.8,163.3-1.2,4.6-6.1,7.3-10.6,5.8l-229.9-73.2c-5.2-1.7-8.1-7.2-6.5-12.4l17.3-56.4c1.2-3.9-1.1-8.1-5.1-9.2l-103.2-27.8c-3.2-.9-5-4.2-4-7.3,4.5-13.7,16.1-49.7,25.9-81.8,1.4-4.2,5.8-6.7,10.1-5.5ZM257.1,137.5c4.4-14.3,8.8-28.5,13.2-42.7,5.4-14.8,8-31.3,14.9-45.3,6.2-3.5,18.7,3.7,26,4.5,49,13.1,97.2,25.9,145.8,38.8,3.1.8,4.8,4,3.8,7.1l-27.6,85.2c-.9,2.8-3.9,4.4-6.7,3.7l-165.6-44.3c-3-.8-4.8-4-3.9-7ZM223.8,244.6c9.4-30,18.7-59.9,27.9-89.8.9-2.9,3.9-4.5,6.7-3.7l165.3,44.3c3.1.8,4.8,4,3.8,7.1l-28.7,88.6c-.9,2.8-3.8,4.4-6.7,3.7l-164.6-43c-3.1-.8-4.8-4-3.9-7ZM190.1,351.6c9.5-29.9,18.9-59.8,28.3-89.7s3.8-4.5,6.7-3.7l164.4,42.9c3.1.8,4.9,4,3.9,7.1l-29.4,87.6c-1.2,3.6-5,5.7-8.7,4.7-28.3-7.4-139.9-36.4-161.3-41.9-3.1-.8-4.8-4-3.9-7ZM153.3,465.9c10.5-32.2,21-64.6,31.3-97,.9-2.8,3.9-4.4,6.7-3.7,33.6,9,137.6,37.1,163.2,43.7,3.1.8,4.9,4,3.9,7.1l-26.1,80.7c-.8,2.6-3.5,4.2-6.2,3.8l-168.5-27.3c-3.4-.5-5.4-4-4.4-7.2ZM146.8,493.9c.1-3.2,3.1-5.8,6.4-5.2,28.9,4.7,148.8,24.1,175.9,28.5,3,.5,5.1,3.3,4.6,6.4-3.4,20.7-15.5,94.2-19.5,118.2-.7,4.2-4.7,7.1-8.9,6.4-38-6.3-125.7-20.8-169.3-28-5-.8-8.4-5.5-7.6-10.5,4.9-39.5,15.4-76.2,18.4-115.7ZM78.1,826.9c19.9-106.9,28.4-217.4,57.1-320.4-13.4,70.6-24.5,147.6-36.8,219.8-7.1,40.7-10.1,90-23.6,125.4-.9,0,3.3-23.8,3.3-24.8ZM284.6,1000.4c-44-19.1-83.9-29.7-115.9-38.2-60.1-18.4-113.1-23.9-95-86.7,20,3.9,35.8,3.7,54.7,4s17.5.9,26.2,2.3c23.5,3.8,47.1,7.7,70.9,11.5,3.7.6,6.2,4.1,5.6,7.8-3.1,19.3-7.2,44.3-10.1,62.6-.9,4.5,6.3,5.6,6.9,1.1,3-18.3,7-43.4,10.1-62.6.6-3.7,4.1-6.2,7.7-5.6,25,4,75.2,12.3,93.8,15.5s7.1,4.7,6.4,8.9c-2.4,16-9.2,51.8-12,68.6s-1.3,8.6-1.7,11.4.6,2.8,2,3.2h0c1.7.6,3.5-.5,3.8-2.3.5-2.8,1.3-6.9,2-10.5,5.1-27,9.7-56.3,11.6-69.5s4.3-6.7,8.3-6.1c14.8,2.2,50,7.5,83.9,12.3,3.7.6,6.2,4.1,5.6,7.7-2,12.6-4.9,30.1-6.9,42.4l-5.6,35.7c-1,6.5,3.3,12.7,9.8,13.9h0c6.7,1.2,13.1-3.3,14.2-10.1,3.3-20.5,9.7-60.9,12.5-78.2.6-3.7,4.1-6.2,7.7-5.6,27.5,4.3,54.7,8.6,82.1,12.9,3.7.6,6.2,4,5.6,7.7-5.2,33.6-11.8,76.8-16.8,109.3-.7,4.5,6.2,5.5,6.9,1.1,5.1-32.5,11.6-75.7,16.8-109.3.6-3.7,4-6.2,7.7-5.6,20.5,3.2,40.9,6.5,61.2,9.7,7.5,1.2,12.7,8,11.9,15.5-5,46.5-24.3,141.8-23.4,144.3-.4,2.1,0,3.8,1,5.5h0c-126.6-25.8-277.1-95.4-349.9-124.7ZM854.8,1014.6c-1.9,15.5-8.8,55.7-20,72.3-31.3,46.2-103.9,55-188.6,40.5,1.1-.8,2.1-1.9,2.6-3.5,0,0,17.1-100.1,24.2-144.9.9-5.8,6.4-9.8,12.3-8.8,13.1,2.2,28,4.5,45,7.2,4.8.8,8,5.2,7.3,10-4.5,29.4-10.3,66.6-14.3,93.2-.3,1.9,1,3.7,2.9,4,1.9.3,3.7-1,4-2.9,4.1-26.6,9.8-63.7,14.3-93,.7-4.8,5.2-8.1,10.1-7.3,27.8,4.5,75.8,12.7,93.3,15.6,4.1.7,7.2,4.2,7.4,8.4s0,5.7-.4,9.2ZM867.6,964.2c-1,6.5-7.2,10.4-13.7,9.4-36.7-5.6-114.2-17.5-167.2-26.5-8.8-1.5-15.1-9.1-13.8-18,2.9-18.5,7.6-48.5,10.9-68.2.7-4.2,4.6-7,8.7-6.3,48.2,7.8,133.5,21.5,180.2,29,4.2.7,7,4.6,6.3,8.7-4.1,25.5-8,49.6-11.6,71.8ZM1032.1,997.5c-.6,3.9-4.6,6.7-8.4,6-46.3-7.2-92.5-14.3-138.3-21.2-7.3-1.1-12.3-8-11.2-15.3,6-37.1,12.8-79.7,20.2-125.3.5-3.3,3.7-5.6,7-5.1,24,4,55,9,82.6,13.5,3.3.5,5.5,3.6,5,7-6.4,39.3-13,79.9-19,118-.8,4.5,6.3,5.6,6.9,1.1,6-38.1,12.6-78.7,19-118s3.7-5.6,7-5c14.4,2.4,32.6,5.6,45.8,7.9,7.6,1.5,4.3,10,3.5,15.3-4.7,27.4-9.1,54.9-13.5,81.6-2.2,13.4-4.4,26.6-6.6,39.5ZM1056.7,930c-4.3,27.5-8.4,53.6-12.5,76.6-1.2-.2-2.3-.4-3.5-.5,17.4-95.2,28.7-196.5,55.3-284.3.8.3,1.6.6,2.4.9-19.1,68.5-30.2,130.7-41.7,207.3ZM1205.1,772.7c-4.8,30.4-10.5,66.6-15.1,95.8-.6,4.1-4.5,6.9-8.6,6.2-35.9-5.8-71.8-11.5-103-16.7,5.4-36.5,16.3-81.7,25.2-116,2.2-8.4,11.2-13.1,19.3-10,24.2,9.1,49.1,18.4,74.7,28,5.2,1.9,8.3,7.2,7.4,12.7ZM1105.3,696.7c-.8-.3-1.5-.6-2.3-.9,20.5-81.8,95.4-346.5,94.8-363.2h0c.7-13.6,1-29-1.9-43.1.8.2,1.6.4,2.4.6,3.9,20.5,3.5,42.3-1,61.6-23.1,86.5-74.2,279.4-92,345ZM1078.5,747.4c-4.9,21.7-11.7,53.2-17.2,79.3-5.9,28.4-6.3,28.4-15.5,26.8-12.5-2.2-26.6-4.5-40.1-6.8-4.3-.7-7.2-4.8-6.5-9,7.3-45,15.2-94.1,21.8-137.8.8-5,6-8.2,10.6-6.2,15.8,6.8,19.8,8.8,38.6,18.4,14,7.1,12.9,14.9,8.3,35.3ZM1026.1,666.5c12.2-52.3,32.6-120.7,48.9-182.2,1.2-4.6,6.1-7.3,10.6-5.8l56,18.1c1.9.6,3,2.6,2.5,4.6-4.3,15.8-8.6,32.2-12.6,49.5-19.4,70.4-33.7,125.1-36.3,131.5-2.9,7.3-8.1,9-14.4,7.5-19.7-4.7-34.2-7.7-49.5-13.6-3.7-1.4-6-5.7-5.1-9.6ZM916.1,661.6c-11.5,71.8-23,143.8-33.3,208.2-.7,4.5-5,7.6-9.5,6.9-46.6-7.4-130.7-21-178.8-28.8-4.6-.7-7.6-5.1-6.8-9.6,13.6-77.6,25.6-164.1,40.1-238.8,1.8-9.1,11.1-14.7,19.9-11.8,23.1,7.4,59.5,22,77.5,28.7,3.8,1.4,5.7,5.5,4.3,9.3-7.4,20.8-16.8,45.9-19.6,66.4,0,0-20.1,124.9-20.1,124.9-.4,2.1,1.3,4.1,3.5,4.1,1.7,0,3.2-1.2,3.5-2.9l20.1-124.9c2.7-20.2,12.2-45.5,19.5-65.9,1.2-3.3,4.9-5.1,8.2-3.8l63,23.6c5.9,2.2,9.5,8.3,8.5,14.5Z"/>
    <path id="streets_stroke" d="M1142.5,624.6c28-95,62.1-213.6,83-306.6,2.9-6.9,6.4-14,10.1-18,36.5,9.5,67,17.2,73.4,18.8v-10.1c-11.3-2.9-54.7-14.1-102.3-26.6-10.2-36.3-25-79.7-36.5-116.8-8.4-25.6-19-57.2-19.5-83.3-.2-14.8,3.8-30.9,7.6-44.9,1.2-4.4,2.4-28.1,4.6-37h-9.6c-12.4,26.6-20,47.7-23.7,74.5-2.9,56.4,26.4,112.1,41.5,168.3-2.1,15.9-7.1,19.6-23.5,23.8-63.5-16.6-86.5-21.4-121.2-34.5-4.7-1.8-9.5-3.3-14.3-4.6-56.5-15.1-563.5-149.2-722.6-189.7,7.5-10.5,11.6-31.3,13.2-37.8h-23.7c-3.3,11.8-5.3,22.9-4.7,33.8-19.6-4-30.2-11.8-33.3-3.7-1.4,8.6,12.3,7.2,32.3,13.8-12.5,40.8-98.8,321.1-134.2,427.1-3.9-3.1-8.3-6.1-12.9-7.3-29.3-5.4-92.9-15.7-125.7-20.7-4.4-.7-5.6,6.3-1.1,6.9,37.7,8.7,104.1,10.3,135.5,26.8-18.5,1.7-34.6-5.2-57.1-10.9-3.2-.9-5.7-1.6-7.1-2-2.8-.9-12.9-2.9-58-10.6-6.2-1.1-11.1-1.9-12.1-2.1-4.4-.9-5.8,6.1-1.3,6.9,21.6,3.9,63.7,10.2,76.7,14.5,27.9,7.1,35.8,11.8,57.5,11.3-3.6,7.3-9.7,18.2-12.7,24.7-13.8,53.7-20.9,110.8-30.2,166.5-9.3,54.1-19.1,116.9-27.9,172.8-.4,4.8,1.2,11.5,2.4,18.6-26.1,63.5,22.8,86.7,78.8,100.1,44.2,13.1,82.9,21,136.5,44.1,91.6,34.4,231.3,104.6,359.3,127.4,55.6,9.9,113.5,14,155.1-3.9,51.1-20.5,63.1-59.1,69.9-109.4s16.7-26.6,32.4-24.3c139.4,21.1,275.4,36.8,411.7,79.2v-32.1c-34.1-9.5-41.1-11.9-69.6-14.1-4.3,0-13.5.8-21.1,1.5-50.4-8.7-101.7-17-153.1-25-6.1-1-10.2-6.7-9.2-12.8,7.1-41.4,14.2-90.3,21.3-132.2,63,10.4,146.8,23.6,211.1,34,1.9.3,3.7-1,4-2.9.3-1.9-1-3.7-2.9-4-26-4.2-56.3-9.1-86.5-13.9-4-.6-6.8-4.4-6.2-8.5,4.3-27.4,9.6-60.8,14.2-89.9,1.1-7.2,8.6-11.6,15.5-9.1,22.1,8.1,54.4,19.9,82.4,30.1v-27.5c-65.4-24.4-123.6-46-181-67.9-7.6-2.9-11.7-11-9.6-18.8,2-7.5,4.3-16.1,6.8-25.5,0-.1,3.9-7,7.6-13.5s7.3-15,9.7-23ZM1227.2,297.7c-3,4.2-5.8,9.4-8.3,15.5-3,6.1-5.6,13.1-8.5,19.4,1.1-13.1.6-26.6-1.4-39.7,6.2,1.6,12.3,3.2,18.2,4.8ZM1212.3,346.4c-9.2,39.4-21.9,83.7-34.2,126.8-18.1,57.6-27.1,108.5-45.4,160.4,20-74.7,53.1-199.6,71.1-267.1,2.2-8.5,2.8-13,8.6-20.1ZM1147.4,134.9c-9.3-29-11.3-54.4-3.4-81.8-9.7,38.1,4.8,79,16.6,115.2,10.9,35.2,24.8,76,34.8,110.8-.8-.2-1.7-.4-2.5-.7-14.7-46.1-32-98.8-45.5-143.5ZM1175.6,256.9c2,6.3,4,12.4,5.9,18.5-6.5-1.7-13.1-3.4-19.6-5.1,6.4-2.9,10.8-6.7,13.7-13.3ZM1135.6,274.1c10,2.6,20.1,5.3,30,7.8,5.4,2.4,17.7,2.1,19.9,7.3,8,45.2-7.9,94.1-20.2,138.2-5.8,19.8-11.3,38.4-17.3,59.3-.4,2.3-2.6,3.7-4.7,3.1-.2,0-59.5-19.3-60.9-19.6-.8,0-3.3-2.4-2.5-4.4,14.8-54.1,35.2-129.6,50.6-187.3.3-2.4,2.1-5.2,5-4.4ZM307.7,890.3c-9.8-1.6-16.5-10.8-14.9-20.7l54.7-331.3c1.6-9.8,10.8-16.4,20.6-14.8l313.5,50.9,15.6,2.8c9.7,1.8,16.2,11,14.5,20.8-18,103.4-38.9,226.4-54.4,329.3-1.5,9.9-10.7,16.6-20.6,15.1-109.4-17.3-219-34.4-329.1-52ZM467,936.9c-1.9,11.4-4.1,25-6.2,38.3-2,12.3-5.1,31.7-6.5,40.8s-3.1,4.7-5.8,4.2h0c-2.7-.5-4.5-3-4.1-5.7,2.4-14.7,9.4-59,12.5-79.1.4-2.8,3.1-4.7,5.9-4.2,2.8.4,4.7,3.1,4.2,5.8ZM119,730.8c44,7.3,129.8,21.5,168,27.7,4.2.7,7.1,4.7,6.4,8.9l-16.6,103.9c-1.2,7.4-8.3,12.3-15.6,10.8-33.8-6.8-123.1-20.8-167.4-27-3.7,0-6.4-3.6-5.4-7.2,7.6-36.1,14.1-72.7,20-109.5s5.6-8.5,10.6-7.6ZM112.4,713.3c4.1-26.2,8-52.4,12.1-78.6.8-5.1,5.6-8.5,10.6-7.7,43.9,7.3,130.7,21.7,169,28,4.2.7,7.1,4.7,6.4,8.9-3,18.1-10.4,63.3-13.4,81.3-.7,4.2-4.7,7.1-8.9,6.4-37.9-6.2-124.5-20.5-168.2-27.7-5-.8-8.4-5.5-7.6-10.5ZM411.5,415.2c-1.1-.2-21.6-5.9-33.5-9s-7.1-5.9-5.6-10.3l27.6-85.3c1.1-3.5,4.7-5.4,8.3-4.5l96.2,25.1c3.8,1,6,5,4.8,8.8-18.7,56.3-41.2,122.9-58.4,174.9-1.1,3.2-4.3,5.2-7.6,4.6l-97.4-15.8c-4.1-.7-6.7-4.9-5.4-8.9l24.7-76.1c1.4-4.3,5.9-6.7,10.2-5.6,12.2,3.2,34.7,9.1,35.3,9.1,3.9.1,4.8-6,.9-6.9ZM929.9,630.5c15.9-59,32.3-120.8,48.5-180.1.8-3,3.9-4.7,6.9-3.7l76.8,24.4c4.7,1.5,7.4,6.4,6.1,11.2-13.5,49.5-39.7,148.4-48,179.2-1.4,5.2-7,8-12,6.1-16.9-6.6-52.7-19.7-72.7-27.1-4.2-1.5-6.7-5.6-5.6-9.9ZM923.5,626.8c-1.2,4.5-6,7-10.4,5.4-33-12.2-139.8-54-170.9-62.8-3.7-1.1-5.9-5-4.7-8.7,5.5-17.4,17-61.8,21.1-77.1.8-2.8,3.7-4.4,6.5-3.5l175.9,56c3.6,1.1,5.6,4.9,4.7,8.5-7.5,27.7-14.9,55.1-22.1,82.2ZM1064.9,464.6l-76.2-24.2c-3.9-1.2-6-5.3-4.9-9.2,42.5-137.2,3.5-119.8,116.2-91.1,2.2.9,6,2.8,4,10.4-8.9,32.9-20.4,75.3-29.6,109-1.1,4.1-5.4,6.4-9.5,5.2ZM998.8,349.6c-7.4,26.6-14.8,53.5-22.2,80.6-.9,3.2-4.3,5.1-7.4,4.1l-176.6-56c-3-.9-4.7-4.1-3.9-7.1l19.5-72.8c.8-3.1,4.1-5,7.2-4.2l179.2,48.2c3.2.8,5,4.1,4.1,7.2ZM792.3,385.5l174.7,55.4c3.5,1.1,5.5,4.8,4.5,8.3-6.8,25-13.6,50.1-20.4,75-1,3.9-5.1,6.1-8.9,4.9l-175.8-55.9c-2.6-.8-4.1-3.6-3.4-6.2l20.6-76.7c1-3.7,4.9-5.9,8.6-4.7ZM777.3,386.9l-20.7,77.2c-.8,3-3.9,4.6-6.8,3.7,0,0-104.5-33.2-104.5-33.2-4.3-1.5-6.5,5.4-2.1,6.7l105.2,33.5c2.7.9,4.3,3.7,3.6,6.5-4.1,15.2-15.5,60.2-21.3,77.7-1.4,4.1-5.5,6.6-9.8,6-35.4-5.5-131.2-21.9-166.4-27.4-3-.5-4.9-3.4-4.2-6.3,2.6-10,6.1-20.1,9.2-29.9,8.7-4.4,13.9-10.2,18-20.1,6.7-18.2,33.1-102,37.3-117.8,6.5-26.6-22.2-30.6-29.9,4.6-4.1,11.1-8.7,23.6-11.3,31.8-6.6,28.3-29.7,73.4-20.8,99.3-3.3,10.5-7,21.3-9.7,31.9-.6,2.6-3.2,4.2-5.8,3.8l-74.2-12c-3.8-.6-6.1-4.4-4.9-8.1,20.4-61.6,46.5-138.7,67.9-203.5,1.7-5,7.1-7.8,12.1-6.2l234.9,74.5c3.2,1,5,4.3,4.1,7.5ZM580.4,401.9c2.6-8,7.1-20.5,11.2-31.5,3.4-7.7,5.2-22.2,14.7-20.4,11.2,4-32.4,114.7-35.2,128.7-3.2,7.5-6.7,11.8-12.6,15.2-3.2-28.6,14.9-62.8,22-92ZM515.4,321.4c-.9,2.8-3.8,4.4-6.7,3.6l-98.9-25.8c-3.1-.8-4.9-4-3.9-7.1l28.6-88.5c.9-2.8,3.9-4.4,6.7-3.7l99,26.5c3.1.8,4.8,4,3.9,7-8.1,25.4-18.1,55.8-28.8,87.9ZM897.7,821c8-49.7,16.9-106.3,25.3-159,.7-4.3,5.1-6.8,9.1-5.3,17.4,6.5,53.2,19.7,74.1,27.4,5.6,2,8.9,7.7,8,13.5-6.7,43.9-14.5,93.6-21.9,138.9-.7,4.3-4.7,7.2-9.1,6.5-26.5-4.3-55.9-9.1-79.1-12.9-4.3-.7-7.2-4.7-6.5-9ZM842,198.5c16.8,4.8,33.5,9.7,50.3,14.6,44,10,105.1,32,147.3,36.1s4.1.6,6.1,1.1c22.6,5.9,45.5,12,68.1,18,5,.8,11.2,3.2,9.6,9.4l-13.7,51.1c-1,3.8-5.1,5.9-8.8,4.5-13.2-5.2-38.2-9.8-46.1-13.1-35.4-10.8-43.4-12.6-50.8,10.8-1.1,3.4-4.6,5.3-8.1,4.4l-178-47.8c-3.5-1-5.6-4.6-4.7-8.1l20.5-76.3c1-3.6,4.7-5.7,8.3-4.7ZM477.1,98.2c115.2,30.7,229,61.4,343.8,94.3,4.4,1.3,7,5.8,5.8,10.2-12.7,47.5-32.1,119.8-43.8,163.3-1.2,4.6-6.1,7.3-10.6,5.8l-229.9-73.2c-5.2-1.7-8.1-7.2-6.5-12.4l17.3-56.4c1.2-3.9-1.1-8.1-5.1-9.2l-103.2-27.8c-3.2-.9-5-4.2-4-7.3,4.5-13.7,16.1-49.7,25.9-81.8,1.4-4.2,5.8-6.7,10.1-5.5ZM257.1,137.5c4.4-14.3,8.8-28.5,13.2-42.7,5.4-14.8,8-31.3,14.9-45.3,6.2-3.5,18.7,3.7,26,4.5,49,13.1,97.2,25.9,145.8,38.8,3.1.8,4.8,4,3.8,7.1l-27.6,85.2c-.9,2.8-3.9,4.4-6.7,3.7l-165.6-44.3c-3-.8-4.8-4-3.9-7ZM223.8,244.6c9.4-30,18.7-59.9,27.9-89.8.9-2.9,3.9-4.5,6.7-3.7l165.3,44.3c3.1.8,4.8,4,3.8,7.1l-28.7,88.6c-.9,2.8-3.8,4.4-6.7,3.7l-164.6-43c-3.1-.8-4.8-4-3.9-7ZM190.1,351.6c9.5-29.9,18.9-59.8,28.3-89.7s3.8-4.5,6.7-3.7l164.4,42.9c3.1.8,4.9,4,3.9,7.1l-29.4,87.6c-1.2,3.6-5,5.7-8.7,4.7-28.3-7.4-139.9-36.4-161.3-41.9-3.1-.8-4.8-4-3.9-7ZM153.3,465.9c10.5-32.2,21-64.6,31.3-97,.9-2.8,3.9-4.4,6.7-3.7,33.6,9,137.6,37.1,163.2,43.7,3.1.8,4.9,4,3.9,7.1l-26.1,80.7c-.8,2.6-3.5,4.2-6.2,3.8l-168.5-27.3c-3.4-.5-5.4-4-4.4-7.2ZM146.8,493.9c.1-3.2,3.1-5.8,6.4-5.2,28.9,4.7,148.8,24.1,175.9,28.5,3,.5,5.1,3.3,4.6,6.4-3.4,20.7-15.5,94.2-19.5,118.2-.7,4.2-4.7,7.1-8.9,6.4-38-6.3-125.7-20.8-169.3-28-5-.8-8.4-5.5-7.6-10.5,4.9-39.5,15.4-76.2,18.4-115.7ZM78.1,826.9c19.9-106.9,28.4-217.4,57.1-320.4-13.4,70.6-24.5,147.6-36.8,219.8-7.1,40.7-10.1,90-23.6,125.4-.9,0,3.3-23.8,3.3-24.8ZM284.6,1000.4c-44-19.1-83.9-29.7-115.9-38.2-60.1-18.4-113.1-23.9-95-86.7,20,3.9,35.8,3.7,54.7,4s17.5.9,26.2,2.3c23.5,3.8,47.1,7.7,70.9,11.5,3.7.6,6.2,4.1,5.6,7.8-3.1,19.3-7.2,44.3-10.1,62.6-.9,4.5,6.3,5.6,6.9,1.1,3-18.3,7-43.4,10.1-62.6.6-3.7,4.1-6.2,7.7-5.6,25,4,75.2,12.3,93.8,15.5s7.1,4.7,6.4,8.9c-2.4,16-9.2,51.8-12,68.6s-1.3,8.6-1.7,11.4.6,2.8,2,3.2h0c1.7.6,3.5-.5,3.8-2.3.5-2.8,1.3-6.9,2-10.5,5.1-27,9.7-56.3,11.6-69.5s4.3-6.7,8.3-6.1c14.8,2.2,50,7.5,83.9,12.3,3.7.6,6.2,4.1,5.6,7.7-2,12.6-4.9,30.1-6.9,42.4l-5.6,35.7c-1,6.5,3.3,12.7,9.8,13.9h0c6.7,1.2,13.1-3.3,14.2-10.1,3.3-20.5,9.7-60.9,12.5-78.2.6-3.7,4.1-6.2,7.7-5.6,27.5,4.3,54.7,8.6,82.1,12.9,3.7.6,6.2,4,5.6,7.7-5.2,33.6-11.8,76.8-16.8,109.3-.7,4.5,6.2,5.5,6.9,1.1,5.1-32.5,11.6-75.7,16.8-109.3.6-3.7,4-6.2,7.7-5.6,20.5,3.2,40.9,6.5,61.2,9.7,7.5,1.2,12.7,8,11.9,15.5-5,46.5-24.3,141.8-23.4,144.3-.4,2.1,0,3.8,1,5.5h0c-126.6-25.8-277.1-95.4-349.9-124.7ZM854.8,1014.6c-1.9,15.5-8.8,55.7-20,72.3-31.3,46.2-103.9,55-188.6,40.5,1.1-.8,2.1-1.9,2.6-3.5,0,0,17.1-100.1,24.2-144.9.9-5.8,6.4-9.8,12.3-8.8,13.1,2.2,28,4.5,45,7.2,4.8.8,8,5.2,7.3,10-4.5,29.4-10.3,66.6-14.3,93.2-.3,1.9,1,3.7,2.9,4,1.9.3,3.7-1,4-2.9,4.1-26.6,9.8-63.7,14.3-93,.7-4.8,5.2-8.1,10.1-7.3,27.8,4.5,75.8,12.7,93.3,15.6,4.1.7,7.2,4.2,7.4,8.4s0,5.7-.4,9.2ZM867.6,964.2c-1,6.5-7.2,10.4-13.7,9.4-36.7-5.6-114.2-17.5-167.2-26.5-8.8-1.5-15.1-9.1-13.8-18,2.9-18.5,7.6-48.5,10.9-68.2.7-4.2,4.6-7,8.7-6.3,48.2,7.8,133.5,21.5,180.2,29,4.2.7,7,4.6,6.3,8.7-4.1,25.5-8,49.6-11.6,71.8ZM1032.1,997.5c-.6,3.9-4.6,6.7-8.4,6-46.3-7.2-92.5-14.3-138.3-21.2-7.3-1.1-12.3-8-11.2-15.3,6-37.1,12.8-79.7,20.2-125.3.5-3.3,3.7-5.6,7-5.1,24,4,55,9,82.6,13.5,3.3.5,5.5,3.6,5,7-6.4,39.3-13,79.9-19,118-.8,4.5,6.3,5.6,6.9,1.1,6-38.1,12.6-78.7,19-118s3.7-5.6,7-5c14.4,2.4,32.6,5.6,45.8,7.9,7.6,1.5,4.3,10,3.5,15.3-4.7,27.4-9.1,54.9-13.5,81.6-2.2,13.4-4.4,26.6-6.6,39.5ZM1056.7,930c-4.3,27.5-8.4,53.6-12.5,76.6-1.2-.2-2.3-.4-3.5-.5,17.4-95.2,28.7-196.5,55.3-284.3.8.3,1.6.6,2.4.9-19.1,68.5-30.2,130.7-41.7,207.3ZM1205.1,772.7c-4.8,30.4-10.5,66.6-15.1,95.8-.6,4.1-4.5,6.9-8.6,6.2-35.9-5.8-71.8-11.5-103-16.7,5.4-36.5,16.3-81.7,25.2-116,2.2-8.4,11.2-13.1,19.3-10,24.2,9.1,49.1,18.4,74.7,28,5.2,1.9,8.3,7.2,7.4,12.7ZM1105.3,696.7c-.8-.3-1.5-.6-2.3-.9,20.5-81.8,95.4-346.5,94.8-363.2h0c.7-13.6,1-29-1.9-43.1.8.2,1.6.4,2.4.6,3.9,20.5,3.5,42.3-1,61.6-23.1,86.5-74.2,279.4-92,345ZM1078.5,747.4c-4.9,21.7-11.7,53.2-17.2,79.3-5.9,28.4-6.3,28.4-15.5,26.8-12.5-2.2-26.6-4.5-40.1-6.8-4.3-.7-7.2-4.8-6.5-9,7.3-45,15.2-94.1,21.8-137.8.8-5,6-8.2,10.6-6.2,15.8,6.8,19.8,8.8,38.6,18.4,14,7.1,12.9,14.9,8.3,35.3ZM1026.1,666.5c12.2-52.3,32.6-120.7,48.9-182.2,1.2-4.6,6.1-7.3,10.6-5.8l56,18.1c1.9.6,3,2.6,2.5,4.6-4.3,15.8-8.6,32.2-12.6,49.5-19.4,70.4-33.7,125.1-36.3,131.5-2.9,7.3-8.1,9-14.4,7.5-19.7-4.7-34.2-7.7-49.5-13.6-3.7-1.4-6-5.7-5.1-9.6ZM916.1,661.6c-11.5,71.8-23,143.8-33.3,208.2-.7,4.5-5,7.6-9.5,6.9-46.6-7.4-130.7-21-178.8-28.8-4.6-.7-7.6-5.1-6.8-9.6,13.6-77.6,25.6-164.1,40.1-238.8,1.8-9.1,11.1-14.7,19.9-11.8,23.1,7.4,59.5,22,77.5,28.7,3.8,1.4,5.7,5.5,4.3,9.3-7.4,20.8-16.8,45.9-19.6,66.4,0,0-20.1,124.9-20.1,124.9-.4,2.1,1.3,4.1,3.5,4.1,1.7,0,3.2-1.2,3.5-2.9l20.1-124.9c2.7-20.2,12.2-45.5,19.5-65.9,1.2-3.3,4.9-5.1,8.2-3.8l63,23.6c5.9,2.2,9.5,8.3,8.5,14.5Z" fill="none" stroke="#fff" stroke-miterlimit="10" stroke-width="2"/>
  </g>
  <g id="blocks">
    <path d="M1135.6,274.1c10,2.6,20.1,5.3,30,7.8,5.4,2.4,17.7,2.1,19.9,7.3,8,45.2-7.9,94.1-20.2,138.2-5.8,19.8-11.3,38.4-17.3,59.3-.4,2.3-2.6,3.7-4.7,3.1-.2,0-59.5-19.3-60.9-19.6-.8,0-3.3-2.4-2.5-4.4,14.8-54.1,35.2-129.6,50.6-187.3.3-2.4,2.1-5.2,5-4.4Z" fill="#333"/>
    <path d="M467,936.9c-1.9,11.4-4.1,25-6.2,38.3-2,12.3-5.1,31.7-6.5,40.8s-3.1,4.7-5.8,4.2h0c-2.7-.5-4.5-3-4.1-5.7,2.4-14.7,9.4-59,12.5-79.1.4-2.8,3.1-4.7,5.9-4.2,2.8.4,4.7,3.1,4.2,5.8Z" fill="#333"/>
    <path d="M119,730.8c44,7.3,129.8,21.5,168,27.7,4.2.7,7.1,4.7,6.4,8.9l-16.6,103.9c-1.2,7.4-8.3,12.3-15.6,10.8-33.8-6.8-123.1-20.8-167.4-27-3.7,0-6.4-3.6-5.4-7.2,7.6-36.1,14.1-72.7,20-109.5s5.6-8.5,10.6-7.6Z" fill="#333"/>
    <path d="M112.4,713.3c4.1-26.2,8-52.4,12.1-78.6.8-5.1,5.6-8.5,10.6-7.7,43.9,7.3,130.7,21.7,169,28,4.2.7,7.1,4.7,6.4,8.9-3,18.1-10.4,63.3-13.4,81.3-.7,4.2-4.7,7.1-8.9,6.4-37.9-6.2-124.5-20.5-168.2-27.7-5-.8-8.4-5.5-7.6-10.5Z" fill="#333"/>
    <path d="M411.5,415.2c-1.1-.2-21.6-5.9-33.5-9s-7.1-5.9-5.6-10.3l27.6-85.3c1.1-3.5,4.7-5.4,8.3-4.5l96.2,25.1c3.8,1,6,5,4.8,8.8-18.7,56.3-41.2,122.9-58.4,174.9-1.1,3.2-4.3,5.2-7.6,4.6l-97.4-15.8c-4.1-.7-6.7-4.9-5.4-8.9l24.7-76.1c1.4-4.3,5.9-6.7,10.2-5.6,12.2,3.2,34.7,9.1,35.3,9.1,3.9.1,4.8-6,.9-6.9Z" fill="#333"/>
    <path d="M929.9,630.5c15.9-59,32.3-120.8,48.5-180.1.8-3,3.9-4.7,6.9-3.7l76.8,24.4c4.7,1.5,7.4,6.4,6.1,11.2-13.5,49.5-39.7,148.4-48,179.2-1.4,5.2-7,8-12,6.1-16.9-6.6-52.7-19.7-72.7-27.1-4.2-1.5-6.7-5.6-5.6-9.9Z" fill="#333"/>
    <path d="M923.5,626.8c-1.2,4.5-6,7-10.4,5.4-33-12.2-139.8-54-170.9-62.8-3.7-1.1-5.9-5-4.7-8.7,5.5-17.4,17-61.8,21.1-77.1.8-2.8,3.7-4.4,6.5-3.5l175.9,56c3.6,1.1,5.6,4.9,4.7,8.5-7.5,27.7-14.9,55.1-22.1,82.2Z" fill="#333"/>
    <path d="M1064.9,464.6l-76.2-24.2c-3.9-1.2-6-5.3-4.9-9.2,42.5-137.2,3.5-119.8,116.2-91.1,2.2.9,6,2.8,4,10.4-8.9,32.9-20.4,75.3-29.6,109-1.1,4.1-5.4,6.4-9.5,5.2Z" fill="#333"/>
    <path d="M998.8,349.6c-7.4,26.6-14.8,53.5-22.2,80.6-.9,3.2-4.3,5.1-7.4,4.1l-176.6-56c-3-.9-4.7-4.1-3.9-7.1l19.5-72.8c.8-3.1,4.1-5,7.2-4.2l179.2,48.2c3.2.8,5,4.1,4.1,7.2Z" fill="#333"/>
    <path d="M792.3,385.5l174.7,55.4c3.5,1.1,5.5,4.8,4.5,8.3-6.8,25-13.6,50.1-20.4,75-1,3.9-5.1,6.1-8.9,4.9l-175.8-55.9c-2.6-.8-4.1-3.6-3.4-6.2l20.6-76.7c1-3.7,4.9-5.9,8.6-4.7Z" fill="#333"/>
    <path d="M777.3,386.9l-20.7,77.2c-.8,3-3.9,4.6-6.8,3.7,0,0-104.5-33.2-104.5-33.2-4.3-1.5-6.5,5.4-2.1,6.7l105.2,33.5c2.7.9,4.3,3.7,3.6,6.5-4.1,15.2-15.5,60.2-21.3,77.7-1.4,4.1-5.5,6.6-9.8,6-35.4-5.5-131.2-21.9-166.4-27.4-3-.5-4.9-3.4-4.2-6.3,2.6-10,6.1-20.1,9.2-29.9,8.7-4.4,13.9-10.2,18-20.1,6.7-18.2,33.1-102,37.3-117.8,6.5-26.6-22.2-30.6-29.9,4.6-4.1,11.1-8.7,23.6-11.3,31.8-6.6,28.3-29.7,73.4-20.8,99.3-3.3,10.5-7,21.3-9.7,31.9-.6,2.6-3.2,4.2-5.8,3.8l-74.2-12c-3.8-.6-6.1-4.4-4.9-8.1,20.4-61.6,46.5-138.7,67.9-203.5,1.7-5,7.1-7.8,12.1-6.2l234.9,74.5c3.2,1,5,4.3,4.1,7.5Z" fill="#333"/>
    <path d="M580.4,401.9c2.6-8,7.1-20.5,11.2-31.5,3.4-7.7,5.2-22.2,14.7-20.4,11.2,4-32.4,114.7-35.2,128.7-3.2,7.5-6.7,11.8-12.6,15.2-3.2-28.6,14.9-62.8,22-92Z" fill="#333"/>
    <path d="M515.4,321.4c-.9,2.8-3.8,4.4-6.7,3.6l-98.9-25.8c-3.1-.8-4.9-4-3.9-7.1l28.6-88.5c.9-2.8,3.9-4.4,6.7-3.7l99,26.5c3.1.8,4.8,4,3.9,7-8.1,25.4-18.1,55.8-28.8,87.9Z" fill="#333"/>
    <path d="M897.7,821c8-49.7,16.9-106.3,25.3-159,.7-4.3,5.1-6.8,9.1-5.3,17.4,6.5,53.2,19.7,74.1,27.4,5.6,2,8.9,7.7,8,13.5-6.7,43.9-14.5,93.6-21.9,138.9-.7,4.3-4.7,7.2-9.1,6.5-26.5-4.3-55.9-9.1-79.1-12.9-4.3-.7-7.2-4.7-6.5-9Z" fill="#333"/>
    <path d="M842,198.5c16.8,4.8,33.5,9.7,50.3,14.6,44,10,105.1,32,147.3,36.1s4.1.6,6.1,1.1c22.6,5.9,45.5,12,68.1,18,5,.8,11.2,3.2,9.6,9.4l-13.7,51.1c-1,3.8-5.1,5.9-8.8,4.5-13.2-5.2-38.2-9.8-46.1-13.1-35.4-10.8-43.4-12.6-50.8,10.8-1.1,3.4-4.6,5.3-8.1,4.4l-178-47.8c-3.5-1-5.6-4.6-4.7-8.1l20.5-76.3c1-3.6,4.7-5.7,8.3-4.7Z" fill="#333"/>
    <path d="M477.1,98.2c115.2,30.7,229,61.4,343.8,94.3,4.4,1.3,7,5.8,5.8,10.2-12.7,47.5-32.1,119.8-43.8,163.3-1.2,4.6-6.1,7.3-10.6,5.8l-229.9-73.2c-5.2-1.7-8.1-7.2-6.5-12.4l17.3-56.4c1.2-3.9-1.1-8.1-5.1-9.2l-103.2-27.8c-3.2-.9-5-4.2-4-7.3,4.5-13.7,16.1-49.7,25.9-81.8,1.4-4.2,5.8-6.7,10.1-5.5Z" fill="#333"/>
    <path d="M257.1,137.5c4.4-14.3,8.8-28.5,13.2-42.7,5.4-14.8,8-31.3,14.9-45.3,6.2-3.5,18.7,3.7,26,4.5,49,13.1,97.2,25.9,145.8,38.8,3.1.8,4.8,4,3.8,7.1l-27.6,85.2c-.9,2.8-3.9,4.4-6.7,3.7l-165.6-44.3c-3-.8-4.8-4-3.9-7Z" fill="#333"/>
    <path d="M223.8,244.6c9.4-30,18.7-59.9,27.9-89.8.9-2.9,3.9-4.5,6.7-3.7l165.3,44.3c3.1.8,4.8,4,3.8,7.1l-28.7,88.6c-.9,2.8-3.8,4.4-6.7,3.7l-164.6-43c-3.1-.8-4.8-4-3.9-7Z" fill="#333"/>
    <path d="M190.1,351.6c9.5-29.9,18.9-59.8,28.3-89.7s3.8-4.5,6.7-3.7l164.4,42.9c3.1.8,4.9,4,3.9,7.1l-29.4,87.6c-1.2,3.6-5,5.7-8.7,4.7-28.3-7.4-139.9-36.4-161.3-41.9-3.1-.8-4.8-4-3.9-7Z" fill="#333"/>
    <path d="M153.3,465.9c10.5-32.2,21-64.6,31.3-97,.9-2.8,3.9-4.4,6.7-3.7,33.6,9,137.6,37.1,163.2,43.7,3.1.8,4.9,4,3.9,7.1l-26.1,80.7c-.8,2.6-3.5,4.2-6.2,3.8l-168.5-27.3c-3.4-.5-5.4-4-4.4-7.2Z" fill="#333"/>
    <path d="M146.8,493.9c.1-3.2,3.1-5.8,6.4-5.2,28.9,4.7,148.8,24.1,175.9,28.5,3,.5,5.1,3.3,4.6,6.4-3.4,20.7-15.5,94.2-19.5,118.2-.7,4.2-4.7,7.1-8.9,6.4-38-6.3-125.7-20.8-169.3-28-5-.8-8.4-5.5-7.6-10.5,4.9-39.5,15.4-76.2,18.4-115.7Z" fill="#333"/>
    <path d="M284.6,1000.4c-44-19.1-83.9-29.7-115.9-38.2-60.1-18.4-113.1-23.9-95-86.7,20,3.9,35.8,3.7,54.7,4s17.5.9,26.2,2.3c23.5,3.8,47.1,7.7,70.9,11.5,3.7.6,6.2,4.1,5.6,7.8-3.1,19.3-7.2,44.3-10.1,62.6-.9,4.5,6.3,5.6,6.9,1.1,3-18.3,7-43.4,10.1-62.6.6-3.7,4.1-6.2,7.7-5.6,25,4,75.2,12.3,93.8,15.5s7.1,4.7,6.4,8.9c-2.4,16-9.2,51.8-12,68.6s-1.3,8.6-1.7,11.4.6,2.8,2,3.2h0c1.7.6,3.5-.5,3.8-2.3.5-2.8,1.3-6.9,2-10.5,5.1-27,9.7-56.3,11.6-69.5s4.3-6.7,8.3-6.1c14.8,2.2,50,7.5,83.9,12.3,3.7.6,6.2,4.1,5.6,7.7-2,12.6-4.9,30.1-6.9,42.4l-5.6,35.7c-1,6.5,3.3,12.7,9.8,13.9h0c6.7,1.2,13.1-3.3,14.2-10.1,3.3-20.5,9.7-60.9,12.5-78.2.6-3.7,4.1-6.2,7.7-5.6,27.5,4.3,54.7,8.6,82.1,12.9,3.7.6,6.2,4,5.6,7.7-5.2,33.6-11.8,76.8-16.8,109.3-.7,4.5,6.2,5.5,6.9,1.1,5.1-32.5,11.6-75.7,16.8-109.3.6-3.7,4-6.2,7.7-5.6,20.5,3.2,40.9,6.5,61.2,9.7,7.5,1.2,12.7,8,11.9,15.5-5,46.5-24.3,141.8-23.4,144.3-.4,2.1,0,3.8,1,5.5h0c-126.6-25.8-277.1-95.4-349.9-124.7Z" fill="#333"/>
    <path d="M854.8,1014.6c-1.9,15.5-8.8,55.7-20,72.3-31.3,46.2-103.9,55-188.6,40.5,1.1-.8,2.1-1.9,2.6-3.5,0,0,17.1-100.1,24.2-144.9.9-5.8,6.4-9.8,12.3-8.8,13.1,2.2,28,4.5,45,7.2,4.8.8,8,5.2,7.3,10-4.5,29.4-10.3,66.6-14.3,93.2-.3,1.9,1,3.7,2.9,4,1.9.3,3.7-1,4-2.9,4.1-26.6,9.8-63.7,14.3-93,.7-4.8,5.2-8.1,10.1-7.3,27.8,4.5,75.8,12.7,93.3,15.6,4.1.7,7.2,4.2,7.4,8.4s0,5.7-.4,9.2Z" fill="#333"/>
    <path d="M867.6,964.2c-1,6.5-7.2,10.4-13.7,9.4-36.7-5.6-114.2-17.5-167.2-26.5-8.8-1.5-15.1-9.1-13.8-18,2.9-18.5,7.6-48.5,10.9-68.2.7-4.2,4.6-7,8.7-6.3,48.2,7.8,133.5,21.5,180.2,29,4.2.7,7,4.6,6.3,8.7-4.1,25.5-8,49.6-11.6,71.8Z" fill="#333"/>
    <path d="M1032.1,997.5c-.6,3.9-4.6,6.7-8.4,6-46.3-7.2-92.5-14.3-138.3-21.2-7.3-1.1-12.3-8-11.2-15.3,6-37.1,12.8-79.7,20.2-125.3.5-3.3,3.7-5.6,7-5.1,24,4,55,9,82.6,13.5,3.3.5,5.5,3.6,5,7-6.4,39.3-13,79.9-19,118-.8,4.5,6.3,5.6,6.9,1.1,6-38.1,12.6-78.7,19-118s3.7-5.6,7-5c14.4,2.4,32.6,5.6,45.8,7.9,7.6,1.5,4.3,10,3.5,15.3-4.7,27.4-9.1,54.9-13.5,81.6-2.2,13.4-4.4,26.6-6.6,39.5Z" fill="#333"/>
    <path d="M1078.5,747.4c-4.9,21.7-11.7,53.2-17.2,79.3-5.9,28.4-6.3,28.4-15.5,26.8-12.5-2.2-26.6-4.5-40.1-6.8-4.3-.7-7.2-4.8-6.5-9,7.3-45,15.2-94.1,21.8-137.8.8-5,6-8.2,10.6-6.2,15.8,6.8,19.8,8.8,38.6,18.4,14,7.1,12.9,14.9,8.3,35.3Z" fill="#333"/>
    <path d="M1026.1,666.5c12.2-52.3,32.6-120.7,48.9-182.2,1.2-4.6,6.1-7.3,10.6-5.8l56,18.1c1.9.6,3,2.6,2.5,4.6-4.3,15.8-8.6,32.2-12.6,49.5-19.4,70.4-33.7,125.1-36.3,131.5-2.9,7.3-8.1,9-14.4,7.5-19.7-4.7-34.2-7.7-49.5-13.6-3.7-1.4-6-5.7-5.1-9.6Z" fill="#333"/>
    <path d="M916.1,661.6c-11.5,71.8-23,143.8-33.3,208.2-.7,4.5-5,7.6-9.5,6.9-46.6-7.4-130.7-21-178.8-28.8-4.6-.7-7.6-5.1-6.8-9.6,13.6-77.6,25.6-164.1,40.1-238.8,1.8-9.1,11.1-14.7,19.9-11.8,23.1,7.4,59.5,22,77.5,28.7,3.8,1.4,5.7,5.5,4.3,9.3-7.4,20.8-16.8,45.9-19.6,66.4,0,0-20.1,124.9-20.1,124.9-.4,2.1,1.3,4.1,3.5,4.1,1.7,0,3.2-1.2,3.5-2.9l20.1-124.9c2.7-20.2,12.2-45.5,19.5-65.9,1.2-3.3,4.9-5.1,8.2-3.8l63,23.6c5.9,2.2,9.5,8.3,8.5,14.5Z" fill="#333"/>
  </g>
  <g id="service">
    <path d="M741.3,521.5l-7.3-2.3-111.1-35.6" fill="none" stroke="#4c4c4c" stroke-linejoin="round" stroke-width="5"/>
    <path d="M935,583.3l-8.4-2.6-11.6-3.7-22.4-7.2-144.4-46.1" fill="none" stroke="#4c4c4c" stroke-linejoin="round" stroke-width="5"/>
    <path d="M767.1,425l-115.1-36.5" fill="none" stroke="#4c4c4c" stroke-linejoin="round" stroke-width="5"/>
    <path d="M961.3,486.8l-137.1-43.7-50.4-16" fill="none" stroke="#4c4c4c" stroke-linejoin="round" stroke-width="5"/>
    <path d="M735.6,861.7l-.5,3.2-6.6,41-.3,1.8-6.9,43.7" fill="none" stroke="#4c4c4c" stroke-linejoin="round" stroke-width="5"/>
    <path d="M781.3,600.4l-9.5,59c-.5,3.1-1.7,6.1-3.4,8.7h0c-1.3,2-2.2,4.2-2.6,6.6l-29.2,180" fill="none" stroke="#4c4c4c" stroke-linejoin="round" stroke-width="5"/>
    <path d="M1024.6,459.2l-38.9,148.2c-.2.7-.2,1.4-.2,2.1v.3c0,.9.4,1.8.8,2.7h0c.7,1.3,1.8,2.3,3.2,2.8l1.2.5c.2,0,.3.1.5.2l37.8,11.6" fill="none" stroke="#4c4c4c" stroke-linejoin="round" stroke-width="5"/>
    <path d="M1060.2,328.8l-33.7,123.7" fill="none" stroke="#4c4c4c" stroke-linejoin="round" stroke-width="5"/>
    <path d="M872.8,930.1c-51.1-7.9-104.1-16.1-144.6-22.4" fill="none" stroke="#4c4c4c" stroke-linejoin="round" stroke-width="5"/>
    <path d="M798.2,335.9l189.9,52" fill="none" stroke="#4c4c4c" stroke-linejoin="round" stroke-width="5"/>
    <path d="M284.6,390.3l-10.8,32.8-4.3,13-1,3-16.6,49.4" fill="none" stroke="#4c4c4c" stroke-linejoin="round" stroke-width="5"/>
    <path d="M352.7,291.5l-12.7,40.1c-.9,2.9-4,4.5-6.9,3.6l-22.9-7.1c-3.7-1.2-7.7,1-8.8,4.8v.2c0,0-15,51.3-15,51.3" fill="none" stroke="#4c4c4c" stroke-linejoin="round" stroke-width="5"/>
    <path d="M101.7,778.5l3.4.6,12.1,2,111.3,18.6" fill="none" stroke="#4c4c4c" stroke-linejoin="round" stroke-width="5"/>
    <path d="M204.2,307.2l97.2,26" fill="none" stroke="#4c4c4c" stroke-linejoin="round" stroke-width="5"/>
    <path d="M264,591.6l6.2-40.2" fill="none" stroke="#4c4c4c" stroke-linecap="round" stroke-linejoin="round" stroke-width="5"/>
    <path d="M266.1,592l-2.1-.4-119.3-19.2-6.4-1-3.5-.6" fill="none" stroke="#4c4c4c" stroke-linejoin="round" stroke-width="5"/>
    <path d="M237.8,199.8l124.3,33.9,51,13.9" fill="none" stroke="#4c4c4c" stroke-linejoin="round" stroke-width="5"/>
    <path d="M119.6,674.7l2.8.7,127.5,20.9" fill="none" stroke="#4c4c4c" stroke-linejoin="round" stroke-width="5"/>
    <path d="M1011.8,709.2l-3.6-1.2-26.2-8.4-11.8-1.8-3.2.4-1.5,1.9-15.3,91.8" fill="none" stroke="#4c4c4c" stroke-linejoin="round" stroke-width="5"/>
    <path d="M738.7,1025.8l28.1,4.5c2.2.3,4,1.8,4.8,3.8l1.6,4.1c.9,2.2,2.8,3.8,5.2,4.2l69.7,12.3" fill="none" stroke="#4c4c4c" stroke-linejoin="round" stroke-width="5"/>
    <path d="M603.6,545.4l5.8-17.1,26-85.4,18.3-60.1c1.4-4.7-1.2-9.6-5.8-11.1l-32.5-10.6" fill="none" stroke="#4c4c4c" stroke-linejoin="round" stroke-width="5"/>
    <path d="M588.4,357.3l-27.3-8.3c-6.9-2.1-14.3,1.6-16.7,8.5l-58,169" fill="none" stroke="#4c4c4c" stroke-linejoin="round" stroke-width="5"/>
    <path d="M268.5,439.1l-84.1-22.1-14.1-3.8" fill="none" stroke="#4c4c4c" stroke-linejoin="round" stroke-width="5"/>
    <path d="M353.1,455.3l21.4,3.8,52.6,9.4,36.7,6.6" fill="none" stroke="#4c4c4c" stroke-linejoin="round" stroke-width="5"/>
    <path d="M344.4,459.4l-23.7-7.4-51.2-15.9" fill="none" stroke="#4c4c4c" stroke-linejoin="round" stroke-width="5"/>
    <path d="M822.7,244.4l184.5,48.6c.3,0,.7.2,1,.2h0c1.1.2,2.1.3,3.2.3h.6c.7,0,1.4-.1,2-.2l2.5-.4,3.2-.4h0c3.3.2,6.6.7,9.8,1.6l11.4,3.1,20.1,5.4,52.1,13.8" fill="none" stroke="#4c4c4c" stroke-linejoin="round" stroke-width="5"/>
    <path d="M1131.7,481.9c4.1-16.2,14-48.5,16.3-62.3-.5-2.4-2.4-11.4-1.9-13.9,0,0,15.5-56.1,15.5-56.1" fill="none" stroke="#4c4c4c" stroke-linecap="round" stroke-linejoin="round" stroke-width="5"/>
    <path d="M1046.6,587.4c8.3,2.5,32.6,10.1,39.1,12.1s1.1.3,1.7.3h.5c.8,0,1.6-.2,2.3-.5h0c1.4-.6,2.6-1.8,3.1-3.3,4-10.4,8.4-34.8,12.5-42.4,2.5-4.5,7.9-13.5,10.7-17.9,2.9-3.6,9.7-30,12.5-41" fill="none" stroke="#4c4c4c" stroke-linejoin="round" stroke-width="5"/>
    <path d="M615.4,1024.5l26,4.6,7.3,1.2" fill="none" stroke="#4c4c4c" stroke-linejoin="round" stroke-width="5"/>
    <path d="M516.3,939.4l-9.7,63.2-6.4,41.2c-.3,2,.5,3.9,2.2,5.1l1.3.9c2.5,1.7,5.2,3,8.2,3.7l40.5,10.1" fill="none" stroke="#4c4c4c" stroke-linejoin="round" stroke-width="5"/>
    <path d="M1011.9,698.2c-14.8-5.2-64.9-22.7-74.3-25.9s-1.6-.4-2.4-.4h0c-1.1,0-2.1.2-3.1.7s-.3.1-.4.2c-2,.9-4.2,1.3-6.4,1.1s-2.6-.4-3.9-.6" fill="none" stroke="#4c4c4c" stroke-linejoin="round" stroke-width="5"/>
    <path d="M831.5,666.8c9.9,1,25.3,1.9,35.1,3.7,11.3,1.7,27.1,6.5,38.5,8.3l3.7.6,4.2.6" fill="none" stroke="#4c4c4c" stroke-linejoin="round" stroke-width="5"/>
    <path d="M823.6,665.3c2.7.5,5.6,1.1,7.9,1.5" fill="none" stroke="#4c4c4c" stroke-linejoin="round" stroke-width="5"/>
    <path d="M796.8,818s90.5,14.6,90.5,14.6" fill="none" stroke="#4c4c4c" stroke-linejoin="round" stroke-width="5"/>
    <path d="M641.4,1029.1l9.5-64.4" fill="none" stroke="#4c4c4c" stroke-linejoin="round" stroke-width="5"/>
    <path d="M222.3,837.5l56.5,9.4" fill="none" stroke="#4c4c4c" stroke-linejoin="round" stroke-width="5"/>
    <path d="M258.8,638l5.4-47.7" fill="none" stroke="#4c4c4c" stroke-linejoin="round" stroke-width="5"/>
    <path d="M241.8,744l.7-4.1,7.5-43.5,7.2-44.9.7-4.1" fill="none" stroke="#4c4c4c" stroke-linejoin="round" stroke-width="5"/>
    <path d="M215.6,874.9l1.1-6.4,11.8-68.8,1.7-2c1.6-1.9,2.7-4.2,3.2-6.7l6.4-35.6.8-4.5" fill="none" stroke="#4c4c4c" stroke-linejoin="round" stroke-width="5"/>
    <path d="M175.5,563.4l-26.7-4.4-1.3.2-.8,1-2,12.2" fill="none" stroke="#4c4c4c" stroke-linecap="round" stroke-linejoin="round" stroke-width="5"/>
    <path d="M226.6,966.9c.7.6,1.5,1,2.5,1.2l2.3.6,66.5,11.2" fill="none" stroke="#4c4c4c" stroke-linecap="round" stroke-linejoin="round" stroke-width="5"/>
    <path d="M162.8,883.1l-.8,5-5.5,35.7-1,6.5-.4,2.5c-.4,2.7-.2,5.5.7,8.2h0c16.5,2.8,48.3,8.2,66.9,11.4" fill="none" stroke="#4c4c4c" stroke-linejoin="round" stroke-width="5"/>
    <path d="M506.6,1002.6l53.8,8.6" fill="none" stroke="#4c4c4c" stroke-linejoin="round" stroke-width="5"/>
    <path d="M427.2,468.5l31.8-94.3,16.7-50.4" fill="none" stroke="#4c4c4c" stroke-linejoin="round" stroke-width="5"/>
    <path d="M427.8,311.2l-13.6,44.3c-.9,2.8.7,5.8,3.5,6.7,11.9,3.9,41.3,11.9,41.3,11.9" fill="none" stroke="#4c4c4c" stroke-linejoin="round" stroke-width="5"/>
    <path d="M926.9,938.5l8.4-49.9,47.4,7.7" fill="none" stroke="#4c4c4c" stroke-linejoin="round" stroke-width="5"/>
    <path d="M726.5,168.8l-22.5,79.3" fill="none" stroke="#4c4c4c" stroke-linecap="round" stroke-linejoin="round" stroke-width="5"/>
    <path d="M739.2,252.7l8.9-33.5,8.3-31.8" fill="none" stroke="#4c4c4c" stroke-linecap="round" stroke-linejoin="round" stroke-width="5"/>
    <path d="M748.1,219.2l32.7,8.9,36.5,9.9" fill="none" stroke="#4c4c4c" stroke-linejoin="round" stroke-width="5"/>
    <path d="M790.2,191.9l-9.4,36.2-10.2,39.6" fill="none" stroke="#4c4c4c" stroke-linecap="round" stroke-linejoin="round" stroke-width="5"/>
    <path d="M184.4,417l.9-2.7,11.1-35.3,3.4-11.4" fill="none" stroke="#4c4c4c" stroke-linejoin="round" stroke-width="5"/>
    <path d="M320.7,452l.7-12.9c0-.2,0-.4,0-.7h0c-.2-.9-.7-1.6-1.5-2h0c-.2-.1-.3-.2-.5-.2l-37.2-11.9-2.9-.4h-2.8c0-.1-2.7-.8-2.7-.8" fill="none" stroke="#4c4c4c" stroke-linejoin="round" stroke-width="5"/>
    <path d="M214.3,316.2l-3.6,11.2-4.6,14.4-2.6,8.3" fill="none" stroke="#4c4c4c" stroke-linecap="round" stroke-linejoin="round" stroke-width="5"/>
    <path d="M198.9,323.8l11.8,3.5" fill="none" stroke="#4c4c4c" stroke-linejoin="round" stroke-width="5"/>
    <path d="M206.1,341.8l-11.7-3.8" fill="none" stroke="#4c4c4c" stroke-linejoin="round" stroke-width="5"/>
    <path d="M802.3,293.5l-62.4-19.1-18.2-5.5-11.1-3.4h-1.6l-1.4.9-1.1,1.4-13,41v1.3c.1,0,.8.5.8.5l9,2.6h1.3c0,.1,1.3-.2,1.3-.2l1-1.2,1-1.9,3.5-6.8.9-1.9.8-1.8,8.6-30.5" fill="none" stroke="#4c4c4c" stroke-linejoin="round" stroke-width="5"/>
    <path d="M883.3,764.1l-18.8-3.1-8.3,50.2,18.7,3.1,8.4-50.2" fill="none" stroke="#4c4c4c" stroke-linejoin="round" stroke-width="5"/>
    <path d="M625.4,325.1l1.1-3.7" fill="none" stroke="#4c4c4c" stroke-linejoin="round" stroke-width="5"/>
    <path d="M626.4,321.5l2.3-1.3,1.1-1.6,1.9-6.3v-2.6c-.1,0-1-2.3-1-2.3l-2.3,1.4-.7,1.3-.5.8-1.8,6.3v1.7c-.1,0,1,2.6,1,2.6" fill="none" stroke="#4c4c4c" stroke-linejoin="round" stroke-width="5"/>
    <path d="M630.7,307.4l6.9-21.3,3-9.3,3-10,5-17.4-50.6-13.8-4.1,14.8" fill="none" stroke="#4c4c4c" stroke-linecap="round" stroke-linejoin="round" stroke-width="5"/>
    <path d="M640.6,276.7l10.6,3,8.2,2.3,17.6,4.9,7.2-28.3-17.8-4.6-17.8-4.7" fill="none" stroke="#4c4c4c" stroke-linejoin="round" stroke-width="5"/>
    <path d="M825.3,491.8l1.3-4.2.6-2.1c0-.1,0-.3.1-.4l.4-1c.2-.5.5-1,.9-1.5h0c.6-.6,1.3-1.1,2.2-1.3h0c.3-.1.6-.2.9-.2l4.1-.3c.7,0,1.3-.3,1.8-.7h0c.2-.2.4-.4.5-.6l.6-.8c.2-.3.4-.7.5-1.1l3-11c0-.3.1-.7.1-1h0c0-.9-.4-1.7-1-2.3h0c-.3-.3-.6-.5-1-.6l-17.2-6.7c-.4-.1-.7-.4-1-.7h0c-.5-.6-.7-1.2-.7-1.9h0c0-.2,0-.5,0-.7l1.3-4.7,1.2-5.1" fill="none" stroke="#4c4c4c" stroke-linejoin="round" stroke-width="5"/>
    <path d="M1175.8,344.9l-58.8-16.1" fill="none" stroke="#4c4c4c" stroke-linejoin="round" stroke-width="5"/>
    <path d="M359.4,170.9l27.1-88.9,2.3-7.2" fill="none" stroke="#4c4c4c" stroke-linejoin="round" stroke-width="5"/>
    <path d="M276.6,148.8l8.4-26.5c1.6-4.9,4.1-9.4,7.5-13.3l11.3-13.1c2.5-2.9,4.3-6.2,5.5-9.8l9.5-30.2" fill="none" stroke="#4c4c4c" stroke-linejoin="round" stroke-width="5"/>
    <path d="M549.9,222.8c2.4-3,3.4-6.3,4.9-9.8s5-12.1,5-12.1c7.1-18.7,18.5-53,25-74" fill="none" stroke="#4c4c4c" stroke-linejoin="round" stroke-width="5"/>
    <path d="M892,215.4l-9.7,35.2" fill="none" stroke="#4c4c4c" stroke-linecap="round" stroke-linejoin="round" stroke-width="5"/>
    <path d="M321.9,170.7l-8.6,28.6" fill="none" stroke="#4c4c4c" stroke-linecap="round" stroke-linejoin="round" stroke-width="5"/>
    <path d="M711,876.8l-4.4,25.5-3.6,21" fill="none" stroke="#4c4c4c" stroke-linecap="round" stroke-linejoin="round" stroke-width="5"/>
    <path d="M728.5,905.9l-21.9-3.6" fill="none" stroke="#4c4c4c" stroke-linejoin="round" stroke-width="5"/>
    <path d="M667.9,173.1l28.2,7.2,5.4-21.2" fill="none" stroke="#4c4c4c" stroke-linejoin="round" stroke-width="5"/>
    <path d="M583.1,166.1l66.3,18.1" fill="none" stroke="#4c4c4c" stroke-linejoin="round" stroke-width="5"/>
    <path d="M419.8,249.4l109.4,30.2" fill="none" stroke="#4c4c4c" stroke-linejoin="round" stroke-width="5"/>
    <path d="M588.2,148.2l66,17.4-4.8,18.6-4.8,18.4-66.7-18.3,5.2-18.2,5.1-17.9-3.7-1.2-5.6-1.5" fill="none" stroke="#4c4c4c" stroke-linejoin="round" stroke-width="5"/>
    <path d="M1147.7,422.9l-52.1-14.5" fill="none" stroke="#4c4c4c" stroke-linejoin="round" stroke-width="5"/>
    <path d="M1036.3,626l5.4,1.4,10.4,2.9,17.4,4.4,7.9-29.5-17.4-4.7-7.9,29.8" fill="none" stroke="#4c4c4c" stroke-linejoin="round" stroke-width="5"/>
    <path d="M1031,936.3l5.1-31.6-42.8-6.8-3.7-.6" fill="none" stroke="#4c4c4c" stroke-linejoin="round" stroke-width="5"/>
    <path d="M337.8,1004.4l2.4.5,31,5.8c.4,0,.7,0,1.1,0h.2c.8-.2,1.5-.7,1.9-1.4h0c.2-.3.3-.6.3-.9l5-24c0-.3.2-.6.3-.9h0c.6-1.2,1.7-2,3-2.2h0c.4,0,.8,0,1.2,0l54.4,9.2,2,.3" fill="none" stroke="#4c4c4c" stroke-linejoin="round" stroke-width="5"/>
    <path d="M117.1,781l-6,35.1-.5,5c-.2,2.1-.4,4.3-.4,6.4v4.1c-.1,0-.3,19.2-.3,19.2v5.6" fill="none" stroke="#4c4c4c" stroke-linejoin="round" stroke-width="5"/>
    <path d="M654.8,1088.2l68.2-3.8,1.1-.9" fill="none" stroke="#4c4c4c" stroke-linejoin="round" stroke-width="5"/>
    <path d="M568.8,1002.1l48.7,8.6-2.1,13.8-8.5,56.5,31.6,7" fill="none" stroke="#4c4c4c" stroke-linejoin="round" stroke-width="5"/>
    <path d="M860.4,928.2l-2.1,12.4" fill="none" stroke="#4c4c4c" stroke-linecap="round" stroke-linejoin="round" stroke-width="5"/>
    <path d="M974.6,946c-28.1-4.4-58.7-9.2-94.5-14.7" fill="none" stroke="#4c4c4c" stroke-linejoin="round" stroke-width="5"/>
    <path d="M1031,936.3l-3.1,17.9-41.5-6.4-4.8-.7" fill="none" stroke="#4c4c4c" stroke-linejoin="round" stroke-width="5"/>
    <path d="M929.4,727.6l3.9-28-10.3-1.4-2.3-.3" fill="none" stroke="#4c4c4c" stroke-linecap="round" stroke-linejoin="round" stroke-width="5"/>
    <path d="M359.2,244.2l2.8-10.6" fill="none" stroke="#4c4c4c" stroke-linecap="round" stroke-linejoin="round" stroke-width="5"/>
    <path d="M385.2,251.2l-26-7-27.3-7.2" fill="none" stroke="#4c4c4c" stroke-linecap="round" stroke-linejoin="round" stroke-width="5"/>
    <path d="M397.3,407.9l11.9-37" fill="none" stroke="#4c4c4c" stroke-linecap="round" stroke-linejoin="round" stroke-width="5"/>
    <path d="M362.5,435.6l17.5,4.8,21.1,6.1" fill="none" stroke="#4c4c4c" stroke-linecap="round" stroke-linejoin="round" stroke-width="5"/>
    <path d="M374.5,459.1l5.5-18.7" fill="none" stroke="#4c4c4c" stroke-linejoin="round" stroke-width="5"/>
    <path d="M117.1,706.9l11.5,2.1" fill="none" stroke="#4c4c4c" stroke-linecap="round" stroke-linejoin="round" stroke-width="5"/>
    <path d="M179.3,934.5l-13.5-2.4-10.2-1.8" fill="none" stroke="#4c4c4c" stroke-linejoin="round" stroke-width="5"/>
    <path d="M177.7,944.7l1.6-10.2,4.3-26.9-13.6-2.2-4.2,26.7" fill="none" stroke="#4c4c4c" stroke-linejoin="round" stroke-width="5"/>
    <path d="M331.7,392.9l9.5-31.3" fill="none" stroke="#4c4c4c" stroke-linecap="round" stroke-linejoin="round" stroke-width="5"/>
    <path d="M604.3,315.7l5.3-16.5" fill="none" stroke="#4c4c4c" stroke-linecap="round" stroke-linejoin="round" stroke-width="5"/>
    <path d="M618.9,259.9l14.8,4.1,9.9,2.7" fill="none" stroke="#4c4c4c" stroke-linecap="round" stroke-linejoin="round" stroke-width="5"/>
    <path d="M666.5,254l-7,28" fill="none" stroke="#4c4c4c" stroke-linejoin="round" stroke-width="5"/>
    <path d="M671.3,159.8l2.3-8.3" fill="none" stroke="#4c4c4c" stroke-linejoin="round" stroke-width="5"/>
    <path d="M667.9,173.1l3.4-13.3" fill="none" stroke="#4c4c4c" stroke-linejoin="round" stroke-width="5"/>
    <path d="M696.1,180.3c7.4,3,14.4-5,17.8-9.6,1.1-1.2,2.2-6.2,2.6-7.7" fill="none" stroke="#4c4c4c" stroke-linejoin="round" stroke-width="5"/>
    <path d="M656,216.8l11.9-43.7" fill="none" stroke="#4c4c4c" stroke-linecap="round" stroke-linejoin="round" stroke-width="5"/>
    <path d="M1086.3,442.2c7.4,1.2,18.8,8.6,22.4-2.3,5.4-13-9.9-11.9-17.7-15.1" fill="none" stroke="#4c4c4c" stroke-linejoin="round" stroke-width="5"/>
    <path d="M953.8,266.4l13.8,3.7,8.1-31.4" fill="none" stroke="#4c4c4c" stroke-linecap="round" stroke-linejoin="round" stroke-width="5"/>
    <path d="M980.2,600.5l-36.1-12.6" fill="none" stroke="#4c4c4c" stroke-linecap="round" stroke-linejoin="round" stroke-width="5"/>
    <path d="M919.3,605.4l7.3-24.7" fill="none" stroke="#4c4c4c" stroke-linecap="round" stroke-linejoin="round" stroke-width="5"/>
    <path d="M892.5,569.8l-4.5,13.7,22.4,7.3,4.5-13.8" fill="none" stroke="#4c4c4c" stroke-linejoin="round" stroke-width="5"/>
    <path d="M852,609.2l3.9-10.9-13.6-4.6c-.3,0-.5-.3-.7-.5h0c-.3-.4-.4-.8-.3-1.3,1-4.3,6.8-23.8,7.9-25.1,2.1-3.6,11.6,1.7,14.4,2,1.8.5,3.1,2.6,2.5,4.5l-6.4,21.1c-.4,1.2-1,2.2-1.8,3.1h0s-1.9.8-1.9.8" fill="none" stroke="#4c4c4c" stroke-linejoin="round" stroke-width="5"/>
    <path d="M899.3,766.6l-6.3-.9-9.7-1.5" fill="none" stroke="#4c4c4c" stroke-linejoin="round" stroke-width="5"/>
    <path d="M998.2,800.1l-48.1-8.2-45.3-8" fill="none" stroke="#4c4c4c" stroke-linejoin="round" stroke-width="5"/>
    <path d="M1059.3,709.8l-1.4,10.9c-.1.8,0,1.6.2,2.3h0c.2.8.7,1.6,1.3,2.2l1.1,1.2c1.2,1.3,2.9,3,2.4,5.8-.9,5.2-9.8,61.1-11.2,70-.1.8-.4,1.5-.9,2.2l-.3.4c-.7,1.1-1.9,2-3.2,2.3h0c-.8.2-1.6.3-2.4.1l-36.4-5.6-3.5-.6" fill="none" stroke="#4c4c4c" stroke-linejoin="round" stroke-width="5"/>
    <path d="M793.4,492l-5.8,17.2" fill="none" stroke="#4c4c4c" stroke-linecap="round" stroke-linejoin="round" stroke-width="5"/>
    <path d="M1158.5,408.4l17.3-63.5,3.1-10.9c.4-1.5.7-3,.9-4.5h0c.2-1.7.3-3.4.2-5.1l-.4-10.6c0-.7-.2-1.3-.5-1.9h0c-.5-.8-1.2-1.4-2-1.8l-1.8-.8" fill="none" stroke="#4c4c4c" stroke-linecap="round" stroke-linejoin="round" stroke-width="5"/>
    <path d="M1061.5,254.5l-4.9,19.3" fill="none" stroke="#4c4c4c" stroke-linejoin="round" stroke-width="5"/>
    <path d="M1067.9,276.8l16.4,4.4" fill="none" stroke="#4c4c4c" stroke-linecap="round" stroke-linejoin="round" stroke-width="5"/>
    <path d="M1040.9,297.1l6.7-25.8" fill="none" stroke="#4c4c4c" stroke-linejoin="round" stroke-width="5"/>
    <path d="M1056.6,273.7l-9-2.4-20.7-5.6-7.2,26.7" fill="none" stroke="#4c4c4c" stroke-linejoin="round" stroke-width="5"/>
    <path d="M1061,302.6l3.5-12.9,3.4-12.8-11.3-3.1" fill="none" stroke="#4c4c4c" stroke-linejoin="round" stroke-width="5"/>
    <path d="M480.7,102.4l-8.5,26.4-17,54.7" fill="none" stroke="#4c4c4c" stroke-linecap="round" stroke-linejoin="round" stroke-width="5"/>
  </g>
  <g id="paths">
    <g clip-path="url(#clippath)">
      <g>
        <path d="M451.5,561.7c-27.9,8.2-44.8,32.2-62,53.7-10.9,14.7-11.8,35.2-14.1,52.7l-1.1,10.5c2.3,8.1,8.1,18.7,11.3,26.5l6.8,16.1c2.4,4.2,8,12.1,11.2,15.8,10.4,11.1,23.4,21.7,35.4,31.1" fill="none" stroke="#ccc" stroke-linecap="round" stroke-linejoin="round" stroke-width="5"/>
        <path d="M373.7,565.2c16.4-4,35.2-7.3,52.1-7,32.8,1.8,73.3,15.3,105.3,21.9,8.1.6,15.2,2.7,21.8,7.7,6.4,4.2,15.7,8.8,22.9,11.4,17.4,5.4,36.9,5.4,54.9,4.4,17.2-1.2,26.8-.8,42.2,8.1" fill="none" stroke="#ccc" stroke-linecap="round" stroke-linejoin="round" stroke-width="5"/>
        <path d="M461.6,792.7c17.2-16-5.5-40.4-22.7-24.6-13.4,15.8,5.9,36.8,22.7,24.6" fill="none" stroke="#ccc" stroke-linecap="round" stroke-linejoin="round" stroke-width="5"/>
        <path d="M512.8,849.4c11.1,1,17.3-1.4,25.9-8.3,1.6-1.6,4.5-4.7,6.4-7s1.7-1.9,2.8-2.7h0c1.3-1,2.8-1.8,4.4-2.4s1.9-.6,2.8-.9c1.5-.4,3-1,4.4-1.7l1.6-.8c.6-.3,1.6-1.7,2.3-2.8s.9-1.5,1.3-2.4c2.4-6.2,3.9-14.2,6.4-20.1,3.7-8.8,10.7-17.8,11.6-27.6.9-9.4-7.7-16.8-13.9-22.6-9.8-8.3-20.7-12.6-33.4-14.1-10.4-1.2-22.4-2.1-32.6.5-2.4-8.1-4.3-18.3-7.1-26.3-1.9-4.9-4.9-11.5-7.8-15.9" fill="none" stroke="#ccc" stroke-linecap="round" stroke-linejoin="round" stroke-width="5"/>
        <path d="M587.9,904.1l-3.5-6.2-3.3-6.8-2.7-5.8-2.4-6-3.4-9.9" fill="none" stroke="#ccc" stroke-linecap="round" stroke-linejoin="round" stroke-width="5"/>
        <path d="M525.2,866.5l7.5,4.2,8.5,5.5,9.6,5.2,8.8,3.7,10.6,3.6,7.8,1.8" fill="none" stroke="#ccc" stroke-linecap="round" stroke-linejoin="round" stroke-width="5"/>
        <path d="M605.8,775l-.9,4.7-1.2,5.6-.9,6.2-.3,6.4-.2,7.1.2,4,1.9,7.8,2.1,6.3" fill="none" stroke="#ccc" stroke-linecap="round" stroke-linejoin="round" stroke-width="5"/>
        <path d="M495.4,710.3c10.7-2.3,23-3,33.9-1.8,14.8,2,33.2,6.7,48,9.3,20.9,4.5,43.9,9.8,61.8,22.1,7.6,4.9,20.4,10.3,20.2,21.1" fill="none" stroke="#ccc" stroke-linecap="round" stroke-linejoin="round" stroke-width="5"/>
        <path d="M662.6,635c3.6,17.9,5.1,38.5,4.9,56.7-1.3,19.1-7.1,39.3-15.5,56.5" fill="none" stroke="#ccc" stroke-linecap="round" stroke-linejoin="round" stroke-width="5"/>
        <path d="M532.3,566.3c-1.2,13-3.1,31-3.4,44.1.6,6.9,2.1,23.8,3.5,30.3,1.3,5,4.4,15,6.3,19.8,3.1,9.6,5.8,25.2,8,35.2,1.2,7-1.3,15.4-2.6,22.2" fill="none" stroke="#ccc" stroke-linecap="round" stroke-linejoin="round" stroke-width="5"/>
        <path d="M467.8,779.9h8.7" fill="none" stroke="#ccc" stroke-linecap="round" stroke-linejoin="round" stroke-width="5"/>
        <path d="M342.5,736.4c1.5,0,4.6-.3,6,0,1.8.9,5.5,2.2,7.5,2.8,7.7,1.8,16.7.8,24.5,0,4.5-.7,8.1.4,12.1,2.5,4.8,1.4,11.1,1.7,16.1,1.1" fill="none" stroke="#ccc" stroke-linecap="round" stroke-linejoin="round" stroke-width="5"/>
        <path d="M614.6,907l-.7,2.6-.5,3.6-.3,3.5-.5,21.7" fill="none" stroke="#ccc" stroke-linecap="round" stroke-linejoin="round" stroke-width="5"/>
        <path d="M596.5,855.4c3.6-5.5,3.8-9.4,2.6-15.7-3.6-.2-4.8-5.1-6-7.8-4-3.6-9.9-5.2-14.9-3-4.2,3-9.6,6.2-14.7,7.3" fill="none" stroke="#ccc" stroke-linecap="round" stroke-linejoin="round" stroke-width="5"/>
        <path d="M599.1,839.8c2.6-.4,5.5-1.6,8.1-2.7s3.4-.9,5.1-.7,2.5.6,3.6,1.1c2.4,1,4.4,2.7,5.9,4.9s1.2,1.7,1.8,2.5c1.7,1.9,4.5,2.5,6.8,1.5s.6-.3.9-.4c1.9-.9,3.1-2.8,3.3-4.9,1.1-11.2-1.7-30.4-16.4-24.8-6.7,5.7-7.7,15.3-19.7,12.5" fill="none" stroke="#ccc" stroke-linecap="round" stroke-linejoin="round" stroke-width="5"/>
        <path d="M514.9,870.4c-1.8-9.8-15.7-8.2-15.2,1.7,1.5,10.1,15.9,8.6,15.2-1.7" fill="none" stroke="#ccc" stroke-linecap="round" stroke-linejoin="round" stroke-width="5"/>
        <path d="M499.8,869.7l-6.6-1.5" fill="none" stroke="#ccc" stroke-linecap="round" stroke-linejoin="round" stroke-width="5"/>
        <path d="M502.2,884.1l-1.3,5.9" fill="none" stroke="#ccc" stroke-linecap="round" stroke-linejoin="round" stroke-width="5"/>
        <path d="M514.7,881.8l-.4,4.2v3.9c0,0,.8,3.2.8,3.2" fill="none" stroke="#ccc" stroke-linecap="round" stroke-linejoin="round" stroke-width="5"/>
        <path d="M529.3,847.3l-2.5,4.6-2.7,5.8-2.7,7-1.7,5.5" fill="none" stroke="#ccc" stroke-linecap="round" stroke-linejoin="round" stroke-width="5"/>
        <path d="M466.9,723.9l5.6,4.6" fill="none" stroke="#ccc" stroke-linecap="round" stroke-linejoin="round" stroke-width="5"/>
        <path d="M464.9,722.4l1.9,1.5" fill="none" stroke="#ccc" stroke-dasharray="1.5 1.5" stroke-linecap="round" stroke-linejoin="round" stroke-width="5"/>
        <path d="M502.5,736.6c.8,3.2,5.1,9.7,6.4,12.8v.9c-1.7,1.7-4.1,3.7-5.9,5.5s-1.2,1.5-1.7,2.3c-2.2,4.3-3,9.9-3,14.5" fill="none" stroke="#ccc" stroke-linecap="round" stroke-linejoin="round" stroke-width="5"/>
        <path d="M562.4,714.8l-3.5,16-1,4.5-.9,3.1c0,.3-.2.6-.3.8l-1.1,2.6" fill="none" stroke="#ccc" stroke-linecap="round" stroke-linejoin="round" stroke-width="5"/>
        <path d="M598.7,828.7c-2.1.2-4.7,1-5.5,3.2" fill="none" stroke="#ccc" stroke-linecap="round" stroke-linejoin="round" stroke-width="5"/>
        <path d="M611.1,841c1.3,5.2,2.6,13.2,6.1,17.4,7.6,8.1,13.4,9,24,9.7" fill="none" stroke="#ccc" stroke-linecap="round" stroke-linejoin="round" stroke-width="5"/>
        <path d="M606.6,823.2l4.5,17.8" fill="none" stroke="#ccc" stroke-linecap="round" stroke-linejoin="round" stroke-width="5"/>
        <path d="M613.2,850l-16.7,5.4" fill="none" stroke="#ccc" stroke-linecap="round" stroke-linejoin="round" stroke-width="5"/>
        <path d="M471.9,916.2c.3-1.7.7-4.3,1.1-7,.7-4.9,3.1-6.5,4.7-8.7.8-4.5,3.2-10.6,5-14.8,3.1-5.3,7.5-11.2,10.4-16.8.3-.5.5-1.1.7-1.6l.5-1.6,1.6-5.5,1.1-5.7.5-4.9s.1-4.3,0-4.3v-3.6" fill="none" stroke="#ccc" stroke-linecap="round" stroke-linejoin="round" stroke-width="5"/>
        <path d="M478.1,917.3c.4-2.5,1-6.4,1.1-7.1.3-5.9-1.5-9.5-1.5-9.5" fill="none" stroke="#ccc" stroke-linecap="round" stroke-linejoin="round" stroke-width="5"/>
        <path d="M299,886.3c8.2-5.6,10.5-6.8,12.9-17.3" fill="none" stroke="#ccc" stroke-linecap="round" stroke-linejoin="round" stroke-width="5"/>
        <path d="M650.1,844c5.3,2.3,13.9,4.3,19.5,5.2" fill="none" stroke="#ccc" stroke-linecap="round" stroke-linejoin="round" stroke-width="5"/>
        <path d="M637.6,918.7c-3.1-9.7-1.8-21.1-.5-31,2.2-14.7,6.9-30.1,13-43.7,2.7-8.1,3-18.5,2.4-27-.4-5.8-1.9-17.4-3-23.1-.9-6.3-.6-13.2,3.6-18.2s1.8-2.3,2.5-3.6c1.9-3.4,3.6-7.4,3.7-11,3,.2,7.1.3,10,.7,1.5,1.2,3.4,2.5,5.4,3.4s2.5,1,3.9,1.2l4.4.7" fill="none" stroke="#ccc" stroke-linecap="round" stroke-linejoin="round" stroke-width="5"/>
        <path d="M684,761.2l-2.5-.5c-1.1-.2-2.2-.3-3.4-.4h0c-1.8,0-3.7,0-5.5.5h0c-.4,0-.9.2-1.3.3l-2,.7" fill="none" stroke="#ccc" stroke-linecap="round" stroke-linejoin="round" stroke-width="5"/>
        <path d="M686.2,599.1c2.9-4.8,6.6-12.3,11-15s5.5-3,7.6-3.5" fill="none" stroke="#ccc" stroke-linecap="round" stroke-linejoin="round" stroke-width="5"/>
        <path d="M295.1,881.7c4.1-5.7,9.9-10.4,16.7-12.5,27.1-31.2,67.9-78.3,98.1-104.5,12.7-11.2,28-24.5,39.4-37.1,18.7-18.5,42.6-37,62.9-53.5,31.6-21.5,72.1-21.6,109.4-28,6.6-1.1,32.1-6.1,35.8-8,13.8-6.9,6.5-21,23.2-35.7,5.6-4.9,14.4-5.8,20.9-9.4s1.8-1.2,2.5-1.9l.5-.6c.3-.4.6-.7.9-1.1l2.1-2.9,1.1-2" fill="none" stroke="#ccc" stroke-linecap="round" stroke-linejoin="round" stroke-width="5"/>
        <path d="M510.4,858.6l2.5-9.2c-8.9-2.1-17.9-8.1-22.3-16.3-6.1-11.2-10.3-31-13.1-43.4-1.2-9.8-1.5-21.7,2.1-31,4.3-9.6,12.6-19,22.9-22.1" fill="none" stroke="#ccc" stroke-linecap="round" stroke-linejoin="round" stroke-width="5"/>
        <path d="M582.3,769.4c6.9,1.9,16.5,4.4,23.5,5.6,4.4.6,10.4.2,14.7.4,9.6,1.2,19.7,5.6,28.6,9.3" fill="none" stroke="#ccc" stroke-linecap="round" stroke-linejoin="round" stroke-width="5"/>
        <path d="M479.6,758.7c-4.8-.7-10.1.4-14.5,2.8s-3.6,2.7-4.8,4.5c-4.9,7.6-17,28.5-17,28.5" fill="none" stroke="#ccc" stroke-linecap="round" stroke-linejoin="round" stroke-width="5"/>
        <path d="M352.9,528.1l.7,1.5,2.1,3.9,2.5,3.6,2.1,2.9" fill="none" stroke="#ccc" stroke-linecap="round" stroke-linejoin="round" stroke-width="5"/>
        <path d="M360.3,539.9l3.4,3.9,4.1,3.8" fill="none" stroke="#ccc" stroke-linecap="round" stroke-linejoin="round" stroke-width="5"/>
        <path d="M357.8,524.9c9.8,6.6,9.2,11,10.1,22.7,6,15,13.3,47.6,22,61.1,8.9,8.1,19.9,16.8,29.2,24.6,4.4,4.2,5.8,11.6,6.8,17.4,1.5,10.1,1.7,22.1,6.5,31.3,8.3,14.4,20.7,28.8,32.6,40.4" fill="none" stroke="#ccc" stroke-linecap="round" stroke-linejoin="round" stroke-width="5"/>
        <path d="M346.2,712.9l-9.6-1.5-5.2.9c-2.4.3-8.7-.8-12.4-1.5" fill="none" stroke="#ccc" stroke-linecap="round" stroke-linejoin="round" stroke-width="5"/>
        <path d="M319.8,706c5.5.9,12.6,2.1,16.8,5.3" fill="none" stroke="#ccc" stroke-linecap="round" stroke-linejoin="round" stroke-width="5"/>
        <path d="M531.6,550c-.3,2.8-.7,6.8-.8,7.6h0s0,1.4,0,1.4c0,1.7.2,3.3.7,4.9s.9,2.4.9,2.4" fill="none" stroke="#ccc" stroke-linecap="round" stroke-linejoin="round" stroke-width="5"/>
        <path d="M538,551.1c-.3,3-.4,5.4-1.6,8.8s-4.1,6.4-4.1,6.4" fill="none" stroke="#ccc" stroke-dasharray="1.5 1.5" stroke-linecap="round" stroke-linejoin="round" stroke-width="5"/>
        <path d="M348.6,736.3l-.6-2-.5-3.3-1-5.9-1.9-7.9" fill="none" stroke="#ccc" stroke-linecap="round" stroke-linejoin="round" stroke-width="5"/>
        <path d="M521.5,864.7l3.7,1.7" fill="none" stroke="#ccc" stroke-linecap="round" stroke-linejoin="round" stroke-width="5"/>
        <path d="M578,890.5l3.2.6" fill="none" stroke="#ccc" stroke-linecap="round" stroke-linejoin="round" stroke-width="5"/>
        <path d="M572.8,869.3l-7.7-25.6-1.7-7.5-2.5-10.5" fill="none" stroke="#ccc" stroke-linecap="round" stroke-linejoin="round" stroke-width="5"/>
        <path d="M572.8,869.3l3.5-4.1,4.2-3.1,5.1-2,10.9-4.7" fill="none" stroke="#ccc" stroke-linecap="round" stroke-linejoin="round" stroke-width="5"/>
        <path d="M596,913.9c.5-4.4,5.4-5.8,5.8-10.2" fill="none" stroke="#ccc" stroke-linecap="round" stroke-linejoin="round" stroke-width="5"/>
        <path d="M374.3,678.7c-4.3,6.2-11.2,14-16.6,19.3-3.7,4.1-9.3,9.7-11.5,14.8-7.2,15.4-2.4,34.3.8,50,3.4,12.1,10.3,37,16,48,1.9,4.3,6.2,14,8.7,18,2.5,3.8,8.3,11.6,11.1,15.2,7.9,11,18.5,22.4,30.6,28.8l4.7,2.3,7.7,1.4c5.2.5,18.5,2.5,23.6,3,21.2,2.8,44.8,9.2,65.7,13.5,6,7.4,22.4,9.4,31.4,11.3,8.2,1.4,19.5,2.8,27.8,1.8,5.5-.7,13.1-2,18.6-2.8,12.8-.8,25.4,4.6,36.5,10.3,2,1.1,6.2,3.5,8.1,4.9,2,3,12.8,20.5,12.8,20.5" fill="none" stroke="#ccc" stroke-linecap="round" stroke-linejoin="round" stroke-width="5"/>
        <path d="M529.3,708.5l-3.6,15.2-1.3,5.8-.5,5.5" fill="none" stroke="#ccc" stroke-linecap="round" stroke-linejoin="round" stroke-width="5"/>
        <path d="M525.7,723.7l16.6,3.6,16.6,3.5" fill="none" stroke="#ccc" stroke-linecap="round" stroke-linejoin="round" stroke-width="5"/>
        <path d="M542.5,726.5l-2.1,10.5" fill="none" stroke="#ccc" stroke-dasharray="1.5 1.5" stroke-linecap="round" stroke-linejoin="round" stroke-width="5"/>
        <path d="M580.5,724l3.4-4.8" fill="none" stroke="#ccc" stroke-linecap="round" stroke-linejoin="round" stroke-width="5"/>
        <path d="M498.4,772.6l-.5,7.8-.3,10.6" fill="none" stroke="#ccc" stroke-linecap="round" stroke-linejoin="round" stroke-width="5"/>
        <path d="M498.4,772.6l-21.7-.9" fill="none" stroke="#ccc" stroke-linecap="round" stroke-linejoin="round" stroke-width="5"/>
        <path d="M577.2,843.7h-12.1" fill="none" stroke="#ccc" stroke-linecap="round" stroke-linejoin="round" stroke-width="5"/>
        <path d="M603.5,838.6v1c1,4.6,1.5,6.8-3.8,8" fill="none" stroke="#ccc" stroke-dasharray="1.5 1.5" stroke-linecap="round" stroke-linejoin="round" stroke-width="5"/>
        <path d="M634.9,835.9l7,.4h3.3c0,0,2.5,0,2.5,0l4.3-.4" fill="none" stroke="#ccc" stroke-linecap="round" stroke-linejoin="round" stroke-width="5"/>
        <path d="M598.7,828.7c-.3-1-1.5-3.3-2.1-4.2-2-5.8-2.1-11.2,3.7-14.6,6.6-2.9,15.9-1.4,18.2,6.3" fill="none" stroke="#ccc" stroke-linecap="round" stroke-linejoin="round" stroke-width="5"/>
        <circle cx="506.4" cy="871.3" r="13.4" fill="none" stroke="#ccc" stroke-linecap="round" stroke-linejoin="round" stroke-width="5"/>
      </g>
    </g>
  </g>
  <g id="sidewalks">
    <path d="M1134.6,276.9h0c0,0,.2,0,.2,0,11.2,2.9,21,5.5,29.8,7.8,2.2.9,5,1.5,8,2,3.6.7,8.9,1.6,10,3.4,7,40.2-5.1,82.8-16.7,124-1.2,4.2-2.4,8.3-3.5,12.4-2,6.7-3.9,13.3-5.8,19.8-3.7,12.6-7.5,25.6-11.5,39.5h0c0,.1,0,.3,0,.3,0,.5-.5.8-.8.8s-.1,0-.2,0h0c-1.2-.4-14.5-4.7-27.3-8.8-22.4-7.3-32.3-10.4-33.5-10.8-.2-.2-.4-.5-.5-.7h0c7-25.7,31.3-114.8,50.6-187.4v-.2c0,0,0-.2,0-.2.1-.9.6-1.9,1.1-1.9M1134.6,273.9c-2.4,0-3.8,2.4-4,4.5-15.4,57.7-35.8,133.2-50.6,187.3-.8,2,1.7,4.4,2.5,4.4s0,0,0,0c1.4.4,60.7,19.6,60.9,19.6.3,0,.7.1,1,.1,1.8,0,3.4-1.3,3.7-3.2,5.9-20.9,11.5-39.4,17.3-59.3,12.2-44.1,28.2-93.1,20.2-138.2-2.2-5.2-14.5-4.9-19.9-7.3-10-2.6-20-5.2-30-7.8-.3,0-.7-.1-1-.1h0Z" fill="#7f7c73"/>
    <path d="M461.8,934h0c.1,0,.2,0,.4,0h0s0,0,0,0c.6,0,1,.4,1.4.8.3.5.5,1,.4,1.6-1.9,11.3-4.1,24.9-6.2,38.3-2,12.1-4.9,30.8-6.5,40.8-.2,1-1,1.7-2,1.7s-.2,0-.4,0c-1.1-.2-1.8-1.2-1.6-2.3,2.2-13.4,9.4-58.9,12.5-79.2.2-1,1-1.8,2.1-1.8M461.8,931c-2.5,0-4.6,1.8-5,4.3-3.1,20.1-10.1,64.4-12.5,79.1-.4,2.7,1.4,5.3,4.1,5.7.3,0,.6,0,.9,0,2.4,0,4.6-1.8,5-4.2,1.4-9.1,4.5-28.5,6.5-40.8,2.2-13.3,4.4-26.9,6.2-38.3.5-2.8-1.4-5.4-4.2-5.8-.3,0-.6,0-.9,0h0Z" fill="#7f7c73"/>
    <path d="M117.5,733.6h0c.3,0,.7,0,1,0,8.7,1.4,19.1,3.2,30.4,5,45.1,7.5,107,17.7,137.6,22.7,1.3.2,2.3.9,3.1,1.9.7,1,1,2.3.8,3.6l-16.6,103.9c-.8,5-5,8.6-10,8.6s-1.3,0-2-.2c-34.5-6.9-125.5-21.2-167.6-27.1h-.2s-.2,0-.2,0c-.8,0-1.6-.4-2.1-1-.5-.7-.7-1.5-.5-2.3h0c0,0,0-.2,0-.2,6.7-31.6,13.1-66.4,20-109.6.5-3,3.1-5.2,6.1-5.2M117.5,730.6c-4.4,0-8.3,3.2-9.1,7.7-5.9,36.8-12.4,73.4-20,109.5-1,3.6,1.7,7.2,5.4,7.2,44.3,6.2,133.6,20.3,167.4,27,.9.2,1.7.3,2.6.3,6.3,0,12-4.6,13-11.1l16.6-103.9c.7-4.2-2.2-8.2-6.4-8.9-38.2-6.2-124-20.4-168-27.7-.5,0-1-.1-1.5-.1h0Z" fill="#7f7c73"/>
    <path d="M133.6,629.9h0c.3,0,.7,0,1,0,13.1,2.2,30,5,48.2,8,44,7.3,93.9,15.6,120.8,20,1.3.2,2.3.9,3.1,1.9.7,1,1,2.3.8,3.5l-5.7,34.6-7.7,46.7c-.4,2.3-2.3,4-4.7,4s-.5,0-.8,0c-38.6-6.3-129.4-21.3-168.2-27.7-3.3-.6-5.6-3.7-5.1-7.1,2.5-15.9,4.9-32,7.3-47.6,1.6-10.3,3.2-20.7,4.7-31,.5-3,3.1-5.3,6.1-5.3M133.6,626.9c-4.5,0-8.4,3.3-9.1,7.8-4,26.2-8,52.5-12.1,78.6-.8,5,2.6,9.7,7.6,10.5,43.7,7.2,130.3,21.6,168.2,27.7.4,0,.8.1,1.3.1,3.7,0,7-2.7,7.6-6.5,3-18,10.4-63.2,13.4-81.3.7-4.2-2.2-8.2-6.4-8.9-38.3-6.3-125.1-20.7-169-28-.5,0-1-.1-1.5-.1h0Z" fill="#7f7c73"/>
    <path d="M406.5,308.8c.3,0,.7,0,1,.1l96.2,25.1c1,.3,1.9.9,2.4,1.9.5.9.6,2,.3,3.1-7.8,23.4-16.4,49-24.7,73.8-11.7,34.8-23.7,70.8-33.7,101.1-.5,1.6-2,2.6-3.7,2.6s-.4,0-.6,0l-97.4-15.8c-1.1-.2-2.1-.8-2.7-1.8-.6-1-.7-2.1-.4-3.2l24.7-76.1c.7-2.3,2.8-3.8,5.2-3.8s.9,0,1.4.2c34.6,9.2,35.5,9.2,36.1,9.2h0s0,0,.1,0c3.2,0,5.9-2.4,6.3-5.8.4-3.4-1.6-6.3-4.8-7h-.1s0,0,0,0c-.9-.2-7.4-2-13.8-3.7-6.5-1.8-13.9-3.8-19.5-5.3-1.4-.4-2.5-1.2-3.2-2.5-.7-1.2-.8-2.7-.4-4l27.6-85.3c.5-1.6,2-2.7,3.7-2.7M406.5,305.8c-2.9,0-5.6,1.9-6.5,4.7l-27.6,85.3c-1.4,4.4,1.1,9.2,5.6,10.3,11.9,3.1,32.4,8.8,33.5,9,3.9.9,3,6.9-.8,6.9s0,0-.1,0c0,0,0,0,0,0-.9,0-23.2-5.8-35.3-9.1-.7-.2-1.5-.3-2.2-.3-3.6,0-6.9,2.3-8.1,5.9l-24.7,76.1c-1.3,4,1.3,8.2,5.4,8.9l97.4,15.8c.4,0,.7,0,1.1,0,2.9,0,5.6-1.9,6.5-4.7,17.2-52,39.7-118.6,58.4-174.9,1.3-3.8-.9-7.8-4.8-8.8l-96.2-25.1c-.6-.2-1.2-.2-1.7-.2h0Z" fill="#7f7c73"/>
    <path d="M983.6,449.4h0c.2,0,.5,0,.7.1l76.8,24.4c3.2,1,5,4.3,4.1,7.5-9.5,34.8-25.2,93.7-36.7,136.7-4.8,18.1-8.9,33.3-11.3,42.5-.7,2.6-3.1,4.5-5.8,4.5s-1.5-.1-2.2-.4c-15.2-5.9-47.5-17.9-72.7-27.1-2.4-.9-4.5-3.3-3.7-6.3,4.9-18.1,9.8-36.5,14.7-55,11.1-41.3,22.5-84,33.7-125.1.3-1.1,1.3-1.8,2.3-1.8M983.6,446.4c-2.4,0-4.6,1.6-5.2,4-16.2,59.3-32.6,121.1-48.5,180.1-1.1,4.3,1.4,8.4,5.6,9.9,20,7.3,55.7,20.5,72.7,27.1,1.1.4,2.2.6,3.3.6,4,0,7.6-2.6,8.7-6.7,8.3-30.8,34.5-129.7,48-179.2,1.3-4.7-1.4-9.7-6.1-11.2l-76.8-24.4c-.5-.2-1.1-.3-1.6-.3h0Z" fill="#7f7c73"/>
    <path d="M763.5,482.8h0c.2,0,.4,0,.6.1l175.9,56c2.1.7,3.2,2.8,2.7,4.9-6.5,24.1-13.6,50.3-22.1,82.2-.6,2.2-2.5,3.7-4.8,3.7s-1.2-.1-1.7-.3c-8.8-3.3-23-8.7-39.4-14.9-45.9-17.5-108.8-41.5-131.7-48-1-.3-1.9-1-2.4-1.9-.5-.9-.6-2-.3-3,4.5-14.1,13-46.3,18-65.6,1.2-4.7,2.3-8.7,3.1-11.7.2-.9,1.1-1.6,2-1.6M763.5,479.8c-2.2,0-4.3,1.5-4.9,3.8-4.1,15.3-15.5,59.7-21.1,77.1-1.2,3.7.9,7.6,4.7,8.7,31.1,8.8,137.9,50.6,170.9,62.8.9.3,1.8.5,2.8.5,3.5,0,6.7-2.3,7.7-5.9,7.3-27.1,14.7-54.5,22.1-82.2,1-3.6-1.1-7.4-4.7-8.5l-175.9-56c-.5-.2-1-.2-1.6-.2h0Z" fill="#7f7c73"/>
    <path d="M1024.9,323.1h0c6.3,0,15.8,2.9,30.2,7.3,11.4,3.5,25.6,7.8,43.9,12.5,1.7.8,3.4,1.7,2.1,6.8-8.1,30-20,73.9-29.6,109-.5,1.9-2.3,3.3-4.3,3.3s-.9,0-1.4-.2l-76.2-24.2c-2.3-.7-3.6-3.1-3-5.5,9.6-31.1,15.1-54.3,19.1-71.2,7.2-30.5,9.3-37.7,19.1-37.7M1024.9,320.1c-19.8,0-14.5,25.4-41.1,111.1-1.1,3.9,1.1,8,4.9,9.2l76.2,24.2c.8.2,1.5.4,2.3.4,3.3,0,6.3-2.2,7.2-5.5,9.2-33.7,20.7-76.1,29.6-109,2.1-7.6-1.8-9.4-4-10.4-42.3-10.8-63.2-19.9-75.1-19.9h0Z" fill="#7f7c73"/>
    <path d="M813.9,297c.3,0,.5,0,.7,0l179.2,48.2c.7.2,1.4.7,1.8,1.4.4.7.5,1.4.3,2.2-7,25.3-14.5,52.4-22.2,80.6-.3,1.2-1.5,2.1-2.8,2.1s-.6,0-.9-.1l-176.6-56c-1.5-.5-2.3-2-1.9-3.5l19.5-72.8c.3-1.3,1.5-2.1,2.8-2.1M813.9,294c-2.6,0-5,1.7-5.7,4.4l-19.5,72.8c-.8,3,.9,6.2,3.9,7.1l176.6,56c.6.2,1.2.3,1.8.3,2.6,0,5-1.7,5.7-4.3,7.4-27,14.8-53.9,22.2-80.6.9-3.1-1-6.4-4.1-7.2l-179.2-48.2c-.5-.1-1-.2-1.5-.2h0Z" fill="#7f7c73"/>
    <path d="M790.2,388.1h0c.4,0,.8,0,1.2.2l174.7,55.4c2,.6,3.1,2.6,2.5,4.6-6.5,23.8-13.2,48.4-20.4,75.1-.5,1.8-2.1,3-3.9,3s-.8,0-1.2-.2l-175.8-55.9c-1.1-.3-1.7-1.5-1.4-2.5l20.6-76.7c.4-1.7,2-2.8,3.7-2.8M790.2,385.1c-3,0-5.8,2-6.6,5l-20.6,76.7c-.7,2.6.8,5.4,3.4,6.2l175.8,55.9c.7.2,1.4.3,2.1.3,3.1,0,5.9-2,6.8-5.2,6.7-25,13.5-50,20.4-75,1-3.5-1-7.2-4.5-8.3l-174.7-55.4c-.7-.2-1.4-.3-2.1-.3h0Z" fill="#7f7c73"/>
    <path d="M535.3,307.5h0c.7,0,1.4.1,2,.3l234.9,74.5c1.6.5,2.6,2.2,2.1,3.9l-20.7,77.2c-.3,1-1.2,1.8-2.3,1.8s-.5,0-.7-.1l-52.2-16.6-35.9-11.4-11.8-3.8-3.3-1.1-.9-.3c0,0-.2,0-.3,0h0c-.7-.2-1.4-.4-2.1-.4-3.1,0-5.8,2.4-6.3,5.7-.5,3.3,1.3,6.1,4.4,7l105.2,33.5c1.2.4,1.9,1.6,1.6,2.9-.9,3.4-2.2,8.2-3.6,13.8-5.2,20-13.1,50.2-17.6,63.7-.8,2.4-3,4-5.5,4s-.6,0-.9,0c-16.8-2.6-46.8-7.6-78.6-12.9-34.1-5.7-69.4-11.6-87.8-14.4-.8-.1-1.3-.6-1.5-.9-.2-.3-.5-.9-.3-1.7,2-7.7,4.6-15.6,7-23.3.6-1.8,1.2-3.6,1.7-5.3,8.7-4.6,14-10.8,18.3-21h0c0,0,0-.1,0-.1,6.7-18.2,33.2-102.2,37.4-118.1h0s0,0,0,0c2-8.1,1.1-15.1-2.5-19.7-2.5-3.1-6-4.9-9.9-4.9h0c-4.8,0-9.7,2.5-13.7,7.1-4.3,4.9-7.6,12-9.5,20.5-4,11-8.6,23.5-11.2,31.7h0c0,.1,0,.2,0,.2-1.9,8.3-5.3,18.1-8.9,28.6-8.5,24.5-18.1,52.3-12.1,71.4-.6,1.9-1.2,3.7-1.8,5.6-2.7,8.4-5.5,17-7.7,25.6-.2.9-1.1,1.6-2.1,1.6s-.2,0-.3,0l-74.2-12c-.9-.2-1.7-.7-2.2-1.5-.5-.8-.6-1.8-.3-2.7,10.1-30.5,21.3-63.9,33.2-99.4,11.8-35.1,23.9-71.4,34.7-104.1.9-2.7,3.5-4.6,6.3-4.6M535.3,304.5c-4.1,0-7.8,2.6-9.2,6.6-21.4,64.8-47.5,141.9-67.9,203.5-1.2,3.6,1.1,7.5,4.9,8.1l74.2,12c.3,0,.6,0,.8,0,2.3,0,4.4-1.6,5-3.9,2.7-10.7,6.4-21.4,9.7-31.9-8.9-25.8,14.3-71,20.8-99.3,2.6-8.2,7.2-20.7,11.3-31.8,3.8-17.7,13-25.5,20.4-25.5,7.3,0,12.8,7.6,9.5,20.9-4.2,15.8-30.6,99.6-37.3,117.8-4.1,9.9-9.3,15.7-18,20.1-3.1,9.8-6.6,20-9.2,29.9-.8,2.9,1.2,5.9,4.2,6.3,35.2,5.4,131,21.8,166.4,27.4.5,0,.9.1,1.4.1,3.8,0,7.2-2.4,8.4-6.1,5.7-17.5,17.2-62.5,21.3-77.7.7-2.8-.8-5.6-3.6-6.5l-105.2-33.5c-3.9-1.2-2.5-6.9,1-6.9.4,0,.8,0,1.2.2,0,0,104.5,33.2,104.5,33.2.5.2,1.1.3,1.6.3,2.4,0,4.5-1.6,5.2-4l20.7-77.2c.9-3.2-1-6.5-4.1-7.5l-234.9-74.5c-1-.3-2-.5-2.9-.5h0Z" fill="#7f7c73"/>
    <path d="M604.6,352.8h0c0,0,.1,0,.2,0,.5,1.6.9,8.4-7,35-5.5,18.6-13.2,40.7-19.4,58.4-5.4,15.6-9.4,27-10.4,31.5-2.1,4.8-4.2,8.1-7.1,10.6-.4-17.4,6.4-37,12.9-55.9,3.6-10.4,7-20.2,9.3-29.7,2.6-8,7.1-20.3,11.1-31.2.8-1.9,1.5-4.1,2.3-6.3,2.3-7,4.3-12.3,8-12.3M604.6,349.8c-8.1,0-9.9,13.3-13.1,20.6-4,11-8.6,23.5-11.2,31.5-7.1,29.3-25.2,63.4-22,92,5.9-3.4,9.4-7.8,12.6-15.2,2.8-14,46.4-124.7,35.2-128.7-.5-.1-1.1-.2-1.6-.2h0Z" fill="#7f7c73"/>
    <path d="M439.9,202.8h0c.2,0,.4,0,.7,0l99,26.5c.7.2,1.2.6,1.6,1.2.3.6.4,1.3.2,2-7.2,22.6-16.6,51.3-28.7,87.8-.3,1-1.3,1.8-2.4,1.8s-.4,0-.6,0l-98.9-25.8c-.7-.2-1.3-.6-1.6-1.2-.3-.6-.4-1.3-.2-2l28.6-88.5c.3-1.1,1.3-1.8,2.4-1.8M439.9,199.8c-2.4,0-4.5,1.5-5.3,3.8l-28.6,88.5c-1,3,.8,6.3,3.9,7.1l98.9,25.8c.5.1.9.2,1.4.2,2.3,0,4.5-1.5,5.3-3.8,10.6-32,20.6-62.5,28.8-87.9,1-3-.8-6.2-3.9-7l-99-26.5c-.5-.1-1-.2-1.4-.2h0Z" fill="#7f7c73"/>
    <path d="M929.8,659.2h0c.5,0,.9,0,1.3.2l7.5,2.8c19.3,7.1,48.4,17.9,66.6,24.6,4.2,1.5,6.7,5.8,6.1,10.3-6.1,40.3-13.9,89.6-21.9,138.9-.4,2.4-2.4,4.1-4.8,4.1s-.5,0-.8,0l-4.5-.7c-24.7-4-52.7-8.6-74.6-12.2-2.6-.4-4.4-2.9-4-5.6,4.6-28.4,9.5-59.8,14.3-90,3.7-23.1,7.4-46.4,11-69,.3-1.9,1.9-3.2,3.8-3.2M929.8,656.2c-3.2,0-6.2,2.3-6.8,5.8-8.4,52.7-17.4,109.3-25.3,159-.7,4.3,2.2,8.3,6.5,9,23.2,3.8,52.6,8.6,79.1,12.9.4,0,.9.1,1.3.1,3.8,0,7.1-2.7,7.8-6.6,7.3-45.3,15.2-95,21.9-138.9.9-5.8-2.5-11.5-8-13.5-20.9-7.6-56.6-20.9-74.1-27.4-.8-.3-1.6-.4-2.4-.4h0Z" fill="#7f7c73"/>
    <path d="M840.2,201.3h0c.3,0,.7,0,1,.1,18.7,5.4,35.1,10.2,50.3,14.6h0s0,0,0,0c15.8,3.6,33.7,8.7,52.6,14.1,33.3,9.5,67.8,19.4,95,22,1.8.2,3.7.5,5.6,1,16.4,4.3,33.1,8.7,49.3,13,6.3,1.7,12.5,3.3,18.8,5h.1s.1,0,.1,0c3.5.6,6,1.7,7,3.1.3.4.6,1.2.3,2.6l-13.7,51.1c-.4,1.6-1.9,2.7-3.5,2.7s-.9,0-1.3-.3c-7.5-3-18.6-5.7-28.3-8.1-7.4-1.8-14.5-3.6-17.8-4.9h-.1s-.1,0-.1,0c-15.9-4.9-26-7.8-33.6-7.8-8.9,0-15.6,3.4-20.9,20.6-.5,1.5-1.9,2.5-3.5,2.5s-.6,0-1-.1l-178-47.8c-1.9-.5-3.1-2.5-2.6-4.5l20.5-76.3c.4-1.6,1.9-2.7,3.5-2.7M840.2,198.3c-2.9,0-5.6,2-6.4,4.9l-20.5,76.3c-1,3.5,1.2,7.2,4.7,8.1l178,47.8c.6.2,1.2.2,1.7.2,2.8,0,5.4-1.8,6.3-4.6,4.2-13.3,8.6-18.5,18.1-18.5,7.2,0,17.4,3,32.7,7.7,8,3.2,32.9,7.8,46.1,13.1.8.3,1.6.5,2.4.5,2.9,0,5.6-1.9,6.4-4.9l13.7-51.1c1.6-6.2-4.6-8.6-9.6-9.4-22.6-6-45.5-12.1-68.1-18-2-.5-4-.9-6.1-1.1-42.2-4.1-103.3-26.1-147.3-36.1-16.8-4.9-33.6-9.8-50.3-14.6-.6-.2-1.2-.3-1.8-.3h0Z" fill="#7f7c73"/>
    <path d="M474.9,100.9h0c.5,0,.9,0,1.4.2,109.7,29.3,227.3,60.9,343.7,94.2,2.8.8,4.5,3.7,3.7,6.6l-11.7,43.5c-11.1,41.4-23.7,88.2-32.1,119.8-.6,2.3-2.8,4-5.2,4s-1.1,0-1.6-.3l-229.9-73.2c-3.6-1.2-5.7-5-4.5-8.7l17.3-56.4c.8-2.7.5-5.5-.8-8-1.4-2.5-3.6-4.2-6.3-5l-103.2-27.8c-.7-.2-1.3-.7-1.7-1.3-.4-.7-.4-1.4-.2-2.1,4.5-13.9,16.1-49.8,25.9-81.8.7-2.2,2.8-3.7,5.1-3.7M474.9,97.9c-3.6,0-6.8,2.3-8,5.8-9.8,32.1-21.5,68.1-25.9,81.8-1,3.1.8,6.4,4,7.3l103.2,27.8c4,1.1,6.3,5.2,5.1,9.2l-17.3,56.4c-1.6,5.2,1.3,10.8,6.5,12.4l229.9,73.2c.8.3,1.7.4,2.5.4,3.7,0,7.1-2.5,8.1-6.2,11.7-43.5,31.1-115.8,43.8-163.3,1.2-4.4-1.4-9-5.8-10.2-114.8-32.8-228.6-63.5-343.8-94.3-.7-.2-1.4-.3-2.2-.3h0Z" fill="#7f7c73"/>
    <path d="M289.3,51.5c3.3,0,7.6,1.4,11.7,2.8,3.4,1.2,6.7,2.2,9.5,2.6,31.1,8.3,62.5,16.7,92.8,24.7,17.6,4.7,35.2,9.4,52.8,14.1.7.2,1.2.6,1.6,1.2.3.6.4,1.3.2,2l-27.6,85.2c-.3,1.1-1.3,1.8-2.4,1.8s-.4,0-.7,0l-165.6-44.3c-.7-.2-1.2-.6-1.6-1.2-.3-.6-.4-1.3-.2-2,4.4-14.2,8.8-28.5,13.2-42.7,2.1-5.9,3.9-12.1,5.5-18.1,2.4-8.7,4.9-17.8,8.7-25.8.6-.2,1.2-.3,2-.3M289.3,48.5c-1.6,0-3,.3-4.2,1-6.9,14-9.5,30.4-14.9,45.3-4.4,14.2-8.8,28.5-13.2,42.7-.9,3,.8,6.2,3.9,7l165.6,44.3c.5.1,1,.2,1.4.2,2.4,0,4.5-1.5,5.3-3.8l27.6-85.2c1-3-.8-6.3-3.8-7.1-48.6-13-96.9-25.8-145.8-38.8-5.9-.7-15.2-5.5-21.8-5.5h0Z" fill="#7f7c73"/>
    <path d="M257,153.9c.2,0,.4,0,.7,0l165.3,44.3c.7.2,1.2.6,1.6,1.2.3.6.4,1.3.2,2l-28.7,88.6c-.3,1.1-1.3,1.8-2.4,1.8s-.4,0-.6,0l-164.6-43c-.7-.2-1.2-.6-1.6-1.2-.3-.6-.4-1.3-.2-2,8.8-28.2,17.9-57.6,27.9-89.8.3-1.1,1.3-1.8,2.4-1.8M257,150.9c-2.4,0-4.6,1.5-5.3,3.9-9.3,29.9-18.6,59.9-27.9,89.8-.9,3,.8,6.2,3.9,7l164.6,43c.5.1.9.2,1.4.2,2.4,0,4.5-1.5,5.3-3.8l28.7-88.6c1-3-.8-6.3-3.8-7.1l-165.3-44.3c-.5-.1-1-.2-1.4-.2h0Z" fill="#7f7c73"/>
    <path d="M223.7,261h0c.2,0,.4,0,.6,0l164.4,42.9c.7.2,1.3.6,1.6,1.2s.4,1.3.2,2l-29.4,87.6c-.6,1.7-2.2,2.9-4,2.9s-.7,0-1.1-.1c-32.5-8.5-140.2-36.5-161.3-41.9-.7-.2-1.2-.6-1.6-1.2-.3-.6-.4-1.3-.2-2,9.1-28.5,18.6-58.7,28.3-89.7.3-1.1,1.3-1.8,2.4-1.8M223.7,258c-2.4,0-4.6,1.5-5.3,3.9-9.4,29.9-18.8,59.8-28.3,89.7-1,3,.8,6.2,3.9,7,21.4,5.5,133,34.5,161.3,41.9.6.2,1.2.2,1.8.2,3,0,5.9-1.9,6.9-5l29.4-87.6c1-3-.8-6.3-3.9-7.1l-164.4-42.9c-.5-.1-.9-.2-1.4-.2h0Z" fill="#7f7c73"/>
    <path d="M189.9,368h0c.2,0,.4,0,.7,0,10.2,2.7,26.7,7.2,45.8,12.3,44.3,11.9,99.5,26.8,117.4,31.4.7.2,1.3.6,1.6,1.2.3.6.4,1.3.2,2l-26.1,80.7c-.3,1.1-1.3,1.8-2.4,1.8s-.3,0-.4,0l-168.5-27.3c-1-.2-1.5-.8-1.7-1.2-.4-.7-.5-1.4-.3-2.1,10.1-30.9,20.6-63.5,31.3-97.1.3-1.1,1.3-1.8,2.4-1.8M189.9,365c-2.4,0-4.5,1.5-5.3,3.9-10.4,32.4-20.8,64.8-31.3,97-1,3.2,1,6.7,4.4,7.2l168.5,27.3c.3,0,.6,0,.9,0,2.4,0,4.5-1.5,5.3-3.8l26.1-80.7c1-3.1-.8-6.3-3.9-7.1-25.7-6.5-129.6-34.7-163.2-43.7-.5-.1-1-.2-1.4-.2h0Z" fill="#7f7c73"/>
    <path d="M152.3,491.5c.1,0,.3,0,.4,0l32.6,5.3,143.3,23.3c.7.1,1.3.5,1.7,1,.4.6.6,1.2.4,1.9l-11.3,68.4-8.2,49.8c-.4,2.3-2.3,4-4.7,4s-.5,0-.8,0c-16.4-2.7-42.1-7-69.5-11.5-36-6-75-12.4-99.8-16.5-3.4-.6-5.6-3.7-5.1-7.1h0s0-.1,0-.1c2.1-16.9,5.3-33.7,8.4-49.9,4.1-21.3,8.3-43.4,10-66h0c0,0,0-.1,0-.1,0-1.3,1.2-2.4,2.5-2.4M152.3,488.5c-2.9,0-5.4,2.4-5.5,5.3-2.9,39.4-13.5,76.2-18.4,115.7-.8,5,2.6,9.7,7.6,10.5,43.6,7.2,131.2,21.7,169.3,28,.4,0,.9.1,1.3.1,3.7,0,7-2.7,7.6-6.5,4-24,16.1-97.5,19.5-118.2.5-3-1.5-5.9-4.6-6.4-27.1-4.4-147-23.9-175.9-28.5-.3,0-.6,0-.9,0h0Z" fill="#7f7c73"/>
    <path d="M75.8,879c17.5,3.1,31.9,3.3,48.4,3.5,1.4,0,2.8,0,4.2,0,8.6.1,17.3.9,25.7,2.2,22.4,3.7,46.2,7.5,70.9,11.5,1,.2,1.9.7,2.5,1.5.6.8.8,1.8.7,2.8-2.8,17.3-6.3,39.2-9.2,56.8l-.9,5.8c-.3,1.9,0,3.7,1.3,5.1,1.2,1.5,3.2,2.4,5.3,2.4,3.3,0,5.9-2.2,6.3-5.4l1.9-11.7c2.7-16.6,5.7-35.5,8.2-50.9.3-1.8,1.9-3.1,3.7-3.1s.4,0,.6,0c25,4,75,12.3,93.8,15.5,2.6.5,4.4,2.9,4,5.5-1.4,9-4.1,24.4-6.8,39.2-2,11.4-4,22.1-5.2,29.4-.6,3.8-1.3,8.3-1.7,11.5-.4,2.8,1.3,5.6,4,6.5h0s0,0,0,0c.6.2,1.2.3,1.9.3,2.9,0,5.3-2.1,5.9-4.9.5-2.8,1.3-6.9,2-10.5,5-26.5,9.5-55,11.7-69.6.3-2.1,2.1-3.7,4.3-3.7s.4,0,.7,0c13.8,2.1,49.7,7.4,83.9,12.3,1,.2,1.9.7,2.5,1.5.6.8.8,1.8.7,2.8-2,12.2-4.7,29-6.7,41.2l-.2,1.2-5.6,35.7c-1.3,8.2,4.1,15.8,12.3,17.3.9.2,1.8.2,2.7.2,7.5,0,13.8-5.4,15-12.8,3.5-21.9,9.8-61.2,12.5-78.2.3-1.8,1.9-3.1,3.7-3.1s.4,0,.6,0c20.3,3.2,40.5,6.4,60.7,9.6l21.4,3.4c2,.3,3.4,2.2,3.1,4.3-2.8,17.9-6,38.6-9,58.7-2.8,18.2-5.4,35.4-7.8,50.7-.3,1.9.2,3.7,1.4,5.1,1.2,1.4,3.1,2.3,5.1,2.3,3.3,0,5.8-2.2,6.4-5.4,2.4-15.2,5-32.3,7.7-50.4,3.1-20.1,6.3-40.9,9.1-58.9.3-1.8,1.9-3.2,3.7-3.2s.4,0,.6,0c20.5,3.2,40.9,6.5,61.2,9.7,5.9.9,10,6.3,9.4,12.2-3,28.5-11.7,76.2-17.4,107.9-5.1,28.2-6.1,34.5-6.1,36.7,0,.6-.1,1.1-.1,1.6-101.9-21.6-219.1-70.9-297.1-103.8-18.3-7.7-34.1-14.4-47.5-19.7-44.2-19.2-84.1-29.8-116.2-38.3-7.4-2.3-14.7-4.3-21.8-6.3-32-9.1-59.7-16.9-70.1-35.6-5.4-9.8-6.1-22.4-1.9-38.4M73.7,875.5c-18,62.8,35,68.3,95,86.7,32,8.5,71.9,19.1,115.9,38.2,72.7,29.2,223.2,98.9,349.9,124.7,0,0,0,0,0,0-1-1.6-1.3-3.3-1-5.5-.9-2.5,18.4-97.8,23.4-144.3.8-7.5-4.4-14.3-11.9-15.5-20.3-3.2-40.7-6.4-61.2-9.7-.4,0-.7,0-1.1,0-3.3,0-6.1,2.4-6.7,5.7-5.2,33.6-11.7,76.8-16.8,109.3-.3,2-1.9,2.9-3.4,2.9s-3.9-1.4-3.5-3.9c5.1-32.5,11.6-75.7,16.8-109.3.6-3.7-1.9-7.1-5.6-7.7-27.4-4.3-54.6-8.6-82.1-12.9-.4,0-.7,0-1.1,0-3.3,0-6.1,2.4-6.7,5.7-2.8,17.3-9.3,57.7-12.5,78.2-1,6-6.1,10.3-12,10.3s-1.5,0-2.2-.2c-6.5-1.2-10.9-7.4-9.8-13.9l5.6-35.7c2-12.3,4.9-29.8,6.9-42.4.6-3.7-1.9-7.2-5.6-7.7-33.9-4.8-69.1-10.1-83.9-12.3-.4,0-.7,0-1.1,0-3.6,0-6.7,2.6-7.2,6.2-2,13.3-6.5,42.6-11.6,69.5-.7,3.6-1.5,7.7-2,10.5-.3,1.4-1.5,2.4-2.9,2.4s-.6,0-.9-.2h0c-1.4-.5-2.2-1.8-2-3.2.4-2.8,1.1-7.5,1.7-11.4,2.8-16.8,9.5-52.6,12-68.6.6-4.2-2.2-8.2-6.4-8.9-18.6-3.2-68.9-11.5-93.8-15.5-.4,0-.7,0-1.1,0-3.3,0-6.1,2.4-6.7,5.7-3.1,19.3-7.2,44.3-10.1,62.6-.3,2-1.8,2.9-3.3,2.9s-4.1-1.5-3.6-4c3-18.3,7-43.3,10.1-62.6.6-3.7-1.9-7.2-5.6-7.8-23.8-3.8-47.4-7.7-70.9-11.5-8.7-1.4-17.4-2.2-26.2-2.3-19-.2-34.8,0-54.7-4h0Z" fill="#7f7c73"/>
    <path d="M683.5,973c.4,0,.9,0,1.3.1,8,1.4,16.7,2.7,25.9,4.2,6.1,1,12.5,2,19.2,3.1,3.1.5,5.3,3.5,4.8,6.6-1.9,12.6-4.1,26.7-6.3,40.7-2.9,18.7-5.8,37.3-8.1,52.5-.5,3.5,1.9,6.9,5.4,7.4.3,0,.7,0,1,0,3.2,0,6-2.4,6.4-5.5,2.3-15.1,5.1-33.5,8-52,2.2-14.1,4.4-28.3,6.3-41,.4-2.8,2.9-4.9,5.7-4.9.3,0,.6,0,.9,0,27.5,4.4,74.4,12.4,93.2,15.6,2.7.5,4.8,2.8,4.9,5.6.1,2.9,0,5.8-.4,8.7-2.3,17.9-9.2,55.8-19.5,71-10.4,15.4-26,27.1-46.5,34.7-19.3,7.2-43,10.9-70.4,10.9s-41-1.9-63.9-5.6c0-.1,0-.2.1-.3v-.2c0,0,.1-.3.1-.3.2-1,17.2-100.7,24.2-145,.6-3.7,3.7-6.4,7.5-6.4M683.5,970c-5.1,0-9.6,3.7-10.5,9-7.1,44.8-24.2,144.9-24.2,144.9-.6,1.5-1.5,2.7-2.6,3.5,24.3,4.2,47.6,6.4,69.2,6.4,53.7,0,97.1-13.9,119.4-46.9,11.2-16.6,18.1-56.8,20-72.3.4-3.5.5-6.7.4-9.2-.2-4.2-3.3-7.7-7.4-8.4-17.4-3-65.4-11.2-93.3-15.6-.5,0-.9-.1-1.4-.1-4.3,0-8,3.1-8.7,7.4-4.5,29.3-10.2,66.4-14.3,93-.3,1.7-1.8,3-3.5,3s-.4,0-.5,0c-1.9-.3-3.2-2.1-2.9-4,4.1-26.6,9.8-63.8,14.3-93.2.7-4.8-2.5-9.2-7.3-10-17-2.8-31.9-5-45-7.2-.6-.1-1.2-.2-1.8-.2h0Z" fill="#7f7c73"/>
    <path d="M691.4,857.6h0c.2,0,.5,0,.8,0,46.5,7.5,131.9,21.3,180.2,29,1.2.2,2.3.9,3,1.9.7,1,1,2.2.8,3.5-4.1,25.5-8,49.6-11.6,71.8-.7,4.1-4.3,7-8.7,7s-1,0-1.5-.1c-49.7-7.6-119.1-18.3-167.1-26.4-7.4-1.3-12.4-7.6-11.3-14.5,2.6-16.8,7.6-48,10.9-68.2.4-2.2,2.3-3.9,4.6-3.9M691.4,854.6c-3.7,0-6.9,2.7-7.5,6.4-3.2,19.8-8,49.8-10.9,68.2-1.4,8.8,5,16.5,13.8,18,53,9,130.5,20.9,167.2,26.5.7.1,1.3.2,2,.2,5.7,0,10.7-3.7,11.7-9.5,3.6-22.2,7.5-46.3,11.6-71.8.7-4.2-2.2-8.1-6.3-8.7-46.7-7.4-132-21.2-180.2-29-.4,0-.8,0-1.2,0h0Z" fill="#7f7c73"/>
    <path d="M900.4,839.6c.2,0,.3,0,.5,0,21.8,3.6,48.7,8,74.8,12.2l7.8,1.3c1.7.3,2.8,1.8,2.5,3.5l-1.1,6.8c-6,37-12.2,75.3-17.9,111.2-.3,1.9.1,3.7,1.3,5.1,1.2,1.5,3.2,2.3,5.2,2.3,3.3,0,5.9-2.2,6.3-5.4,5.6-35.7,11.8-73.8,17.8-110.5l1.2-7.4c.2-1.5,1.5-2.6,3-2.6.2,0,.3,0,.5,0,9.1,1.5,19.6,3.3,29.7,5.1,5.7,1,11.2,1.9,16,2.8,1.8.4,2.2,1.1,2.4,2.3.3,1.8-.3,4.4-.7,6.6-.2,1-.4,2-.5,2.9-3.6,20.9-7,41.9-10.4,62.3-1.1,6.5-2.1,12.9-3.2,19.3-2.7,16.2-4.7,28.3-6.6,39.5h0s0,0,0,0c-.3,1.9-2.3,3.6-4.3,3.6s-.4,0-.6,0h0s0,0,0,0c-46.1-7.2-92.6-14.3-138.3-21.2-2.7-.4-5.2-1.9-6.8-4.1-1.6-2.2-2.3-5-1.9-7.7,6-36.9,12.7-79.1,20.2-125.3.2-1.5,1.5-2.6,3-2.6M900.4,836.6c-2.9,0-5.5,2.1-6,5.1-7.3,45.6-14.2,88.2-20.2,125.3-1.2,7.3,3.8,14.2,11.2,15.3,45.8,6.9,92,14,138.3,21.2.4,0,.8.1,1.2.1,3.5,0,6.7-2.6,7.3-6.1,2.2-12.9,4.4-26.1,6.6-39.5,4.4-26.7,8.8-54.2,13.5-81.6.8-5.3,4-13.7-3.5-15.3-13.2-2.3-31.5-5.5-45.8-7.9-.3,0-.7,0-1,0-2.9,0-5.5,2.1-6,5.1-6.4,39.2-13,79.9-19,118-.3,2-1.8,2.9-3.4,2.9s-4-1.4-3.6-4c6-38.1,12.6-78.8,19-118,.5-3.3-1.7-6.4-5-7-27.6-4.5-58.6-9.5-82.6-13.5-.3,0-.7,0-1,0h0Z" fill="#7f7c73"/>
    <path d="M1028.8,696.1h0c.6,0,1.1.1,1.7.4,15.7,6.8,19.7,8.8,38.5,18.3,12,6.1,11.3,11.7,6.7,32-4.9,21.5-11.6,52.6-17.2,79.3-2.3,11-3.8,18-5.3,21.8-1.2,3.2-1.9,3.2-2.8,3.2s-2.4-.2-4-.5c-9.1-1.6-19.1-3.3-28.9-4.9-3.8-.6-7.5-1.3-11.3-1.9-2.6-.4-4.4-3-4-5.6,7-43.5,15.2-93.9,21.8-137.8.4-2.4,2.4-4.2,4.7-4.2M1028.8,693.1c-3.7,0-7.1,2.8-7.7,6.8-6.6,43.6-14.5,92.8-21.8,137.8-.7,4.3,2.2,8.3,6.5,9,13.5,2.3,27.6,4.6,40.1,6.8,1.8.3,3.3.6,4.5.6,5.1,0,6.2-4.4,11-27.3,5.4-26,12.3-57.5,17.2-79.3,4.6-20.5,5.7-28.2-8.3-35.3-18.8-9.6-22.8-11.6-38.6-18.4-.9-.4-1.9-.6-2.9-.6h0Z" fill="#7f7c73"/>
    <path d="M1083,481.1h0c.6,0,1.1,0,1.6.3l56,18.1c.4.1.6.5.5.9-4.8,17.7-9,33.9-12.6,49.6-7.2,26.1-13.8,50.6-19.2,70.2-9,33.1-15.5,57-17,60.9-1.1,2.8-3,6.1-7.7,6.1s-2.1-.1-3.3-.4c-2.8-.7-5.4-1.3-8-1.9-15.7-3.7-28.2-6.6-41.1-11.6-2.3-.9-3.8-3.7-3.3-6.1,7.6-32.5,18.2-70.5,29.4-110.8,6.6-23.6,13.4-48.1,19.5-71.3.6-2.3,2.7-4,5.2-4M1083,478.1c-3.7,0-7.1,2.5-8.1,6.2-16.2,61.5-36.7,129.9-48.9,182.2-.9,3.9,1.4,8.2,5.1,9.6,15.3,5.8,29.9,8.9,49.5,13.6,1.4.3,2.7.5,4,.5,4.5,0,8.2-2.3,10.5-8,2.6-6.5,16.9-61.1,36.3-131.5,4-17.3,8.3-33.8,12.6-49.5.5-1.9-.6-3.9-2.5-4.6l-56-18.1c-.9-.3-1.7-.4-2.6-.4h0Z" fill="#7f7c73"/>
    <path d="M743,589.9c1.3,0,2.6.2,3.8.6,16.3,5.2,39.3,14.1,57.8,21.2,7.7,3,14.3,5.5,19.6,7.5,2.2.8,3.3,3.3,2.6,5.5-.7,1.8-1.3,3.7-2,5.6-7.1,19.9-15.1,42.4-17.7,61.4h0c0,.4-.2.8-.2,1.3l-.6,4-2.3,14.1-6.9,42.9-10.1,62.4c-.3,1.9.2,3.8,1.4,5.3,1.2,1.5,3,2.3,5,2.3h0c3.2,0,5.9-2.3,6.4-5.5l20.1-124.9h0s0,0,0,0c2.4-17.9,10.2-39.8,17.2-59.1.7-2.1,1.5-4.1,2.2-6.1.5-1.3,1.7-2.2,3.2-2.2.4,0,.8,0,1.2.2l63,23.6c4.6,1.7,7.3,6.4,6.6,11.3-11.3,70.9-22.8,142.9-33.3,208.2-.4,2.6-2.6,4.5-5.2,4.5s-.6,0-.8,0c-48.1-7.7-132.8-21.3-178.8-28.8-1.4-.2-2.6-1-3.5-2.2-.8-1.2-1.1-2.6-.9-4,5.5-31.5,10.9-65,16-97.5,7.6-47.7,15.5-96.9,24-141.3,1.1-5.9,6.3-10.1,12.3-10.1M743,586.9c-7.2,0-13.8,5.1-15.2,12.6-14.5,74.7-26.5,161.3-40.1,238.8-.8,4.5,2.3,8.9,6.8,9.6,48.1,7.8,132.2,21.3,178.8,28.8.4,0,.9.1,1.3.1,4,0,7.5-2.9,8.2-7,10.3-64.4,21.9-136.4,33.3-208.2,1-6.2-2.5-12.3-8.5-14.5l-63-23.6c-.7-.3-1.5-.4-2.2-.4-2.6,0-5.1,1.6-6,4.2-7.2,20.4-16.8,45.7-19.5,65.9l-20.1,124.9c-.3,1.7-1.8,2.9-3.5,2.9,0,0,0,0,0,0-2.1,0-3.8-2-3.4-4.1,0,0,20.1-124.9,20.1-124.9,2.8-20.5,12.2-45.6,19.6-66.4,1.3-3.8-.6-7.9-4.3-9.3-18-6.7-54.4-21.3-77.5-28.7-1.6-.5-3.2-.7-4.7-.7h0Z" fill="#7f7c73"/>
    <path d="M365.2,523.3v3c.8,0,1.6,0,2.4.2l313.5,50.9,15.6,2.8c8.1,1.5,13.5,9.2,12.1,17.3-23.9,137.1-41.7,244.9-54.4,329.4-1.1,7.3-7.4,12.7-14.8,12.7s-1.6,0-2.4-.2c-32.9-5.2-65.8-10.4-98.7-15.6-75.4-11.9-153.4-24.2-230.4-36.5-4-.6-7.4-2.8-9.8-6-2.3-3.3-3.3-7.2-2.6-11.2l54.7-331.3c1.2-7.3,7.4-12.5,14.7-12.5v-3M365.2,523.3c-8.6,0-16.3,6.2-17.7,15l-54.7,331.3c-1.6,9.8,5.1,19.1,14.9,20.7,110.1,17.6,219.7,34.7,329.1,52,1,.2,1.9.2,2.8.2,8.7,0,16.4-6.4,17.7-15.3,15.5-102.9,36.4-225.9,54.4-329.3,1.7-9.7-4.8-19-14.5-20.8l-15.6-2.8-313.5-50.9c-1-.2-1.9-.2-2.9-.2h0Z" fill="#7f7c73"/>
    <path d="M365.2,523.3v3c.8,0,1.6,0,2.4.2l313.5,50.9,15.6,2.8c8.1,1.5,13.5,9.2,12.1,17.3-23.9,137.1-41.7,244.9-54.4,329.4-1.1,7.3-7.4,12.7-14.8,12.7s-1.6,0-2.4-.2c-32.9-5.2-65.8-10.4-98.7-15.6-75.4-11.9-153.4-24.2-230.4-36.5-4-.6-7.4-2.8-9.8-6-2.3-3.3-3.3-7.2-2.6-11.2l54.7-331.3c1.2-7.3,7.4-12.5,14.7-12.5v-3M365.2,523.3c-8.6,0-16.3,6.2-17.7,15l-54.7,331.3c-1.6,9.8,5.1,19.1,14.9,20.7,110.1,17.6,219.7,34.7,329.1,52,1,.2,1.9.2,2.8.2,8.7,0,16.4-6.4,17.7-15.3,15.5-102.9,36.4-225.9,54.4-329.3,1.7-9.7-4.8-19-14.5-20.8l-15.6-2.8-313.5-50.9c-1-.2-1.9-.2-2.9-.2h0Z" fill="#7f7c73"/>
  </g>
  <g id="park-boundary">
    <path d="M365.2,523.3v3c.8,0,1.6,0,2.4.2l313.5,50.9,15.6,2.8c8.1,1.5,13.5,9.2,12.1,17.3-23.9,137.1-41.7,244.9-54.4,329.4-1.1,7.3-7.4,12.7-14.8,12.7s-1.6,0-2.4-.2c-32.9-5.2-65.8-10.4-98.7-15.6-75.4-11.9-153.4-24.2-230.4-36.5-4-.6-7.4-2.8-9.8-6-2.3-3.3-3.3-7.2-2.6-11.2l54.7-331.3c1.2-7.3,7.4-12.5,14.7-12.5v-3M365.2,523.3c-8.6,0-16.3,6.2-17.7,15l-54.7,331.3c-1.6,9.8,5.1,19.1,14.9,20.7,110.1,17.6,219.7,34.7,329.1,52,1,.2,1.9.2,2.8.2,8.7,0,16.4-6.4,17.7-15.3,15.5-102.9,36.4-225.9,54.4-329.3,1.7-9.7-4.8-19-14.5-20.8l-15.6-2.8-313.5-50.9c-1-.2-1.9-.2-2.9-.2h0Z" fill="#7f7c73"/>
  </g>
</svg>