<?xml version="1.0" encoding="UTF-8"?>
<svg xmlns="http://www.w3.org/2000/svg" version="1.1" viewBox="0 0 2617 2241">
  <!-- Generator: Adobe Illustrator 29.8.4, SVG Export Plug-In . SVG Version: 2.1.1 Build 6)  -->
  <defs>
    <style>
      .st0 {
        stroke-width: 7.2px;
      }

      .st0, .st1, .st2, .st3, .st4, .st5, .st6, .st7, .st8, .st9, .st10, .st11, .st12, .st13, .st14, .st15, .st16, .st17, .st18, .st19, .st20, .st21, .st22, .st23, .st24, .st25, .st26, .st27, .st28, .st29, .st30, .st31, .st32, .st33, .st34, .st35, .st36, .st37, .st38, .st39, .st40, .st41, .st42, .st43, .st44, .st45, .st46, .st47, .st48, .st49, .st50, .st51, .st52 {
        fill: none;
        stroke-linejoin: round;
      }

      .st0, .st24, .st26, .st27 {
        stroke-linecap: round;
      }

      .st0, .st52 {
        stroke: #8a8a82;
      }

      .st1, .st2, .st3, .st4, .st5, .st6, .st7, .st8, .st9, .st10, .st11, .st12, .st13, .st14, .st15, .st16, .st17, .st18, .st19, .st20, .st21, .st22, .st23, .st25 {
        stroke: #0e0e12;
      }

      .st1, .st38 {
        stroke-width: 32.4px;
      }

      .st2, .st37 {
        stroke-width: 33px;
      }

      .st3, .st36 {
        stroke-width: 35.6px;
      }

      .st4, .st35 {
        stroke-width: 31.6px;
      }

      .st5, .st47 {
        stroke-width: 20.2px;
      }

      .st6, .st24, .st45 {
        stroke-width: 25.8px;
      }

      .st7, .st46 {
        stroke-width: 25px;
      }

      .st8, .st44 {
        stroke-width: 24.4px;
      }

      .st9, .st27, .st34 {
        stroke-width: 36.2px;
      }

      .st10, .st33 {
        stroke-width: 36px;
      }

      .st11, .st26, .st32 {
        stroke-width: 36.4px;
      }

      .st12 {
        stroke-width: 37px;
      }

      .st13, .st29 {
        stroke-width: 48.6px;
      }

      .st14, .st31 {
        stroke-width: 49px;
      }

      .st15, .st30 {
        stroke-width: 54.2px;
      }

      .st16, .st28 {
        stroke-width: 50.8px;
      }

      .st17, .st40 {
        stroke-width: 28px;
      }

      .st18, .st43 {
        stroke-width: 29.6px;
      }

      .st19, .st41 {
        stroke-width: 30.2px;
      }

      .st20, .st42 {
        stroke-width: 30.4px;
      }

      .st21, .st39 {
        stroke-width: 28.6px;
      }

      .st22, .st49 {
        stroke-width: 8px;
      }

      .st23, .st50 {
        stroke-width: 5.4px;
      }

      .st24, .st26, .st27, .st28, .st29, .st30, .st31, .st32, .st33, .st34, .st35, .st36, .st37, .st38, .st39, .st40, .st41, .st42, .st43, .st44, .st45, .st46, .st47, .st48, .st49, .st50 {
        stroke: #191919;
      }

      .st53 {
        fill: #1a3a1a;
      }

      .st25 {
        stroke-width: 13.4px;
      }

      .st54 {
        fill: #686887;
      }

      .st55 {
        fill: #2e2e38;
      }

      .st48 {
        stroke-width: 12px;
      }

      .st51 {
        stroke: #d4c46a;
        stroke-dasharray: 16 12;
        stroke-width: 1.2px;
      }

      .st56 {
        fill: #191919;
      }

      .st57 {
        fill: #8a8a82;
        fill-rule: evenodd;
      }

      .st58 {
        display: none;
      }
    </style>
  </defs>
  <g id="EXTRA">
    <g id="streets" class="st58">
      <path class="st14" d="M560.8,81.2l-24-6.4"/>
      <path class="st14" d="M2258.7,534.6l-85.6-22.8-48.2-12.8-39.2-10.2"/>
      <path class="st9" d="M2258.7,534.6l-5.4,20.2-21.2,79.6-5.4,21.4"/>
      <path class="st1" d="M1979.5,674.8l-282.8-76-65.8-17.8-17.4-4.6"/>
      <path class="st14" d="M1665.5,384.2l97.8,26.2,23.2,6,168,44.8,22,6,27.6,7.2,4.8,1.4,23.2,6,5.4,1.6,14,2.6,34.2,2.8"/>
      <path class="st14" d="M2085.7,488.8l-18.6-10-13-5.2-12.4-3.4-6.2-1.8-27.8-7.6-27.4-7.2-22.2-6-168-44.8-22.8-6-98.2-26.2"/>
      <path class="st20" d="M1669.1,370.6l-3.6,13.6"/>
      <path class="st14" d="M1589.9,356.4l34.6,16,12.4,4.4,11,2.8,17.6,4.6"/>
      <path class="st14" d="M1669.1,370.6l-17.2-4.6-10-2.6-14-3.2-38-3.8"/>
      <path class="st20" d="M1665.5,384.2l-3,12-1.8,6-20.4,75.2-2.6,9.2-24.2,89.8"/>
      <path class="st11" d="M1498.5,120.8l-8.8,32.4-9.2,34.8-34.4,130"/>
      <path class="st14" d="M1589.9,356.4l-23.8-6.2-110-29.4-10-2.8"/>
      <path class="st14" d="M1446.1,318l-11-2.8-30-8.2-56-14.8-74.8-20-24-6.6-72.6-19.4-6-1.6-35.6-9.6"/>
      <path class="st14" d="M1136.2,235l-126.2-33.8-44.6-11.8-30.8-8.2"/>
      <path class="st14" d="M934.6,181.2l-80.8-21.8-73.6-19.6-60.8-16.2-8-2-71.4-19.2-37.6-10.2-6.8-1.8-34.8-9.2"/>
      <path class="st15" d="M560.8,81.2l-6.2,21.4"/>
      <path class="st15" d="M506.8,259.6l21.2-69.4,4.8-15.2,20.2-66.2,1.6-6.2"/>
      <path class="st15" d="M497,289.4l9.8-29.8"/>
      <path class="st1" d="M866.6,389l-14.6-3.8-5.8-1.6-130-34.2-70.2-19.2-95.2-26-24-6.6-3.8-1-26-7.2"/>
      <path class="st15" d="M450.8,436l12.4-40,14.4-46,19.4-60.6"/>
      <path class="st15" d="M363.2,717.8l14-45.8,8.8-28.2,10.2-33.2,26-83.4,28.6-91.2"/>
      <path class="st2" d="M475.4,515.4l231.4,62.2,81.8,21.8,8.6,2.4"/>
      <path class="st11" d="M797.2,601.8l4.4-14,30-91.6,30.8-94,4.2-13.2"/>
      <path class="st2" d="M1032.2,661l-12.6-3.2-4-1-62.2-15.8-96.4-24.2-49.4-12.4-10.4-2.6"/>
      <path class="st19" d="M1032.2,661l5-15,16.8-50.8"/>
      <path class="st19" d="M1054,595.2l10.8-34.8,20-61.4"/>
      <path class="st1" d="M1086.6,447.8l-4.6-1.4-98.6-26.2-95.8-25.6-5.8-1.6-15.2-4"/>
      <path class="st2" d="M1564.9,757.2l-16.8-5.2-300-95.2-43.2-13.6-139.6-44.2-11.4-3.8"/>
      <path class="st22" d="M1112.8,997l9.6-5.2,10.4-7.6,6.2-8.2,5.2-8.4,3.8-8.2,10.8-30.2,11.6-32.6,20.8-62.8,16.2-53.6,15.2-54.4,1.2-6.2.6-5.4-.4-6.4-1-6.6-3.8-5.4-6.2-3.2-7-1.2-6.6,2.8-5.2,4.4-4.4,4.8-3.2,5.4-2.8,7.8-17.8,50.8-12.4,33.8-10,31-12.8,40.6-16.6,58.2-5.8,23.8-1,10.6-.4,10.4,1.8,10.8"/>
      <path class="st19" d="M899.4,1057.2l8.2-24.4,27-82,92.2-273.8,5.4-16"/>
      <path class="st11" d="M727,813.8l4.4-13,61.4-185.8,4.4-13.2"/>
      <path class="st3" d="M727,813.8l-8.2-.8-3.8-.8-55-14.8-88.8-24.2-6.6-1.8-163-43.4-12.6-3.4-4.8-1.2-21-5.6"/>
      <path class="st11" d="M663.2,1019.4l2.8-16.6,1.4-5.8,1-4.2,2.6-8.6,21-64.8,3.6-11,14.2-42.6,13.2-39.8,4-12.2"/>
      <path class="st3" d="M820.8,836.8l-30.6-8.2-46-12.2-4.8-1.4-2.2-.2-4.2-.6-6-.4"/>
      <path class="st13" d="M899.4,1057.2l-207.6-33.2-4.4-.8"/>
      <path class="st13" d="M687.4,1023.2l-24.2-3.8"/>
      <path class="st13" d="M663.2,1019.4h-1l-164-26.4-117-19.8-68.8-11.4-14.8-2.6"/>
      <path class="st11" d="M687.4,1023.2l-4.4,25.6-42.6,258.8"/>
      <path class="st13" d="M1087.6,1087.4l-13.8-2.2-106.8-17-52.2-8.4-15.4-2.6"/>
      <path class="st22" d="M1087.6,1087.4l2-11.8,1.8-7.6,1.6-6.8,6.4-22,7-22.6,6.4-19.6"/>
      <path class="st22" d="M1108.8,986.6l4,10.4"/>
      <path class="st13" d="M1453.3,1147.2l-27-4.8-225-36.8-113.8-18.2"/>
      <path class="st13" d="M1675.3,1223.8l-12.4-4.8-22.6-8.4-75.2-27.8-72-26.6-9.2-3-9.4-2.2-21.2-3.8"/>
      <path class="st13" d="M1844.1,1287.6l-14-5.6-7.4-3.2-23.8-9-100.6-37.6-9.6-3.6-13.4-4.8"/>
      <path class="st3" d="M1902.5,1071l-15.4-4.8-239.2-76.4-58.4-18.4-57.8-18.4-17.2-5.4"/>
      <path class="st20" d="M1514.5,947.6l-3.6,13.4-22.4,83.8-19.6,72.4-3,8.2-4.6,9.2-8,12.6"/>
      <path class="st3" d="M1514.5,947.6l-18.4-5.8-208.2-66.4"/>
      <path class="st20" d="M1564.9,757.2l-3.6,13-21.8,81.2-25,96.2"/>
      <path class="st20" d="M1613.5,576.4l-3.2,12-21.6,81.2-20.8,76.8-3,10.8"/>
      <path class="st2" d="M1953.3,880.4l-12.4-4-6.8-2-352.2-111.8-17-5.4"/>
      <path class="st6" d="M2212.5,682.6l-2.8-4-3.4-2.8-4.8-2.6-80-22-65.6-18.8-12-.8-8.8,1.2-8,4.8-6,7.8-4.2,7.8-3.4,11.4-.8,2.8-4.2,15.4-17.4,64.2-8.4,30.2-26.2,92.6-3.2,10.6"/>
      <path class="st9" d="M2212.5,682.6l1.8,5.2.4,7.2-1,7.4-30.4,111.8-9,33.4-9.4,34.8-13.6,49.8-2.8,10"/>
      <path class="st2" d="M2148.5,942.2l-14.8-4.6-3.2-1-80.2-25.4-79.4-25.2-4.8-1.4-12.8-4.2"/>
      <path class="st2" d="M2259.9,977.6l-93.4-29.6-4.6-1.4-13.4-4.4"/>
      <path class="st6" d="M1953.3,880.4l-3.2,12.6-21.4,82.2-4.8,18-21.4,77.8"/>
      <path class="st6" d="M1902.5,1071l-26.4,97.4-2,7-24.4,91.8-5.6,20.4"/>
      <path class="st9" d="M2148.5,942.2l-4,15.2-58.4,215-21,77.2-1.8,6.4-13.8,51.2-2.4,9.6-2.8,13.8-.6,3.2-2.8,20"/>
      <path class="st21" d="M2237.3,1329.2l33.4-59.6,12.2-32.4,21-77.6,8-30.2,20.2-75.2"/>
      <path class="st5" d="M2237.3,1329.2l159.4-599,6.6-24.6"/>
      <path class="st5" d="M2377.1,565.2l2.8,10.2,2.2,9.8,1.4,9.2,2,21.4.2,24.4-1,24.2-3,20.8-5.4,26.6-148.2,554-32.4,122-4.4,15.2"/>
      <path class="st7" d="M2527.7,1104.6l-98-24.8-80.2-21-17.4-4.6"/>
      <path class="st21" d="M2332.1,1054.2l63.8-231"/>
      <path class="st21" d="M2395.9,823.2l41-148.4,2.4-12.4,2.2-13.2,2.4-19.8"/>
      <path class="st14" d="M2288.5,542.4l-29.8-7.8"/>
      <path class="st6" d="M2349.7,480.2l20.2,62,4,12.6,3.2,10.4"/>
      <path class="st14" d="M2288.5,542.4l73.4,19,15.2,3.8"/>
      <path class="st14" d="M2404.3,572l-27.2-6.8"/>
      <path class="st14" d="M2468.7,589.4l-52.8-14.2-11.6-3.2"/>
      <path class="st5" d="M2403.3,705.6l4.6-23,2.6-22.6.6-24.2-.6-17-.8-11.6-1-9.4-2-12.8-2.4-13"/>
      <path class="st6" d="M2404.3,572l-6.2-23.6-16.4-51.8-11.6-36.6-28.6-90.4-5.6-17.8"/>
      <path class="st6" d="M2311.7,360.4l6.8,21.4,31.2,98.4"/>
      <path class="st16" d="M2434.9,2088.8l-23.4-4-62.8-10.6-65.8-11.2-8.8-1.6-91.2-15.4"/>
      <path class="st16" d="M2434.9,2088.8l22.2,3.8,16.4,2.8,13.6,2.4,42.6,7.2"/>
      <path class="st10" d="M2421.5,1512.4l-1.4,8.2-1.4,8.8-3.8,24.6-13.4,84.2-17,108.2-2,12.6"/>
      <path class="st12" d="M2446.5,1406.8l-18.8,72.2-3,12.2"/>
      <path class="st13" d="M2421.5,1512.4l151.2,56"/>
      <path class="st10" d="M2424.7,1491.2l-3.2,21.2"/>
      <path class="st13" d="M2424.7,1491.2l-13-5-182-68.2-15-5.8"/>
      <path class="st13" d="M2209.3,1432.4l16.4,6.4,87.8,34.2,92.6,33.6,15.4,5.8"/>
      <path class="st25" d="M2446.5,1406.8l-189.4-48.8"/>
      <path class="st12" d="M2511.3,1171.6l-2.6,9.4-62.2,225.8"/>
      <path class="st5" d="M2214.7,1412.2l3.6-12.4,19-70.6"/>
      <path class="st13" d="M2214.7,1412.2l-23.4-9.2"/>
      <path class="st13" d="M2039.1,1368.4l21,8,65.6,24.8,26.8,10,33.2,12.4"/>
      <path class="st13" d="M2191.3,1403l-31.2-12.2-23.8-8.8-20-6.2-50.4-14.6-2.8-.8-22.2-6.6"/>
      <path class="st9" d="M2040.9,1353.8l-1.8,14.6"/>
      <path class="st13" d="M2040.9,1353.8l-21.8-6.8-6.6-2-73-26.2-62.6-23.6-14-4-3.6-.6-15.2-3"/>
      <path class="st13" d="M1844.1,1287.6l14.8,12.8,10.8,6,68.4,26,73.4,26.2,3.4,1.2,24.2,8.6"/>
      <path class="st6" d="M1844.1,1287.6l-3.2,20.4-5.8,37-2.6,15.6-5.2,32.6-22.8,140.6-5,32.6-15.2,96.2"/>
      <path class="st9" d="M2039.1,1368.4l-1.8,14-.4,2.2-.4,3.2-2.4,12.2-3,20.4-28.8,180.4-13.2,81.6-2.2,13.4"/>
      <path class="st5" d="M2191.3,1403l-5.6,20.6"/>
      <path class="st13" d="M2185.7,1423.6l23.6,8.8"/>
      <path class="st5" d="M2209.3,1432.4l5.4-20.2"/>
      <path class="st5" d="M2145.5,1720.8l12.8-79.6,7.2-34.4,7.2-31,33-129,3.6-14.4"/>
      <path class="st10" d="M2092.3,1713l-85.4-14-8.2-1.4-11.8-1.8"/>
      <path class="st10" d="M2382.5,1759l-10.8-1.6-103.6-16.6-104.6-17-5.6-1-12.4-2"/>
      <path class="st5" d="M2185.7,1423.6l-3.4,13.6-27.8,103-12.4,50.8-13,70.8-35.2,212.4-21.2,123.4-4.6,27.4"/>
      <path class="st9" d="M1986.9,1695.8l-2,13-13.4,83.8-16,99.6-9.4,58.4"/>
      <path class="st10" d="M1986.9,1695.8l-13.4-2.2-7.4-1.2-161.4-26.4-6-1-14.4-2.4"/>
      <path class="st6" d="M1784.3,1662.6l-14.4,88.6-2,12"/>
      <path class="st6" d="M1767.9,1763.2l-2.2,13.2-13.4,84.2-10,61.8"/>
      <path class="st9" d="M1767.9,1763.2l-16.4-2.6-4.2-.6-275.8-44.4-86-13.8-7.4-1.2-23-3.8"/>
      <path class="st20" d="M1355.1,1696.8l-1,5.6-23.6,141-5.8,37.4-.2,5,.4,5.4,1.6,10.8,1.8,6.8"/>
      <path class="st20" d="M1453.3,1147.2l-5.2,9.2-4.4,9.6-2.2,8-13.4,81.2-45.8,276.4-26.4,159.8-.8,5.4"/>
      <path class="st17" d="M1585.9,1634.2l43-271.8,3.6-17.2,5.2-17,28.8-80,1.4-3.6,7.4-20.8"/>
      <path class="st9" d="M640.4,1307.6l-18.6-3-4.6-.8-100.8-16.6-243.4-40.2"/>
      <path class="st11" d="M606.2,1514.4l-24.8-4-99.2-16.2-240.8-39.8"/>
      <path class="st11" d="M640.4,1307.6l-2.8,16-14.6,89-15,90.2-1.8,11.6"/>
      <path class="st11" d="M606.2,1514.4l-29.8,181.2-10.2,61.6-5.2,30.4"/>
      <path class="st16" d="M561,1787.6l-22.6-3.8-64.8-10.6"/>
      <path class="st16" d="M473.6,1773.2l-45.6-7.2-100-16.4-42.2-6.8"/>
      <path class="st11" d="M473.6,1773.2l-4.2,25.6-17.2,106.4-3.6,22.4"/>
      <path class="st16" d="M701.4,1809.8l-140.4-22.2"/>
      <path class="st16" d="M910.4,1842.8l-209-33"/>
      <path class="st16" d="M944.8,1848.2l-34.4-5.4"/>
      <path class="st16" d="M1149.2,1880.2l-114.2-17.8-87.2-13.6-3-.6"/>
      <path class="st16" d="M1267.2,1899.2l38.8,6.2,22.4,3.4"/>
      <path class="st16" d="M1267.2,1899.2l-118-19"/>
      <path class="st4" d="M1149.2,1880.2l-3.8,23.8-1.2,7.8-13.8,90.4-3.2,20.6-16.2,105.4"/>
      <path class="st20" d="M1288,2205.8l5-29.4,18.8-114,20-118.8,1-7-.4-10.4-1.6-8.6-2.4-8.8"/>
      <path class="st23" d="M910.4,1842.8l-4,25-18.6,114.2-9,54.8,2.2,6.2,5.4,5.4,16.2,2.8,6-2.8,4.2-4.6,9.2-56,19-116.8,3.8-22.8"/>
      <path class="st8" d="M701.4,1809.8l-4.2,26-.4,3-27.2,168"/>
      <path class="st18" d="M1486.5,1942.2l-2.6,16.4-14,91-17.2,111.8"/>
      <path class="st16" d="M1488.9,1926l-49.6-7.8-80.8-12.8-7.8-.4-22.4,3.8"/>
      <path class="st16" d="M1328.3,1908.8l20.6,10.4,8,2,80,13,49.6,8"/>
      <path class="st18" d="M1488.9,1926l-2.4,16.2"/>
      <path class="st16" d="M1733.9,1973.8l-3.6-.6-8.4-10-8.8-1.2-7-1.2-217.2-34.8"/>
      <path class="st16" d="M1486.5,1942.2l213.8,25.8,3.2.6,6.4,1.2,9.2,1.4,7.6,1.4,7.2,1.2"/>
      <path class="st6" d="M1730.1,1997l3.8-22.4"/>
      <path class="st16" d="M1834.1,1986.6l-100.2-12.8"/>
      <path class="st16" d="M1917.3,2000.8l-83.2-14.2"/>
      <path class="st16" d="M1917.3,2000.8l41.8,7"/>
      <path class="st16" d="M1959.1,2007.8l84.6,14.4,7.8,1.4,16.6,2.8"/>
      <path class="st5" d="M2094.7,2029l4.4-26.4,10-60,36.4-221.8"/>
      <path class="st16" d="M2182.9,2046l-74.8-12.8-13.4-2.2"/>
      <path class="st16" d="M2094.7,2031l-26.6-4.6"/>
      <path class="st15" d="M130.4,1903.4l3.8-23.2"/>
      <path class="st15" d="M98.4,1877.6l-4,18.8"/>
      <path class="st15" d="M94.4,1896.4l-4,19.4-3.2,17.2"/>
      <path class="st15" d="M125.6,1933l4.8-29.6"/>
      <path class="st15" d="M133.6,1780l-13.8,23.2-9,18.8"/>
      <path class="st15" d="M110.8,1822l-2.8,10.8-6,27.2-3.6,17.6"/>
      <path class="st15" d="M134.2,1880.2l5.2-40.4.6-12.8"/>
      <path class="st15" d="M140,1827l-2.2-20.4-4.2-26.6"/>
      <path class="st16" d="M285.8,1742.8l-32.2-9.4-7.8-2.4-16.4-3.2-10.2-1.2-29.6-1.2h-5.2l-4.6-.2-12.4,2-24.8,6-97.2,23.6"/>
      <path class="st16" d="M142.6,1733.2l31.8,5.8,9,.8,4.8.4,31.6,1.2,16.8.6,15.2.4,34,.4"/>
      <path class="st15" d="M133.6,1780l5.2-26.6,3.8-20.2"/>
      <path class="st15" d="M142.6,1733.2l11.6-15.2,8.8-14.2.4-1.6,3.6-9.2,14.6-61.2,12.2-77.2,14.8-100.8,7.2-44,8.8-53.2,2.2-13.2,16.6-101.6,16.6-102.2,11.6-70.6,10.8-55.6,2-35.8,1-20.4"/>
      <path class="st15" d="M285.4,957.2l-9.6,18.8-22.8,44-11.8,47-13,68.6-5.4,31.8-12,70.6-15.6,99.8-2.2,13.6-17.6,104-17.4,110.2-8.4,51.8-6.4,41.4-6,38,.8,11.6,4.6,24.8"/>
      <path class="st15" d="M285.4,957.2l8-24,19-57.6,17.2-52.2,6.4-20.4,27.2-85.2"/>
      <path class="st2" d="M428.6,430.2l22.2,5.8"/>
      <path class="st1" d="M506.8,259.6l-22-5.8h-.2"/>
      <path class="st10" d="M1189.6,38l-3,10.6-1,3.8-20.6,77-22.2,81.2-1,3.8-5.6,20.6"/>
    </g>
  </g>
  <g id="Layer_1">
    <rect class="st54" x="0" y="0" width="2617" height="2240.9"/>
    <g id="blocks">
      <path class="st55" d="M897.8,1866.6l4,2.6,1,4.2-16.2,99.6-2.6,4-4.4,1-2.4-.4-110.4-18.8-7,1.2-3.2,6-9.6,46.6-2.8,4-4.2.6-52.2-9.6-4-2.8-.8-4.2,25.6-158,2.6-4,4.2-.8,182.4,28.8Z"/>
      <path class="st55" d="M932,1871.8l4,2.6,1,4.4-16.2,100-2.6,4-4.4.8-17-2.8-4-2.6-1-4.4,16.2-99.6,2.6-4,4.4-1,17,2.6Z"/>
      <path class="st55" d="M1944.3,1809.6l4.2,2.6.8,4.2-11.6,73-13,80.8-2.6,4-4.4,1-79.8-13.6-80.8-10.4-4.2-2.6-1-4.4,3.2-19.8,10-61.8,11.6-73.6,2.6-4,4.4-1,160.6,25.6Z"/>
      <path class="st55" d="M1375.1,1718.4l7.6,1.2,86,13.8,79.2,12.8,4,2.6,1,4.4-14.2,90.2,27.6,4.4,14.2-90.2,2.6-4,4.4-1,157,25.2,1.6.4,4.2,2.4,1,4.4-11.8,73.6-10,61.8-1.8,12-2.6,4-4.2,1-3.4-.4h-.2l-7-1.2-217.4-34.8-56.6-9h0l-75-11.8-12-.6h-1l-4.6-1-2.4-5.8,4.2-26.8v-.2l20.6-122.8,2.6-4,4.2-1,2.2.4Z"/>
      <path class="st55" d="M1801.7,1683.8l158.8,25.8,4,2.8.8,4.2-8.4,52.2-2.4,4-4.4,1-160.6-25.4-4-2.6-1-4.4,8.6-53,2.6-4,4.4-1,1.6.4Z"/>
      <path class="st55" d="M479.2,1512.2l99.4,16.2.8.2,4,2.4.8,4.4-25.8,157.2-10,61-2.6,4-4.4,1-63.8-10.4-45.4-7.2h0l-100.2-16.4-40.4-6.6-.6-.2-29.8-8.6-.2-.2-9.2-2.6-18.4-3.8-12.2-1.4-20.8-.8-4.2-2-1.4-5.4,13.4-56.2,12.4-78h0l12-81.2,2.4-4,4.4-1,239.8,39.6Z"/>
      <path class="st55" d="M1762.7,1677.2l4.2,2.8.8,4.2-8.6,53.2-2.6,4-4.2,1-2.2-.2h0l-157-25.4-4-2.6-1-4.2,8.6-54.2,2.6-4.2,4.2-.8,159.2,26.4Z"/>
      <path class="st55" d="M2108.9,1399h.2l19.4,6,.4.2,22.4,8.2.2.2,11.8,4.6,3.4,3.2-.4,5.2-46.2,82.6,25,14,49-87.6,3.8-2.8,3.6.2,19.4,7.6,175.6,65.8,3.4,3.4.2,3.6-37.4,152.2,10.4,2.4,3.8,3,.6,3.8-9,57.8-2.6,4-4.4,1-97.4-15.8-97.4-15.8h-.2l-5.6-1-12.6-2-53-7.8h-.2l-81.6-13.4-4-2.6-.8-4.2,11.4-71.4,29-180.4,2.8-20v-.2l2.4-12.2v-.4l2.6-4.2,5.2-.8,46.8,13.6Z"/>
      <path class="st55" d="M1469.5,1174.8h.2l7.4,1.8h.4l7.4,2.6h.2l71.6,26.4,75.2,27.8,16.6,6.2,3.4,3.2v4.4l-27.4,76.4-5.6,18.2-3.8,18.2-38.6,243.6-2.6,4-1.6.4-6.2,37.4,2,1.4,1,4.2-8.6,54.4-2.6,4.2-4.4.8-79.2-12.6-91-14.8-2.2-.2h0l-2.2-.4-4-2.6-1-4.4,23.4-141.4,45.8-276.4,13-79,2.6-4,4.4-1,6.4,1.2Z"/>
      <path class="st55" d="M1868.9,1318.2l.4.2,61.8,23.2h0l73.6,26.4,7.2,2.2h0l3.6,1,3.6,3.2.6,3.4-.4,2v.2l-.4,2-.2,2.8-.2.4-2.2,11.6-2.8,19.4h0l-30.2,188.6v.2l-10.4,64.2-2.6,4-4.2,1-158.4-26-2-.2-4-2.6-1-4.4,11.6-72.6,5-32.6h0l22.8-140.6,5.2-32.4h0l2.6-15.8,4.2-26.6,2.4-4,5-.8,9.4,2.6Z"/>
      <path class="st55" d="M1689.7,1255l100.6,37.6h0l23,8.6.4.2,7,3,2.8,1.2,3.4,3.4.4,3-5,30.8h0l-2.6,15.8-5.2,32.6-22.8,140.6-6,39.6h0l-10.4,65.4-2.6,4-4.2.8-159.4-26.4-4-2.6-1-4.4,38.6-243v-.2l3.4-16v-.6l4.8-15.4v-.4l27.2-75.6,3.4-3.4h4.4l3.8,1.4Z"/>
      <path class="st55" d="M513.4,1305l100,16.6,4,2.6,1,4.2-13.4,81.2-13,78-2.6,4-4.2,1-.8-.2-99.2-16.2-240.2-39.6-4-2.6-1-4.4,2.6-15.4,8.8-53.2,2.2-13.2,12.6-77.4,2.6-4.2,4.4-.8,240.2,39.6Z"/>
      <path class="st55" d="M2282.3,1002l3.6,3.2.4,4-3.4,12.8-3,3.8-4.4.6-50-13.2-6.4,24,50,13.2,3.6,3,.6,4.4-55,205.4-17.8,67.2-3,3.6-4.2.6-35.8-9.2-3.2,13,35.4,9.2,3.8,3,.4,4.4-3.8,14.2-3,3.8-5,.4-13.4-5.4-24.4-9-21-6.4-50.8-14.8-2.6-.8h0l-2.6-.8-3.8-3-.4-3.8,1.6-8.4v-.2l2.2-8.8h0l13.8-51.2h0l1.8-6.4,21-77.2,56.4-207.4,3-3.8,4.6-.4,114.8,36.4Z"/>
      <path class="st55" d="M2046.1,1228.4l3.6,3.2.4,4-2.4,9h0l-1.8,6.6-14,51.4-2.6,10.4-.8,4.6-2.8,4-4.8.6-.8-.2-.2-.2-72-25.8-.2-.2v.2l-63.4-24-15.2-4.4-3.8-3-.4-4.2,20.2-76.2,3-3.8,4.6-.4,153.4,48.4Z"/>
      <path class="st55" d="M377.2,997.2h0l117,19.8,160.6,25.8,4,2.6,3.8,5.6.8,4.4-37,225.4-2.6,4.2-4.4.8-100-16.4-240.6-39.8-4-2.6-.8-4.2,12.8-78.8,11.6-70.6v-.2l11-56.4,1.2-24,2.2-4.2,4.8-1.2,59.6,9.8Z"/>
      <path class="st55" d="M1782.5,1144.8l44.8,14.4,23.2,7.4h0l6.2,2,3.6,3.2.4,4-20.4,76.6-3,3.8-5.2.2h-.2l-24.4-9.4-96.8-36h0l-8.6-3.4-3.4-3.2-.2-4.4,24.4-68.2,3.2-3.4,4.2-.2,52.2,16.6Z"/>
      <path class="st55" d="M2069.7,1141.8l3.6,3,.4,4.2-5,18.6-12.2,45-3,3.6-4.6.4-153.4-48.4-3.6-3-.4-4.2,17-63,3-3.6,4.6-.6,153.6,48Z"/>
      <path class="st55" d="M1692.3,1116l3.6,3.2.2,4.4-23.6,66.6-3.4,3.4-4.4.2-16-6-75.2-27.8-72.4-26.8-10.6-3.4-2.6-.6-4-2.8-.4-4.6,16.4-60.6,3-3.8,4.6-.4,184.8,59Z"/>
      <path class="st55" d="M1880.1,1082.6l3.6,3.2.4,4.2-17.2,62.6-3,3.8-4.6.4-5.2-1.6-23.2-7.6-44.8-14.4-51.4-16.4-3.6-3-.2-4.6,21.8-61.2,3.2-3.4,4.2-.2,120,38.2Z"/>
      <path class="st55" d="M1200,659l43.2,13.6,297.4,94.2,3.6,3.2.4,4.2-19.6,73.4h-.2l-18.6,72-3,3.8-4.6.4-412.6-131.6-10.8,34,414.8,132.2,3.6,3.2.4,4.2-16.8,62.4-3,3.8-4.6.4-.4-.2-408.4-130.8-3.6,11.4,408.4,131h0l1.4.4,3.6,3.2.4,4-16.4,61-.2.6-1.6,4.4-3.4,3.4-3.4.4-15.4-2.8-225.4-36.8-102.2-16.4-4-2.6-.8-5,5-17.2h0l7-22.6h0l7.6-23.4-7.6-2.4-7.6,23.4h0l-7,22.8-5.8,19.6-3,3.8-3.6.4-5.6-.8-106.8-17-41.6-6.8-4-2.4-.8-5.4,24.4-74h0l18.8-55.2,3.2-3.6,4-.4,51.8,14,9.2-34.4-49-13.2-3.8-3-.2-4.6,57-169.4,2.6-2.8,20.2-61.4,3.2-3.6,4.4-.2,129.8,41.2Z"/>
      <path class="st55" d="M2045.3,927l76.2,24,3.6,3.2.4,4.2-39.4,144.8-3,3.6-4.6.4-153.4-47.8-3.6-3.2-.4-4.2,15.2-55.4,4.8-18.2,18.8-72,3-3.8,4.6-.4,77.8,24.8Z"/>
      <path class="st55" d="M1584.1,988.4l58.4,18.4,79.6,25.4,3.6,3.2.2,4.4-21.8,61.2-3.2,3.6-4.2.2-186.6-59.6-3.6-3-.4-4.2,16.6-62.6,3-3.8,4.8-.4,53.6,17.2Z"/>
      <path class="st55" d="M1929.3,890.2l2,.6,3.8,3,.4,4.2-19.2,73.8h0l-4.8,18h0l-15,54.2-3,3.6-4.6.6-235.6-75.4-58.4-18.4-56-17.8-3.6-3.2-.4-4,19.2-74h0l19.4-71.6,3-3.8,4.6-.4,348.2,110.6Z"/>
      <path class="st55" d="M785.6,845.8l148.2,39.8,3.8,3,.4,4.6-17.8,52.8-26.4,80.6-3.2,3.6-3.4.4-191.6-30.6-3-.6-4.2-2.4-.6-5.2.4-1.8.2-.2,20.8-64.8,3.6-10.8h0l14.2-42.6,10.8-32.6,3.2-3.6,4.2-.4,40.4,10.8Z"/>
      <path class="st55" d="M397,745.2l163,43.4h0l6.6,1.8,88.8,24.2,41.8,11.2,3.8,3,.4,4.8-8.8,26.4-14.2,42.8-3.6,11-21.2,65-2.6,8.8-3.2,3.8-3.6.4-142.2-22.8h0l-116.8-19.8-58-9.6-4.2-2.6-.6-5.2,15.8-47.8,17.2-52.4,6.4-20.4h0l20.4-64,3.2-3.6,4.2-.4,7.4,2Z"/>
      <path class="st55" d="M2177.3,744.8l3.6,3,.6,4.2-15.6,57.4-9,33.4-9.4,34.8-10.2,37.2-3,3.8-4.6.4-74.4-23.6-79.4-25.2-3.6-3-.4-4.4,23.2-82.2h0l8.4-30.2h0l11.6-43,3-3.8,4.4-.4,154.8,41.6Z"/>
      <path class="st55" d="M1692.5,614.4l293.6,79,3.6,3,.6,4.4-12.4,45.6h0l-6.4,22.8v.2l-24.2,85.4-3,3.6-4.4.4-.8-.2h-.2l-349.6-111-3.6-3.2-.4-4,18-66.8,19.2-71.8,3-3.8,4.4-.6,62.6,17Z"/>
      <path class="st55" d="M853,632.8l96.4,24.2,56.6,14.4,3.8,2.8.4,5-57,168.8-3.2,3.6-4,.4-151.2-40.6-37.8-10-3.6-3-.6-4.6,55.2-166.6,3.2-3.6,3.8-.4,38,9.6Z"/>
      <path class="st55" d="M461.8,527.6l.6,1.4,240.2,64.6,65.6,17.4,3.8,3,.4,4.8-56,169.4-3.2,3.6-4.2.4-41.6-11.2h0l-91.6-25-6.6-1.8-163-43.4-5.6-1.6-3.8-2.8-.4-4.6,6.8-21.8v-.2l8.6-28,10.2-33.2h0l26-83.4,2.4-7.6,3.2-3.6,4.8-.2,3.4,3.8Z"/>
      <path class="st55" d="M1165.4,268.2l6,1.6,72.6,19.4h0l24,6.6,75,20,54.4,14.4h0l19.2,5.4,3.8,3,.4,4.2-23,86.8,35.2,9.2,23-86.4,3-3.8,4.2-.6,96.8,25.8,21.2,5.6,1,.4,33,15.2,14.6,5.2,8.8,2.2,3.8,3,.6,4.4-17.2,63.4h0l-2.6,9.4-18.6,68.6-3,3.6-4.2.6-178.6-47.2-8.2,31.2,178.4,47.2,3.6,3,.6,4.4-17.8,67.2h0l-19,69.6-3,3.6-4.6.4-295.6-93.8-43.2-13.6-131-41.4-3.6-3.2-.4-4.4,4.2-13.4h0l28.6-87.6,3.2-3.6,4.2-.4,173.6,52.8,9.4-31-172.8-52.4-3.6-3.2-.4-4.6,44.4-135.8-20.6-6.8-3.6-3.2-.4-4,4.4-16.2,3-3.6,4.4-.6,12.4,3.4Z"/>
      <path class="st55" d="M1757.1,434v.2l23,5.8h0l168,44.8h.2l21.8,6,27,7,.2.2,5.2,1.4,22.6,5.8.2.2h0l6.6,1.8,16.4,3.2,32.8,2.6,1,.2,36.6,9.6h0l48.2,12.6,62.2,16.6,3.8,3,.4,4.4-18.8,70.4-4.6,18.6-.6,1.4-3.2,6.4-3.8,3h-3.2l-74.2-20.4h0l-66.8-19.2-14.6-1-12.8,1.8-12.4,7.4-8.2,10.6-5.2,9.8-3,9.8-3,3.8-4.2.4-289.4-77.8h0l-67-18.2-3.8-3-.6-4.4,18.4-68.2h0l2.6-9.2,17.4-63.8,3-3.8,4.4-.4,77.4,20.6Z"/>
      <path class="st55" d="M979.2,435.8l95.4,25.4,3.8,3,.4,4.6-28.4,87h0l-4,13-1.6,1.8-21.6,65.4-3.2,3.6-4,.2-58.6-14.8-96.4-24.2-35-8.8-3.6-2.8-.6-4.8,27-82.6,28.6-87.2,3.2-3.6,4.2-.4,94.4,25.2Z"/>
      <path class="st55" d="M546.6,319.8l95.2,26,70.2,19.2,125.8,33.2,3.8,3,.4,4.6-27.6,84.8-28,85.2-3.2,3.6-4,.4-68.2-18.2-219.4-59-4.2-4-13.2-43v-3.6l2.4-8h0l12.4-40,14.4-45.8h0l13-40.6,3.2-3.6,4.2-.4,22.8,6.2Z"/>
      <path class="st55" d="M596,115.8h0l37.6,10.2,71.6,19.4,7.8,1.8,60.8,16.2,73.6,19.6,80.8,21.8,31,8.2,44.4,11.8,103,27.6,3.8,3,.4,4.4-23.4,86.4,22.6,6.2,3.8,3,.4,4.6-21.6,66.6-3.2,3.6-4.2.2-97.6-25.8-92.4-24.8-3.8-3-.4-4.6,10.6-33.2-34.8-11-11.2,35.4-3.2,3.6-4,.4-128-33.6h-.2l-70-19.2-90.6-24.8h-.2l-25-7-3.8-3-.4-4.6,2.4-7.4,21.2-69.4h0l5-15.4,20-65.8,3-3.6,4.2-.4,10,2.6Z"/>
      <path class="st55" d="M2074.1,1748.4l1.6,4v242.4l-1.8,4.4-5.2,1.6-13-2.2h0l-7.6-1.4-82.8-14.2-4.2-2.6-.8-4.2,13-81.2,16-99.6,7.2-43.8,2.4-4.2,3.4-1h67.4l4.4,2Z"/>
      <path class="st55" d="M640.8,2004l3.8,2.8,1,3v49.2l-2,4.4-4,1.6h-98.2l-4.4-2-1.6-4v-68l2-4.4,5.2-1.4,98.2,18.8Z"/>
      <path class="st55" d="M557,1812.6l83.6,13.2,4,2.6,1,3.4v160.4l-2,4.4-5.2,1.4-98.2-18.8-3.8-2.8-1-3.2v-157l2-4.4,5-1.6,14.6,2.4Z"/>
      <path class="st55" d="M1031,1887.6l82.6,12.8,4.2,2.6,1,3.4v66.8l-.2,1-3.8,25.6-3.2,20.6-25.6,166.6-2.6,4.2-5.4.6-362.6-125.6-6.2-.2-4.2-2-1.6-4v-36.8l2-4.4,5.2-1.6,32.4,6.2,5.8-1.2,2.6-4.4,10-48.4,2.8-4,4.2-.8,108,18.2,2.4.4,4,2.6,1,4.4-7.8,46.8,2.6,7.6,6.4,6.2,18,3.2,7.2-3.4,5.2-5.6,7.8-48.2,2.6-4,4.4-.8,142.4,24,.8-5.2-142.4-24.2-4-2.6-1-4.2,16.4-100.2,2.6-4,4.2-.8,81.8,12.8Z"/>
      <path class="st55" d="M1263.2,1924.2l38.8,6.4v-.2l10,1.6,4.2,2.6,1,4.2-.4,2.2h0l-20,119-18.8,113.8v.2l-6,34.8-2.6,4-3.2,1h-109.8l-4.4-1.8-1.6-4.2v-232l9.4-61.6v-.4l2.6-4,4.4-1,96.4,15.4Z"/>
      <path class="st55" d="M1355.7,1930.6l.6.2,79,12.4h0l1.4.2,4,2.6,1,3.4v186.2l-.2,1-11,72.2-2.6,4-3.4,1h-115.4l-4.4-1.8-1.6-5.2,4.8-27.8,20-121.2h0l18.8-112,1.2-8.4v-.6l1.8-4.4,4.6-1.8h1.4Z"/>
      <path class="st55" d="M1701.7,1985.8h.2l4.6.8,3.6,2.2,5.6,6.6,1.2,2.4,2.6,9.6v1l.2,2.2v3l-.2.8-12.2,70.2v.4l-2.4,8.6-.8,1.8-.8,1.4-1.2,1.2-43.4,36.6,16.6,19.6,47-39.4,6.4-9.6,3.8-14.6,3.2-18.8,2.8-4,4.6-.8,3.8,3,.8,2.8v135l-2,4.4-4,1.6h-245l-4.4-1.8-1.6-4.2v-196.4l7.8-50.4v-.2l.2-1.4,2.6-4,4.4-1,196,31.4Z"/>
      <path id="Park" class="st53" d="M713.8,1064.8l675.2,109.4h0l1.4.4,1.4.6,1.4,1,1,1.2.8,1.4.4,1.4.2,1.6v1.6h0l-109.4,675.2h0l-.4,1.4-.6,1.4-1,1.4-1.2,1-1.4.8-1.4.4-1.6.2h-1.6l-675.2-109.4h0l-1.4-.4-1.4-.6-1.4-1-1-1.2-.8-1.4-.4-1.4-.2-1.6v-1.6h0l109.4-675.2h0l.4-1.4.6-1.4,1-1.4,1.2-1,1.4-.8,1.4-.4,1.6-.2h1.6Z"/>
    </g>
    <g id="streets1" data-name="streets">
      <path class="st38" d="M1976.8,673.8c-62.7-16.8-307.9-82.8-366-98.4"/>
      <path class="st31" d="M1587.2,355.5c8.7,4,38.2,18.2,47,20.4,6.6,1.7,21.9,5.6,28.6,7.4,107.5,28.7,259,69.1,366.6,97.6,12.4,4.6,40.4,5.8,53.6,7"/>
      <path class="st31" d="M2083,487.8s-18.6-10-18.6-10c-6.2-2.8-18.8-7.2-25.4-8.6-109.8-30.1-262.6-70.1-372.6-99.6-12-3.3-29.1-7.8-41.2-10.4,0,0-38-3.8-38-3.8"/>
      <path class="st32" d="M1495.8,119.9c-12.1,44.2-40.2,151.5-52.4,197.2"/>
      <path class="st31" d="M1587.2,355.5c-23.4-6-606.6-162.3-655.4-175.2"/>
      <path class="st56" d="M714.5,96.7c-49.8-13.3-128.1-34-176.8-47.1l-9.6,35.7c-26.1,84-169.4,544.4-193.6,623.6l51.8,15.8c23.3-76.5,158.1-509.7,190.5-613.9,42.5,11.3,90.5,24,124.9,33.2,74.4,19.9,151.4,40.4,223.6,59.9l12.8-47.3c-72.3-19.5-149.3-40.1-223.8-59.9Z"/>
      <path class="st37" d="M1029.5,660c-70.5-18-491.8-128-556.8-145.6"/>
      <path class="st38" d="M1083.9,446.8c-60.7-16.6-474.9-126.7-589.6-158.4"/>
      <path class="st37" d="M1562.2,756.2c-132.9-42-380.6-120.3-511-162"/>
      <path class="st41" d="M896.7,1056.2c27.2-82.8,178.2-536.3,185.4-558.2"/>
      <path class="st32" d="M660.5,1018.4c1.1-6.9,3.3-20.1,5.2-26.6,17.4-55.8,179.2-544.6,198.2-603.8"/>
      <path class="st36" d="M818.1,835.8c-20.5-5.6-60.7-16-81.4-21.8-3.5-.4-8.9-1.1-12.4-1.2-7.2.8-254-67.9-333.4-89"/>
      <path class="st49" d="M1084.9,1086.4c4.6-29.6,16.2-61.9,25.2-90.4"/>
      <path class="st49" d="M1110,996c5.5-2.5,14.8-8,19-12.3s10.2-12.9,14.9-23.1c16.8-37.3,31.3-88.6,44.5-127.8,5.9-20.8,15.7-50.7,23.4-78.2s8.7-29.5,9.8-41.4-1.3-18.3-11.4-21.6c-11.3-4.1-22,6.8-26.4,16.2s-61.8,186.2-78.2,246,.4,31.8.4,31.8l4,10.4"/>
      <path class="st29" d="M1841.4,1286.6c-42.8-17.5-298.4-111.8-351-131.4-10.6-4.1-28.6-7-39.8-9-89.1-15.5-1049.9-170.1-1155.8-188"/>
      <path class="st48" d="M1873.4,1167.4c-179.9-57.6-441.2-140.6-621-198.4"/>
      <path class="st36" d="M1899.8,1070c-98.4-31.1-601.5-191.4-614.6-195.6"/>
      <path class="st42" d="M1662.8,383.2c-14.2,53.6-184.3,692.8-199.6,741.2-2.4,5.6-9.2,16.7-12.6,21.8"/>
      <path class="st45" d="M2209.8,681.6c-4.7-4.8-8.3-8.6-14.3-10.3-13-3.7-45.9-12.7-64.7-17.9-20.1-5.6-40-11.4-64.7-18.5-6.1-1.7-10.9-3.5-17-3.9-16.6-1.6-27.4,4.9-34.1,20.5-2.1,4.9-3.7,10.1-5.1,15.3-18.1,66.3-40.1,147.3-59.3,212.6"/>
      <path class="st37" d="M2257.2,976.6c-13.1-4.2-673.5-213.6-695-220.4"/>
      <path class="st45" d="M1950.6,879.4c-13.7,54.3-93,347.1-109.2,407.2"/>
      <path class="st47" d="M2374.4,564.2c9.8,30.7,13.3,67.8,7.6,99.2-24.9,136.3-161.2,609.3-193.4,738.6"/>
      <path class="st47" d="M2400.3,566.6c9.8,30.7,13.3,67.8,7.6,99.2-24.9,136.3-161.2,609.3-193.4,738.6"/>
      <path class="st46" d="M2525,1103.6c-52.8-13.2-143.4-36.4-195.6-50.4"/>
      <path class="st39" d="M2234.6,1328.2c14.4,4,40-69.8,45.6-92,14.2-52,113-414,113-414,12.4-45.6,44.7-205.4,17.7-208.7"/>
      <path class="st31" d="M2466,588.4c-8.6-2.3-334.3-88-383-100.6"/>
      <path class="st45" d="M2401.6,571c-18.3-67.4-48-153-68.4-220.2"/>
      <path class="st45" d="M2309,359.4c4.2,13.1,60.6,188.7,65.4,204.8"/>
      <path class="st29" d="M2422,1490.2c-16.4-6.5-194.2-72.6-210-79l-23.4-9.2c-45.9-19.8-102.4-35.2-150.4-49.2-47.2-14.1-117.8-41.2-164-58.6-8.8-3-23.7-5.9-32.8-7.6"/>
      <path class="st34" d="M2145.8,941.2c-26.7,100.6-75.3,275.7-101.4,374.6-2.3,9.6-5,27.1-6.2,37l-1.8,14.6c-13.4,88.5-38,239.4-52.2,327.4"/>
      <path class="st29" d="M1841.4,1286.6s14.8,12.8,14.8,12.8l10.8,6c47.6,18.6,121.3,45.1,169.4,62,43.4,16.6,103.2,39.1,146.6,55.2l23.6,8.8c59.3,23.9,152.1,58.2,212.2,80l151.2,56"/>
      <path class="st33" d="M2508.6,1170.6l-2.6,9.4-62.2,225.8c-2.2,8.4-20.4,78-21.8,84.4l-3.2,21.2c-11.5,71.6-27.6,174.6-39,246.6-65.7-10.2-171.5-27.4-237-38.2"/>
      <path class="st47" d="M2183,1422.6c-55.9,184.2-90.5,433.4-117.6,601.4"/>
      <path class="st47" d="M2210,1422.6c-55.9,184.2-90.5,433.4-117.6,601.4"/>
      <path class="st34" d="M1984.2,1694.8c-11.9,75.8-28.7,179.1-40.8,254.8"/>
      <path class="st33" d="M2089.6,1712c-15-2.4-473.6-77.6-503.1-82.6"/>
      <path class="st45" d="M1841.4,1286.6c-35.6,226.3-68.9,435.3-101.8,634.8"/>
      <path class="st34" d="M1765.2,1762.2c-94.7-15-320.6-51.4-412.8-66.4"/>
      <path class="st40" d="M1583.2,1633.2l43-271.8,3.6-17.2c8.2-28.2,33.3-93.9,42.8-121.4"/>
      <path class="st27" d="M637.7,1306.6c-74.2-12.1-343.4-57.2-350.5-58.3"/>
      <path class="st26" d="M603.5,1513.4c-54.6-8.8-348.7-57.5-350-57.7"/>
      <path class="st32" d="M684.7,1022.2c-1.2,5.1-115.8,703-126.4,764.4"/>
      <path class="st32" d="M470.9,1772.2c-5.4,32.6-19.7,121.7-25,154.4"/>
      <path class="st28" d="M1146.4,1879.2c-51.2-8.1-812.4-129.3-863.4-137.4"/>
      <path class="st35" d="M1146.4,1879.2c-11.4,72-26.9,175.5-38.2,248"/>
      <path class="st42" d="M1285.2,2204.8c12.5-74.9,32.5-194.1,44.8-269.2.2-8.4-1.8-19.8-4.4-27.8-2-6.4-3.5-16.3-3.8-23,3.4-33.8,25-153.5,30.6-189,24.5-145.1,62.3-385.7,88.6-530.8,2-4.9,6.8-14.2,9.6-18.8"/>
      <path class="st50" d="M907.7,1841.8c-7.9,49.4-23.6,145.1-31.6,194,2,14.3,26.5,19.3,34,7,8.1-48.5,23.8-146.6,32-195.6"/>
      <path class="st50" d="M654.5,2006.2c10.6,1.8,79.7,14.4,89.8,12.6,4.1-4.5,10.2-53.3,14.6-57.4,35.1,1.5,126.5,21.1,160.4,25.4"/>
      <path class="st44" d="M698.7,1808.8c-2.3,14.8-28.6,177.6-31.8,197"/>
      <path class="st43" d="M1483.8,1941.2c-9.1,57.7-24.8,161-33.8,219.2"/>
      <path class="st28" d="M1146.4,1879.2s165.3,26.6,179.2,28.6c5.2,3.8,13.1,10.3,29.1,14.7s99.8,15.8,129.4,20"/>
      <path class="st24" d="M1704.8,2109.4s8.8-6,12.1-22.8,12.9-72.1,12.9-72.1c0,0,.6-5.6.6-7.6-.2-12.4-10-24.1-12.4-26.9"/>
      <path class="st28" d="M2527,2104c-28.3-4.7-795.8-131.2-795.8-131.2l-3.6-.6-8.4-10c-4-.5-11.9-1.7-15.8-2.4,0,0-335.3-54.2-347.6-55.4s-24.5,2.5-30.2,3.4"/>
      <path class="st30" d="M130.9,1779c-6.3,10-18.3,31.2-22.8,42-4.2,15.4-16.4,74.4-16.4,74.4-1.9,9.1-5.6,27.5-7.2,36.6"/>
      <path class="st30" d="M122.9,1932l4.8-29.6s9.9-67.6,9.6-76.4c-.9-11.5-4.4-35.5-6.4-47"/>
      <path class="st28" d="M283.1,1741.8c-14.9-4.2-41.3-12.9-56.4-15-12.5-1.9-37-2.2-49.6-2.6-25.9,4-107.6,25.6-134.4,31.6"/>
      <path class="st28" d="M139.9,1732.2c6.8,1.2,34.5,6.7,40.8,6.6,31.7,1.9,70.6,2.8,102.4,3"/>
      <path class="st30" d="M130.9,1779c2.3-11.5,6.9-35.4,9-46.8"/>
      <path class="st30" d="M139.9,1732.2c6-7.8,17.2-21.9,20.8-31,23.5-71,33-174.4,45.2-248.4,20.2-122.1,42.9-262.5,63-384.8,0,0,10.8-55.6,10.8-55.6.6-11.9,2.6-44.3,3-56.2"/>
      <path class="st30" d="M282.7,956.2c-5.7,11.6-26.1,50.5-32.4,62.8-7.8,26.7-20,87.7-24.8,115.6-10.8,61.6-25.6,153.6-35.2,215.8-18.6,107.6-38.8,237.9-55.8,345.4-.2,9,3.9,27.7,5.4,36.4"/>
      <path class="st30" d="M282.7,956.2c24.8-74,54.2-164.7,77.8-239.4"/>
      <path class="st33" d="M1186.8,37.1c-15.5,57-37.8,140-53.4,197"/>
      <path class="st56" d="M2202.2,659.8l-79.9-22-65.5-18.8-7.1,24.8,65.6,18.8s0,0,.1,0l41.9,11.5s33.4,7.9,36.4,16.2-.4,7.5-.4,7.5c-8.5,30.9-17.9,65.9-27.9,103-12.8,47.2-25.9,95.9-36.9,135.6l34.9,9.6c11-39.8,24.2-88.6,37-135.8,10.1-37.5,20.1-72.8,28.2-104s-5-40-26.2-46.4Z"/>
    </g>
    <g id="centerlines">
      <path class="st51" d="M560.8,81.2l-24-6.4"/>
      <path class="st51" d="M2258.7,534.6l-85.6-22.8-48.2-12.8-39.2-10.2"/>
      <path class="st51" d="M1665.5,384.2l97.8,26.2,23.2,6,168,44.8,22,6,27.6,7.2,4.8,1.4,23.2,6,5.4,1.6,14,2.6,34.2,2.8"/>
      <path class="st51" d="M2085.7,488.8l-18.6-10-13-5.2-12.4-3.4-6.2-1.8-27.8-7.6-27.4-7.2-22.2-6-168-44.8-22.8-6-98.2-26.2"/>
      <path class="st51" d="M1589.9,356.4l34.6,16,12.4,4.4,11,2.8,17.6,4.6"/>
      <path class="st51" d="M1669.1,370.6l-17.2-4.6-10-2.6-14-3.2-38-3.8"/>
      <path class="st51" d="M1589.9,356.4l-23.8-6.2-110-29.4-10-2.8"/>
      <path class="st51" d="M1446.1,318l-11-2.8-30-8.2-56-14.8-74.8-20-24-6.6-72.6-19.4-6-1.6-35.6-9.6"/>
      <path class="st51" d="M1136.2,235l-126.2-33.8-44.6-11.8-30.8-8.2"/>
      <path class="st51" d="M934.6,181.2l-80.8-21.8-73.6-19.6-60.8-16.2-8-2-71.4-19.2-37.6-10.2-6.8-1.8-34.8-9.2"/>
      <path class="st51" d="M560.8,81.2l-6.2,21.4"/>
      <path class="st51" d="M506.8,259.6l21.2-69.4,4.8-15.2,20.2-66.2,1.6-6.2"/>
      <path class="st51" d="M497,289.4l9.8-29.8"/>
      <path class="st51" d="M450.8,436l12.4-40,14.4-46,19.4-60.6"/>
      <path class="st51" d="M363.2,717.8l14-45.8,8.8-28.2,10.2-33.2,26-83.4,28.6-91.2"/>
      <path class="st51" d="M899.4,1057.2l-207.6-33.2-4.4-.8"/>
      <path class="st51" d="M687.4,1023.2l-24.2-3.8"/>
      <path class="st51" d="M663.2,1019.4h-1l-164-26.4-117-19.8-68.8-11.4-14.8-2.6"/>
      <path class="st51" d="M1087.6,1087.4l-13.8-2.2-106.8-17-52.2-8.4-15.4-2.6"/>
      <path class="st51" d="M1453.3,1147.2l-27-4.8-225-36.8-113.8-18.2"/>
      <path class="st51" d="M1675.3,1223.8l-12.4-4.8-22.6-8.4-75.2-27.8-72-26.6-9.2-3-9.4-2.2-21.2-3.8"/>
      <path class="st51" d="M1844.1,1287.6l-14-5.6-7.4-3.2-23.8-9-100.6-37.6-9.6-3.6-13.4-4.8"/>
      <path class="st51" d="M2237.3,1329.2l159.4-599,6.6-24.6"/>
      <path class="st51" d="M2377.1,565.2l2.8,10.2,2.2,9.8,1.4,9.2,2,21.4.2,24.4-1,24.2-3,20.8-5.4,26.6-148.2,554-32.4,122-4.4,15.2"/>
      <path class="st51" d="M2288.5,542.4l-29.8-7.8"/>
      <path class="st51" d="M2288.5,542.4l73.4,19,15.2,3.8"/>
      <path class="st51" d="M2404.3,572l-27.2-6.8"/>
      <path class="st51" d="M2468.7,589.4l-52.8-14.2-11.6-3.2"/>
      <path class="st51" d="M2403.3,705.6l4.6-23,2.6-22.6.6-24.2-.6-17-.8-11.6-1-9.4-2-12.8-2.4-13"/>
      <path class="st51" d="M2434.9,2088.8l-23.4-4-62.8-10.6-65.8-11.2-8.8-1.6-91.2-15.4"/>
      <path class="st51" d="M2434.9,2088.8l22.2,3.8,16.4,2.8,13.6,2.4,42.6,7.2"/>
      <path class="st51" d="M2421.5,1512.4l151.2,56"/>
      <path class="st51" d="M2424.7,1491.2l-13-5-182-68.2-15-5.8"/>
      <path class="st51" d="M2209.3,1432.4l16.4,6.4,87.8,34.2,92.6,33.6,15.4,5.8"/>
      <path class="st51" d="M2214.7,1412.2l3.6-12.4,19-70.6"/>
      <path class="st51" d="M2214.7,1412.2l-23.4-9.2"/>
      <path class="st51" d="M2039.1,1368.4l21,8,65.6,24.8,26.8,10,33.2,12.4"/>
      <path class="st51" d="M2191.3,1403l-31.2-12.2-23.8-8.8-20-6.2-50.4-14.6-2.8-.8-22.2-6.6"/>
      <path class="st51" d="M2040.9,1353.8l-21.8-6.8-6.6-2-73-26.2-62.6-23.6-14-4-3.6-.6-15.2-3"/>
      <path class="st51" d="M1844.1,1287.6l14.8,12.8,10.8,6,68.4,26,73.4,26.2,3.4,1.2,24.2,8.6"/>
      <path class="st51" d="M2191.3,1403l-5.6,20.6"/>
      <path class="st51" d="M2185.7,1423.6l23.6,8.8"/>
      <path class="st51" d="M2209.3,1432.4l5.4-20.2"/>
      <path class="st51" d="M2145.5,1720.8l12.8-79.6,7.2-34.4,7.2-31,33-129,3.6-14.4"/>
      <path class="st51" d="M2185.7,1423.6l-3.4,13.6-27.8,103-12.4,50.8-13,70.8-35.2,212.4-21.2,123.4-4.6,27.4"/>
      <path class="st51" d="M561,1787.6l-22.6-3.8-64.8-10.6"/>
      <path class="st51" d="M473.6,1773.2l-45.6-7.2-100-16.4-42.2-6.8"/>
      <path class="st51" d="M701.4,1809.8l-140.4-22.2"/>
      <path class="st51" d="M910.4,1842.8l-209-33"/>
      <path class="st51" d="M944.8,1848.2l-34.4-5.4"/>
      <path class="st51" d="M1149.2,1880.2l-114.2-17.8-87.2-13.6-3-.6"/>
      <path class="st51" d="M1267.2,1899.2l38.8,6.2,22.4,3.4"/>
      <path class="st51" d="M1267.2,1899.2l-118-19"/>
      <path class="st51" d="M1488.9,1926l-49.6-7.8-80.8-12.8-7.8-.4-22.4,3.8"/>
      <path class="st51" d="M1328.3,1908.8l20.6,10.4,8,2,80,13,49.6,8"/>
      <path class="st51" d="M1733.9,1973.8l-3.6-.6-8.4-10-8.8-1.2-7-1.2-217.2-34.8"/>
      <path class="st51" d="M1486.5,1942.2l213.8,25.8,3.2.6,6.4,1.2,9.2,1.4,7.6,1.4,7.2,1.2"/>
      <path class="st51" d="M1834.1,1986.6l-100.2-12.8"/>
      <path class="st51" d="M1917.3,2000.8l-83.2-14.2"/>
      <path class="st51" d="M1917.3,2000.8l41.8,7"/>
      <path class="st51" d="M1959.1,2007.8l84.6,14.4,7.8,1.4,16.6,2.8"/>
      <path class="st51" d="M2094.7,2029l4.4-26.4,10-60,36.4-221.8"/>
      <path class="st51" d="M2182.9,2046l-74.8-12.8-13.4-2.2"/>
      <path class="st51" d="M2094.7,2031l-26.6-4.6"/>
      <path class="st51" d="M130.4,1903.4l3.8-23.2"/>
      <path class="st51" d="M98.4,1877.6l-4,18.8"/>
      <path class="st51" d="M94.4,1896.4l-4,19.4-3.2,17.2"/>
      <path class="st51" d="M125.6,1933l4.8-29.6"/>
      <path class="st51" d="M133.6,1780l-13.8,23.2-9,18.8"/>
      <path class="st51" d="M110.8,1822l-2.8,10.8-6,27.2-3.6,17.6"/>
      <path class="st51" d="M134.2,1880.2l5.2-40.4.6-12.8"/>
      <path class="st51" d="M140,1827l-2.2-20.4-4.2-26.6"/>
      <path class="st51" d="M285.8,1742.8l-32.2-9.4-7.8-2.4-16.4-3.2-10.2-1.2-29.6-1.2h-5.2l-4.6-.2-12.4,2-24.8,6-97.2,23.6"/>
      <path class="st51" d="M142.6,1733.2l31.8,5.8,9,.8,4.8.4,31.6,1.2,16.8.6,15.2.4,34,.4"/>
      <path class="st51" d="M133.6,1780l5.2-26.6,3.8-20.2"/>
      <path class="st51" d="M142.6,1733.2l11.6-15.2,8.8-14.2.4-1.6,3.6-9.2,14.6-61.2,12.2-77.2,14.8-100.8,7.2-44,8.8-53.2,2.2-13.2,16.6-101.6,16.6-102.2,11.6-70.6,10.8-55.6,2-35.8,1-20.4"/>
      <path class="st51" d="M285.4,957.2l-9.6,18.8-22.8,44-11.8,47-13,68.6-5.4,31.8-12,70.6-15.6,99.8-2.2,13.6-17.6,104-17.4,110.2-8.4,51.8-6.4,41.4-6,38,.8,11.6,4.6,24.8"/>
      <path class="st51" d="M285.4,957.2l8-24,19-57.6,17.2-52.2,6.4-20.4,27.2-85.2"/>
    </g>
    <g id="sidewalks">
      <path class="st57" d="M896.4,1860.6l1.6.6,4,2.6,1.8,2.4.8,4.4v1.4l-16.2,99.6-.6,1.6-2.4,4-2.6,1.8-4.4.8h-1.4l-2.4-.4-109.8-18.4-4.4.6-2,3.8-9.6,46-.6,1.6-2.8,3.8-2.6,1.6-4.2.8h-1.4l-52.2-9.8-1.4-.6-4-2.6-1.8-2.6-.8-4.2v-1.4l25.6-158,.6-1.4,2.6-4.2,2.4-1.6,4.4-1h1.4l182.4,28.8ZM713.4,1835.8l-4.2.8-2.6,4-25.6,158,.8,4.2,4,2.8,52.2,9.6,4.2-.6,2.8-4,9.6-46.6,3.2-6,7-1.2,110.4,18.8,2.4.4,4.4-1,2.6-4,16.2-99.6-1-4.2-4-2.6-182.4-28.8Z"/>
      <path class="st57" d="M930.6,1866l1.6.6,4,2.4,1.8,2.6.8,4.4.2,1.4-16.4,100-.4,1.4-2.6,4.2-2.6,1.6-4.4,1h-1.4l-17-2.8-1.6-.6-4-2.8-1.8-2.4-.8-4.2-.2-1.6,16.4-99.6.6-1.6,2.6-4,2.4-1.8,4.4-.8,1.4-.2,17,2.8ZM913,1867.2l-4.4,1-2.6,4-16.2,99.6,1,4.4,4,2.6,17,2.8,4.4-.8,2.6-4,16.2-100-1-4.4-4-2.6-17-2.6Z"/>
      <path class="st57" d="M1942.9,1803.6l1.6.6,4,2.6,1.8,2.4,1,4.4v1.4l-11.8,73-13,80.8-.6,1.6-2.4,4-2.6,1.6-4.4,1h-1.4l-79.8-13.6-80.8-10.2-1.6-.6-4-2.4-2-2.6-1-4.4v-1.6l3.2-19.8,10-61.8,11.8-73.6.6-1.6,2.6-4,2.4-1.8,4.2-.8,1.6-.2,160.6,25.6ZM1781.7,1782l-4.4,1-2.6,4-11.6,73.6-10,61.8-3.2,19.8,1,4.4,4.2,2.6,80.8,10.4,79.8,13.6,4.4-1,2.6-4,13-80.8,11.6-73-.8-4.2-4.2-2.6-160.6-25.6Z"/>
      <path class="st57" d="M1373.9,1712.6l7.4,1.2,86,13.8,79.2,12.8,1.6.4,4,2.6,1.8,2.6,1,4.2v1.6l-13.8,86.2,19.8,3.2,13.6-86.2.6-1.6,2.6-4,2.6-1.8,4.2-1h1.6l157,25.4h0l1.6.2,1.6.6,4,2.4,1.8,2.6,1,4.4.2,1.4-11.8,73.6-10,61.8-2,12-.4,1.6-2.6,4-2.6,1.8-4,1h-1.6l-3.2-.4h-.2l-.2-.2-7.2-1.2-217.2-34.8-56.4-8.8h-.2l-74.8-11.8-11.4-.6h-2.2l-4.6-1.2-2.8-2.4-2.2-5.6-.4-2.2,4.2-26.8v-.2l20.6-122.8.6-1.6,2.6-4,2.6-1.6,4.2-1h1.4l2.4.4ZM1370.9,1716l-4.2,1-2.6,4-20.6,122.8v.2l-4.2,26.8,2.4,5.8,4.6,1h1l12,.6,75,11.8h0l56.6,9,217.4,34.8,7,1.2h.2l3.4.4,4.2-1,2.6-4,1.8-12,10-61.8,11.8-73.6-1-4.4-4.2-2.4-1.6-.4-157-25.2-4.4,1-2.6,4-14.2,90.2-27.6-4.4,14.2-90.2-1-4.4-4-2.6-79.2-12.8-86-13.8-7.6-1.2-2.2-.4Z"/>
      <path class="st57" d="M1800.5,1677.8l158.6,26,1.4.6,4,2.6,1.8,2.4,1,4.4v1.4l-8.4,52.2-.6,1.6-2.6,4-2.4,1.8-4.4.8-1.4.2-160.6-25.6-1.6-.6-4-2.4-1.8-2.6-.8-4.4-.2-1.4,8.8-53,.6-1.6,2.6-4,2.4-1.8,4.4-.8h1.4l1.8.2ZM1798.1,1681.4l-4.4,1-2.6,4-8.6,53,1,4.4,4,2.6,160.6,25.4,4.4-1,2.4-4,8.4-52.2-.8-4.2-4-2.8-158.8-25.8-1.6-.4Z"/>
      <path class="st57" d="M477.8,1506.2l99.4,16.2.8.2,1.6.6,4,2.6,1.6,2.4,1,4.4v1.4l-25.8,157.2-10.2,61-.4,1.6-2.8,4-2.4,1.8-4.4.8-1.4.2-63.8-10.6h0l-45.4-7.2h-.2l-100-16.4-40.4-6.4h-.2l-.6-.2-.4-.2-29.8-8.6h-.2l-9-2.8-17.8-3.6-12.2-1.4-20.6-.8-1.4-.4-4.4-2-2.2-2.8-1.2-5.2v-2l13.4-56,12.2-77.8h0l12-81.2.6-1.6,2.4-4,2.6-1.8,4.4-1h1.6l239.6,39.6ZM237.4,1470.6l-4.4,1-2.4,4-12,81.2h0l-12.4,78-13.4,56.2,1.4,5.4,4.2,2,20.8.8,12.2,1.4,18.4,3.8,9.2,2.6.2.2,29.8,8.6.6.2,40.4,6.6,100.2,16.4h0l45.4,7.2,63.8,10.4,4.4-1,2.6-4,10-61,25.8-157.2-.8-4.4-4-2.4-.8-.2-99.4-16.2-239.8-39.6Z"/>
      <path class="st57" d="M1761.5,1671.4l1.4.6,4,2.6,1.8,2.4,1,4.4v1.4l-8.6,53.2-.6,1.6-2.6,4-2.6,1.8-4.2,1h-1.4l-2-.4h-.2l-157-25.2-1.6-.6-4-2.6-1.8-2.6-1-4.2v-1.4l8.6-54.4.6-1.4,2.6-4,2.6-1.8,4.2-1h1.6l159.2,26.6ZM1601.5,1648.8l-4.2.8-2.6,4.2-8.6,54.2,1,4.2,4,2.6,157,25.4h0l2.2.2,4.2-1,2.6-4,8.6-53.2-.8-4.2-4.2-2.8-159.2-26.4Z"/>
      <path class="st57" d="M2061.1,1379.6l47,13.6h.2l19.4,6,.4.2h.2l22.4,8.4h.2l11.8,4.6,1.4.8,3.4,3.4,1.2,3.2-.4,5-.6,1.8-44.2,79,18,10,47-83.8,1-1.4,4-2.8,2.6-.8,3.6.2,1.2.4,19.4,7.6,175.6,65.6,1.4,1,3.4,3.2,1.2,2.6.2,3.8v1.2l-36.4,148.2,6.2,1.6,1.6.6,3.8,3,1.4,2.4.8,3.8v1.4l-9,57.8-.6,1.4-2.6,4.2-2.6,1.8-4.2.8h-1.6l-97.6-15.6-97.2-15.8h-.2l-5.6-1-12.6-2h0l-53-7.8h-.4l-81.4-13.4-1.4-.6-4.2-2.6-1.6-2.6-1-4.2v-1.4l11.6-71.4,28.8-180.4h0l2.8-20,.2-.4,2.4-12.2v-.2l.4-1.4,2.6-4.2,2.6-1.8,5.2-1,1.8.2ZM2060.1,1383.4l-5.2.8-2.6,4.2v.4l-2.4,12.2v.2l-2.8,20-29,180.4-11.4,71.4.8,4.2,4,2.6,81.6,13.4h.2l53,7.8,12.6,2,5.6,1h.2l97.4,15.8,97.4,15.8,4.4-1,2.6-4,9-57.8-.6-3.8-3.8-3-10.4-2.4,37.4-152.2-.2-3.6-3.4-3.4-175.6-65.8-19.4-7.6-3.6-.2-3.8,2.8-49,87.6-25-14,46.2-82.6.4-5.2-3.4-3.2-11.8-4.6-.2-.2-22.4-8.2-.4-.2-19.4-6h-.2l-46.8-13.6Z"/>
      <path class="st57" d="M1468.1,1168.8h.4l.2.2,7.2,1.6h.2l.6.2h.2l7.4,2.6h.2l71.6,26.4,75.2,27.8,16.6,6.2,1.2.8,3.6,3.4,1.2,2.8v4.2l-.2,1.6-27.4,76.4-5.4,17.6-3.8,18.2-38.6,243.4-.6,1.6-2.6,4-1.4,1-5.4,32.8,1.6,2.4.8,4.2.2,1.4-8.6,54.4-.6,1.6-2.6,4-2.6,1.8-4.2,1h-1.6l-79.2-12.8-91-14.6-2.2-.4h0l-2.2-.2-1.6-.6-4-2.6-1.8-2.6-.8-4.2-.2-1.6,23.4-141.4,45.8-276.4,13-79.2.6-1.4,2.6-4,2.6-1.8,4.4-.8,1.6-.2,6.2,1.2ZM1461.1,1171.6l-4.4,1-2.6,4-13,79-45.8,276.4-23.4,141.4,1,4.4,4,2.6,2.2.4h0l2.2.2,91,14.8,79.2,12.6,4.4-.8,2.6-4.2,8.6-54.4-1-4.2-2-1.4,6.2-37.4,1.6-.4,2.6-4,38.6-243.6,3.8-18.2,5.6-18.2,27.4-76.4v-4.4l-3.4-3.2-16.6-6.2-75.2-27.8-71.6-26.4h-.2l-7.4-2.6h-.4l-7.4-1.8h-.2l-6.4-1.2Z"/>
      <path class="st57" d="M1858.7,1309.6l9.2,2.8h.6l.2.2,61.8,23.2v.2l73.6,26.2,6.8,2.2h.2l3.6,1,1.4.8,3.6,3.2,1.4,2.4.4,3.4v1l-.2,2h0v.6h0l-.4,1.6-.4,3v.6h0l-2.2,11.4-2.8,19.4-.2.4h0l-30,188.2v.2l-10.4,64.2-.6,1.6-2.6,4-2.6,1.8-4.2.8h-1.6l-158.2-25.8-2-.4-1.6-.6-4-2.6-1.8-2.4-.8-4.2v-1.6l11.4-72.6,5-32.6h0l22.8-140.6,5.2-32.4v-.2l2.6-15.6h0l4.2-26.6.6-1.6,2.4-4,2.8-1.8,5-.8h1.8ZM1857.5,1313.6l-5,.8-2.4,4-4.2,26.6-2.6,15.8h0l-5.2,32.4-22.8,140.6h0l-5,32.6-11.6,72.6,1,4.4,4,2.6,2,.2,158.4,26,4.2-1,2.6-4,10.4-64.2v-.2l30.2-188.6h0l2.8-19.4,2.2-11.6.2-.4.2-2.8.4-2v-.2l.4-2-.6-3.4-3.6-3.2-3.6-1h0l-7.2-2.2-73.6-26.4h0l-61.8-23.2-.4-.2-9.4-2.6Z"/>
      <path class="st57" d="M1685.3,1247.8l3.8,1.4,100.6,37.6h0l23.2,8.6v.2h.4l6.8,3,3,1.2,1.2,1,3.4,3.4,1.2,2.4.2,3v1l-4.8,30.8h0v.2l-2.6,15.6h0l-5.2,32.6-22.8,140.6-6,39.6h0l-10.4,65.4-.6,1.4-2.6,4.2-2.6,1.6-4.2,1h-1.6l-159.2-26.6-1.6-.4-4-2.8-1.8-2.4-.8-4.2v-1.6l38.4-243v-.4l3.4-16v-.2l.2-.6v-.2l4.8-15.4v-.2l.2-.2,27.2-75.6.8-1.4,3.2-3.6,2.8-1.2h4.6l1.4.2ZM1683.9,1251.6h-4.4l-3.4,3.4-27.2,75.6v.4l-4.8,15.4v.6l-3.4,16v.2l-38.6,243,1,4.4,4,2.6,159.4,26.4,4.2-.8,2.6-4,10.4-65.4h0l6-39.6,22.8-140.6,5.2-32.6,2.6-15.8h0l5-30.8-.4-3-3.4-3.4-2.8-1.2-7-3-.4-.2-23-8.6h0l-100.6-37.6-3.8-1.4Z"/>
      <path class="st57" d="M512.2,1299.2l99.8,16.4,1.6.6,4,2.6,1.8,2.6.8,4.2.2,1.4-13.4,81.2-13,78-.6,1.6-2.6,4-2.4,1.8-4.4,1h-1.4l-.8-.2-99.2-16.2-240.2-39.8-1.6-.6-4-2.4-1.8-2.6-.8-4.4-.2-1.4,2.6-15.4,8.8-53.2,2.2-13.2,12.6-77.6.6-1.4,2.6-4,2.6-1.8,4.2-1h1.6l240.4,39.8ZM271.2,1263.4l-4.4.8-2.6,4.2-12.6,77.4-2.2,13.2-8.8,53.2-2.6,15.4,1,4.4,4,2.6,240.2,39.6,99.2,16.2.8.2,4.2-1,2.6-4,13-78,13.4-81.2-1-4.2-4-2.6-100-16.6-240.2-39.6Z"/>
      <path class="st57" d="M2220.3,1262.2l-18,67.2-.6,1.4-3,3.8-2.8,1.4-4.2.6-1.4-.2-31.8-8-1.4,5.2,31.6,8.2,1.4.6,3.8,3,1.6,2.6.4,4.4v1.6l-3.8,14.4-.8,1.4-3,3.8-3,1.4-5,.4-1.6-.4-13.4-5.2-24.4-9-20.8-6.4-50.6-14.8-2.6-.6h0l-2.8-1-1.4-.8-3.8-3-1.4-2.6-.4-3.8v-1.2l1.8-8.4h0v-.4h0l2.2-8.8v-.2l13.8-51v-.2l1.8-6.2h0l21-77.2,56.4-207.4.8-1.6,3-3.6,2.6-1.6,4.6-.4,1.6.2,114.8,36.4,1.4.8,3.6,3.2,1.4,2.6.4,4.2-.2,1.4-3.4,12.8-64.4,241ZM2280.9,1020l3.4-12.8-.4-4-3.6-3.2-114.8-36.4-4.6.4-3,3.8-56.4,207.4-21,77.2-1.8,6.4h0l-13.8,51.2h0l-2.2,8.8v.2l-1.6,8.4.4,3.8,3.8,3,2.6.8h0l2.6.8,50.8,14.8,21,6.4,24.4,9,13.4,5.4,5-.4,3-3.8,3.8-14.2-.4-4.4-3.8-3-35.4-9.2,3.2-13,35.8,9.2,4.2-.6,3-3.6,17.8-67.2,55-205.4,9.6-35.8Z"/>
      <path class="st57" d="M1891.9,1174.2l153.4,48.4,1.4.8,3.6,3,1.4,2.8.4,4.2-.2,1.2-2.4,9v.4l-1.8,6.4h0l-13.8,51.4-2.6,10.2-1,4.4-.6,1.6-2.8,3.8-2.8,1.6-4.8.6h-1.8l-.6-.2-.2-.2h-.2l-72-25.8-.2-.2h0l-63.2-23.8-15.2-4.4-1.4-.6-3.8-3-1.4-2.8-.4-4.2.2-1.4,20.2-76.2.6-1.6,3-3.8,2.8-1.4,4.6-.4,1.6.2ZM1890.7,1178l-4.6.4-3,3.8-20.2,76.2.4,4.2,3.8,3,15.2,4.4,63.4,24v-.2l.2.2,72,25.8.2.2.8.2,4.8-.6,2.8-4,.8-4.6,2.6-10.4,14-51.4,1.8-6.6h0l2.4-9-.4-4-3.6-3.2-153.4-48.4Z"/>
      <path class="st57" d="M375.8,991.2h0l117.2,19.8,160.4,25.8,1.4.6,4.2,2.6,1,1.2,3.8,5.6.6,1.4,1,4.2v1.6l-37.2,225.6-.4,1.4-2.8,4-2.4,1.8-4.4,1h-1.4l-100-16.6-240.6-39.6-1.6-.6-4-2.6-1.6-2.6-1-4.2v-1.4l12.8-78.8,11.6-70.6v-.4l11-56,1.2-23.8.6-1.4,2-4.4,2.6-2,4.8-1.4h1.8l59.4,9.8ZM315.6,985.4l-4.8,1.2-2.2,4.2-1.2,24-11,56.4v.2l-11.6,70.6-12.8,78.8.8,4.2,4,2.6,240.6,39.8,100,16.4,4.4-.8,2.6-4.2,37-225.4-.8-4.4-3.8-5.6-4-2.6-160.6-25.8-117-19.8h0l-59.6-9.8Z"/>
      <path class="st57" d="M1729.5,1122.2l52.2,16.6,44.8,14.6,23.2,7.2.2.2,6,2,1.4.8,3.6,3.2,1.4,2.6.4,4-.2,1.4-20.4,76.6-.6,1.6-3,3.6-3,1.6-5.2.2-1.8-.4h0l-24.4-9.2-96.8-36.2h0l-8.6-3.2-1.4-.8-3.4-3.4-1.2-2.8-.2-4.2.4-1.4,24.2-68.4.8-1.4,3.4-3.4,2.6-1.2,4.2-.2h1.4ZM1728.3,1126.2l-4.2.2-3.2,3.4-24.4,68.2.2,4.4,3.4,3.2,8.6,3.4h0l96.8,36,24.4,9.4h.2l5.2-.2,3-3.8,20.4-76.6-.4-4-3.6-3.2-6.2-2h0l-23.2-7.4-44.8-14.4-52.2-16.6Z"/>
      <path class="st57" d="M1915.3,1088l153.6,48,1.4.8,3.6,3,1.4,2.8.4,4-.2,1.6-5,18.4-12.2,45-.8,1.4-3,3.8-2.8,1.4-4.6.4-1.4-.2-153.4-48.4-1.4-.8-3.6-3-1.4-2.8-.4-4,.2-1.4,17-63,.8-1.4,3-3.8,2.6-1.4,4.6-.4h1.6ZM1914.1,1091.8l-4.6.6-3,3.6-17,63,.4,4.2,3.6,3,153.4,48.4,4.6-.4,3-3.6,12.2-45,5-18.6-.4-4.2-3.6-3-153.6-48Z"/>
      <path class="st57" d="M1506.7,1051.2l184.8,59,1.4.8,3.6,3.2,1.4,2.6.2,4.6-.2,1.6-23.8,66.4-.8,1.4-3.2,3.6-2.8,1.2-4.6.2-1.4-.4-16-5.8-75.2-27.8-72.2-26.8-10.6-3.4-2.4-.6-1.4-.6-3.8-2.8-1.6-2.8-.6-4.4v-1.6l16.4-60.6.8-1.6,3-3.8,2.8-1.4,4.6-.4,1.6.2ZM1505.5,1055l-4.6.4-3,3.8-16.4,60.6.4,4.6,4,2.8,2.6.6,10.6,3.4,72.4,26.8,75.2,27.8,16,6,4.4-.2,3.4-3.4,23.6-66.6-.2-4.4-3.6-3.2-184.8-59Z"/>
      <path class="st57" d="M1759.3,1038.6l120,38.2,1.4.8,3.6,3.2,1.4,2.6.2,4.2v1.4l-17,62.6-.8,1.6-3,3.8-2.8,1.4-4.6.4-1.6-.2-5.2-1.8v.2l-23.2-7.6-44.8-14.2-51.4-16.4-1.4-1-3.6-3-1.4-2.8-.2-4.6.2-1.6,21.8-61.2.8-1.2,3.4-3.6,2.6-1.2,4.2-.2,1.4.2ZM1758.1,1042.4l-4.2.2-3.2,3.4-21.8,61.2.2,4.6,3.6,3,51.4,16.4,44.8,14.4,23.2,7.6,5.2,1.6,4.6-.4,3-3.8,17.2-62.6-.4-4.2-3.6-3.2-120-38.2Z"/>
      <path class="st57" d="M1069.4,612l129.8,41.2,43.2,13.6,297.4,94.2,1.4.8,3.6,3.2,1.4,2.8.4,4-.2,1.4-19.6,73.4h0l-18.8,72-.8,1.6-2.8,3.6-2.8,1.6-4.6.4-1.6-.2-409-130.2-8.2,26.2,411,131,1.4.8,3.6,3.2,1.4,2.8.4,4-.2,1.4-16.6,62.4-.8,1.6-3,3.6-2.8,1.6-4.6.4-1.6-.2h-.4l-404.6-129.8-1.2,3.8,404.6,129.8h0l1.4.4,1.4.8,3.6,3.2,1.4,2.6.4,4.2v1.4l-16.6,60.8v.2l-.2.6v.2l-1.6,4.4-1,1.4-3.4,3.4-2.4,1.2-3.4.4h-1l-15.6-2.8-225.2-36.8-102.2-16.4-1.6-.6-4-2.6-1.8-2.6-.8-5.2.2-1.6,1.2-4-2,6.4-.6,1.4-3.2,3.6-2.4,1.4-3.6.6h-1.4l-5.4-.8-106.8-17-41.6-6.8-1.4-.6-4.2-2.4-1.8-3-.6-5.2v-1.8l24.4-74h.2l18.6-55.4.8-1.4,3.2-3.4,2.6-1.4,4-.4,1.4.2,48,12.8,7-26.6-45-12-1.4-.8-3.8-3-1.4-2.8-.4-4.8.2-1.6,57-169.4.8-1.4,2-2.2,20-60.4.8-1.4,3.2-3.6,2.8-1.4,4.4-.2,1.4.2ZM1068.2,615.8l-4.4.2-3.2,3.6-20.2,61.4-2.6,2.8-57,169.4.2,4.6,3.8,3,49,13.2-9.2,34.4-51.8-14-4,.4-3.2,3.6-18.8,55.2h0l-24.4,74,.8,5.4,4,2.4,41.6,6.8,106.8,17,5.6.8,3.6-.4,3-3.8,5.8-19.6,7-22.8h0l7.6-23.4,7.6,2.4-7.6,23.4h0l-7,22.6h0l-5,17.2.8,5,4,2.6,102.2,16.4,225.4,36.8,15.4,2.8,3.4-.4,3.4-3.4,1.6-4.4.2-.6,16.4-61-.4-4-3.6-3.2-1.4-.4h0l-408.4-131,3.6-11.4,408.4,130.8.4.2,4.6-.4,3-3.8,16.8-62.4-.4-4.2-3.6-3.2-414.8-132.2,10.8-34,412.6,131.6,4.6-.4,3-3.8,18.6-72h.2l19.6-73.4-.4-4.2-3.6-3.2-297.4-94.2-43.2-13.6-129.8-41.2Z"/>
      <path class="st57" d="M1954.1,903.4l.8-1.4,2.8-3.8,2.8-1.4,4.6-.6,1.6.2,77.8,24.8,76.2,24,1.4.8,3.6,3.2,1.4,2.6.4,4.2-.2,1.4-39.2,144.8-.8,1.4-3,3.8-2.8,1.4-4.6.4-1.6-.2-153.4-47.8-1.4-.8-3.6-3.2-1.4-2.6-.4-4.2.2-1.4,15.2-55.6,4.8-18,18.8-72ZM1965.5,900.2l-4.6.4-3,3.8-18.8,72-4.8,18.2-15.2,55.4.4,4.2,3.6,3.2,153.4,47.8,4.6-.4,3-3.6,39.4-144.8-.4-4.2-3.6-3.2-76.2-24-77.8-24.8Z"/>
      <path class="st57" d="M1529.7,965.4l53.6,17.2,58.4,18.4,79.6,25.4,1.4.8,3.6,3.2,1.4,2.8.2,4.4-.2,1.6-21.8,61.2-.8,1.4-3.4,3.4-2.6,1.4-4.2.2-1.4-.2-186.6-59.6-1.4-.8-3.6-3-1.4-2.8-.4-4v-1.4l16.8-62.6.8-1.4,3-3.8,2.8-1.6,4.6-.4,1.6.2ZM1528.5,969.2l-4.8.4-3,3.8-16.6,62.6.4,4.2,3.6,3,186.6,59.6,4.2-.2,3.2-3.6,21.8-61.2-.2-4.4-3.6-3.2-79.6-25.4-58.4-18.4-53.6-17.2Z"/>
      <path class="st57" d="M1580.3,773.8l348.2,110.6,2,.6,1.4.8,3.6,3,1.6,2.6.4,4.2-.2,1.4-19.2,73.8h0v.2l-4.8,17.8v.2h0l-14.8,54-.8,1.4-3,3.8-2.8,1.4-4.6.4h-1.6l-235.6-75.4-58.4-18.4-56-17.8-1.4-.8-3.6-3.2-1.4-2.6-.4-4,.2-1.4,19.2-74v-.2l19.2-71.4.8-1.6,3-3.6,2.8-1.6,4.6-.4,1.6.2ZM1579.1,777.6l-4.6.4-3,3.8-19.4,71.6h0l-19.2,74,.4,4,3.6,3.2,56,17.8,58.4,18.4,235.6,75.4,4.6-.6,3-3.6,15-54.2h0l4.8-18h0l19.2-73.8-.4-4.2-3.8-3-2-.6-348.2-110.6Z"/>
      <path class="st57" d="M744.2,829.2l40.4,10.8,148.4,39.6,1.4.8,3.8,3,1.4,2.8.4,4.8-.2,1.6-17.8,52.8-26.4,80.4-.8,1.4-3.2,3.6-2.4,1.4-3.6.4h-1.2l-191.4-30.6-3.2-.6-1.4-.6-4.2-2.4-1.6-2.8-.8-5.2v-1.8l.6-1.8.2-.4h0l21-64.6,3.4-10.8h0v-.2l14.2-42.6,10.8-32.4,1-1.6,3.2-3.4,2.6-1.4,4-.4,1.4.2ZM743.2,833l-4.2.4-3.2,3.6-10.8,32.6-14.2,42.6h0l-3.6,10.8-20.8,64.8-.2.2-.4,1.8.6,5.2,4.2,2.4,3,.6,191.6,30.6,3.4-.4,3.2-3.6,26.4-80.6,17.8-52.8-.4-4.6-3.8-3-148.2-39.8-40.4-10.8Z"/>
      <path class="st57" d="M388.6,737.4l7.4,2,163,43.4h0l6.6,1.6,88.8,24.4,41.8,11.2,1.6.8,3.6,3,1.6,2.8.2,4.6v1.6l-8.8,26.4-14.2,42.8-3.6,11-21.2,65-2.6,8.8-.8,1.6-3.2,3.6-2.4,1.4-3.6.4h-1.2l-142-22.8h-.2l-116.8-19.8-58.2-9.6-1.4-.6-4.2-2.6-1.6-3-.8-5,.2-1.8,15.8-47.8,17.2-52.4,6.4-20.4h0l20.4-64,.8-1.4,3.2-3.6,2.6-1.4,4.2-.4,1.4.2ZM387.6,741.2l-4.2.4-3.2,3.6-20.4,64h0l-6.4,20.4-17.2,52.4-15.8,47.8.6,5.2,4.2,2.6,58,9.6,116.8,19.8h0l142.2,22.8,3.6-.4,3.2-3.8,2.6-8.8,21.2-65,3.6-11,14.2-42.8,8.8-26.4-.4-4.8-3.8-3-41.8-11.2-88.8-24.2-6.6-1.8h0l-163-43.4-7.4-2Z"/>
      <path class="st57" d="M2021.5,697.2l154.8,41.6,1.4.8,3.8,3,1.4,2.6.6,4.4-.2,1.6-15.6,57.2-9,33.6-9.4,34.6-10.2,37.4-.8,1.4-3,3.8-2.8,1.4-4.4.4-1.6-.2-74.4-23.6-79.4-25.2-1.6-.8-3.6-3-1.2-2.8-.4-4.2.2-1.4,23.2-82.2,8.4-30.2,11.6-43,.8-1.6,3-3.6,2.6-1.6,4.4-.4h1.4ZM2020.5,701.2l-4.4.4-3,3.8-11.6,43h0l-8.4,30.2h0l-23.2,82.2.4,4.4,3.6,3,79.4,25.2,74.4,23.6,4.6-.4,3-3.8,10.2-37.2,9.4-34.8,9-33.4,15.6-57.4-.6-4.2-3.6-3-154.8-41.6Z"/>
      <path class="st57" d="M1628.9,591.6l62.6,17,293.6,78.8,1.4.8,3.8,3,1.4,2.6.6,4.4-.2,1.6-12.4,45.6v.4l-6.4,22.6h0l-24.2,85.4-.6,1.6-3,3.6-2.8,1.4-4.4.4h-1.6l-.6-.2-.4-.2-349.6-111-1.4-.8-3.6-3.2-1.4-2.6-.4-4,.2-1.4,18-67,19.2-71.6.6-1.6,3-3.6,2.8-1.6,4.2-.4h1.6ZM1627.9,595.4l-4.4.6-3,3.8-19.2,71.8-18,66.8.4,4,3.6,3.2,349.6,111h.2l.8.2,4.4-.4,3-3.6,24.2-85.4v-.2l6.4-22.8h0l12.4-45.6-.6-4.4-3.6-3-293.6-79-62.6-17Z"/>
      <path class="st57" d="M814,617.4l38,9.6,96.4,24.2,56.6,14.2,1.4.8,3.8,3,1.6,2.8.4,4.8-.2,1.6-57,169-.8,1.4-3.2,3.4-2.6,1.4-4,.2h-1.4l-151.2-40.6-37.8-10-1.4-.6-3.8-3-1.4-2.8-.4-4.8v-1.6l55.2-166.4.8-1.4,3.2-3.6,2.6-1.4,4-.4,1.2.2ZM813,621.2l-3.8.4-3.2,3.6-55.2,166.6.6,4.6,3.6,3,37.8,10,151.2,40.6,4-.4,3.2-3.6,57-168.8-.4-5-3.8-2.8-56.6-14.4-96.4-24.2-38-9.6Z"/>
      <path class="st57" d="M459.4,519.2l3.4,3.8.4.6,238.4,64,65.8,17.6,1.4.8,3.6,3,1.6,2.8.4,4.6-.2,1.6-56,169.6-.8,1.4-3.2,3.4-2.6,1.4-4.2.4-1.4-.2-41.6-11.2h0l-91.6-25-6.6-1.8-163-43.4-5.6-1.4-1.4-.8-3.8-3-1.6-2.6-.4-4.6.2-1.6,6.6-21.8v-.2l8.8-28,10.2-33.2h0l26-83.2,2.4-7.8.8-1.4,3.2-3.6,2.8-1.4,4.8-.2,3.2,1.4ZM456.4,521.8l-4.8.2-3.2,3.6-2.4,7.6-26,83.4h0l-10.2,33.2-8.6,28v.2l-6.8,21.8.4,4.6,3.8,2.8,5.6,1.6,163,43.4,6.6,1.8,91.6,25h0l41.6,11.2,4.2-.4,3.2-3.6,56-169.4-.4-4.8-3.8-3-65.6-17.4-240.2-64.6-.6-1.4-3.4-3.8Z"/>
      <path class="st57" d="M1152,259l12.4,3.4,6,1.6,72.6,19.4h0l24,6.6,75,20,54.4,14.4h.2l19,5.2,1.4.8,3.8,3,1.4,2.6.6,4.4-.2,1.4-21.8,83,27.4,7.2,21.8-82.8.8-1.4,3-3.8,2.6-1.4,4.4-.6,1.6.2,96.6,25.8,21.2,5.6h.2l1.2.4.2.2,33,15.2,14.2,5,8.6,2.2,1.6.8,3.8,3,1.4,2.6.6,4.4-.2,1.6-17.2,63.2h0v.2l-2.6,9.2-18.4,68.6-.8,1.4-3,3.8-2.6,1.4-4.4.6-1.4-.2-174.6-46.2-6.4,23.6,174.6,46.2,1.4.6,3.8,3,1.4,2.8.6,4.4-.2,1.4-17.8,67.2h0l-18.8,69.6-.8,1.4-3,3.8-2.8,1.4-4.6.4h-1.6l-295.6-94-43.2-13.6-131.2-41.4-1.4-.8-3.6-3.2-1.2-2.8-.4-4.2.2-1.6,4.2-13.4h0l28.6-87.8.8-1.4,3.2-3.6,2.6-1.2,4.4-.4,1.4.2,169.6,51.6,7.2-23.2-168.8-51.4-1.6-.8-3.6-3.2-1.4-2.8-.4-4.4.2-1.6,43.2-132-16.8-5.6-1.6-.8-3.4-3.2-1.4-2.6-.4-4.2.2-1.2,4.4-16.2.6-1.4,3-3.8,2.8-1.4,4.2-.4h1.6ZM1151,262.8l-4.4.6-3,3.6-4.4,16.2.4,4,3.6,3.2,20.6,6.8-44.4,135.8.4,4.6,3.6,3.2,172.8,52.4-9.4,31-173.6-52.8-4.2.4-3.2,3.6-28.6,87.6h0l-4.2,13.4.4,4.4,3.6,3.2,131,41.4,43.2,13.6,295.6,93.8,4.6-.4,3-3.6,19-69.6h0l17.8-67.2-.6-4.4-3.6-3-178.4-47.2,8.2-31.2,178.6,47.2,4.2-.6,3-3.6,18.6-68.6,2.6-9.4h0l17.2-63.4-.6-4.4-3.8-3-8.8-2.2-14.6-5.2-33-15.2-1-.4-21.2-5.6-96.8-25.8-4.2.6-3,3.8-23,86.4-35.2-9.2,23-86.8-.4-4.2-3.8-3-19.2-5.4h0l-54.4-14.4-75-20-24-6.6h0l-72.6-19.4-6-1.6-12.4-3.4Z"/>
      <path class="st57" d="M1678.7,407.4l77.4,20.8c6.7,1.5,178.2,47.3,191.2,50.8,11.9,3.4,36.7,9.9,48.8,13h0c3.4,1.3,24,6.3,28,7.4l.2.2c13.4,4.6,40.7,6.3,55,7.4.5,0,1.3.3,1.8.2,0,0,36.6,9.6,36.6,9.6h0c27.5,7.6,84.3,21.7,111.8,30.2,0,0,3.8,2.8,3.8,2.8l1.6,2.8.4,4.4c-2.9,15.4-20.8,76.8-23.6,91-.4,1.2-3.5,6.8-4.2,8-.4.9-4,3.5-4.8,4.2,0,0-2.4,1-2.4,1h-3.2c-35.8-9.5-106.3-29.2-141.6-39.6,0,0-14-1-14-1-13.1,1.5-11.2,1.4-22.4,8.2,0,0-7.6,9.8-7.6,9.8l-4.8,9.2c-.5.7-2.8,10.5-3.6,10.8-3.2,3.9-4.5,5.2-10,5.6-1.6.3-289.2-77.9-290.8-78,0,0-67.3-18.2-67.2-18.2,0,0-1.5-.6-1.4-.6-.1-.1-3.9-3.1-3.8-3,0-.1-1.5-2.9-1.4-2.8-.1-1.3-.5-5.9-.4-5.8,1.9-6.9,19.9-74.4,21-77.4h0l17.4-63.8s.6-1.6.6-1.6c3.7-5,5.4-5.6,11.6-5.6ZM1677.7,411.4l-4.4.4s-3,3.8-3,3.8c-1.6,5.7-18.9,69.6-20,73h0l-18.4,68.2.6,4.4,3.8,3,67,18.2c4.2-.3,289.5,80.7,293.6,77.4,0,0,3-3.8,3-3.8l3-9.8,5.2-9.8,8.2-10.6c12.7-7.6,10.2-7.4,25.2-9.2,9.6-2.2,71.1,17.6,81.4,20.2l74.2,20.4h3.2l3.8-3c.5-1.1,3.5-6.8,3.8-7.8,2.5-15.7,22.6-76.7,23-93.4l-3.8-3c-27.1-7.3-83.5-22.3-110.4-29.2,0,0-36.7-9.6-36.6-9.6-.4,0-1.2-.2-1-.2-15.4-1.1-41.8-2.8-55.8-7.6h0l-.2-.2c-4-1.2-24.6-6-28-7.4-33.2-8.6-181.1-48.3-217-57.8l-23-5.8v-.2l-77.4-20.6Z"/>
      <path class="st57" d="M883.8,404.8l94.4,25.2,95.4,25.4,1.4.6,3.8,3,1.6,2.8.2,4.6v1.6l-28.4,87h0l-4,13-.8,1.4-1.2,1.4-21.2,64.4-.8,1.4-3.2,3.6-2.8,1.2-3.8.4h-1.4l-58.6-15-96.4-24.2-34.8-8.6-1.6-.8-3.8-3-1.4-2.8-.6-4.6.2-1.6,27-82.6,28.6-87.2.8-1.4,3.2-3.6,2.8-1.4,4-.4,1.4.2ZM882.8,408.6l-4.2.4-3.2,3.6-28.6,87.2-27,82.6.6,4.8,3.6,2.8,35,8.8,96.4,24.2,58.6,14.8,4-.2,3.2-3.6,21.6-65.4,1.6-1.8,4-13h0l28.4-87-.4-4.6-3.8-3-95.4-25.4-94.4-25.2Z"/>
      <path class="st57" d="M522.8,307.8l22.8,6.2,95.2,26,70.2,19.2,125.8,33,1.6.8,3.8,3,1.4,2.8.4,4.6-.2,1.6-27.8,84.8-27.8,85.4-.8,1.4-3.2,3.6-2.6,1.2-4.2.4-1.4-.2-68-18-219.4-59-1.6-1-4.2-4-1.2-1.8-13.2-43-.2-1.2v-3.6l.2-1.2,2.4-7.8v-.2l12.4-39.8,14.4-45.8v-.2l13-40.8.8-1.4,3.2-3.6,2.6-1.2,4.2-.4,1.4.2ZM521.8,311.6l-4.2.4-3.2,3.6-13,40.6h0l-14.4,45.8-12.4,40h0l-2.4,8v3.6l13.2,43,4.2,4,219.4,59,68.2,18.2,4-.4,3.2-3.6,28-85.2,27.6-84.8-.4-4.6-3.8-3-125.8-33.2-70.2-19.2-95.2-26-22.8-6.2Z"/>
      <path class="st57" d="M548,195.2v-.2l4.8-15.2h0l20.2-65.8.8-1.4,3-3.6,2.8-1.4,4-.4,1.4.2,10,2.6h0l37.6,10.2,71.6,19.2,7.8,2h.2l60.8,16.2,73.4,19.6,80.8,21.8,31,8.2,44.4,11.8,103,27.6,1.4.6,3.8,3,1.6,2.8.4,4.4-.2,1.4-22.4,82.6,19,5,1.4.8,3.8,3,1.4,2.8.4,4.6-.2,1.6-21.6,66.6-.8,1.4-3.2,3.6-2.8,1.4-4,.2h-1.4l-97.6-26-92.4-24.6-1.4-.8-3.8-3-1.6-2.8-.4-4.6.2-1.6,9.4-29.4-27.2-8.6-10,31.6-.8,1.4-3.2,3.6-2.6,1.4-4,.4-1.4-.2-128.2-33.6h0l-70-19.2-90.8-24.8h0l-25.2-6.8-1.4-.8-3.8-3-1.4-2.8-.4-4.6.2-1.6,2.4-7.6,21.2-69.2ZM584,111.2l-4.2.4-3,3.6-20,65.8-5,15.4h0l-21.2,69.4-2.4,7.4.4,4.6,3.8,3,25,7h.2l90.6,24.8,70,19.2h.2l128,33.6,4-.4,3.2-3.6,11.2-35.4,34.8,11-10.6,33.2.4,4.6,3.8,3,92.4,24.8,97.6,25.8,4.2-.2,3.2-3.6,21.6-66.6-.4-4.6-3.8-3-22.6-6.2,23.4-86.4-.4-4.4-3.8-3-103-27.6-44.4-11.8-31-8.2-80.8-21.8-73.6-19.6-60.8-16.2-7.8-1.8-71.6-19.4-37.6-10.2h0l-10-2.6Z"/>
      <path class="st57" d="M712.2,1054.8l.8.2,675.2,109.2.8.2,1.6.4,1.4.6,1.4.8,1.2.6,1.4,1,1.2,1.2,1,1.2.8,1.2.8,1.2.8,1.6.4,1.4.4,1.6.2,1.4v3.2l-.2.8-109.2,675.2-.2.8-.4,1.6-.6,1.4-.8,1.4-.6,1.2-1,1.4-1.2,1.2-1.2,1-1.2.8-1.2.8-1.6.8-1.4.4-1.6.4-1.4.2h-3.2l-.8-.2-675.2-109.2-.8-.2-1.6-.4-1.4-.6-1.4-.8-1.2-.6-1.4-1-1.2-1.2-1-1.2-.8-1.2-.8-1.2-.8-1.6-.4-1.4-.4-1.6-.2-1.4v-3.2l.2-.8,109.2-675.2.2-.8.4-1.6.6-1.4.8-1.4.6-1.2,1-1.4,1.2-1.2,1.2-1,1.2-.8,1.2-.8,1.6-.8,1.4-.4,1.6-.4,1.4-.2h3.2ZM711.8,1062.8h-1.6l-1.6.2-1.4.4-1.4.8-1.2,1-1,1.4-.6,1.4-.4,1.4h0l-109.4,675.2h0v1.6l.2,1.6.4,1.4.8,1.4,1,1.2,1.4,1,1.4.6,1.4.4h0l675.2,109.4h1.6l1.6-.2,1.4-.4,1.4-.8,1.2-1,1-1.4.6-1.4.4-1.4h0l109.4-675.2h0v-1.6l-.2-1.6-.4-1.4-.8-1.4-1-1.2-1.4-1-1.4-.6-1.4-.4h0l-675.2-109.4Z"/>
    </g>
    <g id="paths">
      <path class="st0" d="M708.2,1062.4l3,6.2,4.2,7.6,4.8,7,4.2,5.6,6.6,7.6,8,7.4"/>
      <path class="st0" d="M716.4,1057.4l7,4.8,6.2,5.6,4.8,6.2,2.2,5,1.2,9.4,1.2,15.4,11.4,34.4,22.8,69.6,3.2,6.8,5.6,8.6,5.6,5.4,13.4,11,13.4,11,13.4,11.6,11.2,9,4.6,5.6,3.4,6.6,2.6,8.4,2.6,13.4,2,15.4,1.8,16.2,2,11,3,9.2,4,9.4,5.6,10,6.2,9,15.8,20.2,14.4,17.6,11.6,12.4,10.2,9.8"/>
      <path class="st0" d="M750.4,1138.2l19-4.6,24-4,19.6-3.2,20.4-1.6,18.8-.2,18.6,1.4,18.2,2.6,13.6,2.8,48.4,9.2,84.6,22.2,11.4,2.6,11,1.8,9.8,1.4,10.2,2,11.4,4.6,11.2,7.2,14,8.4,16,8,14.8,5.8,14.2,4,12.8,2.2,15.2,1.8,14.4,1.2,15.6.6,16.4-.4,18.6-.8,21.8-1,11.6.4,10,1,7.8,1.6,10,3.4,11.2,5.2,10,5.2"/>
      <path class="st0" d="M1057.4,1126.4l.2,4.8,2.8,9.2"/>
      <path class="st0" d="M1060.4,1140.4l5.8-7.8,2.2-4.8"/>
      <path class="st0" d="M1069,1125.2l-.6,2.6"/>
      <path class="st0" d="M1057.6,1123.4l-.2,3"/>
      <path class="st0" d="M1361.5,1203.6l6.6-10.8,5.2-7.6,5.2-6.2,4.2-3.8,4.2-2.6,6.2-3,6.8-2"/>
      <path class="st0" d="M1353.3,1520.4l-8-1.4-5.6.4-6.6,1.4-5,1.4"/>
      <path class="st0" d="M1315.1,1274.6l3.4,17.4,2.6,22.8,2,22.4,1.6,22.6v25.6l-1.4,17-3.6,19.8-5.2,21-6.2,19.6-4.8,13-5.2,12.4-3.8,7.6"/>
      <path class="st0" d="M1158.2,1537.2l14,3.8,17.6,4.4,14.4,2.8,10,.6h8.6l10.2.2,7.8,1.2,6.8,1.6,13.6,4.4,12.6,4.8,9.2,3.6,5.6,2.6"/>
      <path class="st0" d="M1119.2,1430.6l-6.8,31.2-2,8.8-2,6.8-2.6,5.8"/>
      <path class="st0" d="M988.4,1422l13-2.6,13.8-1.6,14.4-.8,15,.4,10.2.8,4,.4,14.8,2.6,12.6,2.6,33,6.8,29.2,5.8,12.8,2.8,11.6,2.6,20.4,5,24.6,7.8,20.6,7.4,15.8,8.4,15,9.2,16.6,10,8.8,6.2,8.4,8,3.6,6.6,1.8,5.8.2,4.6"/>
      <path class="st0" d="M1154.6,1448.6l6.6-9.4"/>
      <path class="st0" d="M1054.8,1418.2l-4.8,19.8-2.4,10-1.2,4.8-1.4,6.6-.6,6.8-.4,4"/>
      <path class="st0" d="M593.8,1761.4l5.4-7.8,6.2-7,6.8-5.6,4-2.6,2.4-1.4,5-2.4,6-2.4,100-113.8,19.2-20.6,23.6-23.8,28.6-26.4,20.4-19.6,23-20.4,15.8-13.8,17.8-17,20.4-21.6,20.2-19.6,25.6-21.8,29-23.2,29.2-25.4,19-14.4,17.6-10.8,16.2-8.4,17.8-7.2,16.8-4.8,20.6-4.2,22-3.4,40.2-6.4,64.4-10.2,36.6-7.4,24-4.4,10.6-4,7-5,4.6-7.2,4.6-13.6,5.4-13.8,5.2-11,6.4-9,9.2-9.2,11-7.2,10.8-3.6,10.2-3.4,7.8-3.4,4-2.6,4-4.2,4.8-6.8,3.8-6.6"/>
      <path class="st0" d="M1047.6,1448l32.4,7,32.4,6.8"/>
      <path class="st0" d="M1080.4,1453.4l-.4,1.6-2,10"/>
      <path class="st0" d="M1078,1465l-.6,2.4"/>
      <path class="st0" d="M1077.4,1467.4l-1.4,6.6"/>
      <path class="st0" d="M1022.4,1693.6l8.6.4,10-.6,6.2-1.2,7.4-2.6,9-5.2,9.4-7,8.6-9,6-7.4,6.4-4.8,8-3.2,6.8-1.8,7.6-3.8,2-1.8,3.8-5.6,2.4-6,2.4-7.8,4-14.6,4.8-13.6,5.4-11.8,6.6-11.2,5.6-12.2,4.2-12.2.8-6.6-.2-6.8-1.2-6-4.6-9.2-9.6-11.2-11.6-11-13.2-10-12.2-6.6-10.4-4.6-14-3.8-5.4-.8-10-1.8-16.8-1.8-5.2-.2-10.6-.4-11.4.6-10.6.6-9.2,2.2-2.6-8.8-3-13-3.2-13.8-5-15.6-3.6-8.8-5.2-11.4-6.4-11.2"/>
      <path class="st0" d="M994.2,1543.6l-4.4-.2"/>
      <path class="st0" d="M989.8,1543.4l-6.4-.2"/>
      <path class="st0" d="M983.4,1543.2l-31.6-1.4"/>
      <path class="st0" d="M908.4,1549l11.2-19,3.8-4.6,6.8-4.4,5.8-2.4,6.4-1.8,6.8-.8h5.2l3,.4"/>
      <path class="st0" d="M934.4,1557.8h17"/>
      <path class="st0" d="M906.6,1552.2l-7.8,13.2"/>
      <path class="st0" d="M906.6,1552.2l1.8-3.2"/>
      <path class="st0" d="M922.2,1582.8l6.4-7,4.2-8.6,1.6-9.4-1.8-10.8-5-9.6-8-7.4-8.8-4-9.6-1.4-9.6,1.6-8.6,4.2-5.2,4.4-3.6,4.8-3,5.8-2.2,9.2.6,9.6,3.2,9,5.8,7.6,7.8,5.6,9,3.2,9.4.4,9.2-2.4"/>
      <path class="st0" d="M932.6,1448.4l11,9"/>
      <path class="st0" d="M928.8,1445.4l3.8,3"/>
      <path class="st0" d="M1060.4,1140.4l-2.4,26.8-2.6,25.8-1.6,33.6,3.6,39.4,3.2,19.8,6,20.8,6.4,17.8,3.8,13,4.8,22.2,7,33.6.8,9.8-.8,7.8-2.4,13-2.6,12.8"/>
      <path class="st0" d="M902.6,1131.4l-15.8,5.6-12.6,6.4-14.4,8.8-13,10-12.6,11.2-11,11.6-11.8,14.2-23.8,29.4-6.2,7.8-8.6,13.2-6.8,17.6-3.8,14.2-3.2,17.6-2.8,20-2.4,20.4-2.2,20.6,4.6,13.6,7.4,16,10,22.2,13.2,31.4,10,15.6,11.8,15.2,10.2,10.8,11.4,10.2,14.2,12.6,10.2,8.4,12.8,10.6,10.4,8.2"/>
      <path class="st0" d="M593.8,1761.4l41.8-254.8,13.6-82.8.8-5,.6-4.2,13.6-83,44-269.2,1-6.2-2-6"/>
      <path class="st0" d="M696.8,1426.8l-18.8-3-10.2,1.8-8.6-.2-10-1.6"/>
      <path class="st0" d="M650.6,1414.6l10,1.8,8,2.2,9.4,5.2"/>
      <path class="st0" d="M701.4,1472.6l-1.2-4-1-6.4-2-11.6-3.8-15.4"/>
      <path class="st0" d="M689.6,1472.8l7.2-.4,4.6.2,7,3,7.6,2.4,8,1.6,9.8.4,10.6-.4,11.4-.8,8-1,6.6-.4,5,.4,6.2,2.2,5.8,2.6,10,2.2,10,.4h6l5.4-.4"/>
      <path class="st0" d="M608,1763.8l14-10,2-2.4,1.2-2.4,1.2-3.6,3.2-13.2"/>
      <path class="st0" d="M955.4,1819.2l1-6.8v-3.2l-.8-7.2-2.2-8.2"/>
      <path class="st0" d="M943.2,1817.2l1.2-6.8,1-3.4,2.8-5.6,5.2-7.6,1.6-7,3.6-10.6,4.6-11.4,4.8-8.2,6.6-9.8,5-8.2,4.6-8.2"/>
      <path class="st0" d="M1001.6,1761.4l-2.6,11.6"/>
      <path class="st0" d="M1026,1757l-.8,8.2.2,7.6,1.4,6.2"/>
      <path class="st0" d="M1035.2,1743l-3.4,7.8"/>
      <path class="st0" d="M1026.2,1739.4l.2-4.8"/>
      <path class="st0" d="M1039.4,1723.6l7.2,3.4"/>
      <path class="st0" d="M1031.8,1750.8l-5.8,6.2-7.6,4.2-8.4,1.4-8.4-1.2-7.6-4-5.8-6-3.6-7.8-.6-6.4.2-6.8,1.6-4.8,4.8-7.2,7-5.2,8.2-2.8,8.6.2,3.2,1,5,1.8,6.8,5.6,4.6,7.2,2,8.2-.8,8.6"/>
      <path class="st0" d="M1026.4,1734.6l-1.2-4.4-2.6-3.8-3.8-3-4.2-1.6-4.8-.2-4.4,1.2-4,2.4-2.8,3.6-1.8,4.4-.4,4.8,1.2,4.6,2.6,4,3.8,3,4.4,1.6,4.8.2,4.6-1.2,4-2.6,2.8-3.8,1.6-4.4"/>
      <path class="st0" d="M996.8,1733.2l-12.6-2.8"/>
      <path class="st0" d="M898.8,1565.4l-2,3.4"/>
      <path class="st0" d="M896.8,1568.8l-10.4,17.6"/>
      <path class="st0" d="M914,1587.6l8.2-4.8"/>
      <path class="st0" d="M1017.6,1711.6l4.8-18-8-2.2-11-5.2-11.2-7.6-6.8-6.8-6.6-10-5.4-11-5-13.4-11.8-44.4-3.4-16-1.8-19.2.4-16,.8-6.4,2.2-11.4,2.6-7.6,4.4-9,6.8-9.6,9.2-10.2,8.8-7.4,8.8-4.4,6.8-2.6,1.2,3.6,1.8,3.6,8.8,16,.8,1.8-.2,1.8-1.2,1.4-2.2,1.8-5.4,5-4.2,4.6-3,5.8-2.2,6.2-1.4,7.2-.8,11.6"/>
      <path class="st0" d="M994.2,1543.6l-1,15.2-.6,20.8"/>
      <path class="st0" d="M985.8,1725.6l3.2-10.8,2.2-11.2,1-9.6.2-8.4-.2-7"/>
      <path class="st0" d="M1054.6,1689.6l-4.8,9-5.2,11.4-5.2,13.6-3.4,10.8"/>
      <path class="st0" d="M1148.2,1682.4l-23.6.2"/>
      <path class="st0" d="M1139.6,1732.8l-15-50.2-3.4-14.6-4.8-20.6"/>
      <path class="st0" d="M1200.8,1680.4v4.8l-2,2.6-3.2,1.2-3.4,1.2"/>
      <path class="st0" d="M1186,1705.4l3.8-6.6,2-6.6.4-2,.4-4.4-1.6-11-2.8-.8-3.4-2.4-1.8-3.2-3.8-8.8-4.6-3.4-5.8-3-6.6-1.4-6.4.2-5.8,1.8-6,4-6.6,4.2-9.2,4-7,2"/>
      <path class="st0" d="M1199.6,1672.6l.2,2"/>
      <path class="st0" d="M1190.2,1653.2l-3.2.4-3.8,1.4-2.8,2.2-1.2,2.4"/>
      <path class="st0" d="M1190.2,1653.2l-1.2-3.2-3-5-1.8-6.4-.8-6.2.8-5.4,2-4.4,3.2-3.4,3.8-2.8,4.4-1.6,5-1h5.2l5.6.6,6.2,2.4,5,4.2,2.6,4,1.6,3.8"/>
      <path class="st0" d="M1260.8,1667.2l13.6.8,6.6.2,4.8-.4,8.4-.8"/>
      <path class="st0" d="M1204.2,1548.2l-1.8,9.2-2.4,11-1.8,12.2-.6,12.6-.4,13.8.4,7.8,3.8,15.2,4.2,12.4,8.8,34.8,4.2,17.6,2.8,8.6,5,7.8,8,7.4,8,5.8,10.6,3.4,10.6,1.4,9.8,1"/>
      <path class="st0" d="M1191,1674.8l7-1.6,1.6-.6,4.6-2,6.2-2.4,9.2.2,7,3.4,5.2,3,4.8,6.6,3,4.4,4.8,3.2,4.4.2,8.2-3.4,3.2-3.8.8-4.6v-8.4l-.2-1.8-.4-8.8-1.2-10.6-2.4-8.2-4.2-5.6-4.8-4.2-5.4-2.4-5.6-.8-5.2.8-2.8,1.4-1.6.8-4.2,3.6-3,6-3,5.4-3.4,3.8-3.8,2.4-5.8,2.2-3.2.6-4,.4-3.2-.4-3.4-.4"/>
      <path class="st0" d="M1199.8,1674.6l1,5.8"/>
      <path class="st0" d="M1218.6,1694.8l-32.6,10.6"/>
      <path class="st0" d="M1266.2,1829l-2.4-10.2-1.4-9.6v-11l1-14,1.8-15.8,3-16.6,4-17.2,1.2-4.4,2.4-8.6,5.6-15.8,4.6-12,4.6-10.8,2.8-9.8.8-6.2.6-4.2,1-16-.6-16.6-2.2-22.6-3.6-22.6-1-11.6.2-6.2,2.2-8,3.2-6.8,4.6-5.4,4.8-8.4,2.8-6.2,2-7.4.4-4.2,7.6.4,6.8.4,5.2.6,4,3,6.4,3.8,5,1.8,8,1.2"/>
      <path class="st0" d="M1139.6,1732.8l6.8-8.4,8.2-5.6,10-4.2,21.4-9.2"/>
      <path class="st0" d="M1046.6,1727l14.6,8.2,16.6,10.8,18.8,10.2,17.2,7.2,20.8,7,15.2,3.6"/>
      <path class="st0" d="M1149.8,1774l6.2,1.2"/>
      <path class="st0" d="M1169.2,1800.6l-6.8-12.2-6.4-13.2-5.2-11.4-4.6-11.8-6.6-19.2"/>
      <path class="st0" d="M1185,1819.6l1-3.8,2.4-3.8,3.2-3,2-1.6,1.4-2,1.2-2.6.4-2.8"/>
      <path class="st0" d="M1221.4,1806.2l-1.4,5-1,7-.6,6.8-.8,36"/>
    </g>
    <g id="service">
      <path class="st52" d="M2181.1,365l-4.4,17-3.4,12.4-5,18.2"/>
      <path class="st52" d="M2168.3,412.6l-8.4,31-1.2,3-2.8,1.6-88.6-24.4-3-2.4v-4l7-25.6,2.2-2.6,2-.6,1.4-.6"/>
      <path class="st52" d="M2076.9,388l91.4,24.6"/>
      <path class="st52" d="M2173.1,511.8l5.8-20.6,4.8-17.2,10.2-37,2.4-5.2,5.8-3.8,5.6-.4,26,6.2"/>
      <path class="st52" d="M2121.1,604.8l7-25.8,6.8-25.6-22.6-6.2"/>
      <path class="st52" d="M2112.3,547.2l-18-4.8-41.4-11.2-14.2,53.4"/>
      <path class="st52" d="M2094.3,542.4l-13.4,51.6"/>
      <path class="st52" d="M2134.9,553.4l32.8,8.8"/>
      <path class="st52" d="M2124.9,499l-5.8,22-6.8,26.2"/>
      <path class="st52" d="M1906.7,532.6l27.6,7.4"/>
      <path class="st52" d="M1637.7,486.6l19.6,5.2,357.2,94.2,4.2.8,6.2-.2,7.2-1.2,6.6-.8,9.8.6,32.4,8.8,40.2,10.8,95,25.4,16,4.2"/>
      <path class="st52" d="M1958.1,447.6l-3.6,13.6-3.8,15.2-16.4,63.6"/>
      <path class="st52" d="M1495.5,438.2l65.4,17.8,60.4,16.4,19,5"/>
      <path class="st52" d="M1579.7,383.6l-18.8,72.4-20.4,79.2"/>
      <path class="st52" d="M1762.1,508.8l20.2-77.4,4.2-15,3.6-13.6"/>
      <path class="st52" d="M1610.3,588.4l-18.8-5.8-112.4-34.2-36.4-11-22.2-6.8h-3.2l-2.8,1.8-2.2,2.8-26,82,.2,2.4,1.6,1.2,17.8,5.2,2.6.2,2.6-.6,2-2.4,2-3.8,7-13.6,1.8-3.8,1.6-3.6"/>
      <path class="st52" d="M1296.8,498.4l35.6,9.4,35.6,9.2-14.4,56.6-35.2-9.8-16.4-4.6-21.2-6"/>
      <path class="st52" d="M1332.3,507.8l-14,56"/>
      <path class="st52" d="M1425.5,598.4l17.2-61"/>
      <path class="st52" d="M1477.7,505.2l17.8-67,16.6-63.6"/>
      <path class="st52" d="M1335.1,346l-23.8,87.4"/>
      <path class="st52" d="M1566.1,350.2l7.4-26"/>
      <path class="st52" d="M1578.7,309.8l-5.2,14.4"/>
      <path class="st52" d="M1590.9,256.2l7.2-35"/>
      <path class="st52" d="M463.2,396l23.4,6.4,237.2,64.6,99,26.8,8.8,2.4,9.4,2.6,212.6,58.6,11.2,3"/>
      <path class="st52" d="M723.8,467l-5.6,21.2"/>
      <path class="st52" d="M770.2,502.2l-52-14-54.6-14.4"/>
      <path class="st52" d="M646,330.2l-4,13.6-1.4,4.4-14.2,50.2"/>
      <path class="st52" d="M602.6,666l-182.8-49-23.6-6.4"/>
      <path class="st52" d="M1155.4,368.4l133.4,36.6"/>
      <path class="st52" d="M1165.8,332l132.6,36.2"/>
      <path class="st52" d="M1307.9,331l-9.6,37.2-9.6,36.8"/>
      <path class="st52" d="M1237.4,519.6l29.6,8.2,19.8,5.4"/>
      <path class="st52" d="M1261,614.4l13.8-42.6,6-18.6,6-20,10-34.8-101.2-27.6-8.2,29.6"/>
      <path class="st52" d="M1250.2,637.4l2.2,5.2"/>
      <path class="st52" d="M1252.4,642.6l4.6-2.6,2.2-3.2,3.8-12.6v-2l-.2-3.2-1.8-4.6-4.6,2.8-1.4,2.6-1,1.6-3.6,12.6-.2,3.4"/>
      <path class="st52" d="M1218.6,598.2l-9.2,30.6-4.4,14.4"/>
      <path class="st52" d="M1248.2,656.8l4.2-14.2"/>
      <path class="st52" d="M1201.4,1105.6l9.4-27,7.6-22.6,52-170.6,41.6-137-78.8-25.6-9.4-3.2"/>
      <path class="st52" d="M1183.8,716.6l-9-2.8-78-23.8-120.6,351.2-9.2,27"/>
      <path class="st52" d="M854,936.6l63.6-188.6,30.8-91.8,5-15.2"/>
      <path class="st52" d="M917.6,748l-90-25.2-1.6-3,.4-4,26.2-84.8,4.4-14.2"/>
      <path class="st52" d="M790.2,828.6l30.2-94.8"/>
      <path class="st52" d="M682.2,722.6l-17.4,59-4.8,15.8"/>
      <path class="st52" d="M421.2,654.4l-12-3.6-23.2-7"/>
      <path class="st52" d="M412,683.2l-11.8-3.8-23-7.4"/>
      <path class="st52" d="M428.4,632l-7.2,22.4-9.2,28.8-5.2,16.6"/>
      <path class="st52" d="M401.6,728l-4.2,13.4-4.8,16.2-22.2,70.6-1.8,5.4"/>
      <path class="st52" d="M706.8,577.6l-5.2,15.8-25.2,80-69.8-21.6-4,14.2-26.8,91.8-4.6,15.4-4.4,13.8-19.4,58.8-8.6,26-2,6-30.4,90.8-8.2,24.4"/>
      <path class="st52" d="M536.8,877.8l-168.2-44.2-16-4.2-23-6"/>
      <path class="st52" d="M547.4,845.8l5.4,1.4,5.6.4,5.8.6,74.8,24,3,1.6.6,3.4-1.4,26.4"/>
      <path class="st52" d="M692,919.4l-8.6-2.8-42.2-13-102.4-31.8"/>
      <path class="st52" d="M709.8,865.8l10.8,3.2,39.2,11.4,42.2,12.2"/>
      <path class="st52" d="M759.8,880.4l-11,37.4"/>
      <path class="st52" d="M934.6,950.8l-12.2-2.2-68.4-12-105.2-18.8-41.8-7.4-11.4-2"/>
      <path class="st52" d="M540.4,1102.2l-12.6,80.4"/>
      <path class="st52" d="M1698.3,1232.2l7.4-20.6,5.6-15.6-28.2-9.4-1.4-1.8.4-2.8"/>
      <path class="st52" d="M1711.3,1196l3.6-1.6,2.6-2.6,14.4-47.2-.6-4-3.2-3-23.6-7.4-4,.2-3.8,4-14.6,47.6"/>
      <path class="st52" d="M1876.1,1168.4l-15.2-4.8-8.6-2.8-23.2-7.4-44.8-14.4-277.2-88.4-18.6-5.8-21.2-6.8-212.2-68"/>
      <path class="st52" d="M1589.5,971.4l-5,15.4-10,31.2"/>
      <path class="st52" d="M1588.7,669.6l20.4,5.8,358.6,97.8,15,4"/>
      <path class="st52" d="M1312.7,779.6l207.4,65.4,19.4,6.4,19.2,6,89,28.4,264.6,84.2,16.4,5.2"/>
      <path class="st52" d="M1647.9,989.8l4.6-15,1.4-4.6,1.6-4.2,3-3,3.6-1,11.2-.8,2.2-1.8,2.4-3.2,6.6-24.2-.2-3.8-2.8-2.6-36.6-14.2-2.4-2.6v-2.8l2.8-10,2.4-10.2"/>
      <path class="st52" d="M2183.3,814.2l14.4,4,96.8,27.2"/>
      <path class="st52" d="M2174.3,847.6l14.2,3.8,24,6.6,5.4,4.8,1,7.6-1.8,7.8-3.6,7.6-5.8,5.2-8.2.4-20.4-5.4-14.2-3.6"/>
      <path class="st52" d="M2086.1,1172.4l15.2,4.6,70.8,22h5.2l6.4-2.8,3.4-6.6,16.8-65,6.8-17.8,9.8-17.2,11.6-18.6,7-15.4,20.8-78,3.2-11.8,5.8-22.6,25.6-97.8.6-6.6-3.8-19.8v-8l30.8-112.2"/>
      <path class="st52" d="M2121.5,651.2l-2.8,10.2-65,237.2-3.4,12.6-3,11-77.2,294,.4,5.6,3.6,6.4,7,2.8,67.2,20.6,15,4.4"/>
      <path class="st52" d="M1784.3,1139l-9,27.4,44.8,14.6,9-27.6"/>
      <path class="st52" d="M1852.3,1160.8l-14.6,49.4"/>
      <path class="st52" d="M1874.1,1175.4l14.4,4.2,71,20.8"/>
      <path class="st52" d="M2065.1,1249.6l15.4,4.4,2,.4,20.8,5.8,34.8,8.8,15.8-59-34.8-9.4"/>
      <path class="st52" d="M2119.1,1200.6l-15.8,59.6"/>
      <path class="st52" d="M2226.7,655.8l14.4,3.8,2.4.8,80,21.6,27.2,7.4-34.6,127"/>
      <path class="st52" d="M2350.7,689.4l7.4-26.2,1.2-9.6-1.2-28.2-2.4-4.2-6.2-2.6"/>
      <path class="st52" d="M1835.1,1345l14,2,3.8.6,4.6-.4,8.6-4h5.8l145,50.6,2,.8,15.2,5.4"/>
      <path class="st52" d="M1827.3,1393.2l14.2,2,3.6.6,20.6,2.8-7.8,56"/>
      <path class="st52" d="M2031.1,1420.4l-15.6-5-52.4-16.8-23.6-3.6-6.4.8-3,3.8-30.6,183.8"/>
      <path class="st52" d="M1799.5,1566.4l15,2.6,85,14.4,87.4,14.8,15.4,2.6,14,2,75.2,11.6,6.4-1.8,4.2-6.4,23-145.2-1.6-5-7.6-8-1.4-5,2.8-20.8"/>
      <path class="st52" d="M2071.3,1808.8l-10.2,63-6.2,35.8-83-12.8-2.2-.4-14.2-2.2"/>
      <path class="st52" d="M2071.3,1808.8l-85.6-13.8-14.2-2.4-16-2.4-85.8-13.8-16.8,99.8"/>
      <path class="st52" d="M1765.9,1527.6l-37.6-6.2-16.6,100.4,37.4,6.2"/>
      <path class="st52" d="M1749.1,1628l16.8-100.4"/>
      <path class="st52" d="M1555.3,1629.2l16.6,2.6,14,2.4"/>
      <path class="st52" d="M1784.3,1662.6h-4.4l-10.8,1-4-.4-179.2-29"/>
      <path class="st52" d="M1455.7,1814.6l264.4,41,17.4,2.8,14.8,2.2,14.2,2.2,86.4,13.4,86.4,13.4,16.2,2.6"/>
      <path class="st52" d="M1412.5,1803.8l43.8,7.2"/>
      <path class="st52" d="M1405.3,1846l7.2-42.2,8.8-51"/>
      <path class="st52" d="M1436.9,1934.2l2.4-16,2.8-17.8,13.6-85.8.6-3.6,13.2-82,2-13.4,2.4-14.2,58.2-359.6,9.2-14,19.6-122.4,4.2-22.6"/>
      <path class="st52" d="M1804.5,1533.8l-14.8-2.4-4.4-.8-19.4-3"/>
      <path class="st52" d="M1832.5,1360.6l-15.6-2.4-7.4-1.2-12.8-2.2-36.2-9-17-3.4-11-2-10.6-1.6-18.8-2.4-35.6-2.8-5.2-.6-9-1.6-7.2-1.4-8.4-1.8"/>
      <path class="st52" d="M260,1139.6l16.4,2.6,12.8,2,238.6,38.4,4.2.8-13.2,88.8-2.4,15-2.2,15-14.4,89.8-15,87-2.6,15.2-2.8,15.8-14.2,78.6-8.4,10-23.6,137.6-5.2,29.8"/>
      <path class="st52" d="M458.2,1674.4l94.2,17,24,4.2"/>
      <path class="st52" d="M1306,1905.4l-3.8,26.4-19.8,125.6"/>
      <path class="st52" d="M1035,1862.4l-4.2,26.4-18,115.6-13.8,88.8,15.4,10.8,82.4,20.6,14.2,3.6"/>
      <path class="st52" d="M669.6,2006.8l10.4,2,63,11.8,4-.8,1.8-3,10.4-49.8,2.4-4.6,5.2-.8,110,18.6,11,1.8,34.2,5.8"/>
      <path class="st52" d="M1720.1,1855.6l-4.2,24.8"/>
      <path class="st52" d="M1707.5,2110.4l5-4.2,4.2-6.4,3.2-12.2,12.6-72.2.2-4.8-.4-4.8-2.2-8.8"/>
      <path class="st52" d="M2109.1,1942.6l13.4,2,15,1.6,5.8-1.2,5.2-2,3.8-4.2,2-8,1.8-8.8,14.2-73.4"/>
      <path class="st52" d="M328,1749.6l-4,25.8-11,71.4-2,13-2,13.4.6,5,2,3"/>
      <path class="st52" d="M193.8,1554.6l16.2,2.8,24.2,4,222.6,37.2"/>
      <path class="st52" d="M499.8,1392l-255-41.8-5.6-1.4-8.4-4.4-4-1"/>
      <path class="st52" d="M289.2,1144.2l4-24.4,1.6-1.8,2.6-.6,53.4,8.8"/>
      <path class="st52" d="M350,709.6l13.2,8.2"/>
    </g>
    <g id="streets2" data-name="streets" class="st58">
      <path class="st38" d="M1976.8,673.8c-62.7-16.8-307.9-82.8-366-98.4"/>
      <path class="st31" d="M1587.2,355.5c8.7,4,38.2,18.2,47,20.4,6.6,1.7,21.9,5.6,28.6,7.4,107.5,28.7,259,69.1,366.6,97.6,12.4,4.6,40.4,5.8,53.6,7"/>
      <path class="st31" d="M2083,487.8s-18.6-10-18.6-10c-6.2-2.8-18.8-7.2-25.4-8.6-109.8-30.1-262.6-70.1-372.6-99.6-12-3.3-29.1-7.8-41.2-10.4,0,0-38-3.8-38-3.8"/>
      <path class="st32" d="M1495.8,119.9c-12.1,44.2-40.2,151.5-52.4,197.2"/>
      <path class="st31" d="M1587.2,355.5c-23.4-6-606.6-162.3-655.4-175.2"/>
      <path class="st56" d="M714.5,96.7c-49.8-13.3-128.1-34-176.8-47.1l-9.6,35.7c-26.1,84-169.4,544.4-193.6,623.6l51.8,15.8c23.3-76.5,158.1-509.7,190.5-613.9,42.5,11.3,90.5,24,124.9,33.2,74.4,19.9,151.4,40.4,223.6,59.9l12.8-47.3c-72.3-19.5-149.3-40.1-223.8-59.9Z"/>
      <path class="st37" d="M1029.5,660c-70.5-18-491.8-128-556.8-145.6"/>
      <path class="st38" d="M1083.9,446.8c-60.7-16.6-474.9-126.7-589.6-158.4"/>
      <path class="st37" d="M1562.2,756.2c-132.9-42-380.6-120.3-511-162"/>
      <path class="st41" d="M896.7,1056.2c27.2-82.8,178.2-536.3,185.4-558.2"/>
      <path class="st32" d="M660.5,1018.4c1.1-6.9,3.3-20.1,5.2-26.6,17.4-55.8,179.2-544.6,198.2-603.8"/>
      <path class="st36" d="M818.1,835.8c-20.5-5.6-60.7-16-81.4-21.8-3.5-.4-8.9-1.1-12.4-1.2-7.2.8-254-67.9-333.4-89"/>
      <path class="st49" d="M1084.9,1086.4c4.6-29.6,16.2-61.9,25.2-90.4"/>
      <path class="st49" d="M1110,996c5.5-2.5,14.8-8,19-12.3s10.2-12.9,14.9-23.1c16.8-37.3,31.3-88.6,44.5-127.8,5.9-20.8,15.7-50.7,23.4-78.2s8.7-29.5,9.8-41.4-1.3-18.3-11.4-21.6c-11.3-4.1-22,6.8-26.4,16.2s-61.8,186.2-78.2,246,.4,31.8.4,31.8l4,10.4"/>
      <path class="st29" d="M1841.4,1286.6c-42.8-17.5-298.4-111.8-351-131.4-10.6-4.1-28.6-7-39.8-9-89.1-15.5-1049.9-170.1-1155.8-188"/>
      <path class="st48" d="M1873.4,1167.4c-179.9-57.6-441.2-140.6-621-198.4"/>
      <path class="st36" d="M1899.8,1070c-98.4-31.1-601.5-191.4-614.6-195.6"/>
      <path class="st42" d="M1662.8,383.2c-14.2,53.6-184.3,692.8-199.6,741.2-2.4,5.6-9.2,16.7-12.6,21.8"/>
      <path class="st45" d="M2209.8,681.6c-4.7-4.8-8.3-8.6-14.3-10.3-13-3.7-45.9-12.7-64.7-17.9-20.1-5.6-40-11.4-64.7-18.5-6.1-1.7-10.9-3.5-17-3.9-16.6-1.6-27.4,4.9-34.1,20.5-2.1,4.9-3.7,10.1-5.1,15.3-18.1,66.3-40.1,147.3-59.3,212.6"/>
      <path class="st37" d="M2257.2,976.6c-13.1-4.2-673.5-213.6-695-220.4"/>
      <path class="st45" d="M1950.6,879.4c-13.7,54.3-93,347.1-109.2,407.2"/>
      <path class="st47" d="M2374.4,564.2c9.8,30.7,13.3,67.8,7.6,99.2-24.9,136.3-161.2,609.3-193.4,738.6"/>
      <path class="st47" d="M2400.3,566.6c9.8,30.7,13.3,67.8,7.6,99.2-24.9,136.3-161.2,609.3-193.4,738.6"/>
      <path class="st46" d="M2525,1103.6c-52.8-13.2-143.4-36.4-195.6-50.4"/>
      <path class="st39" d="M2234.6,1328.2c14.4,4,40-69.8,45.6-92,14.2-52,113-414,113-414,12.4-45.6,44.7-205.4,17.7-208.7"/>
      <path class="st31" d="M2466,588.4c-8.6-2.3-334.3-88-383-100.6"/>
      <path class="st45" d="M2401.6,571c-18.3-67.4-48-153-68.4-220.2"/>
      <path class="st45" d="M2309,359.4c4.2,13.1,60.6,188.7,65.4,204.8"/>
      <path class="st29" d="M2422,1490.2c-16.4-6.5-194.2-72.6-210-79l-23.4-9.2c-45.9-19.8-102.4-35.2-150.4-49.2-47.2-14.1-117.8-41.2-164-58.6-8.8-3-23.7-5.9-32.8-7.6"/>
      <path class="st34" d="M2145.8,941.2c-26.7,100.6-75.3,275.7-101.4,374.6-2.3,9.6-5,27.1-6.2,37l-1.8,14.6c-13.4,88.5-38,239.4-52.2,327.4"/>
      <path class="st29" d="M1841.4,1286.6s14.8,12.8,14.8,12.8l10.8,6c47.6,18.6,121.3,45.1,169.4,62,43.4,16.6,103.2,39.1,146.6,55.2l23.6,8.8c59.3,23.9,152.1,58.2,212.2,80l151.2,56"/>
      <path class="st33" d="M2508.6,1170.6l-2.6,9.4-62.2,225.8c-2.2,8.4-20.4,78-21.8,84.4l-3.2,21.2c-11.5,71.6-27.6,174.6-39,246.6-65.7-10.2-171.5-27.4-237-38.2"/>
      <path class="st47" d="M2183,1422.6c-55.9,184.2-90.5,433.4-117.6,601.4"/>
      <path class="st47" d="M2210,1422.6c-55.9,184.2-90.5,433.4-117.6,601.4"/>
      <path class="st34" d="M1984.2,1694.8c-11.9,75.8-28.7,179.1-40.8,254.8"/>
      <path class="st33" d="M2089.6,1712c-15-2.4-473.6-77.6-503.1-82.6"/>
      <path class="st45" d="M1841.4,1286.6c-35.6,226.3-68.9,435.3-101.8,634.8"/>
      <path class="st34" d="M1765.2,1762.2c-94.7-15-320.6-51.4-412.8-66.4"/>
      <path class="st40" d="M1583.2,1633.2l43-271.8,3.6-17.2c8.2-28.2,33.3-93.9,42.8-121.4"/>
      <path class="st27" d="M637.7,1306.6c-74.2-12.1-343.4-57.2-350.5-58.3"/>
      <path class="st26" d="M603.5,1513.4c-54.6-8.8-348.7-57.5-350-57.7"/>
      <path class="st32" d="M684.7,1022.2c-1.2,5.1-115.8,703-126.4,764.4"/>
      <path class="st32" d="M470.9,1772.2c-5.4,32.6-19.7,121.7-25,154.4"/>
      <path class="st28" d="M1146.4,1879.2c-51.2-8.1-812.4-129.3-863.4-137.4"/>
      <path class="st35" d="M1146.4,1879.2c-11.4,72-26.9,175.5-38.2,248"/>
      <path class="st42" d="M1285.2,2204.8c12.5-74.9,32.5-194.1,44.8-269.2.2-8.4-1.8-19.8-4.4-27.8-2-6.4-3.5-16.3-3.8-23,3.4-33.8,25-153.5,30.6-189,24.5-145.1,62.3-385.7,88.6-530.8,2-4.9,6.8-14.2,9.6-18.8"/>
      <path class="st50" d="M907.7,1841.8c-7.9,49.4-23.6,145.1-31.6,194,2,14.3,26.5,19.3,34,7,8.1-48.5,23.8-146.6,32-195.6"/>
      <path class="st50" d="M654.5,2006.2c10.6,1.8,79.7,14.4,89.8,12.6,4.1-4.5,10.2-53.3,14.6-57.4,35.1,1.5,126.5,21.1,160.4,25.4"/>
      <path class="st44" d="M698.7,1808.8c-2.3,14.8-28.6,177.6-31.8,197"/>
      <path class="st43" d="M1483.8,1941.2c-9.1,57.7-24.8,161-33.8,219.2"/>
      <path class="st28" d="M1146.4,1879.2s165.3,26.6,179.2,28.6c5.2,3.8,13.1,10.3,29.1,14.7s99.8,15.8,129.4,20"/>
      <path class="st24" d="M1704.8,2109.4s8.8-6,12.1-22.8,12.9-72.1,12.9-72.1c0,0,.6-5.6.6-7.6-.2-12.4-10-24.1-12.4-26.9"/>
      <path class="st28" d="M2527,2104c-28.3-4.7-795.8-131.2-795.8-131.2l-3.6-.6-8.4-10c-4-.5-11.9-1.7-15.8-2.4,0,0-335.3-54.2-347.6-55.4s-24.5,2.5-30.2,3.4"/>
      <path class="st30" d="M130.9,1779c-6.3,10-18.3,31.2-22.8,42-4.2,15.4-16.4,74.4-16.4,74.4-1.9,9.1-5.6,27.5-7.2,36.6"/>
      <path class="st30" d="M122.9,1932l4.8-29.6s9.9-67.6,9.6-76.4c-.9-11.5-4.4-35.5-6.4-47"/>
      <path class="st28" d="M283.1,1741.8c-14.9-4.2-41.3-12.9-56.4-15-12.5-1.9-37-2.2-49.6-2.6-25.9,4-107.6,25.6-134.4,31.6"/>
      <path class="st28" d="M139.9,1732.2c6.8,1.2,34.5,6.7,40.8,6.6,31.7,1.9,70.6,2.8,102.4,3"/>
      <path class="st30" d="M130.9,1779c2.3-11.5,6.9-35.4,9-46.8"/>
      <path class="st30" d="M139.9,1732.2c6-7.8,17.2-21.9,20.8-31,23.5-71,33-174.4,45.2-248.4,20.2-122.1,42.9-262.5,63-384.8,0,0,10.8-55.6,10.8-55.6.6-11.9,2.6-44.3,3-56.2"/>
      <path class="st30" d="M282.7,956.2c-5.7,11.6-26.1,50.5-32.4,62.8-7.8,26.7-20,87.7-24.8,115.6-10.8,61.6-25.6,153.6-35.2,215.8-18.6,107.6-38.8,237.9-55.8,345.4-.2,9,3.9,27.7,5.4,36.4"/>
      <path class="st30" d="M282.7,956.2c24.8-74,54.2-164.7,77.8-239.4"/>
      <path class="st33" d="M1186.8,37.1c-15.5,57-37.8,140-53.4,197"/>
      <path class="st56" d="M2202.2,659.8l-79.9-22-65.5-18.8-7.1,24.8,65.6,18.8s0,0,.1,0l41.9,11.5s33.4,7.9,36.4,16.2-.4,7.5-.4,7.5c-8.5,30.9-17.9,65.9-27.9,103-12.8,47.2-25.9,95.9-36.9,135.6l34.9,9.6c11-39.8,24.2-88.6,37-135.8,10.1-37.5,20.1-72.8,28.2-104s-5-40-26.2-46.4Z"/>
    </g>
  </g>
</svg>