<?xml version="1.0" encoding="UTF-8"?>
<svg id="Layer_1" xmlns="http://www.w3.org/2000/svg" version="1.1" viewBox="0 0 1309 1152.7">
  <!-- Generator: Adobe Illustrator 29.8.4, SVG Export Plug-In . SVG Version: 2.1.1 Build 6)  -->
  <defs>
    <style>
      .st0, .st1, .st2, .st3, .st4, .st5, .st6, .st7, .st8, .st9, .st10, .st11, .st12, .st13, .st14 {
        fill: none;
      }

      .st0, .st1, .st2, .st4, .st5, .st6, .st7, .st9, .st10, .st11, .st12, .st13, .st14 {
        stroke-linejoin: round;
      }

      .st0, .st1, .st2, .st4, .st5, .st6, .st7, .st11, .st12, .st13 {
        stroke-linecap: round;
      }

      .st0, .st1, .st2, .st5, .st6, .st8, .st9, .st10 {
        stroke: #000;
      }

      .st0, .st8 {
        stroke-width: 12px;
      }

      .st1, .st4 {
        stroke-width: 7px;
      }

      .st2 {
        stroke-width: 8px;
      }

      .st3 {
        stroke: #7f7c73;
        stroke-miterlimit: 10;
        stroke-width: 3px;
      }

      .st4 {
        stroke: #191919;
      }

      .st5, .st10 {
        stroke-width: 16px;
      }

      .st6, .st9 {
        stroke-width: 10px;
      }

      .st7, .st14 {
        stroke: #4c4c4c;
        stroke-width: 5px;
      }

      .st8 {
        stroke-linejoin: bevel;
      }

      .st11 {
        stroke-width: 1.5px;
      }

      .st11, .st12, .st13 {
        stroke: #ccc;
      }

      .st12 {
        stroke-dasharray: 1.5 1.5;
      }

      .st12, .st13 {
        stroke-width: 2px;
      }

      .st15 {
        fill: #7f7c73;
      }

      .st16 {
        fill: #333;
      }
    </style>
  </defs>
  <g id="blocks">
    <path d="M282.6,43.3l903.6,239.1,7.9,71.3-2.6,10.6-98.2,342.2-60.8,305.2-185.2-27.7s-6.6,91.2-25.1,108.3-70.7,40.3-134.1,32.4-293.3-90.5-347.4-105-237.8-76.6-252.3-84.6-26.4-43.6-21.1-62.1,34.3-251,34.3-251c9.2-50.2,33-142.7,33-142.7l88.5-257.6,59.4-178.3Z"/>
    <path class="st16" d="M673,979c.9-5.9,6.4-9.8,12.3-8.8,13.1,2.2,28,4.5,45,7.2,4.8.8,8,5.2,7.3,10-4.5,29.4-10.3,66.6-14.3,93.2-.3,1.9,1,3.7,2.9,4,1.9.3,3.7-1,4-2.9,4.1-26.6,9.8-63.7,14.3-93,.7-4.8,5.3-8.1,10.1-7.3,34.6,5.5,64.7,10.4,94.7,15.2h.1c4.6.8,7.6,5.2,6.8,9.8s0,.2,0,.3c-.1.8-.6,4-1.3,8.1-4.8,29.9-5.8,37.9-5.7,40.8-8.4,35.1-29.2,56.7-58.3,68.5-37.4,15.2-88.5,13.9-144.6,3.5,1.1-.8,2.1-1.9,2.6-3.5,0,0,17.1-100.1,24.2-144.9Z"/>
    <path class="st16" d="M571,478.6c2.8-14,46.4-124.7,35.2-128.7-9.5-1.8-11.2,12.7-14.7,20.4-4,11-8.6,23.5-11.2,31.5-7.1,29.3-25.2,63.4-22,92,5.9-3.4,9.4-7.8,12.6-15.2Z"/>
    <path class="st16" d="M463.1,522.7l74.2,12c2.6.4,5.1-1.2,5.8-3.8,2.7-10.7,6.4-21.4,9.7-31.9-8.9-25.8,14.3-71,20.8-99.3,2.6-8.2,7.2-20.7,11.3-31.8,3.9-12.8,10.5-29.7,24.1-24.4,6.5,3,8.5,9.8,5.8,19.8-4.2,15.8-30.6,99.6-37.3,117.8-4.1,9.9-9.3,15.7-18,20.1-3.1,9.8-6.6,20-9.2,29.9s1.2,5.9,4.2,6.3c35.2,5.4,131,21.8,166.4,27.4,4.3.7,8.4-1.9,9.8-6,5.7-17.5,17.2-62.5,21.3-77.7s-.8-5.6-3.6-6.5l-105.2-33.5c-1.8-.6-2.9-2.6-2.3-4.4s2.6-2.9,4.4-2.3l104.5,33.2c2.9.9,6-.8,6.8-3.7l20.7-77.2c.9-3.2-1-6.5-4.1-7.5l-234.9-74.5c-5.1-1.6-10.5,1.1-12.1,6.2-21.4,64.8-47.5,141.9-67.9,203.5-1.2,3.6,1.1,7.5,4.9,8.1Z"/>
    <path class="st16" d="M410.6,422.1c-.7,0-25.8-6.5-37.4-9.6s-6.5,1-7.5,4.1l-25.3,78.2c-1.3,4,1.3,8.2,5.4,8.9l97.4,15.8c3.3.5,6.6-1.4,7.6-4.6,17.2-52,39.7-118.6,58.4-174.9,1.3-3.8-.9-7.8-4.8-8.8l-96.2-25.1c-3.5-.9-7.1,1.1-8.3,4.5l-28.2,87.2c-1.1,3.4.9,7,4.3,8,11.5,3,34.2,9.3,35.4,9.5,3.9.9,3,7-.9,6.9Z"/>
    <path class="st16" d="M1033.1,672.3c19.7,6.7,37.5,12.7,56.6,18.5s4.3-.4,4.9-2.5c13.7-50,16.3-63.2,36.8-137.6,4-17.3,8.3-33.8,12.6-49.5.5-1.9-.6-3.9-2.5-4.6l-56-18.1c-4.6-1.5-9.4,1.2-10.6,5.8-16.2,61.5-35.5,125.8-47.7,178.1s1.7,8.5,5.9,9.9Z"/>
    <path class="st16" d="M1147.9,487.2c23.8-84.4,47.3-147.2,37.6-198s-1.4-2.5-2.8-2.9c-14.9-3.8-30.9-7.9-47.2-12.2s-4,.7-4.6,2.7c-15.4,57.8-36.1,134.3-51,188.9-.5,1.9.6,3.9,2.5,4.6l60.8,19.6c2,.7,4.2-.5,4.8-2.6Z"/>
    <path class="st16" d="M628.7,1123.9c1.9.4,3.8.8,5.7,1.2-.2-.4-.4-.8-.6-1.2-.5-1.2-.6-2.7-.4-4.3-.9-2.5,18.4-97.8,23.4-144.3.8-7.5-4.4-14.3-11.9-15.5-20.3-3.2-40.7-6.4-61.2-9.7-3.7-.6-7.2,1.9-7.7,5.6-5.2,33.6-11.7,76.8-16.8,109.3-.3,1.7-1.8,3-3.5,3-2.1,0-3.8-1.9-3.5-4,5.1-32.5,11.6-75.7,16.8-109.3.6-3.7-1.9-7.1-5.6-7.7-27.4-4.3-54.6-8.6-82.1-12.9s-7.1,1.9-7.7,5.6c-1.8,11-3.9,24-6,36.7-2.7,16.6-5.4,32.9-7.3,44.5-.8,5.6-6.8,9.3-12.1,8.5-6.9-.3-12.9-5.9-11.9-12.8l6.3-38.2c2-12.3,4.9-29.8,6.9-42.4s-1.9-7.2-5.6-7.7c-28.1-4.4-56.4-8.9-84.6-13.4-3.6-.6-7,1.8-7.7,5.4-3.2,17.5-7.4,51.4-11.5,71.3-2,9.7-1.5,16.7-5.8,15.8s-1.6-7.4-.4-17.6c2.5-20.3,9-53,11.4-70.4s-2-7-5.6-7.6c-31.4-5-62.7-10-94.1-15.1s-7.1,1.9-7.7,5.6c-3.1,19.3-7.2,44.3-10.1,62.6-.3,1.7-1.8,2.9-3.5,2.9-2.1,0-3.8-2-3.5-4.1,3-18.3,7-43.3,10.1-62.6s-1.9-7.2-5.6-7.8c-27.9-4.5-55.7-9-83.2-13.5-25.7-.8-44,.5-68.6-4.2-18,62.8,35,68.3,95,86.7,32,8.5,71.9,19.1,115.9,38.2,71.9,28.9,218,96.5,344.1,123.5Z"/>
    <path class="st16" d="M434.6,203.7l-28.6,88.5c-1,3,.8,6.3,3.9,7.1l98.9,25.8c2.8.7,5.8-.8,6.7-3.6,10.6-32,20.6-62.5,28.8-87.9s-.8-6.2-3.9-7l-99-26.5c-2.9-.8-5.8.8-6.7,3.7Z"/>
    <path class="st16" d="M389.5,301.1l-164.4-42.9c-2.9-.7-5.8.9-6.7,3.7-9.4,29.9-18.8,59.8-28.3,89.7s.8,6.2,3.9,7c34.9,9.3,139.2,37.8,163.5,43.7,2.8.7,5.7-.9,6.6-3.7l29.3-90.5c1-3-.8-6.3-3.9-7.1Z"/>
    <path class="st16" d="M453.5,1019.7c1.9-11.6,4.6-27.9,7.3-44.5,2.2-13.3,4.4-26.9,6.2-38.3s-1.4-5.4-4.2-5.8,0,0-.1,0c-2.8-.4-5.4,1.5-5.8,4.3-3.7,24.3-10.7,60-13.3,83.9,1.4,3.3,8.7,4.9,9.9.4Z"/>
    <path class="st16" d="M354.5,408.9c-25.7-6.5-129.6-34.7-163.2-43.7-2.9-.8-5.8.9-6.7,3.7-10.4,32.4-20.8,64.8-31.3,97s1,6.7,4.4,7.2l168.5,27.3c2.7.4,5.3-1.2,6.2-3.8l26.1-80.7c1-3.1-.8-6.3-3.9-7.1Z"/>
    <path class="st16" d="M329.1,517.2c-27.1-4.4-147-23.9-175.9-28.5s-6.3,1.9-6.4,5.2c-.2,5.4-.1,10.5-.5,13.3-6.7,33.8-12.4,68-17.8,102.4-.8,5,2.6,9.7,7.6,10.5,43.6,7.2,131.2,21.7,169.3,28,4.2.7,8.2-2.2,8.9-6.4,4-24,16.1-97.5,19.5-118.2s-1.5-5.9-4.6-6.4Z"/>
    <path class="st16" d="M114.3,856.6c50.5,7.6,100.9,18.9,152.1,27.1,4.2.7,8.1-2.2,8.8-6.4l18.2-109.9c.7-4.2-2.2-8.2-6.4-8.9-38.2-6.2-124-20.4-168-27.7-5-.8-9.8,2.6-10.6,7.6-5.9,36.8-12.4,73.4-20,109.5h0c-.9,3.6,1.7,7.1,5.4,7.2s10.1,0,20.5,1.6Z"/>
    <path class="st16" d="M711.7,598c1.7-9.7-4.8-19-14.5-20.8l-15.6-2.8-313.5-50.9c-9.8-1.6-19,5-20.6,14.8l-54.7,331.3c-1.6,9.8,5.1,19.1,14.9,20.7,110.1,17.6,219.7,34.7,329.1,52,9.9,1.6,19.1-5.2,20.6-15.1,15.5-102.9,36.4-225.9,54.4-329.3Z"/>
    <path class="st16" d="M683.8,861c-3.2,19.8-8,49.8-10.9,68.2s4.9,17,13.8,18c54.1,5.9,132.6,19.2,167.2,26.5,6.4,1.3,12.6-2.9,13.7-9.4,3.6-22.2,7.5-46.3,11.6-71.8s-2.2-8.1-6.3-8.7c-46.7-7.4-132-21.2-180.2-29-4.2-.7-8.1,2.1-8.7,6.3Z"/>
    <path class="st16" d="M1020.5,703.5c-6.6,43.6-13.9,89.2-21.2,134.1-.7,4.3,2.2,8.3,6.5,9,13.5,2.3,30,5.2,42.5,7.3,4.3.7,8.3-2.1,9.1-6.4,7.7-42.4,16.3-84.1,26.8-122.6s-1-8-4.8-9.4c-16.4-6.2-32.5-12.3-48.2-18.3-4.7-1.8-9.8,1.2-10.6,6.2Z"/>
    <path class="st16" d="M1002.9,853.3c-3.3-.6-6.5,1.7-7,5-6.4,39.2-13,79.9-19,118-.3,1.7-1.8,3-3.5,3-2.1,0-3.8-1.9-3.5-4,6-38.1,12.6-78.8,19-118,.5-3.3-1.7-6.4-5-7-27.6-4.5-58.6-9.5-82.6-13.5s-6.5,1.7-7,5c-7.7,48.1-14.9,92.8-21.1,131.3s2.1,7.9,6.2,8.5c47.7,7.2,96,14.5,144.2,22.1,4,.6,7.7-2.1,8.4-6,7.1-41.4,14-85.5,21.6-129.3.6-3.3-1.6-6.5-5-7-13.2-2.3-31.5-5.5-45.8-7.9Z"/>
    <path class="st16" d="M304.1,655c-38.3-6.3-125.1-20.7-169-28s-9.8,2.6-10.6,7.7c-4,26.2-8,52.5-12.1,78.6s2.6,9.7,7.6,10.5c43.7,7.2,130.3,21.6,168.2,27.7,4.2.7,8.2-2.2,8.9-6.4,3-18,10.4-63.2,13.4-81.3s-2.2-8.2-6.4-8.9Z"/>
    <path class="st16" d="M742.2,569.3c31.1,8.8,137.9,50.6,170.9,62.8s9.2-.9,10.4-5.4c7.3-27.1,14.7-54.5,22.1-82.2s-1.1-7.4-4.7-8.5l-175.9-56c-2.8-.9-5.7.7-6.5,3.5-4.1,15.3-15.5,59.7-21.1,77.1-1.2,3.7.9,7.6,4.7,8.7Z"/>
    <path class="st16" d="M907.6,647.1l-63-23.6c-3.3-1.2-7,.5-8.2,3.8-7.2,20.4-16.8,45.7-19.5,65.9l-20.1,124.9c-.3,1.7-1.8,2.9-3.5,2.9-2.1,0-3.8-2-3.5-4.1,0,0,20.1-124.9,20.1-124.9,2.8-20.5,12.2-45.6,19.6-66.4,1.3-3.8-.6-7.9-4.3-9.3-18-6.7-54.4-21.3-77.5-28.7-8.8-2.8-18.2,2.7-19.9,11.8-14.5,74.7-26.5,161.3-40.1,238.8-.8,4.5,2.3,8.9,6.8,9.6,48.1,7.8,132.2,21.3,178.8,28.8s8.8-2.4,9.5-6.9c10.3-64.4,21.9-136.4,33.3-208.2,1-6.2-2.5-12.3-8.5-14.5Z"/>
    <path class="st16" d="M1005.7,687.8c-20.9-7.6-56.6-20.9-74.1-27.4s-8.5,1.1-9.1,5.3c-8.4,52.7-16.9,105.5-24.8,155.2-.7,4.3,2.2,8.3,6.5,9,23.2,3.8,52.6,8.6,79.1,12.9,4.3.7,8.4-2.2,9.1-6.5,7.3-45.3,14.7-91.2,21.4-135.1.9-5.8-2.5-11.5-8-13.5Z"/>
    <path class="st16" d="M766.4,473.1l175.8,55.9c3.8,1.2,7.9-1,8.9-4.9,6.7-25,13.5-50,20.4-75s-1-7.2-4.5-8.3l-174.7-55.4c-3.7-1.2-7.6,1-8.6,4.7l-20.6,76.7c-.7,2.6.8,5.4,3.4,6.2Z"/>
    <path class="st16" d="M792.6,378.2l176.6,56c3.2,1,6.6-.8,7.4-4.1,7.4-27,14.8-53.9,22.2-80.6.9-3.1-1-6.4-4.1-7.2l-179.2-48.2c-3.1-.8-6.4,1-7.2,4.2l-19.5,72.8c-.8,3,.9,6.2,3.9,7.1Z"/>
    <path class="st16" d="M1103.9,350.5c2.1-7.6-1.8-9.4-4-10.4l-39.7-10.9c-8.1-2.2-30.9-9.4-36.9-9.8-3.6-.1-7.4,1.8-9.4,5.4-12,34.4-20,70.8-30.2,106.5-1.1,3.9,1.1,8,4.9,9.2l76.2,24.2c4,1.3,8.3-1.1,9.5-5.2,9.2-33.7,20.7-76.1,29.6-109Z"/>
    <path class="st16" d="M457,92.8c-55.2-14.7-110.7-29.4-166.9-44.5-2.9-.8-5.9.9-6.7,3.7-8.7,28.4-17.5,56.9-26.3,85.4s.8,6.2,3.9,7l165.6,44.3c2.9.8,5.8-.8,6.7-3.7l27.6-85.2c1-3-.8-6.3-3.8-7.1Z"/>
    <path class="st16" d="M1068.2,482.2c1.3-4.7-1.4-9.7-6.1-11.2l-76.8-24.4c-2.9-.9-6.1.8-6.9,3.7-16.2,59.3-32.5,119.7-48.3,178.7-1.1,4.3,1.4,8.4,5.6,9.9,20,7.3,56,19.4,72.9,25.9s10.6-.9,12-6.1c8.3-30.8,34.1-127.1,47.6-176.7Z"/>
    <path class="st16" d="M423.8,195.3l-165.3-44.3c-2.9-.8-5.9.9-6.7,3.7-9.3,29.9-18.6,59.9-27.9,89.8s.8,6.2,3.9,7l164.6,43c2.8.7,5.8-.9,6.7-3.7l28.7-88.6c1-3-.8-6.3-3.8-7.1Z"/>
    <path class="st16" d="M360.5,56.9c0,0,.2,0,.3,0-.1,0-.2,0-.3,0Z"/>
    <path class="st16" d="M1004,331.1c7.3-23.4,15.4-21.6,50.8-10.8,8,3.2,32.9,7.8,46.1,13.1s7.8-.7,8.8-4.5l13.7-51.1c1-3.6-1.2-7.2-4.7-8.1-26.2-6.9-52.6-14-76.3-20.1-42.3-3.3-105.1-26.1-150.1-36.3-16.8-4.9-33.6-9.8-50.3-14.6s-7.3,1.1-8.3,4.7l-20.5,76.3c-1,3.5,1.2,7.2,4.7,8.1l178,47.8c3.4.9,7-1,8.1-4.4Z"/>
    <path class="st16" d="M552.2,230.1c-3.9,17.5-11.8,36.4-18.4,57.3s1,9.2,5.4,10.6l233,73.9c4.6,1.4,9.4-1.2,10.6-5.8,11.7-43.5,31-115.8,43.8-163.3s-1.4-9-5.8-10.2c-114.8-32.8-228.6-63.5-343.8-94.3-4.3-1.1-8.8,1.3-10.1,5.5l-25.9,80.1c-1.5,4.6,1.2,9.4,5.8,10.7,22.1,5.9,81,20.5,100.3,26.8s5.9,5,5,8.9Z"/>
  </g>
  <g id="service">
    <path class="st7" d="M938.5,584.5l-7.6-2.5-4.3-1.3-11.6-3.7-22.4-7.2-138.7-44.2-9.3-3-10.6-3.3-106.1-34"/>
    <path class="st7" d="M656.7,390l103.7,32.7,9.7,3.2,9.6,3,44.5,14.2,132.4,42.1,8.2,2.6"/>
    <path class="st7" d="M718.8,967.5l1.3-8,1.3-8.9,6.8-42.9.3-1.8,6.6-41,1-6.7,1.2-7.1,29.1-179.9,4.6-7,9.8-61.2,2.1-11.3"/>
    <path class="st7" d="M1036.1,904.7l-42.8-6.8-7.1-1.2-8-1.2-42.9-6.9"/>
    <path class="st7" d="M1061.1,325.8l-1.4,5.1-32.4,118.6-1.7,6.3-1.5,5.5-38.6,147.1.2,2.8,1.8,3.2,3.5,1.4,33.6,10.3,7.5,2.2"/>
    <path class="st7" d="M728.2,907.7l132.3,20.5,8.7,1.4,7.4,1.1,7.1,1.1,43.2,6.7,43.2,6.7,8.1,1.3"/>
    <path class="st7" d="M794.7,335l10.2,2.9,179.4,48.9,7.5,2"/>
    <path class="st7" d="M778,814.9l8.3,1.4,7,1.1"/>
    <path class="st7" d="M353.5,288.9l-2.6,7.9-12.6,40-34.9-10.8-2,7.1-13.4,45.9-2.3,7.7-2.2,6.9-9.7,29.4-4.3,13-1,3-15.2,45.4-4.1,12.2"/>
    <path class="st7" d="M96.9,777.6l8.1,1.4,12.1,2,111.3,18.6"/>
    <path class="st7" d="M301.4,333.2l-91.5-24.5-11.7-3.2"/>
    <path class="st7" d="M270.2,551.3l-6.2,40.2"/>
    <path class="st7" d="M130.1,570.1l8.1,1.3,6.4,1,119.3,19.2,2.1.4"/>
    <path class="st7" d="M231.7,198.1l11.7,3.2,118.6,32.3,49.5,13.4,4.4,1.2"/>
    <path class="st7" d="M250,696.3l-127.5-20.9-2.8-.7-4.2-2.2-2-.5"/>
    <path class="st7" d="M1016,710.5l-7.8-2.5-26.2-8.4-11.8-1.8-3.2.4-1.5,1.9-15.3,91.8"/>
    <path class="st7" d="M900.1,783.5l7.5,1.3,42.5,7.1,43.7,7.5,7.7,1.2"/>
    <path class="st14" d="M847.2,1054.4l-72.6-12.6-4.3-10.9-28.4-4.6-6.6-1.1"/>
    <path class="st7" d="M1262.5,828.7l-4.5-.6-56.7-8.6"/>
    <path class="st7" d="M600.9,553l4.7-13.5,3.8-11.2,26-85.4,20.8-68.5-39.4-12.8-4.7-1.7"/>
    <path class="st7" d="M592.1,358.5l-4.5-1.4-39-11.9-60.3,175.7-4.6,13.5"/>
    <path class="st7" d="M268.5,439.1l-84.1-22.1-8-2.1-11.5-3"/>
    <path class="st7" d="M467.5,475.6l-6.1-1-34.2-6.1-52.6-9.4-20.9-3.7-5.7-1"/>
    <path class="st7" d="M346.1,459.9l-4.3-1.4-21.1-6.5-51.2-15.9"/>
    <path class="st7" d="M819.2,243.4l9.8,2.6,178.7,47.1,2.1.4h3.2c0-.1,3.5-.7,3.5-.7l3.2-.4,5,.3,16.2,4.4,20.1,5.4,47.5,12.7,8.1,2.1"/>
    <path class="st7" d="M1043.5,586.5l7.6,2.3,35.4,11h2.6l3.2-1.4,1.7-3.3,8.4-32.5,3.4-8.9,4.9-8.6,5.8-9.3,3.5-7.7,10.4-39,1.6-5.9,2.9-11.3,12.8-48.9.3-3.3-1.9-9.9v-4l15.5-56.1"/>
    <path class="st7" d="M646.7,1088.7h-3.6l-2.4-.3h-1.3c0-.1-32.5-7.3-32.5-7.3"/>
    <path class="st7" d="M606.9,1081l8.5-56.5,2.1-13.8"/>
    <path class="st7" d="M615.4,1024.5l26,4.6,8.3,1.4,6.4,1.1"/>
    <path class="st7" d="M617.5,1010.7l-45.9-8.1-6.2-1.1"/>
    <path class="st7" d="M517.7,931.7l-2.1,13.1-9,57.8-6.9,44.4,7.7,5.4,41.2,10.3,7.1,1.8"/>
    <path class="st7" d="M334.9,1003.8l5.2,1,31.5,5.9,2-.4.9-1.5,5.2-24.9,1.1-2.3,2.7-.4"/>
    <path class="st7" d="M1154.1,755l-6.2,36.6-8.4,49.4-1.7,10.4"/>
    <path class="st7" d="M1137.8,851.5l17.1,2.9.9-.2.3-.9,6.4-40,2.9-18.9,4.9-32.1-.4-1.3-1.3-.8-14.5-5.1"/>
    <path class="st7" d="M1162.5,813.2l17.7,2.9,14,2.2,7,1.1"/>
    <path class="st7" d="M1172.8,861.8l7.4-45.6,8.7-53.7"/>
    <path class="st7" d="M916.7,680.6l-7.8-1.2-3.7-.6"/>
    <path class="st7" d="M918,672.8l7,1,1.9.3,2.3-.2,4.3-2h2.9l72.5,25.3,1,.4,7.6,2.7"/>
    <path class="st7" d="M905.1,678.8l-6.4-1.1-18.1-4.4-8.5-1.8-5.5-1-5.3-.8-9.4-1.2-17.8-1.4-2.6-.3"/>
    <path class="st7" d="M831.5,666.8l-4.5-.8-3.6-.7-4.2-.9"/>
    <path class="st7" d="M892.5,831.7h-2.2l-5.4.5-2-.2-89.6-14.5"/>
    <path class="st7" d="M653.2,953.1l-1.9,13.2-9.9,62.8"/>
    <path class="st7" d="M229.2,837.6l47.1,8.5,12,2.1"/>
    <path class="st7" d="M266.1,592l-6.6,44.3-1.1,7.6-1.2,7.5-7.2,44.9-7.5,43.5-1.3,7.6-1.4,7.9-7.1,39.4-4.2,4.9-11.8,68.8-2.6,14.9"/>
    <path class="st7" d="M144.7,572.4l2-12.2.8-1,1.3-.2,26.7,4.4"/>
    <path class="st7" d="M164.1,875.2l-2,12.9-5.5,35.7-1,6.5-1,6.7.3,2.5,1,1.5"/>
    <path class="st7" d="M224.4,964.2l.8,2,1.7,1.4,2.1.6,2.4.5,66.5,11.2"/>
    <path class="st7" d="M506.6,1002.6l50.3,8.1,6.9,1.1"/>
    <path class="st7" d="M444.1,991.4l17.1,2.9"/>
    <path class="st7" d="M427.2,468.5l31.8-94.3,15.4-45.9,2.5-7.6"/>
    <path class="st7" d="M459,374.2l-45-12.6-.8-1.5.2-2,13.1-42.4,2.2-7.1"/>
    <path class="st7" d="M935.3,888.6l-8.4,49.9"/>
    <path class="st7" d="M704,248l21.3-76.5,3.1-11"/>
    <path class="st7" d="M739.2,252.7l8.9-33.5,8.3-31.8"/>
    <path class="st7" d="M748.1,219.2l32.7,8.9,30.2,8.2,9.4,2.5"/>
    <path class="st7" d="M790.2,191.9l-9.4,36.2-10.2,39.6"/>
    <path class="st7" d="M200.9,364.2l-2.1,6.7-2.4,8.1-11.1,35.3-.9,2.7"/>
    <path class="st7" d="M273.8,423.1l2.7.7h2.8c0,.1,2.9.5,2.9.5l37.4,12,1.5.8.3,1.7-.7,13.2"/>
    <path class="st7" d="M214.3,316.2l-3.6,11.2-4.6,14.4-2.6,8.3"/>
    <path class="st7" d="M210.7,327.4l-6-1.8-11.6-3.5"/>
    <path class="st7" d="M206.1,341.8l-5.9-1.9-11.5-3.7"/>
    <path class="st7" d="M805.5,294.3l-9.4-2.9-56.2-17.1-18.2-5.5-11.1-3.4h-1.6l-1.4.9-1.1,1.4-13,41v1.3c.1,0,.8.5.8.5l9,2.6h1.3c0,.1,1.3-.2,1.3-.2l1-1.2,1-1.9,3.5-6.8.9-1.9.8-1.8,8.6-30.5"/>
    <path class="st7" d="M883.3,764.1l-18.8-3.1-8.3,50.2,18.7,3.1,8.4-50.2"/>
    <path class="st7" d="M1191.8,879.9l-1.1,5.8"/>
    <path class="st7" d="M1188.6,898.5l2.4-1.2,1.1-5.3.4-2.7.2-1.4-2-2.2"/>
    <path class="st7" d="M1188.2,900.4l-90.8-15.2-2.9-.3-3.2.8-1.9,1.2-.8,2.5-4.1,31.8v1.4l.9,1.8.3.3,1.8,1.7,67.7,12,26.2,4.7,13.4,2.3,24,4.3c3.8.7,7.7.3,11.3-1.2l5.2-2.2,3.8-17c.4-1.7-.8-3.3-2.5-3.6l-38-5.5,2.6-17.9-13-2.1"/>
    <path class="st7" d="M1190.7,885.7l-2.8,1.6-.6,3.8-.8,5.7,2.1,1.7"/>
    <path class="st7" d="M1188.6,898.5l-.4,1.9"/>
    <path class="st7" d="M624.3,328.6l2.1-7.1"/>
    <path class="st7" d="M626.4,321.5l2.3-1.3,1.1-1.6,1.9-6.3v-2.6c-.1,0-1-2.3-1-2.3l-2.3,1.4-.7,1.3-.5.8-1.8,6.3v1.7c-.1,0,1,2.6,1,2.6"/>
    <path class="st7" d="M630.7,307.4l6.9-21.3,3-9.3,3-10,5-17.4-50.6-13.8-4.1,14.8"/>
    <path class="st7" d="M648.6,249.3l17.8,4.7,17.8,4.6-7.2,28.3-17.6-4.9-8.2-2.3-10.6-3"/>
    <path class="st7" d="M824.3,495.1l2.3-7.5.7-2.3.8-2,1.5-1.6,1.8-.5,5.6-.4,1.1-.9,1.2-1.6,3.3-12.1v-1.9c-.1,0-1.5-1.3-1.5-1.3l-18.3-7.1-1.2-1.3v-1.4l1.4-5,1.2-5.1"/>
    <path class="st7" d="M1113.8,328.1l7.2,1.9,1.2.4,53.6,14.5-17.3,63.5"/>
    <path class="st7" d="M979.5,223.9l-1.8,6.8-1.9,7.6-8.2,31.8"/>
    <path class="st7" d="M1198.6,920.4l-3.8,25"/>
    <path class="st7" d="M1188.2,900.4l-6.8,42.7-1,6c-1.4,4.9-7.2,8.2-14.8,6.9s-12.7-5.3-11.7-10.8,1.3-6.8,1.3-6.8"/>
    <path class="st7" d="M1001.6,800.6l7,1.1,37.6,5.8,3.2-.9,2.1-3.2,11.5-72.6"/>
    <path class="st7" d="M390.2,70l-3.4,11-.3,1.1-25.9,84.6-.3,1.1-2.2,7"/>
    <path class="st7" d="M320.1,51.3l-3.5,11.2-9.1,29-20.1,23.3-9.8,30.7-2.1,6.7"/>
    <path class="st7" d="M543.5,224l2.1.4,1.9-.2,1.8-.8,1.3-1.8,1.2-2.9.4-.9,3-7.5,4.5-9.4,3.5-9.1,15.7-46.3,3.8-12.1,3.4-11"/>
    <path class="st7" d="M855.9,598.3l1.9-.8,1.3-1.3,7.2-23.6-.3-2-1.6-1.5-11.8-3.6h-2l-1.9,2-7.3,23.8"/>
    <path class="st7" d="M881.4,254.5l10.2-38.7,2-7.5,1.8-6.8"/>
    <path class="st7" d="M323.1,165.2l-2.1,6.8-.6,2.2-7.1,25.1"/>
    <path class="st7" d="M703,923.3l3.6-21,4.4-25.5"/>
    <path class="st7" d="M706.6,902.3l21.9,3.6"/>
    <path class="st7" d="M226.2,953l-7.3-1.3-41.2-7-21.8-3.7"/>
    <path class="st7" d="M1055,971.7l6.7,1,7.5.8,2.9-.6,2.6-1,1.9-2.1,1-4,.9-4.3,7.1-36.8"/>
    <path class="st7" d="M667.9,173.1l28.2,7.2,4-15.6,2.8-11.1"/>
    <path class="st7" d="M711.9,173.1l-7.3,7-1.7,1.2-2.3.2-4.5-1.2"/>
    <path class="st7" d="M654.2,165.6l-66-17.4"/>
    <path class="st7" d="M577.9,184.3l66.7,18.3"/>
    <path class="st7" d="M577.9,184.3l5.2-18.2,5.1-17.9-3.7-1.2-5.6-1.5"/>
    <path class="st7" d="M583.1,166.1l66.3,18.1"/>
    <path class="st7" d="M416,248.2l4.7,1.3,106.3,29.3,5.6,1.5"/>
    <path class="st7" d="M654.2,165.6l-4.8,18.6-4.8,18.4"/>
    <path class="st7" d="M1092.1,407.3l7.2,2,48.4,13.6"/>
    <path class="st7" d="M1033,625.1l7.7,2.2,1,.2,10.4,2.9,17.4,4.4,7.9-29.5-17.4-4.7-7.9,29.8"/>
    <path class="st7" d="M1036.1,904.7l-5.1,31.6"/>
    <path class="st7" d="M383.5,981.2l55,9.3,5.5.9"/>
    <path class="st7" d="M109.6,863.7l.2-12.8.2-19.2.2-7.3.9-8.2,6-35.1"/>
    <path class="st7" d="M126.8,867.1l-.9,4.5-1.9,10.7-1.1,6.1"/>
    <path class="st7" d="M646.7,1088.7l76.3-4.2,2.1-1.5,1.5-1.8"/>
    <path class="st7" d="M860.4,928.2l-2.1,12.4"/>
    <path class="st7" d="M1031,936.3l-3.1,17.9-41.5-6.4-1.1-.2-7.1-1.1"/>
    <path class="st7" d="M914,696.9l7.1,1,1.8.3,10.3,1.4-3.9,28"/>
    <path class="st7" d="M362,233.6l-2.8,10.6"/>
    <path class="st7" d="M385.2,251.2l-26-7-27.3-7.2"/>
    <path class="st7" d="M395.3,414.5l15.1-47.4"/>
    <path class="st7" d="M355,433.1l5.5,1.6,19.5,5.7,21.1,6.1"/>
    <path class="st7" d="M380,440.4l-5.5,18.7"/>
    <path class="st7" d="M107.9,705.2l9.2,1.7,11.5,2.1"/>
    <path class="st7" d="M155.6,930.3l10.2,1.8,13.5,2.4"/>
    <path class="st7" d="M177.7,944.7l1.6-10.2,4.3-26.9-13.6-2.2-4.2,26.7"/>
    <path class="st7" d="M341.2,361.6l-8.7,29.4-2.4,7.9"/>
    <path class="st7" d="M609.5,299.3l-4.6,15.3-2.2,7.2"/>
    <path class="st7" d="M618.9,259.9l14.8,4.1,9.9,2.7"/>
    <path class="st7" d="M666.5,254l-7,28"/>
    <path class="st7" d="M674.9,146.1l-2.9,11.1-.7,2.6"/>
    <path class="st7" d="M671.3,159.8l-3.4,13.3"/>
    <path class="st7" d="M717.9,157.7l-2.9,11-1.1,2-2,2.4"/>
    <path class="st7" d="M667.9,173.1l-11.9,43.7"/>
    <path class="st7" d="M1087.6,424l7.1,1.9,12,3.3,2.7,2.4.5,3.8-.9,3.9-1.8,3.8-2.9,2.6-4.1.2-10.2-2.7-7.1-1.8"/>
    <path class="st7" d="M953.8,266.4l13.8,3.7"/>
    <path class="st7" d="M937.5,588l7.2,2.1,35.5,10.4"/>
    <path class="st7" d="M926.6,580.7l-7.3,24.7"/>
    <path class="st7" d="M892.5,569.8l-4.5,13.7,22.4,7.3,4.5-13.8"/>
    <path class="st7" d="M849.5,616.4l3.7-10.3,2.7-7.8-14-4.7-.7-.9.2-1.4"/>
    <path class="st7" d="M902.6,767.2l-7.4-1.2-2.2-.4-9.7-1.5"/>
    <path class="st7" d="M1063,730.8l-.8-2.5-3.8-4.1-.7-2.4,1.4-10.4"/>
    <path class="st7" d="M795.1,485.9l-2.5,7.7-5,15.6"/>
    <path class="st7" d="M1175.8,344.9l3.7-13.1.6-4.8-.6-14.1-1.2-2.1-3.1-1.3"/>
    <path class="st7" d="M1062.9,249.6l-2.9,11-3.4,13.1"/>
    <path class="st7" d="M1067.9,276.8l16.4,4.4"/>
    <path class="st7" d="M1047.6,271.3l-6.7,25.8"/>
    <path class="st7" d="M1056.6,273.7l-9-2.4-20.7-5.6-7.2,26.7"/>
    <path class="st7" d="M1061,302.6l3.5-12.9,3.4-12.8-11.3-3.1"/>
    <path class="st7" d="M482.9,94.8l-3.4,10.9-7.2,23.1-17,54.7"/>
    <path class="st7" d="M1137.8,851.5l-1.9,11.9-1.4,7.4"/>
    <path class="st7" d="M1101.4,845.6l36.4,5.9"/>
    <path class="st7" d="M1157.2,736.8l-1,5.5-2.1,12.7"/>
    <g id="PARK">
      <path class="st13" d="M305,872.3c1.6-1.2,5-2.4,6.9-3.2,15.9-17.5,56.6-65.7,73.1-80.9,6.4-5.8,19-17.6,25.1-23.5,12.7-11.2,28-24.5,39.4-37.1,10.3-10.8,26.5-23.9,38.3-33.1,5.7-5.1,18.5-16.3,24.7-20.5,18.1-12.3,35.3-17.2,56.8-19.9,20.8-3.4,51.7-7.7,72.2-12.3,5.8-1.1,16.8-2.4,21.3-6.9,2-2.3,3.8-7.8,4.7-10.6,2.9-8.2,6.5-16.2,13.4-22,0,0,5.6-3.7,5.6-3.7,5.1-1.9,12.2-3.5,16.8-6.7"/>
      <path class="st13" d="M451.5,561.7c-27.9,8.2-44.8,32.2-62,53.7-10.9,14.7-11.8,35.2-14.1,52.7,0,0-1.1,10.5-1.1,10.5,2.3,8.1,8.1,18.7,11.3,26.5,0,0,6.8,16.1,6.8,16.1,2.4,4.2,8,12.1,11.2,15.8,10.4,11.1,23.4,21.7,35.4,31.1"/>
      <path class="st13" d="M374.3,678.7c-4.3,6.2-11.2,14-16.6,19.3-3.7,4.1-9.3,9.7-11.5,14.8-7.2,15.4-2.4,34.3.8,50,3.4,12.1,10.3,37,16,48,1.9,4.3,6.2,14,8.7,18,2.5,3.8,8.3,11.6,11.1,15.2,7.9,11,18.5,22.4,30.6,28.8,0,0,4.7,2.3,4.7,2.3,0,0,7.7,1.4,7.7,1.4,5.2.5,18.5,2.5,23.6,3,21.2,2.8,44.8,9.2,65.7,13.5,6,7.4,22.4,9.4,31.4,11.3,8.2,1.4,19.5,2.8,27.8,1.8,5.5-.7,13.1-2,18.6-2.8,12.8-.8,25.4,4.6,36.5,10.3,2,1.1,6.2,3.5,8.1,4.9,2,3,5.9,9.3,7.7,12.4"/>
      <path class="st13" d="M373.7,565.2c16.4-4,35.2-7.3,52.1-7,32.8,1.8,73.3,15.3,105.3,21.9,8.1.6,15.2,2.7,21.8,7.7,6.4,4.2,15.7,8.8,22.9,11.4,17.4,5.4,36.9,5.4,54.9,4.4,17.2-1.2,26.8-.8,42.2,8.1"/>
      <path class="st13" d="M472.9,909.1c.5-2.7,3-6.3,4.6-8.5.8-4.5,3.3-10.6,5-14.8,3.2-5.6,7.8-11.8,10.7-17.6"/>
      <path class="st13" d="M461.6,792.7c17.2-16-5.5-40.4-22.7-24.6-13.4,15.8,5.9,36.8,22.7,24.6"/>
      <path class="st13" d="M512.8,849.4c11.1,1,17.3-1.4,25.9-8.3,2-2,5.8-6.1,7.5-8.4,0,0,3.3-2.5,3.3-2.5,1.8-.9,5.6-2.1,7.6-2.6,0,0,3.9-1.9,3.9-1.9.9-.4,2.4-3.1,3-3.8,2.7-6.4,4.3-15.1,7-21.5,3.7-8.8,10.7-17.8,11.6-27.6.9-9.4-7.7-16.8-13.9-22.6-9.8-8.3-20.7-12.6-33.4-14.1-10.4-1.2-22.4-2.1-32.6.5-2.4-8.1-4.3-18.3-7.1-26.3-1.9-4.9-4.9-11.5-7.8-15.9"/>
      <path class="st13" d="M587.9,904.1l-3.5-6.2-3.3-6.8-2.7-5.8-2.4-6-3.4-9.9"/>
      <path class="st11" d="M525.2,866.5l7.5,4.2,8.5,5.5,9.6,5.2,8.8,3.7,10.6,3.6,7.8,1.8"/>
      <path class="st13" d="M605.8,775l-.9,4.7-1.2,5.6-.9,6.2-.3,6.4-.2,7.1.2,4,1.9,7.8,2.1,6.3"/>
      <path class="st13" d="M495.4,710.3c10.7-2.3,23-3,33.9-1.8,14.8,2,33.2,6.7,48,9.3,20.9,4.5,43.9,9.8,61.8,22.1,7.6,4.9,20.4,10.3,20.2,21.1"/>
      <path class="st13" d="M662.6,635c3.6,17.9,5.1,38.5,4.9,56.7-1.3,19.1-7.1,39.3-15.5,56.5"/>
      <path class="st13" d="M532.3,566.3c-1.2,13-3.1,31-3.4,44.1.6,6.9,2.1,23.8,3.5,30.3,1.3,5,4.4,15,6.3,19.8,3.1,9.6,5.8,25.2,8,35.2,1.2,7-1.3,15.4-2.6,22.2"/>
      <path class="st13" d="M467.8,779.9h8.7"/>
      <path class="st13" d="M637.6,918.7c-3.1-9.7-1.8-21.1-.5-31,2.2-14.7,6.9-30.1,13-43.7,2.7-8.1,3-18.5,2.4-27-.4-5.8-1.9-17.4-3-23.1-1-6.8-.5-14.4,4.7-19.4,2.3-3.8,5-8.9,5.1-13.4,3,.2,7.1.3,10,.7,2.1,1.7,5.3,3.7,7.9,4.4"/>
      <path class="st11" d="M342.5,736.4c1.5-.1,4.6-.3,6-.1,1.8.9,5.5,2.2,7.5,2.8,7.7,1.8,16.7.8,24.5-.1,4.5-.7,8.1.4,12.1,2.5,4.8,1.4,11.1,1.7,16.1,1.1"/>
      <path class="st13" d="M614.6,907l-.7,2.6-.5,3.6-.3,3.5-.4,18.5"/>
      <path class="st13" d="M596.5,855.4c3.6-5.5,3.8-9.4,2.6-15.7-3.6-.2-4.8-5.1-6-7.8-4-3.6-9.9-5.2-14.9-3-4.2,3-9.6,6.2-14.7,7.3"/>
      <path class="st13" d="M650.1,844l4.9,1.9,6.1,1.7,2.9.6"/>
      <path class="st13" d="M346.2,712.9l-9.6-1.5-5.2.9h-4.4"/>
      <path class="st13" d="M293.5,884.1l21.4-130.4,7-42.4.4-2.6.4-2.1,6.9-42.5,22.5-137.7.5-3.2"/>
      <path class="st13" d="M599.1,839.8c3.2-.5,6.9-2.2,9.9-3.4,3.8-.5,7.9,1.3,10.9,3.4,2.3,2.8,4.3,8,8.7,7.4,1.6-.6,5.1-1.9,5.8-3.7,1.8-10.6-.3-33.2-16.1-27.2-6.7,5.7-7.7,15.3-19.7,12.5"/>
      <path class="st13" d="M517.6,878.7c-10.2,13.1-29,2.7-23.5-12.9,0,0,2.5-3.7,2.5-3.7l3.6-2.7c4.4-2,8.4-1.9,12.8.1,0,0,3.5,2.9,3.5,2.9l2.4,3.7,1,4.2-.4,4.4-1.7,4"/>
      <path class="st13" d="M514.9,870.4c-1.8-9.8-15.7-8.2-15.2,1.7,1.5,10.1,15.9,8.6,15.2-1.7"/>
      <path class="st13" d="M499.7,869.6l-6.4-1.4"/>
      <path class="st13" d="M502.2,884.1l-1.3,5.9"/>
      <path class="st13" d="M514.7,881.8l-.4,4.2v3.9c.1,0,.8,3.2.8,3.2"/>
      <path class="st13" d="M529.3,847.3l-2.5,4.6-2.7,5.8-2.7,7-1.7,5.5"/>
      <path class="st13" d="M494.1,865.8l1.6-5.5,1.1-5.7.5-4.9v-4.3c.1,0,0-3.6,0-3.6"/>
      <path class="st13" d="M466.9,723.9l5.6,4.6"/>
      <path class="st12" d="M464.9,722.4l1.9,1.5"/>
      <path class="st13" d="M502.5,736.6c.8,3.2,5.1,9.7,6.4,12.8v.9c-2,2-5,4.4-6.8,6.5-2.8,4.4-3.7,10.7-3.8,15.8"/>
      <path class="st13" d="M562.4,714.8l-3.5,16-1,4.5-1,3.5-1.3,3"/>
      <path class="st13" d="M454.5,775.4l5.7-9.7,1.9-2.4,3.5-2.3,3-1.2,3.3-.9,3.5-.4h2.7l1.5.2"/>
      <path class="st13" d="M598.7,828.7l-.6-1.6-1.5-2.6-.9-3.3-.4-3.1.4-2.9,1-2.3,1.6-1.7,1.9-1.4,2.3-.8"/>
      <path class="st13" d="M598.7,828.7l-1.6.2-1.9.7-1.4,1.1-.6,1.2"/>
      <path class="st13" d="M300.8,885.3l7.2-5.1,1-1.2.6-1.2"/>
      <path class="st13" d="M611.1,841c1.3,5.2,2.6,13.2,6.1,17.4,7.6,8.1,13.4,9,24,9.7"/>
      <path class="st13" d="M606.6,823.2l4.5,17.8"/>
      <path class="st13" d="M613.2,850l-16.7,5.4"/>
      <path class="st13" d="M709.6,583"/>
      <path class="st13" d="M478.5,913.6l.5-3.5"/>
      <path class="st13" d="M472.3,912.7l.6-3.6"/>
      <path class="st13" d="M479.1,910.2v-1.6l-.4-3.8-1.1-4.1"/>
      <path class="st13" d="M293.5,884.1l7.3,1.2,171.5,27.4,3.1.4,3.2.5,102.9,16.5,31.2,5,28.2,4.4,4.1.4h3.2l2.3-.8,1.4-1.3,1.2-2.1.7-2.6.9-3.7,13.2-80.5,13.3-82.2.5-2.8.5-3.2,27.5-172.3.2-2.3v-1.8c-.1,0-.4-1.3-.4-1.3"/>
      <path class="st13" d="M293.5,884.1l2.8-4,3.2-3.6,3.5-2.9,2-1.3"/>
      <path class="st13" d="M309.6,877.7l.6-1.8,1.6-6.8"/>
      <path class="st13" d="M664,848.3l4,.6"/>
      <path class="st13" d="M677.2,766.1l4.1.6"/>
      <path class="st13" d="M678.1,760l-2.9.2-3.4.7-2.6.7"/>
      <path class="st13" d="M682.3,760.8l-4.2-.7"/>
      <path class="st13" d="M686.4,598.7l3.4-5.5,2.7-3.9,2.7-3.2,2.1-1.9"/>
      <path class="st13" d="M697.2,584.1l2.1-1.3,3.2-1.5,3.5-1"/>
      <path class="st13" d="M703.2,592l2-2.1,2.5-3.5,1.9-3.4"/>
      <path class="st13" d="M510.4,858.6l2.5-9.2c-8.9-2.1-17.9-8.1-22.3-16.3-6.1-11.2-10.3-31-13.1-43.4-1.2-9.8-1.5-21.7,2.1-31,4.3-9.6,12.6-19,22.9-22.1"/>
      <path class="st13" d="M582.3,769.4c6.9,1.9,16.5,4.4,23.5,5.6,4.4.6,10.4.2,14.7.4,9.6,1.2,19.7,5.6,28.6,9.3"/>
      <path class="st13" d="M448.6,785.5l-5.3,9"/>
      <path class="st12" d="M449.6,783.8l-1,1.7"/>
      <path class="st13" d="M453.6,777l-4,6.8"/>
      <path class="st12" d="M453.6,777l.9-1.6"/>
      <path class="st13" d="M709.6,583l-.6-.9-1.4-1.1-1.5-.7-168.2-27.4-3.4-.5-2.9-.4-75.3-12.1-100-16-3.7-.6"/>
      <path class="st13" d="M352.1,526.4l1.5,3.2,2.1,3.9,2.5,3.6,2.1,2.9"/>
      <path class="st13" d="M360.3,539.9l3.4,3.9,4.1,3.8"/>
      <path class="st13" d="M356.3,523.9l3.6,2.5,3.2,2.9,2.5,3.2,1.1,2.7c.4,2.7,1.1,9.8,1.2,12.6,0,0,5.8,17.6,5.8,17.6,2.5,6.7,11.2,38.8,16.2,43.5,4.4,4.4,11.9,10,16.6,14,3,2.7,9.4,8.1,12.6,10.5,4.4,4.2,5.8,11.6,6.8,17.4,1.5,10.1,1.7,22.1,6.5,31.3,2.9,6.1,9.9,14.7,14.1,20.1,5,6.2,12.5,15,18.5,20.4"/>
      <path class="st13" d="M327,712.2l-5.1-.8"/>
      <path class="st13" d="M322.7,706.6l5,.9"/>
      <path class="st13" d="M327.7,707.5l4.1,1.1,4.8,2.7"/>
      <path class="st13" d="M531.6,551.9l-.5,3.8-.2,1.9"/>
      <path class="st13" d="M537.8,552.8l-.6,3.9-.5,1.8"/>
      <path class="st12" d="M530.8,557.6v1.5"/>
      <path class="st12" d="M536.7,558.6l-.3,1.3"/>
      <path class="st13" d="M530.7,559.2v2.5c.1,0,1.5,4.7,1.5,4.7"/>
      <path class="st13" d="M532.3,566.3l3-4,1.1-2.5"/>
      <path class="st11" d="M348.6,736.3l-.6-2-.5-3.3-1-5.9-1.9-7.9"/>
      <path class="st13" d="M521.5,864.7l3.7,1.7"/>
      <path class="st13" d="M578,890.5l3.2.6"/>
      <path class="st13" d="M572.8,869.3l-7.7-25.6-1.7-7.5-2.5-10.5"/>
      <path class="st13" d="M572.8,869.3l3.5-4.1,4.2-3.1,5.1-2,10.9-4.7"/>
      <path class="st13" d="M596,913.9l.5-1.9,1.2-1.8,1.6-1.6,1-.8.7-1,.5-1.4.3-1.3"/>
      <path class="st13" d="M645.2,931l5.2,8.1"/>
      <path class="st13" d="M529.3,708.5l-2.4,10.1-1.2,5.1-.6,2.5-.7,3.4-.3,3.5-.2,2"/>
      <path class="st13" d="M525.7,723.7l16.6,3.6,16.6,3.5"/>
      <path class="st13" d="M542.5,726.5l-.2.8-1,5.1"/>
      <path class="st13" d="M541,733.6l-.6,3.4"/>
      <path class="st12" d="M541.3,732.4l-.3,1.2"/>
      <path class="st13" d="M580.5,724l3.4-4.8"/>
      <path class="st13" d="M492.9,772.4l-16.2-.7"/>
      <path class="st12" d="M496.1,772.5h-3.3"/>
      <path class="st13" d="M498.4,772.6l-.5,7.8-.3,10.6"/>
      <path class="st13" d="M498.4,772.6h-2.3"/>
      <path class="st13" d="M577.2,843.7h-12.1"/>
      <path class="st13" d="M604.1,842.6v2.5l-1,1.3-1.6.6-1.7.6"/>
      <path class="st13" d="M603.5,838.6v1"/>
      <path class="st12" d="M603.6,839.7l.5,3"/>
      <path class="st13" d="M602.5,809.1l2.6-.5h2.7l2.9.3,3.2,1.2,2.6,2.1,1.3,2,.8,1.9"/>
      <path class="st13" d="M634.9,835.9l7,.4h3.3c0,.1,2.5-.1,2.5-.1l4.3-.4"/>
    </g>
  </g>
  <g id="roads-residential">
    <path class="st4" d="M834.9,185.4l-100.1,373.4c-1.5,3.9-5.3,11.7-7.8,15"/>
    <path class="st4" d="M455.4,921.8c-1.2,7.5-9.9,60.8-11.3,69.6,0,0-3.2,19.5-4.2,25.6s0,2.7.6,3.9c1.7,3,4.2,4.6,8.1,4.9,2.4.4,4.3-.4,5.9-1.6s2.1-2.4,2.4-3.9c4.1-24.9,11.7-71.9,15.7-95.8"/>
    <path class="st4" d="M793.3,817.4l20.1-124.9c2.1-13.1,5.4-26,9.8-38.5l14.8-42"/>
    <path class="st4" d="M574.8,940.6c-5.7,36-13.5,87.8-19.1,123.9"/>
    <path class="st4" d="M1212.9,745.9c-6,38.6-15.1,95.3-21.1,134"/>
    <path class="st4" d="M744.8,963.4c-5,32.6-13.1,84.9-18.1,117.7"/>
    <path class="st4" d="M1130.4,489l-603.2-191.3"/>
    <path class="st4" d="M236.9,887.1c-2.7,16.2-9.9,60.8-12.5,77.1"/>
    <path class="st4" d="M350.8,905.3c-1.1,7.4-14.3,88.8-15.9,98.5"/>
    <path class="st4" d="M1119.1,664.9s16.7-29.8,16.7-29.8c4.8-10,13.6-43.8,16.6-55,18.9-78.2,55.3-186.9,70.1-265.2"/>
    <path class="st4" d="M303.2,757.5l-12.4-2-49.6-8.1-120.4-19.9"/>
    <path class="st4" d="M990.2,337.6l-183.1-49.2"/>
    <path class="st4" d="M884.3,882c-47.4-7.5-160.4-25.7-206.5-33.2"/>
    <path class="st4" d="M1289,895.6c-64.9-10.5-151.4-24.2-215.8-34.8"/>
    <path class="st4" d="M951.7,535.7l-307.4-97.8"/>
    <path class="st4" d="M320.3,654.1l-9.3-1.5-2.3-.4-50.3-8.3-121.8-20.1"/>
    <path class="st4" d="M544,543.9c2.3-14.8,8.1-30.9,12.6-45.2"/>
    <path class="st4" d="M1129.8,267.4l-16,60.6"/>
    <path class="st5" d="M343.7,511.8l-63.1,382.3"/>
    <path class="st4" d="M1046.6,856.9c-42.4-7-111.2-18.1-154.1-25.2"/>
    <path class="st4" d="M922.5,644.1c-16.6,103.7-34.2,213.9-50.9,317.5"/>
    <path class="st4" d="M556.6,498.7c9.1-4.3,13.7-9.7,17.6-18.8,6.4-17.4,32.8-101.1,37.2-117.5s-2.4-15-3.9-15.7c-5.1-2.4-11.1,2.1-14,7.9-4.3,12.1-12.6,34.1-16.5,46.2-7.8,24.3-16.8,53.1-22.6,76.8-.9,7.1-1.3,14.5,2.2,21.1"/>
    <path class="st4" d="M331.7,509.9L467.5,90.7"/>
    <path class="st1" d="M0,454.6c4.3.8,68.4,11.5,69.8,12.6,5.8,1.6,35.8,10,41,10.9,11,2.6,20.8,3.4,31.9.7-4.6-4.2-11.1-10-17.2-11.7C95.4,461.5,30.7,451.1,0,446.4"/>
    <path class="st4" d="M449.9,528.8c26.7-81.3,67-197.9,92.7-279.2"/>
    <path class="st4" d="M543.5,224l-294.9-79.2"/>
    <path class="st10" d="M1309,783c-67.7-26.2-160.8-61.3-228.5-87.2-17.5-7.1-41.6-13-59.6-18.6-23.7-7.1-58.9-20.6-82-29.3-4.4-1.5-11.9-3-16.4-3.8,0,0,7.4,6.4,7.4,6.4,1.8,2.2,36.1,14.5,39.6,16,16,5.8,45.6,16,61,22,89.8,34.2,188.2,70.9,278.5,104.3"/>
    <path class="st5" d="M1218,1043c-115.3-19.8-234.9-37.7-350.6-55.3"/>
    <path class="st5" d="M664.5,954.8c2.9,1.5,11.2,6,14.3,6.2,41.1,6.7,129.6,20.9,171.8,27.6,6.1,1,10.8,2.1,16.8-.9"/>
    <path class="st5" d="M867.3,987.7c-3-4.2-9-6.3-13.9-6.9-43-6.9-132-21.2-173.9-27.7-3.2-.7-12,1.2-15.1,1.7"/>
    <path class="st5" d="M664.5,954.8c-171.2-27.1-350.4-55-521.5-83"/>
    <path class="st5" d="M727,573.9c-2.3,3.9-5,9-5.9,13.4-17.8,108.7-40.8,245.3-58.4,353.5-.8,9.4,4.4,18.6,4,27.9-6.2,37.5-25.3,152.3-25.3,152.3"/>
    <path class="st5" d="M922.5,644.1l-164.9-61.8c-7.1-2.6-14.4-4.7-21.8-6.2l-52.8-9.6-540.2-87.7"/>
    <path class="st5" d="M143,871.8c-9.6-2.7-23.3-7.5-33.3-8.1-3.6-.1-16.3-.7-19.7-.6-4.1.3-12.5,2-16.5,3"/>
    <path class="st5" d="M73.2,868.9c5,.9,15.9,2.2,20.7,2.6,23.1,2,34.1.1,49.1.2"/>
    <path class="st4" d="M1020.9,677.2c-14.2,96-32.4,202.8-47.4,298.5"/>
    <path class="st4" d="M516.3,330.7l-6.3-1.6-2-.5-270.2-70.7"/>
    <path class="st4" d="M410.6,418.6l-40.7-10.9-10.3-1-177.9-47.6"/>
    <path class="st4" d="M922.5,644.1c26.7-99.3,54.8-203.5,82.2-302.5,1.7-5.6,3.1-13.7,6.3-18.7,2.2-3.9,6.8-7.1,11.4-6.9,3.4-1.2,34.8,8.9,38.7,9.8,0,0,40,11,40,11,2.1.9,9.1,3.7,6.2,14.6-6.1,22.7-18.4,68-24.4,90-16.5,60.7-41.3,152-57.7,212.5-1.9,6.9-3.5,16.2-4.3,23.3"/>
    <path class="st10" d="M1309,1057.1c-8.8-.6-20.9-8.2-30.7-10-11.1-2.1-27.8-5.4-39.1-5.7-4.5,0-16.6,1.2-21.2,1.6,26.2,14.6,70.3,26.4,92.1,27.4"/>
  </g>
  <g id="footways">
    <path class="st15" d="M633.8,1123.9h-5.1c1.9.4,3.8.8,5.7,1.2-.2-.4-.4-.8-.6-1.2h0Z"/>
    <path class="st3" d="M648.8,1123.9c-.6,1.5-1.5,2.7-2.6,3.5,56.1,10.4,107.2,11.7,144.6-3.5"/>
    <path class="st3" d="M790.8,1123.9c29-11.8,49.8-33.5,58.3-68.5,0-2.9,1-10.9,5.7-40.8.6-4.1,1.2-7.3,1.3-8.1,0,0,0-.2,0-.3.8-4.6-2.2-9-6.8-9.8h-.1c-30-4.8-60.1-9.6-94.7-15.2-4.8-.8-9.3,2.5-10.1,7.3-4.5,29.3-10.2,66.4-14.3,93-.3,1.9-2.1,3.2-4,2.9-1.9-.3-3.2-2.1-2.9-4,4.1-26.6,9.8-63.8,14.3-93.2.7-4.8-2.5-9.2-7.3-10-17-2.8-31.9-5-45-7.2-5.8-1-11.4,3-12.3,8.8-7.1,44.8-23.7,141.6-23.8,143.3,0,.6-.2,1.1-.4,1.6"/>
    <path class="st15" d="M604.6,352.8c0,0,.1,0,.2,0,.5,1.6.9,8.4-7,35-5.5,18.6-13.2,40.7-19.4,58.4-5.4,15.6-9.4,27-10.4,31.5-2.1,4.8-4.2,8.1-7.1,10.6-.4-17.4,6.4-37,12.9-55.9,3.6-10.4,7-20.2,9.3-29.7,2.6-8,7.1-20.3,11.1-31.2.8-1.9,1.5-4.1,2.3-6.3,2.3-7,4.3-12.3,8-12.3M604.6,349.8c-8.1,0-9.9,13.3-13.1,20.6-4,11-8.6,23.5-11.2,31.5-7.1,29.3-25.2,63.4-22,92,5.9-3.4,9.4-7.8,12.6-15.2,2.8-14,46.4-124.7,35.2-128.7-.5-.1-1.1-.2-1.6-.2h0Z"/>
    <path class="st15" d="M535.3,307.5c.7,0,1.4.1,2,.3l234.9,74.5c1.6.5,2.6,2.2,2.1,3.9l-20.7,77.2c-.3,1-1.2,1.8-2.3,1.8s-.5,0-.7-.1l-104.5-33.2c-.6-.2-1.3-.3-2-.3-2.8,0-5.3,1.8-6.2,4.5-1.1,3.4.8,7.1,4.2,8.2l105.2,33.5c1.2.4,1.9,1.6,1.6,2.9-.9,3.4-2.2,8.2-3.6,13.8-5.2,20-13.1,50.2-17.6,63.7-.8,2.4-3,4-5.5,4s-.6,0-.9,0c-16.8-2.6-46.8-7.6-78.6-12.9-34.1-5.7-69.4-11.6-87.8-14.4-.8-.1-1.3-.6-1.5-.9-.2-.3-.5-.9-.3-1.7,2-7.7,4.6-15.6,7-23.3.6-1.8,1.2-3.6,1.7-5.3,8.7-4.6,14-10.8,18.3-21h0c0,0,0-.1,0-.1,6.7-18.2,33.2-102.2,37.4-118.1,1.8-6.6,3.2-18.4-7.4-23.3h0s0,0,0,0c-2.1-.8-4.1-1.2-6.1-1.2-12,0-18.1,14.7-22,27.5-4.1,11.1-8.6,23.6-11.3,31.9h0c0,.1,0,.2,0,.2-1.9,8.3-5.3,18.1-8.9,28.6-8.5,24.5-18.1,52.3-12.1,71.4-.6,1.9-1.2,3.7-1.8,5.6-2.7,8.4-5.5,17-7.7,25.6-.2.9-1.1,1.6-2.1,1.6s-.2,0-.3,0l-74.2-12c-.9-.2-1.7-.7-2.2-1.5-.5-.8-.6-1.8-.3-2.7,10.1-30.5,21.3-63.9,33.2-99.4,11.8-35.1,23.9-71.4,34.7-104.1.9-2.7,3.5-4.6,6.3-4.6M535.3,304.5c-4.1,0-7.8,2.6-9.2,6.6-21.4,64.8-47.5,141.9-67.9,203.5-1.2,3.6,1.1,7.5,4.9,8.1l74.2,12c.3,0,.6,0,.8,0,2.3,0,4.4-1.6,5-3.9,2.7-10.7,6.4-21.4,9.7-31.9-8.9-25.8,14.3-71,20.8-99.3,2.6-8.2,7.2-20.7,11.3-31.8,3.4-11.1,8.8-25.4,19.1-25.4s3.2.3,5,1c6.5,3,8.5,9.8,5.8,19.8-4.2,15.8-30.6,99.6-37.3,117.8-4.1,9.9-9.3,15.7-18,20.1-3.1,9.8-6.6,20-9.2,29.9-.8,2.9,1.2,5.9,4.2,6.3,35.2,5.4,131,21.8,166.4,27.4.5,0,.9.1,1.4.1,3.8,0,7.2-2.4,8.4-6.1,5.7-17.5,17.2-62.5,21.3-77.7.7-2.8-.8-5.6-3.6-6.5l-105.2-33.5c-1.8-.6-2.9-2.6-2.3-4.4.5-1.5,1.9-2.4,3.3-2.4s.7,0,1.1.2l104.5,33.2c.5.2,1.1.3,1.6.3,2.4,0,4.5-1.6,5.2-4l20.7-77.2c.9-3.2-1-6.5-4.1-7.5l-234.9-74.5c-1-.3-2-.5-2.9-.5h0Z"/>
    <path class="st15" d="M406.5,308.8c.3,0,.7,0,1,.1l96.2,25.1c1,.3,1.9.9,2.4,1.9.5.9.6,2,.3,3.1-7.8,23.4-16.4,49-24.7,73.8-11.7,34.8-23.7,70.8-33.7,101.1-.5,1.6-2,2.6-3.7,2.6s-.4,0-.6,0l-97.4-15.8c-1.1-.2-2.1-.8-2.7-1.8-.6-1-.7-2.1-.4-3.2l25.3-78.2c.4-1.3,1.7-2.2,3.1-2.2.3,0,.6,0,.8.1,36.7,9.7,37.6,9.7,38.2,9.7h0s0,0,.1,0c3.2,0,5.9-2.4,6.3-5.8.4-3.4-1.6-6.3-4.8-7h-.1s0,0,0,0c-.9-.2-7.4-2-13.8-3.7-7.3-2-15.7-4.3-21.4-5.8-.9-.2-1.6-.8-2-1.6-.4-.8-.5-1.7-.2-2.6l28.2-87.2c.5-1.6,2-2.7,3.7-2.7M406.5,305.8c-2.9,0-5.6,1.9-6.5,4.7l-28.2,87.2c-1.1,3.4.9,7,4.3,8,11.5,3,34.2,9.3,35.4,9.5,3.9.9,3,6.9-.8,6.9s0,0-.1,0c0,0,0,0,0,0-1,0-25.9-6.6-37.4-9.6-.5-.1-1.1-.2-1.6-.2-2.6,0-5.1,1.7-5.9,4.3l-25.3,78.2c-1.3,4,1.3,8.2,5.4,8.9l97.4,15.8c.4,0,.7,0,1.1,0,2.9,0,5.6-1.9,6.5-4.7,17.2-52,39.7-118.6,58.4-174.9,1.3-3.8-.9-7.8-4.8-8.8l-96.2-25.1c-.6-.2-1.2-.2-1.7-.2h0Z"/>
    <path class="st15" d="M1083,481.1c.6,0,1.1,0,1.6.3l56,18.1c.4.1.6.5.5.9-4.8,17.7-9,33.9-12.6,49.6-11.6,42.1-17.6,65-22.8,85.3-4.1,15.7-8,30.6-13.9,52.3-.1.5-.6.5-.8.5s-.2,0-.4,0c-20.4-6.2-39.2-12.5-56.5-18.4-2.9-1-4.6-3.7-4-6.4,7.6-32.5,17.8-69.2,28.6-107.9,6.4-23,13-46.8,19.2-70,.6-2.3,2.7-4,5.2-4M1083,478.1c-3.7,0-7.1,2.5-8.1,6.2-16.2,61.5-35.5,125.8-47.7,178.1-1,4.4,1.7,8.5,5.9,9.9,19.7,6.7,37.5,12.7,56.6,18.5.4.1.8.2,1.2.2,1.7,0,3.2-1,3.7-2.7,13.7-50,16.3-63.2,36.8-137.6,4-17.3,8.3-33.8,12.6-49.5.5-1.9-.6-3.9-2.5-4.6l-56-18.1c-.9-.3-1.7-.4-2.6-.4h0Z"/>
    <path class="st15" d="M1134.6,276.9c0,0,.1,0,.2,0,18.9,5,33.9,8.9,47.2,12.2.3,0,.5.3.5.6,7.9,41.6-6.9,92.1-25.7,156-3.8,13-7.8,26.5-11.8,40.6-.1.4-.5.6-.7.6s-.2,0-.2,0l-60.8-19.6c-.4-.1-.6-.5-.5-.9,14.2-52,35.1-128.9,51-188.9.1-.4.4-.6.7-.6M1134.6,273.9c-1.7,0-3.2,1.1-3.6,2.8-15.4,57.8-36.1,134.3-51,188.9-.5,1.9.6,3.9,2.5,4.6l60.8,19.6c.4.1.8.2,1.1.2,1.6,0,3.1-1.1,3.6-2.7,23.8-84.4,47.3-147.2,37.6-198-.3-1.4-1.4-2.5-2.8-2.9-14.9-3.8-30.9-7.9-47.2-12.2-.3,0-.6-.1-1-.1h0Z"/>
    <path class="st15" d="M75.8,879c17.5,3.1,31.9,3.3,48.4,3.5,5.7,0,11.5.1,17.8.3,26.4,4.3,53.5,8.7,83,13.5,1,.2,1.9.7,2.5,1.5.6.8.8,1.8.7,2.8-2.8,17.2-6.3,38.9-9.1,56.4l-1,6.2c-.3,1.9.2,3.8,1.4,5.3,1.2,1.5,3,2.3,5,2.3h0c3.2,0,5.9-2.3,6.4-5.5l1.9-11.7c2.7-16.6,5.7-35.5,8.2-50.9.3-1.8,1.9-3.1,3.7-3.1.2,0,.4,0,.6,0,27.5,4.4,57.4,9.2,94.1,15.1,2,.3,3.4,2.2,3.1,4.2-1,7.6-2.9,18.1-4.8,29.3-2.6,14.6-5.2,29.7-6.6,41.2-.3,2.5-.7,4.8-1.1,6.9-.6,3.3-1,5.9-.9,8,.2,4.4,3,5.7,4.7,6,.5.1.9.2,1.4.2,5.1,0,5.9-5.6,6.8-11.5.3-2,.6-4.3,1.1-6.7,2.4-11.5,4.7-27.3,7-42.5,1.6-11,3.2-21.5,4.6-28.9.3-1.8,1.9-3.1,3.7-3.1.2,0,.4,0,.6,0,25.8,4.1,53.4,8.5,84.6,13.4,1,.2,1.9.7,2.5,1.5.6.8.8,1.8.7,2.8-2,12.4-4.8,29.7-6.8,42v.4c0,0-6.3,38.2-6.3,38.2h0s0,0,0,0c-.6,3.8.5,7.6,3,10.6,2.8,3.4,7,5.4,11.5,5.7.6,0,1.2.1,1.8.1,6.7,0,12.6-4.9,13.5-11.1,1.9-11.7,4.6-28.3,7.3-44.5v-.6c2.1-12.5,4.2-25.3,6-36.2.3-1.8,1.9-3.1,3.7-3.1.2,0,.4,0,.6,0,19.9,3.1,39.7,6.3,59.6,9.4l22.5,3.5c2,.3,3.4,2.2,3.1,4.3-2.8,17.9-6,38.6-9,58.7-2.8,18.2-5.4,35.4-7.8,50.6-.3,1.9.2,3.8,1.5,5.2,1.2,1.5,3,2.3,5,2.3h0c3.2,0,5.9-2.3,6.4-5.5,2.4-15.2,5-32.3,7.8-50.5,3.1-20.1,6.3-40.9,9-58.8.3-1.8,1.9-3.2,3.7-3.2s.4,0,.6,0c20.5,3.2,40.9,6.5,61.2,9.7,5.9.9,10,6.3,9.4,12.2-3,28.5-11.7,76.2-17.4,107.9-5.1,28.1-6.1,34.5-6.1,36.7,0,.5-.1.9-.1,1.4h-1.3c-101.9-21.8-218.2-70.8-295.1-103.2-18.5-7.8-34.5-14.6-48.2-20-44.2-19.2-84.1-29.8-116.2-38.3-7.4-2.3-14.7-4.3-21.8-6.3-32-9.1-59.7-16.9-70.1-35.6-5.4-9.8-6.1-22.4-1.9-38.4M73.7,875.5c-18,62.8,35,68.3,95,86.7,32,8.5,71.9,19.1,115.9,38.2,71.9,28.9,218,96.5,344.1,123.5h5.1c-.5-1.2-.6-2.7-.4-4.3-.9-2.5,18.4-97.8,23.4-144.3.8-7.5-4.4-14.3-11.9-15.5-20.3-3.2-40.7-6.4-61.2-9.7-.4,0-.7,0-1.1,0-3.3,0-6.2,2.4-6.7,5.7-5.2,33.6-11.7,76.8-16.8,109.3-.3,1.7-1.8,3-3.5,3,0,0,0,0,0,0-2.1,0-3.8-2-3.4-4,5.1-32.5,11.6-75.7,16.8-109.3.6-3.7-1.9-7.1-5.6-7.7-27.4-4.3-54.6-8.6-82.1-12.9-.4,0-.7,0-1.1,0-3.3,0-6.1,2.4-6.7,5.7-1.8,11-3.9,24-6,36.7-2.7,16.6-5.4,32.9-7.3,44.5-.7,5-5.7,8.6-10.6,8.6s-1,0-1.5-.1c-6.9-.3-12.9-5.9-11.9-12.8l6.3-38.2c2-12.3,4.9-29.8,6.9-42.4.6-3.7-1.9-7.2-5.6-7.7-28.1-4.4-56.4-8.9-84.6-13.4-.4,0-.7,0-1.1,0-3.2,0-6,2.3-6.6,5.5-3.2,17.5-7.4,51.4-11.5,71.3-1.9,9.1-1.6,15.8-5,15.8s-.5,0-.7,0c-4.2-.9-1.6-7.4-.4-17.6,2.5-20.3,9-53,11.4-70.4.5-3.6-2-7-5.6-7.6-31.4-5-62.7-10-94.1-15.1-.4,0-.7,0-1.1,0-3.3,0-6.1,2.4-6.7,5.7-3.1,19.3-7.2,44.3-10.1,62.6-.3,1.7-1.8,2.9-3.5,2.9,0,0,0,0,0,0-2.1,0-3.8-2-3.4-4.1,3-18.3,7-43.3,10.1-62.6.6-3.7-1.9-7.2-5.6-7.8-27.9-4.5-55.7-9-83.2-13.5-25.7-.8-44,.5-68.6-4.2h0Z"/>
    <path class="st15" d="M439.9,202.8c.2,0,.4,0,.7,0l99,26.5c.7.2,1.2.6,1.6,1.2.3.6.4,1.3.2,2-7.2,22.6-16.6,51.3-28.7,87.8-.3,1-1.3,1.8-2.4,1.8s-.4,0-.6,0l-98.9-25.8c-.7-.2-1.3-.6-1.6-1.2-.3-.6-.4-1.3-.2-2l28.6-88.5c.3-1.1,1.3-1.8,2.4-1.8M439.9,199.8c-2.4,0-4.5,1.5-5.3,3.8l-28.6,88.5c-1,3,.8,6.3,3.9,7.1l98.9,25.8c.5.1.9.2,1.4.2,2.3,0,4.5-1.5,5.3-3.8,10.6-32,20.6-62.5,28.8-87.9,1-3-.8-6.2-3.9-7l-99-26.5c-.5-.1-1-.2-1.4-.2h0Z"/>
    <path class="st15" d="M223.7,261c.2,0,.4,0,.6,0l164.4,42.9c.7.2,1.3.6,1.6,1.2.3.6.4,1.3.2,2l-29.3,90.5c-.3,1.1-1.3,1.8-2.4,1.8s-.4,0-.6,0c-17.1-4.2-73.3-19.4-118.5-31.6-18.6-5-34.7-9.4-45-12.1-.7-.2-1.2-.6-1.6-1.2-.3-.6-.4-1.3-.2-2,9.1-28.5,18.6-58.6,28.3-89.7.3-1.1,1.3-1.8,2.4-1.8M223.7,258c-2.4,0-4.6,1.5-5.3,3.9-9.4,29.9-18.8,59.8-28.3,89.7-1,3,.8,6.2,3.9,7,34.9,9.3,139.2,37.8,163.5,43.7.4.1.9.2,1.3.2,2.4,0,4.5-1.5,5.3-3.8l29.3-90.5c1-3-.8-6.3-3.9-7.1l-164.4-42.9c-.5-.1-.9-.2-1.4-.2h0Z"/>
    <path class="st15" d="M461.8,934c.1,0,.2,0,.3,0h0c.6.1,1,.4,1.4.9.3.5.5,1,.4,1.6-1.9,11.3-4.1,24.9-6.2,38.1h0c-2.6,16.2-5.3,32.7-7.2,44.4,0,.2-.3.5-1.2.5s-2.2-.5-2.7-.9c1.7-15.1,5-34.5,8.2-53.3,1.8-10.6,3.6-20.7,4.9-29.4.2-1,1-1.8,2.1-1.8M461.8,931c-2.5,0-4.6,1.8-5,4.3-3.7,24.3-10.7,60-13.3,83.9.8,1.9,3.4,3.2,5.8,3.2s3.6-.8,4.1-2.8c1.9-11.6,4.6-27.9,7.3-44.5,2.2-13.3,4.4-26.9,6.2-38.3.5-2.8-1.4-5.4-4.2-5.8,0,0,0,0-.1,0-.3,0-.5,0-.8,0h0Z"/>
    <path class="st15" d="M189.9,368c.2,0,.4,0,.7,0,10.2,2.7,26.7,7.2,45.8,12.3,44.3,11.9,99.5,26.8,117.4,31.4.7.2,1.3.6,1.6,1.2.3.6.4,1.3.2,2l-26.1,80.7c-.3,1.1-1.3,1.8-2.4,1.8s-.3,0-.4,0l-168.5-27.3c-1-.2-1.5-.8-1.8-1.2-.2-.4-.6-1.1-.2-2.1,10.1-30.9,20.6-63.5,31.3-97.1.3-1.1,1.3-1.8,2.4-1.8M189.9,365c-2.4,0-4.5,1.5-5.3,3.9-10.4,32.4-20.8,64.8-31.3,97-1.1,3.2,1,6.7,4.4,7.2l168.5,27.3c.3,0,.6,0,.9,0,2.4,0,4.5-1.5,5.3-3.8l26.1-80.7c1-3.1-.8-6.3-3.9-7.1-25.7-6.5-129.6-34.7-163.2-43.7-.5-.1-1-.2-1.4-.2h0Z"/>
    <path class="st15" d="M152.3,491.5c.1,0,.3,0,.4,0l76.1,12.3,99.8,16.2c.7.1,1.3.5,1.7,1,.4.6.6,1.2.4,1.9l-6.5,39.4-13,78.8c-.4,2.3-2.3,4-4.7,4s-.5,0-.8,0c-16.4-2.7-42-7-69.4-11.5-36.1-6-75.1-12.4-99.9-16.5-3.4-.6-5.6-3.7-5.1-7.1,6.5-41.4,12-72.9,17.8-102.3h0c0,0,0-.2,0-.2.3-2,.3-4.9.4-8.2,0-1.7,0-3.5.1-5.4,0-1.3,1.2-2.4,2.5-2.4M152.3,488.5c-2.9,0-5.4,2.3-5.5,5.3-.2,5.4-.1,10.5-.5,13.3-6.7,33.8-12.4,68-17.8,102.4-.8,5,2.6,9.7,7.6,10.5,43.6,7.2,131.2,21.7,169.3,28,.4,0,.9.1,1.3.1,3.7,0,7-2.7,7.6-6.5,4-24,16.1-97.5,19.5-118.2.5-3-1.5-5.9-4.6-6.4-27.1-4.4-147-23.9-175.9-28.5-.3,0-.6,0-.9,0h0Z"/>
    <path class="st15" d="M117.5,733.6c.3,0,.7,0,1,0,8.7,1.4,19.1,3.2,30.4,5,45.2,7.5,107,17.7,137.7,22.7,1.3.2,2.3.9,3.1,1.9.7,1,1,2.3.8,3.5l-18.2,109.9c-.4,2.3-2.3,4-4.7,4s-.5,0-.7,0c-24-3.8-48.2-8.4-71.6-12.9-26.4-5-53.7-10.2-80.6-14.2-10.6-1.6-17.6-1.6-20.9-1.6-1.1,0-1.8-.6-2.1-1-.5-.7-.7-1.5-.5-2.3h0c0,0,0-.1,0-.1h0c6.7-31.7,13.1-66.5,20-109.7.5-3,3.1-5.2,6.1-5.2M117.5,730.6c-4.4,0-8.3,3.2-9.1,7.8-5.9,36.8-12.4,73.4-20,109.5h0c-.9,3.6,1.7,7.1,5.4,7.2,3.3,0,10.1,0,20.5,1.6,50.5,7.6,100.9,18.9,152.1,27.1.4,0,.8,0,1.2,0,3.7,0,7-2.7,7.6-6.5l18.2-109.9c.7-4.2-2.2-8.2-6.4-8.9-38.2-6.2-124-20.4-168-27.7-.5,0-1-.1-1.5-.1h0Z"/>
    <path class="st15" d="M365.2,526.3c.8,0,1.6,0,2.4.2l313.5,50.9,15.6,2.8c8.1,1.5,13.5,9.2,12.1,17.3-23.9,137.1-41.7,244.9-54.4,329.4-1.1,7.3-7.4,12.7-14.8,12.7s-1.6,0-2.4-.2c-32.9-5.2-65.8-10.4-98.7-15.6-75.4-11.9-153.4-24.2-230.3-36.5-4-.6-7.4-2.8-9.8-6-2.3-3.3-3.3-7.2-2.6-11.2l54.7-331.3c1.2-7.3,7.4-12.5,14.7-12.5M365.2,523.3c-8.6,0-16.3,6.2-17.7,15l-54.7,331.3c-1.6,9.8,5.1,19.1,14.9,20.7,110.1,17.6,219.7,34.7,329.1,52,1,.2,1.9.2,2.8.2,8.7,0,16.4-6.4,17.7-15.3,15.5-102.9,36.4-225.9,54.4-329.3,1.7-9.7-4.8-19-14.5-20.8l-15.6-2.8-313.5-50.9c-1-.2-1.9-.2-2.9-.2h0Z"/>
    <path class="st15" d="M691.4,857.6c.2,0,.5,0,.8,0,46.5,7.5,131.9,21.3,180.2,29,1.2.2,2.3.9,3,1.9.7,1,1,2.2.8,3.5-4.1,25.5-8,49.6-11.6,71.8-.7,4.1-4.2,7.1-8.3,7.1s-1.2,0-1.8-.2c-34.1-7.1-113.4-20.6-167.5-26.5-3.5-.4-6.5-2.1-8.7-4.9-2.1-2.8-3-6.2-2.4-9.6,2.6-16.8,7.6-48,10.9-68.2.4-2.2,2.3-3.9,4.6-3.9M691.4,854.6c-3.7,0-6.9,2.7-7.5,6.4-3.2,19.8-8,49.8-10.9,68.2-1.4,8.8,4.9,17,13.8,18,54.1,5.9,132.6,19.2,167.2,26.5.8.2,1.6.2,2.4.2,5.5,0,10.4-4,11.3-9.6,3.6-22.2,7.5-46.3,11.6-71.8.7-4.2-2.2-8.1-6.3-8.7-46.7-7.4-132-21.2-180.2-29-.4,0-.8,0-1.2,0h0Z"/>
    <path class="st15" d="M1028.3,699.8c.6,0,1.2.1,1.7.3,15.8,6,32,12.2,48.2,18.3,2.4.9,3.7,3.4,3,5.9-9.3,33.9-17.8,73-26.9,122.8-.4,2.3-2.4,4-4.8,4s-.6,0-.8,0c-4.4-.8-9.3-1.6-14.4-2.5-9.5-1.6-19.4-3.4-28.1-4.8-2.6-.4-4.4-3-4-5.6,7.1-43.7,14.5-90.2,21.2-134.2.4-2.4,2.4-4.2,4.8-4.2M1028.3,696.8c-3.8,0-7.2,2.7-7.8,6.7-6.6,43.6-13.9,89.2-21.2,134.1-.7,4.3,2.2,8.3,6.5,9,13.5,2.3,30,5.2,42.5,7.3.5,0,.9.1,1.3.1,3.7,0,7.1-2.7,7.7-6.5,7.7-42.4,16.3-84.1,26.8-122.6,1.1-3.9-1-8-4.8-9.4-16.4-6.2-32.5-12.3-48.2-18.3-.9-.4-1.9-.5-2.8-.5h0Z"/>
    <path class="st15" d="M900.4,839.6c.2,0,.3,0,.5,0,21.8,3.6,48.8,8,74.9,12.2l7.8,1.3c1.7.3,2.8,1.8,2.5,3.5l-1.1,6.8c-6,37-12.2,75.3-17.9,111.2-.3,1.9.2,3.8,1.5,5.2,1.2,1.5,3,2.3,5,2.3h0c3.2,0,5.9-2.3,6.4-5.5,5.6-35.7,11.8-73.8,17.8-110.6l1.2-7.4c.2-1.5,1.5-2.6,3-2.6s.3,0,.5,0c9.1,1.5,19.6,3.3,29.7,5.1,5.7,1,11.3,1.9,16.1,2.8.8.1,1.5.6,2,1.3.5.7.7,1.5.5,2.3-4.1,23.6-8,47.5-11.8,70.6-3.3,20.4-6.5,39.7-9.8,58.8-.4,2.1-2.2,3.6-4.3,3.6s-.5,0-.7,0c-48.1-7.5-96.6-14.9-144.2-22.1-1.2-.2-2.2-.8-2.9-1.7-.7-1-1-2.1-.8-3.3,6.2-38.2,13.3-82.4,21.1-131.3.2-1.5,1.5-2.6,3-2.6h0M900.4,836.6c-2.9,0-5.5,2.1-6,5.1-7.7,48.1-14.9,92.8-21.1,131.3-.7,4.1,2.1,7.9,6.2,8.5,47.8,7.2,96,14.5,144.2,22.1.4,0,.8,0,1.1,0,3.5,0,6.7-2.5,7.3-6.1,7.1-41.4,14-85.5,21.6-129.3.6-3.3-1.6-6.5-5-7-13.2-2.3-31.5-5.5-45.8-7.9-.3,0-.7,0-1,0-2.9,0-5.5,2.1-6,5.1-6.4,39.2-13,79.9-19,118-.3,1.7-1.8,3-3.5,3,0,0,0,0,0,0-2.1,0-3.8-2-3.4-4,6-38.1,12.6-78.8,19-118,.5-3.3-1.7-6.4-5-7-27.6-4.5-58.6-9.5-82.6-13.5-.3,0-.7,0-1,0h0Z"/>
    <path class="st15" d="M133.6,629.9c.3,0,.7,0,1,0,13.1,2.2,30,5,48.2,8,44,7.3,93.9,15.6,120.8,20,1.3.2,2.3.9,3.1,1.9.7,1,1,2.3.8,3.5l-9,54.4-4.4,26.9c-.4,2.3-2.3,4-4.7,4s-.5,0-.8,0c-38.6-6.3-129.4-21.3-168.2-27.7-3.3-.6-5.6-3.7-5.1-7.1,2.5-15.9,4.9-32,7.3-47.6,1.6-10.3,3.2-20.7,4.7-31,.5-3,3.1-5.3,6.1-5.3M133.6,626.9c-4.5,0-8.4,3.3-9.1,7.8-4,26.2-8,52.5-12.1,78.6-.8,5,2.6,9.7,7.6,10.5,43.7,7.2,130.3,21.6,168.2,27.7.4,0,.8.1,1.3.1,3.7,0,7-2.7,7.6-6.5,3-18,10.4-63.2,13.4-81.3.7-4.2-2.2-8.2-6.4-8.9-38.3-6.3-125.1-20.7-169-28-.5,0-1-.1-1.5-.1h0Z"/>
    <path class="st15" d="M763.5,482.8c.2,0,.4,0,.6.1l175.9,56c2.1.7,3.2,2.8,2.7,4.9-6.5,24.1-13.6,50.3-22.1,82.2-.6,2.2-2.5,3.7-4.8,3.7s-1.2-.1-1.7-.3c-8.8-3.3-23-8.7-39.4-14.9-45.9-17.5-108.8-41.5-131.7-48-1-.3-1.9-1-2.4-1.9-.5-.9-.6-2-.3-3,4.5-14.1,13-46.3,18-65.6,1.2-4.7,2.3-8.7,3.1-11.7.2-.9,1.1-1.6,2-1.6M763.5,479.8c-2.2,0-4.3,1.5-4.9,3.8-4.1,15.3-15.5,59.7-21.1,77.1-1.2,3.7.9,7.6,4.7,8.7,31.1,8.8,137.9,50.6,170.9,62.8.9.3,1.8.5,2.8.5,3.5,0,6.7-2.3,7.7-5.9,7.3-27.1,14.7-54.5,22.1-82.2,1-3.6-1.1-7.4-4.7-8.5l-175.9-56c-.5-.2-1-.2-1.6-.2h0Z"/>
    <path class="st15" d="M743,589.9c1.3,0,2.6.2,3.8.6,16.3,5.2,39.3,14.1,57.8,21.2,7.7,3,14.3,5.5,19.6,7.5,2.2.8,3.3,3.3,2.6,5.5-.7,1.8-1.3,3.7-2,5.6-7.1,19.9-15.1,42.4-17.7,61.4h0c0,.4-.2.8-.2,1.3l-.6,4-2.3,14.1-6.9,42.9-10.1,62.4c-.3,1.9.2,3.8,1.4,5.3,1.2,1.5,3,2.3,5,2.3h0c3.2,0,5.9-2.3,6.4-5.5l20.1-124.9h0s0,0,0,0c2.4-17.9,10.2-39.8,17.2-59.1.7-2.1,1.5-4.1,2.2-6.1.5-1.3,1.7-2.2,3.2-2.2s.8,0,1.2.2l63,23.6c4.6,1.7,7.3,6.4,6.6,11.3-11.3,70.9-22.8,142.9-33.3,208.2-.4,2.6-2.6,4.5-5.2,4.5s-.6,0-.8,0c-48.1-7.7-132.8-21.3-178.8-28.8-1.4-.2-2.6-1-3.5-2.2-.8-1.2-1.1-2.6-.9-4,5.5-31.5,10.9-65,16-97.5,7.6-47.7,15.5-96.9,24-141.3,1.1-5.9,6.3-10.1,12.3-10.1h0M743,586.9c-7.2,0-13.8,5.1-15.2,12.6-14.5,74.7-26.5,161.3-40.1,238.8-.8,4.5,2.3,8.9,6.8,9.6,48.1,7.8,132.2,21.3,178.8,28.8.4,0,.9.1,1.3.1,4,0,7.5-2.9,8.2-7,10.3-64.4,21.9-136.4,33.3-208.2,1-6.2-2.5-12.3-8.5-14.5l-63-23.6c-.7-.3-1.5-.4-2.2-.4-2.6,0-5.1,1.6-6,4.2-7.2,20.4-16.8,45.7-19.5,65.9l-20.1,124.9c-.3,1.7-1.8,2.9-3.5,2.9,0,0,0,0,0,0-2.1,0-3.8-2-3.4-4.1,0,0,20.1-124.9,20.1-124.9,2.8-20.5,12.2-45.6,19.6-66.4,1.3-3.8-.6-7.9-4.3-9.3-18-6.7-54.4-21.3-77.5-28.7-1.6-.5-3.2-.7-4.7-.7h0Z"/>
    <path class="st15" d="M929.3,663c.5,0,.9,0,1.3.2l7.5,2.8c19.3,7.1,48.4,17.9,66.6,24.6,4.2,1.5,6.7,5.8,6.1,10.3-6.7,44.2-14.2,91.1-21.4,135.1-.4,2.4-2.4,4.1-4.8,4.1s-.5,0-.8,0l-4.6-.7c-24.7-4-52.7-8.6-74.5-12.2-2.6-.4-4.4-2.9-4-5.6,8.1-50.6,16.5-102.8,24.8-155.2.3-1.9,1.9-3.2,3.8-3.2M929.3,660c-3.2,0-6.2,2.3-6.8,5.8-8.4,52.7-16.9,105.5-24.8,155.2-.7,4.3,2.2,8.3,6.5,9,23.2,3.8,52.6,8.6,79.1,12.9.4,0,.9.1,1.3.1,3.8,0,7.1-2.7,7.8-6.6,7.3-45.3,14.7-91.2,21.4-135.1.9-5.8-2.5-11.5-8-13.5-20.9-7.6-56.6-20.9-74.1-27.4-.8-.3-1.6-.4-2.4-.4h0Z"/>
    <path class="st15" d="M790.2,388.1c.4,0,.8,0,1.2.2l174.7,55.4c2,.6,3.1,2.6,2.5,4.6-6.5,23.8-13.2,48.4-20.4,75.1-.5,1.8-2.1,3-3.9,3s-.8,0-1.2-.2l-175.8-55.9c-1.1-.3-1.7-1.5-1.4-2.5l20.6-76.7c.4-1.7,2-2.8,3.7-2.8M790.2,385.1c-3,0-5.8,2-6.6,5l-20.6,76.7c-.7,2.6.8,5.4,3.4,6.2l175.8,55.9c.7.2,1.4.3,2.1.3,3.1,0,5.9-2,6.8-5.2,6.7-25,13.5-50,20.4-75,1-3.5-1-7.2-4.5-8.3l-174.7-55.4c-.7-.2-1.4-.3-2.1-.3h0Z"/>
    <path class="st15" d="M813.9,297c.3,0,.5,0,.7,0l179.2,48.2c.7.2,1.4.7,1.8,1.4.4.7.5,1.4.3,2.2-7,25.3-14.5,52.4-22.2,80.6-.3,1.2-1.5,2.1-2.8,2.1s-.6,0-.9-.1l-176.6-56c-1.5-.5-2.3-2-1.9-3.5l19.5-72.8c.3-1.3,1.5-2.1,2.8-2.1M813.9,294c-2.6,0-5,1.7-5.7,4.4l-19.5,72.8c-.8,3,.9,6.2,3.9,7.1l176.6,56c.6.2,1.2.3,1.8.3,2.6,0,5-1.7,5.7-4.3,7.4-27,14.8-53.9,22.2-80.6.9-3.1-1-6.4-4.1-7.2l-179.2-48.2c-.5-.1-1-.2-1.5-.2h0Z"/>
    <path class="st15" d="M1023,322.4s0,0,.1,0c4.1.3,17.8,4.3,26.9,7,3.8,1.1,7.1,2.1,9.4,2.7l39.5,10.9c1.8.8,3.5,1.7,2.1,6.8-8.1,30-20,73.9-29.6,109-.5,1.9-2.3,3.3-4.3,3.3s-.9,0-1.4-.2l-76.2-24.2c-2.3-.7-3.6-3.2-2.9-5.5,3.5-12.2,6.8-24.8,10-36.9,6-23,12.3-46.7,20.1-69.2,1.3-2.2,3.8-3.6,6.4-3.6M1023,319.4c-3.5,0-7.2,1.9-9.1,5.4-12,34.4-20,70.8-30.2,106.5-1.1,3.9,1.1,8,4.9,9.2l76.2,24.2c.8.2,1.5.4,2.3.4,3.3,0,6.3-2.2,7.2-5.5,9.2-33.7,20.7-76.1,29.6-109,2.1-7.6-1.8-9.4-4-10.4l-39.7-10.9c-8.1-2.2-30.9-9.4-36.9-9.8,0,0-.2,0-.3,0h0Z"/>
    <path class="st15" d="M288.7,51.2c.2,0,.4,0,.7,0,38.3,10.3,76.9,20.5,114.1,30.4,17.6,4.7,35.2,9.4,52.7,14,.7.2,1.2.6,1.6,1.2.3.6.4,1.3.2,2l-27.6,85.2c-.3,1.1-1.3,1.8-2.4,1.8s-.4,0-.7,0l-165.6-44.3c-.7-.2-1.2-.6-1.6-1.2-.3-.6-.4-1.3-.2-2,7.7-25,16.1-52.1,26.3-85.4.3-1.1,1.3-1.8,2.4-1.8M288.7,48.2c-2.4,0-4.6,1.5-5.3,3.9-8.7,28.4-17.5,56.9-26.3,85.4-.9,3,.8,6.2,3.9,7l165.6,44.3c.5.1,1,.2,1.4.2,2.4,0,4.5-1.5,5.3-3.8l27.6-85.2c1-3-.8-6.3-3.8-7.1-55.2-14.7-110.7-29.4-166.9-44.5-.5-.1-1-.2-1.4-.2h0Z"/>
    <path class="st15" d="M983.6,449.4c.2,0,.5,0,.7.1l76.8,24.4c3.2,1,5,4.3,4.1,7.5-13.5,49.8-39.8,147.8-47.6,176.7-.7,2.6-3.1,4.5-5.8,4.5s-1.5-.1-2.2-.4c-9.7-3.8-25.7-9.3-41.2-14.7-12-4.2-23.3-8.1-31.8-11.2-2.4-.9-4.5-3.3-3.7-6.3,14.4-53.6,31.4-116.7,48.3-178.7.3-1.1,1.2-1.8,2.3-1.8M983.6,446.4c-2.4,0-4.6,1.6-5.2,4-16.2,59.3-32.5,119.7-48.3,178.7-1.1,4.3,1.4,8.4,5.6,9.9,20,7.3,56,19.4,72.9,25.9,1.1.4,2.2.6,3.3.6,4,0,7.6-2.6,8.7-6.7,8.3-30.8,34.1-127.1,47.6-176.7,1.3-4.7-1.4-9.7-6.1-11.2l-76.8-24.4c-.5-.2-1.1-.3-1.6-.3h0Z"/>
    <path class="st15" d="M257,153.9c.2,0,.4,0,.7,0l165.3,44.3c.7.2,1.2.6,1.6,1.2s.4,1.3.2,2l-28.7,88.6c-.3,1.1-1.3,1.8-2.4,1.8s-.4,0-.6,0l-164.6-43c-.7-.2-1.2-.6-1.6-1.2-.3-.6-.4-1.3-.2-2,8.8-28.2,17.9-57.6,27.9-89.8.3-1.1,1.3-1.8,2.4-1.8M257,150.9c-2.4,0-4.6,1.5-5.3,3.9-9.3,29.9-18.6,59.9-27.9,89.8-.9,3,.8,6.2,3.9,7l164.6,43c.5.1.9.2,1.4.2,2.4,0,4.5-1.5,5.3-3.8l28.7-88.6c1-3-.8-6.3-3.8-7.1l-165.3-44.3c-.5-.1-1-.2-1.4-.2h0Z"/>
    <path class="st15" d="M360.5,56.9s0,0,0,0c0,0,0,0,0,0h0ZM360.5,56.9c0,0,.2,0,.3,0-.1,0-.2,0-.3,0h0Z"/>
    <path class="st15" d="M840.2,201.3c.3,0,.7,0,1,.1,18.7,5.4,35.1,10.2,50.3,14.6h0s0,0,0,0c15.8,3.6,33.7,8.7,52.6,14.1,34.4,9.8,70.1,20,97.6,22.2,16.5,4.3,34,8.9,52.4,13.8,7.8,2.1,15.7,4.2,23.6,6.2.9.2,1.7.9,2.2,1.7.5.8.6,1.8.4,2.8l-13.7,51.1c-.4,1.6-1.9,2.7-3.5,2.7s-.9,0-1.3-.3c-7.5-3-18.6-5.7-28.3-8.1-7.4-1.8-14.5-3.6-17.8-4.9h-.1s-.1,0-.1,0c-15.9-4.9-26-7.8-33.6-7.8s-15.6,3.4-20.9,20.6c-.5,1.5-1.9,2.5-3.5,2.5s-.6,0-1-.1l-178-47.8c-1.9-.5-3.1-2.5-2.6-4.5l20.5-76.3c.4-1.6,1.9-2.7,3.5-2.7M840.2,198.3c-2.9,0-5.6,2-6.4,4.9l-20.5,76.3c-1,3.5,1.2,7.2,4.7,8.1l178,47.8c.6.2,1.2.2,1.7.2,2.8,0,5.4-1.8,6.3-4.6,4.2-13.3,8.6-18.5,18.1-18.5s17.4,3,32.7,7.7c8,3.2,32.9,7.8,46.1,13.1.8.3,1.6.5,2.4.5,2.9,0,5.6-1.9,6.4-4.9l13.7-51.1c1-3.6-1.2-7.2-4.7-8.1-26.2-6.9-52.6-14-76.3-20.1-42.3-3.3-105.1-26.1-150.1-36.3-16.8-4.9-33.6-9.8-50.3-14.6-.6-.2-1.2-.3-1.8-.3h0Z"/>
    <path class="st15" d="M474.9,100.9c.5,0,.9,0,1.4.2,109.7,29.3,227.3,60.9,343.7,94.2,2.8.8,4.5,3.7,3.7,6.6l-11.6,43.2c-11.1,41.5-23.7,88.4-32.2,120.1-.6,2.3-2.8,4-5.2,4s-1.1,0-1.6-.3l-233-73.9c-1.4-.4-2.5-1.4-3.1-2.7-.7-1.3-.8-2.7-.3-4.1,2.4-7.4,4.9-14.7,7.3-21.6,4.4-12.6,8.6-24.5,11.1-35.9,1.2-5.4-1.8-10.7-7-12.4-13.7-4.5-46.6-12.9-73.1-19.7-11.2-2.9-20.8-5.4-27.4-7.1-1.4-.4-2.6-1.3-3.3-2.6-.7-1.3-.9-2.8-.4-4.2l25.9-80.1c.7-2.2,2.8-3.7,5.1-3.7M474.9,97.9c-3.6,0-6.8,2.3-8,5.8l-25.9,80.1c-1.5,4.6,1.2,9.4,5.8,10.7,22.1,5.9,81,20.5,100.3,26.8,3.7,1.2,5.9,5,5,8.9-3.9,17.5-11.8,36.4-18.4,57.3-1.4,4.4,1,9.2,5.4,10.6l233,73.9c.8.3,1.7.4,2.5.4,3.7,0,7.1-2.5,8.1-6.2,11.7-43.5,31-115.8,43.8-163.3,1.2-4.4-1.4-9-5.8-10.2-114.8-32.8-228.6-63.5-343.8-94.3-.7-.2-1.4-.3-2.2-.3h0Z"/>
  </g>
  <g id="roads-primary">
    <path class="st9" d="M1156.4,5.8l1.6-5.8"/>
    <path class="st2" d="M1202.2,353c9.9-9.8,14.4-25.9,20.4-38.1,2.8-7,6.8-14.7,12.3-20"/>
    <path class="st2" d="M1175.3,240.2c-2.4,22.5-9.9,26.2-30.6,31.1"/>
    <path class="st0" d="M142.8,478.8c-2.9,5.8-13.1,25.3-16.2,31.4-3.9,13.3-10,43.9-12.4,57.8-5.4,30.8-12.8,76.9-17.6,107.9-9.3,53.8-19.4,119-27.9,172.8,0,4.5,1.9,13.9,2.7,18.2"/>
    <path class="st6" d="M1309,313.9c-19-4.8-235.3-61.5-265.7-69.3"/>
    <path class="st0" d="M47.2,948.6c5.9-3.7,30.7-7.6,61.5,1.4,48.4,14.2,105,30.1,137.9,42.1,69.5,25.3,158.2,73.6,188.1,124.5"/>
    <path class="st8" d="M284.7,0c-2.6,9-4.6,20.7-4.6,30.1l.4,10.5c1.4-2.3,6.7-10.3,7.6-12.6,3.4-7.9,6.7-19.6,8.7-28"/>
    <path class="st6" d="M1156.4,5.8c-2,4.5-11.2,23.6-12.3,27.9-3.7,12.9-7.8,27.9-9.6,41.2-1.8,20.1,1.8,42.3,8.1,61.4,14,46.1,31.9,100.5,46.4,146.4,4.9,15.4,4.7,33.7,3.8,49.6,1.7,10.9-75.1,284.7-78.3,300.8l-16.2,61-2.2,7.6c-6.6,25.2-18.7,68.7-24.6,94-4.8,23.8-19.9,116.1-24.1,141.7-1.7,10.1-11.5,66.7-12.9,75.3"/>
    <path class="st6" d="M1043.3,244.5c-3.9-2.2-11.7-6.3-15.8-7.6-2.3-.6-7.2-1.9-9.3-2.6-25.9-7.1-95.8-25.6-122.7-32.8-17.3-4.5-43.2-11.5-60.5-16.1-5.9-1.6-14.6-3.9-20.6-5.2,0,0-19-1.9-19-1.9"/>
    <path class="st6" d="M795.3,178.3c7.6,3.4,21,10.2,29,11.6,20.9,5.5,48.4,13.1,69.3,18.4,27.4,7.3,96.3,25.8,122.8,32.7,6.3,2.3,20.1,2.9,26.8,3.5"/>
    <path class="st6" d="M795.3,178.3C727.4,160.4,254.4,33.6,245.8,31.3"/>
    <path class="st0" d="M114.6,951.5c-42.1-14.2-62.3-37-43.3-84.5,4.3-5.6,10.3-13.2,12.2-20.1,9.4-34.2,15.5-84.5,20.8-119.6,10-61.1,21.7-131.3,31.5-192.5,0,0,5.4-27.8,5.4-27.8.2-6,1.2-22.2,1.5-28.1,36.9-109.7,137.8-438.2,137.8-438.2"/>
    <path class="st6" d="M1047.8,1014.9c12-65.7,24.4-161.7,39-226.7,1-4,17.9-69.9,18.3-71.7,8.1-28.7,84.1-315.3,93.7-351.2l3.3-12.3c5.1-21.5,5-45.3.5-66.8-10.3-37.2-25.7-82.4-37.2-119.3-8.3-25.4-19.3-58-19.7-84.8-.2-15.2,3.8-31.5,7.7-46.1,1.1-4.6,2.5-25,3-30"/>
  </g>
</svg>