<svg xmlns="http://www.w3.org/2000/svg" viewBox="-497.7 -732.5 1308.55 1120.5" width="2617" height="2241">
<!-- Park interior paths from streets.json (unnamed segments) — generated 2026-02-10T21:51:27.101Z -->
<rect x="-497.7" y="-732.5" width="1308.55" height="1120.5" fill="#111"/>
<path d="M-143.60,-201.30 L-142.10,-198.20 L-140.00,-194.40 L-137.60,-190.90 L-135.50,-188.10 L-132.20,-184.30 L-128.20,-180.60" stroke="#fff" stroke-width="3.6" stroke-linecap="round" stroke-linejoin="round" fill="none"><title>residential path</title></path>
<path d="M-139.50,-203.80 L-136.00,-201.40 L-132.90,-198.60 L-130.50,-195.50 L-129.40,-193.00 L-128.80,-188.30 L-128.20,-180.60 L-122.50,-163.40 L-111.10,-128.60 L-109.50,-125.20 L-106.70,-120.90 L-103.90,-118.20 L-97.20,-112.70 L-90.50,-107.20 L-83.80,-101.40 L-78.20,-96.90 L-75.90,-94.10 L-74.20,-90.80 L-72.90,-86.60 L-71.60,-79.90 L-70.60,-72.20 L-69.70,-64.10 L-68.70,-58.60 L-67.20,-54.00 L-65.20,-49.30 L-62.40,-44.30 L-59.30,-39.80 L-51.40,-29.70 L-44.20,-20.90 L-38.40,-14.70 L-33.30,-9.80" stroke="#fff" stroke-width="3.6" stroke-linecap="round" stroke-linejoin="round" fill="none"><title>residential path</title></path>
<path d="M-122.50,-163.40 L-113.00,-165.70 L-101.00,-167.70 L-91.20,-169.30 L-81.00,-170.10 L-71.60,-170.20 L-62.30,-169.50 L-53.20,-168.20 L-46.40,-166.80 L-22.20,-162.20 L20.10,-151.10 L25.80,-149.80 L31.30,-148.90 L36.20,-148.20 L41.30,-147.20 L47.00,-144.90 L52.60,-141.30 L59.60,-137.10 L67.60,-133.10 L75.00,-130.20 L82.10,-128.20 L88.50,-127.10 L96.10,-126.20 L103.30,-125.60 L111.10,-125.30 L119.30,-125.50 L128.60,-125.90 L139.50,-126.40 L145.30,-126.20 L150.30,-125.70 L154.20,-124.90 L159.20,-123.20 L164.80,-120.60 L169.80,-118.00" stroke="#fff" stroke-width="3.6" stroke-linecap="round" stroke-linejoin="round" fill="none"><title>residential path</title></path>
<path d="M31.00,-169.30 L31.10,-166.90 L32.50,-162.30" stroke="#fff" stroke-width="3.6" stroke-linecap="round" stroke-linejoin="round" fill="none"><title>residential path</title></path>
<path d="M32.50,-162.30 L35.40,-166.20 L36.50,-168.60" stroke="#fff" stroke-width="3.6" stroke-linecap="round" stroke-linejoin="round" fill="none"><title>residential path</title></path>
<path d="M36.80,-169.90 L36.50,-168.60" stroke="#fff" stroke-width="3.6" stroke-linecap="round" stroke-linejoin="round" fill="none"><title>residential path</title></path>
<path d="M31.10,-170.80 L31.00,-169.30" stroke="#fff" stroke-width="3.6" stroke-linecap="round" stroke-linejoin="round" fill="none"><title>residential path</title></path>
<path d="M183.10,-130.70 L186.40,-136.10 L189.00,-139.90 L191.60,-143.00 L193.70,-144.90 L195.80,-146.20 L198.90,-147.70 L202.30,-148.70" stroke="#fff" stroke-width="3.6" stroke-linecap="round" stroke-linejoin="round" fill="none"><title>residential path</title></path>
<path d="M179.00,27.70 L175.00,27.00 L172.20,27.20 L168.90,27.90 L166.40,28.60" stroke="#fff" stroke-width="3.6" stroke-linecap="round" stroke-linejoin="round" fill="none"><title>residential path</title></path>
<path d="M159.90,-95.20 L161.60,-86.50 L162.90,-75.10 L163.90,-63.90 L164.70,-52.60 L164.70,-39.80 L164.00,-31.30 L162.20,-21.40 L159.60,-10.90 L156.50,-1.10 L154.10,5.40 L151.50,11.60 L149.60,15.40" stroke="#fff" stroke-width="3.6" stroke-linecap="round" stroke-linejoin="round" fill="none"><title>residential path</title></path>
<path d="M81.40,36.10 L88.40,38.00 L97.20,40.20 L104.40,41.60 L109.40,41.90 L113.70,41.90 L118.80,42.00 L122.70,42.60 L126.10,43.40 L132.90,45.60 L139.20,48.00 L143.80,49.80 L146.60,51.10" stroke="#fff" stroke-width="3.6" stroke-linecap="round" stroke-linejoin="round" fill="none"><title>residential path</title></path>
<path d="M61.90,-17.20 L58.50,-1.60 L57.50,2.80 L56.50,6.20 L55.20,9.10" stroke="#fff" stroke-width="3.6" stroke-linecap="round" stroke-linejoin="round" fill="none"><title>residential path</title></path>
<path d="M-3.50,-21.50 L3.00,-22.80 L9.90,-23.60 L17.10,-24.00 L24.60,-23.80 L29.70,-23.40 L31.70,-23.20 L39.10,-21.90 L45.40,-20.60 L61.90,-17.20 L76.50,-14.30 L82.90,-12.90 L88.70,-11.60 L98.90,-9.10 L111.20,-5.20 L121.50,-1.50 L129.40,2.70 L136.90,7.30 L145.20,12.30 L149.60,15.40 L153.80,19.40 L155.60,22.70 L156.50,25.60 L156.60,27.90" stroke="#fff" stroke-width="3.6" stroke-linecap="round" stroke-linejoin="round" fill="none"><title>residential path</title></path>
<path d="M79.60,-8.20 L82.90,-12.90" stroke="#fff" stroke-width="3.6" stroke-linecap="round" stroke-linejoin="round" fill="none"><title>residential path</title></path>
<path d="M29.70,-23.40 L27.30,-13.50 L26.10,-8.50 L25.50,-6.10 L24.80,-2.80 L24.50,0.60 L24.30,2.60" stroke="#fff" stroke-width="3.6" stroke-linecap="round" stroke-linejoin="round" fill="none"><title>residential path</title></path>
<path d="M-200.80,148.20 L-198.10,144.30 L-195.00,140.80 L-191.60,138.00 L-189.60,136.70 L-188.40,136.00 L-185.90,134.80 L-182.90,133.60 L-132.90,76.70 L-123.30,66.40 L-111.50,54.50 L-97.20,41.30 L-87.00,31.50 L-75.50,21.30 L-67.60,14.40 L-58.70,5.90 L-48.50,-4.90 L-38.40,-14.70 L-25.60,-25.60 L-11.10,-37.20 L3.50,-49.90 L13.00,-57.10 L21.80,-62.50 L29.90,-66.70 L38.80,-70.30 L47.20,-72.70 L57.50,-74.80 L68.50,-76.50 L88.60,-79.70 L120.80,-84.80 L139.10,-88.50 L151.10,-90.70 L156.40,-92.70 L159.90,-95.20 L162.20,-98.80 L164.50,-105.60 L167.20,-112.50 L169.80,-118.00 L173.00,-122.50 L177.60,-127.10 L183.10,-130.70 L188.50,-132.50 L193.60,-134.20 L197.50,-135.90 L199.50,-137.20 L201.50,-139.30 L203.90,-142.70 L205.80,-146.00" stroke="#fff" stroke-width="3.6" stroke-linecap="round" stroke-linejoin="round" fill="none"><title>residential path</title></path>
<path d="M26.10,-8.50 L42.30,-5.00 L58.50,-1.60" stroke="#fff" stroke-width="3.6" stroke-linecap="round" stroke-linejoin="round" fill="none"><title>residential path</title></path>
<path d="M42.50,-5.80 L42.30,-5.00 L41.30,0.00" stroke="#fff" stroke-width="3.6" stroke-linecap="round" stroke-linejoin="round" fill="none"><title>residential path</title></path>
<path d="M41.30,0.00 L41.00,1.20" stroke="#fff" stroke-width="3.6" stroke-linecap="round" stroke-linejoin="round" fill="none"><title>residential path</title></path>
<path d="M41.00,1.20 L40.30,4.50" stroke="#fff" stroke-width="3.6" stroke-linecap="round" stroke-linejoin="round" fill="none"><title>residential path</title></path>
<path d="M13.50,114.30 L17.80,114.50 L22.80,114.20 L25.90,113.60 L29.60,112.30 L34.10,109.70 L38.80,106.20 L43.10,101.70 L46.10,98.00 L49.30,95.60 L53.30,94.00 L56.70,93.10 L60.50,91.20 L61.50,90.30 L63.40,87.50 L64.60,84.50 L65.80,80.60 L67.80,73.30 L70.20,66.50 L72.90,60.60 L76.20,55.00 L79.00,48.90 L81.10,42.80 L81.50,39.50 L81.40,36.10 L80.80,33.10 L78.50,28.50 L73.70,22.90 L67.90,17.40 L61.30,12.40 L55.20,9.10 L50.00,6.80 L43.00,4.90 L40.30,4.50 L35.30,3.60 L26.90,2.70 L24.30,2.60 L19.00,2.40 L13.30,2.70 L8.00,3.00 L3.40,4.10 L2.10,-0.30 L0.60,-6.80 L-1.00,-13.70 L-3.50,-21.50 L-5.30,-25.90 L-7.90,-31.60 L-11.10,-37.20" stroke="#fff" stroke-width="3.6" stroke-linecap="round" stroke-linejoin="round" fill="none"><title>residential path</title></path>
<path d="M-0.60,39.30 L-2.80,39.20" stroke="#fff" stroke-width="3.6" stroke-linecap="round" stroke-linejoin="round" fill="none"><title>residential path</title></path>
<path d="M-2.80,39.20 L-6.00,39.10" stroke="#fff" stroke-width="3.6" stroke-linecap="round" stroke-linejoin="round" fill="none"><title>residential path</title></path>
<path d="M-6.00,39.10 L-21.80,38.40" stroke="#fff" stroke-width="3.6" stroke-linecap="round" stroke-linejoin="round" fill="none"><title>residential path</title></path>
<path d="M-43.50,42.00 L-37.90,32.50 L-36.00,30.20 L-32.60,28.00 L-29.70,26.80 L-26.50,25.90 L-23.10,25.50 L-20.50,25.50 L-19.00,25.70" stroke="#fff" stroke-width="3.6" stroke-linecap="round" stroke-linejoin="round" fill="none"><title>residential path</title></path>
<path d="M-30.50,46.40 L-22.00,46.40" stroke="#fff" stroke-width="3.6" stroke-linecap="round" stroke-linejoin="round" fill="none"><title>residential path</title></path>
<path d="M-44.40,43.60 L-48.30,50.20" stroke="#fff" stroke-width="3.6" stroke-linecap="round" stroke-linejoin="round" fill="none"><title>residential path</title></path>
<path d="M-44.40,43.60 L-43.50,42.00" stroke="#fff" stroke-width="3.6" stroke-linecap="round" stroke-linejoin="round" fill="none"><title>residential path</title></path>
<path d="M-36.60,58.90 L-33.40,55.40 L-31.30,51.10 L-30.50,46.40 L-31.40,41.00 L-33.90,36.20 L-37.90,32.50 L-42.30,30.50 L-47.10,29.80 L-51.90,30.60 L-56.20,32.70 L-58.80,34.90 L-60.60,37.30 L-62.10,40.20 L-63.20,44.80 L-62.90,49.60 L-61.30,54.10 L-58.40,57.90 L-54.50,60.70 L-50.00,62.30 L-45.30,62.50 L-40.70,61.30" stroke="#fff" stroke-width="3.6" stroke-linecap="round" stroke-linejoin="round" fill="none"><title>residential path</title></path>
<path d="M-31.40,-8.30 L-25.90,-3.80" stroke="#fff" stroke-width="3.6" stroke-linecap="round" stroke-linejoin="round" fill="none"><title>residential path</title></path>
<path d="M-33.30,-9.80 L-31.40,-8.30" stroke="#fff" stroke-width="3.6" stroke-linecap="round" stroke-linejoin="round" fill="none"><title>residential path</title></path>
<path d="M32.50,-162.30 L31.30,-148.90 L30.00,-136.00 L29.20,-119.20 L31.00,-99.50 L32.60,-89.60 L35.60,-79.20 L38.80,-70.30 L40.70,-63.80 L43.10,-52.70 L46.60,-35.90 L47.00,-31.00 L46.60,-27.10 L45.40,-20.60 L44.10,-14.20" stroke="#fff" stroke-width="3.6" stroke-linecap="round" stroke-linejoin="round" fill="none"><title>residential path</title></path>
<path d="M-46.40,-166.80 L-54.30,-164.00 L-60.60,-160.80 L-67.80,-156.40 L-74.30,-151.40 L-80.60,-145.80 L-86.10,-140.00 L-92.00,-132.90 L-103.90,-118.20 L-107.00,-114.30 L-111.30,-107.70 L-114.70,-98.90 L-116.60,-91.80 L-118.20,-83.00 L-119.60,-73.00 L-120.80,-62.80 L-121.90,-52.50 L-119.60,-45.70 L-115.90,-37.70 L-110.90,-26.60 L-104.30,-10.90 L-99.30,-3.10 L-93.40,4.50 L-88.30,9.90 L-82.60,15.00 L-75.50,21.30 L-70.40,25.50 L-64.00,30.80 L-58.80,34.90" stroke="#fff" stroke-width="3.6" stroke-linecap="round" stroke-linejoin="round" fill="none"><title>residential path</title></path>
<path d="M-200.80,148.20 L-179.90,20.80 L-173.10,-20.60 L-172.70,-23.10 L-172.40,-25.20 L-165.60,-66.70 L-143.60,-201.30 L-143.10,-204.40 L-144.10,-207.40" stroke="#fff" stroke-width="3.6" stroke-linecap="round" stroke-linejoin="round" fill="none"><title>residential path</title></path>
<path d="M-149.30,-19.10 L-158.70,-20.60 L-163.80,-19.70 L-168.10,-19.80 L-173.10,-20.60" stroke="#fff" stroke-width="3.6" stroke-linecap="round" stroke-linejoin="round" fill="none"><title>residential path</title></path>
<path d="M-172.40,-25.20 L-167.40,-24.30 L-163.40,-23.20 L-158.70,-20.60" stroke="#fff" stroke-width="3.6" stroke-linecap="round" stroke-linejoin="round" fill="none"><title>residential path</title></path>
<path d="M-147.00,3.80 L-147.60,1.80 L-148.10,-1.40 L-149.10,-7.20 L-151.00,-14.90" stroke="#fff" stroke-width="3.6" stroke-linecap="round" stroke-linejoin="round" fill="none"><title>residential path</title></path>
<path d="M-152.90,3.90 L-149.30,3.70 L-147.00,3.80 L-143.50,5.30 L-139.70,6.50 L-135.70,7.30 L-130.80,7.50 L-125.50,7.30 L-119.80,6.90 L-115.80,6.40 L-112.50,6.20 L-110.00,6.40 L-106.90,7.50 L-104.00,8.80 L-99.00,9.90 L-94.00,10.10 L-91.00,10.10 L-88.30,9.90" stroke="#fff" stroke-width="3.6" stroke-linecap="round" stroke-linejoin="round" fill="none"><title>residential path</title></path>
<path d="M-193.70,149.40 L-186.70,144.40 L-185.70,143.20 L-185.10,142.00 L-184.50,140.20 L-182.90,133.60" stroke="#fff" stroke-width="3.6" stroke-linecap="round" stroke-linejoin="round" fill="none"><title>residential path</title></path>
<path d="M-20.00,177.10 L-19.50,173.70 L-19.50,172.10 L-19.90,168.50 L-21.00,164.40" stroke="#fff" stroke-width="3.6" stroke-linecap="round" stroke-linejoin="round" fill="none"><title>residential path</title></path>
<path d="M-26.10,176.10 L-25.50,172.70 L-25.00,171.00 L-23.60,168.20 L-21.00,164.40 L-20.20,160.90 L-18.40,155.60 L-16.10,149.90 L-13.70,145.80 L-10.40,140.90 L-7.90,136.80 L-5.60,132.70" stroke="#fff" stroke-width="3.6" stroke-linecap="round" stroke-linejoin="round" fill="none"><title>residential path</title></path>
<path d="M3.10,148.20 L1.80,154.00" stroke="#fff" stroke-width="3.6" stroke-linecap="round" stroke-linejoin="round" fill="none"><title>residential path</title></path>
<path d="M15.30,146.00 L14.90,150.10 L15.00,153.90 L15.70,157.00" stroke="#fff" stroke-width="3.6" stroke-linecap="round" stroke-linejoin="round" fill="none"><title>residential path</title></path>
<path d="M19.90,139.00 L18.20,142.90" stroke="#fff" stroke-width="3.6" stroke-linecap="round" stroke-linejoin="round" fill="none"><title>residential path</title></path>
<path d="M15.40,137.20 L15.50,134.80" stroke="#fff" stroke-width="3.6" stroke-linecap="round" stroke-linejoin="round" fill="none"><title>residential path</title></path>
<path d="M22.00,129.30 L25.60,131.00" stroke="#fff" stroke-width="3.6" stroke-linecap="round" stroke-linejoin="round" fill="none"><title>residential path</title></path>
<path d="M18.20,142.90 L15.30,146.00 L11.50,148.10 L7.30,148.80 L3.10,148.20 L-0.70,146.20 L-3.60,143.20 L-5.40,139.30 L-5.70,136.10 L-5.60,132.70 L-4.80,130.30 L-2.40,126.70 L1.10,124.10 L5.20,122.70 L9.50,122.80 L11.10,123.30 L13.60,124.20 L17.00,127.00 L19.30,130.60 L20.30,134.70 L19.90,139.00" stroke="#fff" stroke-width="3.6" stroke-linecap="round" stroke-linejoin="round" fill="none"><title>residential path</title></path>
<path d="M15.50,134.80 L14.90,132.60 L13.60,130.70 L11.70,129.20 L9.60,128.40 L7.20,128.30 L5.00,128.90 L3.00,130.10 L1.60,131.90 L0.70,134.10 L0.50,136.50 L1.10,138.80 L2.40,140.80 L4.30,142.30 L6.50,143.10 L8.90,143.20 L11.20,142.60 L13.20,141.30 L14.60,139.40 L15.40,137.20" stroke="#fff" stroke-width="3.6" stroke-linecap="round" stroke-linejoin="round" fill="none"><title>residential path</title></path>
<path d="M0.70,134.10 L-5.60,132.70" stroke="#fff" stroke-width="3.6" stroke-linecap="round" stroke-linejoin="round" fill="none"><title>residential path</title></path>
<path d="M-48.30,50.20 L-49.30,51.90" stroke="#fff" stroke-width="3.6" stroke-linecap="round" stroke-linejoin="round" fill="none"><title>residential path</title></path>
<path d="M-49.30,51.90 L-54.50,60.70" stroke="#fff" stroke-width="3.6" stroke-linecap="round" stroke-linejoin="round" fill="none"><title>residential path</title></path>
<path d="M-40.70,61.30 L-36.60,58.90" stroke="#fff" stroke-width="3.6" stroke-linecap="round" stroke-linejoin="round" fill="none"><title>residential path</title></path>
<path d="M11.10,123.30 L13.50,114.30 L9.50,113.20 L4.00,110.60 L-1.60,106.80 L-5.00,103.40 L-8.30,98.40 L-11.00,92.90 L-13.50,86.20 L-19.40,64.00 L-21.10,56.00 L-22.00,46.40 L-21.80,38.40 L-21.40,35.20 L-20.30,29.50 L-19.00,25.70 L-16.80,21.20 L-13.40,16.40 L-8.80,11.30 L-4.40,7.60 L0.00,5.40 L3.40,4.10 L4.00,5.90 L4.90,7.70 L9.30,15.70 L9.70,16.60 L9.60,17.50 L9.00,18.20 L7.90,19.10 L5.20,21.60 L3.10,23.90 L1.60,26.80 L0.50,29.90 L-0.20,33.50 L-0.60,39.30" stroke="#fff" stroke-width="3.6" stroke-linecap="round" stroke-linejoin="round" fill="none"><title>residential path</title></path>
<path d="M-0.60,39.30 L-1.10,46.90 L-1.40,57.30" stroke="#fff" stroke-width="3.6" stroke-linecap="round" stroke-linejoin="round" fill="none"><title>residential path</title></path>
<path d="M-4.80,130.30 L-3.20,124.90 L-2.10,119.30 L-1.60,114.50 L-1.50,110.30 L-1.60,106.80" stroke="#fff" stroke-width="3.6" stroke-linecap="round" stroke-linejoin="round" fill="none"><title>residential path</title></path>
<path d="M29.60,112.30 L27.20,116.80 L24.60,122.50 L22.00,129.30 L20.30,134.70" stroke="#fff" stroke-width="3.6" stroke-linecap="round" stroke-linejoin="round" fill="none"><title>residential path</title></path>
<path d="M76.40,108.70 L64.60,108.80" stroke="#fff" stroke-width="3.6" stroke-linecap="round" stroke-linejoin="round" fill="none"><title>residential path</title></path>
<path d="M72.10,133.90 L64.60,108.80 L62.90,101.50 L60.50,91.20" stroke="#fff" stroke-width="3.6" stroke-linecap="round" stroke-linejoin="round" fill="none"><title>residential path</title></path>
<path d="M102.70,107.70 L102.70,110.10 L101.70,111.40 L100.10,112.00 L98.40,112.60" stroke="#fff" stroke-width="3.6" stroke-linecap="round" stroke-linejoin="round" fill="none"><title>residential path</title></path>
<path d="M95.30,120.20 L97.20,116.90 L98.20,113.60 L98.40,112.60 L98.60,110.40 L97.80,104.90 L96.40,104.50 L94.70,103.30 L93.80,101.70 L91.90,97.30 L89.60,95.60 L86.70,94.10 L83.40,93.40 L80.20,93.50 L77.30,94.40 L74.30,96.40 L71.00,98.50 L66.40,100.50 L62.90,101.50" stroke="#fff" stroke-width="3.6" stroke-linecap="round" stroke-linejoin="round" fill="none"><title>residential path</title></path>
<path d="M102.10,103.80 L102.20,104.80" stroke="#fff" stroke-width="3.6" stroke-linecap="round" stroke-linejoin="round" fill="none"><title>residential path</title></path>
<path d="M97.40,94.10 L95.80,94.30 L93.90,95.00 L92.50,96.10 L91.90,97.30" stroke="#fff" stroke-width="3.6" stroke-linecap="round" stroke-linejoin="round" fill="none"><title>residential path</title></path>
<path d="M97.40,94.10 L96.80,92.50 L95.30,90.00 L94.40,86.80 L94.00,83.70 L94.40,81.00 L95.40,78.80 L97.00,77.10 L98.90,75.70 L101.10,74.90 L103.60,74.40 L106.20,74.40 L109.00,74.70 L112.10,75.90 L114.60,78.00 L115.90,80.00 L116.70,81.90" stroke="#fff" stroke-width="3.6" stroke-linecap="round" stroke-linejoin="round" fill="none"><title>residential path</title></path>
<path d="M132.70,101.10 L139.50,101.50 L142.80,101.60 L145.20,101.40 L149.40,101.00" stroke="#fff" stroke-width="3.6" stroke-linecap="round" stroke-linejoin="round" fill="none"><title>residential path</title></path>
<path d="M104.40,41.60 L103.50,46.20 L102.30,51.70 L101.40,57.80 L101.10,64.10 L100.90,71.00 L101.10,74.90 L103.00,82.50 L105.10,88.70 L109.50,106.10 L111.60,114.90 L113.00,119.20 L115.50,123.10 L119.50,126.80 L123.50,129.70 L128.80,131.40 L134.10,132.10 L139.00,132.60" stroke="#fff" stroke-width="3.6" stroke-linecap="round" stroke-linejoin="round" fill="none"><title>residential path</title></path>
<path d="M97.80,104.90 L101.30,104.10 L102.10,103.80 L104.40,102.80 L107.50,101.60 L112.10,101.70 L115.60,103.40 L118.20,104.90 L120.60,108.20 L122.10,110.40 L124.50,112.00 L126.70,112.10 L130.80,110.40 L132.40,108.50 L132.80,106.20 L132.80,102.00 L132.70,101.10 L132.50,96.70 L131.90,91.40 L130.70,87.30 L128.60,84.50 L126.20,82.40 L123.50,81.20 L120.70,80.80 L118.10,81.20 L116.70,81.90 L115.90,82.30 L113.80,84.10 L112.30,87.10 L110.80,89.80 L109.10,91.70 L107.20,92.90 L104.30,94.00 L102.70,94.30 L100.70,94.50 L99.10,94.30 L97.40,94.10" stroke="#fff" stroke-width="3.6" stroke-linecap="round" stroke-linejoin="round" fill="none"><title>residential path</title></path>
<path d="M102.20,104.80 L102.70,107.70" stroke="#fff" stroke-width="3.6" stroke-linecap="round" stroke-linejoin="round" fill="none"><title>residential path</title></path>
<path d="M111.60,114.90 L95.30,120.20" stroke="#fff" stroke-width="3.6" stroke-linecap="round" stroke-linejoin="round" fill="none"><title>residential path</title></path>
<path d="M135.40,182.00 L134.20,176.90 L133.50,172.10 L133.50,166.60 L134.00,159.60 L134.90,151.70 L136.40,143.40 L138.40,134.80 L139.00,132.60 L140.20,128.30 L143.00,120.40 L145.30,114.40 L147.60,109.00 L149.00,104.10 L149.40,101.00 L149.70,98.90 L150.20,90.90 L149.90,82.60 L148.80,71.30 L147.00,60.00 L146.50,54.20 L146.60,51.10 L147.70,47.10 L149.30,43.70 L151.60,41.00 L154.00,36.80 L155.40,33.70 L156.40,30.00 L156.60,27.90 L160.40,28.10 L163.80,28.30 L166.40,28.60 L168.40,30.10 L171.60,32.00 L174.10,32.90 L178.10,33.50" stroke="#fff" stroke-width="3.6" stroke-linecap="round" stroke-linejoin="round" fill="none"><title>residential path</title></path>
<path d="M72.10,133.90 L75.50,129.70 L79.60,126.90 L84.60,124.80 L95.30,120.20" stroke="#fff" stroke-width="3.6" stroke-linecap="round" stroke-linejoin="round" fill="none"><title>residential path</title></path>
<path d="M25.60,131.00 L32.90,135.10 L41.20,140.50 L50.60,145.60 L59.20,149.20 L69.60,152.70 L77.20,154.50" stroke="#fff" stroke-width="3.6" stroke-linecap="round" stroke-linejoin="round" fill="none"><title>residential path</title></path>
<path d="M77.20,154.50 L80.30,155.10" stroke="#fff" stroke-width="3.6" stroke-linecap="round" stroke-linejoin="round" fill="none"><title>residential path</title></path>
<path d="M86.90,167.80 L83.50,161.70 L80.30,155.10 L77.70,149.40 L75.40,143.50 L72.10,133.90" stroke="#fff" stroke-width="3.6" stroke-linecap="round" stroke-linejoin="round" fill="none"><title>residential path</title></path>
<path d="M94.80,177.30 L95.30,175.40 L96.50,173.50 L98.10,172.00 L99.10,171.20 L99.80,170.20 L100.40,168.90 L100.60,167.50" stroke="#fff" stroke-width="3.6" stroke-linecap="round" stroke-linejoin="round" fill="none"><title>residential path</title></path>
<path d="M113.00,170.60 L112.30,173.10 L111.80,176.60 L111.50,180.00 L111.10,198.00" stroke="#fff" stroke-width="3.6" stroke-linecap="round" stroke-linejoin="round" fill="none"><title>residential path</title></path>
</svg>