<svg xmlns="http://www.w3.org/2000/svg" viewBox="-497.7 -732.5 1308.55 1120.5" width="2617" height="2241">
<!-- Service roads and alleys — generated 2026-02-10T21:51:27.105Z -->
<rect x="-497.7" y="-732.5" width="1308.55" height="1120.5" fill="#111"/>
<path d="M592.90,-550.00 L590.70,-541.50 L589.00,-535.30 L586.50,-526.20" stroke="#fff" stroke-width="8" stroke-linecap="butt" stroke-linejoin="round" fill="none"><title>(unnamed service) (8m)</title></path>
<path d="M586.50,-526.20 L582.30,-510.70 L581.70,-509.20 L580.30,-508.40 L536.00,-520.60 L534.50,-521.80 L534.50,-523.80 L538.00,-536.60 L539.10,-537.90 L540.10,-538.20 L540.80,-538.50" stroke="#fff" stroke-width="8" stroke-linecap="butt" stroke-linejoin="round" fill="none"><title>(unnamed service) (8m)</title></path>
<path d="M540.80,-538.50 L586.50,-526.20" stroke="#fff" stroke-width="8" stroke-linecap="butt" stroke-linejoin="round" fill="none"><title>(unnamed service) (8m)</title></path>
<path d="M588.90,-476.60 L591.80,-486.90 L594.20,-495.50 L599.30,-514.00 L600.50,-516.60 L603.40,-518.50 L606.20,-518.70 L619.20,-515.60" stroke="#fff" stroke-width="8" stroke-linecap="butt" stroke-linejoin="round" fill="none"><title>(unnamed service) (8m)</title></path>
<path d="M562.90,-430.10 L566.40,-443.00 L569.80,-455.80 L558.50,-458.90" stroke="#fff" stroke-width="8" stroke-linecap="butt" stroke-linejoin="round" fill="none"><title>(unnamed service) (8m)</title></path>
<path d="M558.50,-458.90 L549.50,-461.30 L528.80,-466.90 L521.70,-440.20" stroke="#fff" stroke-width="8" stroke-linecap="butt" stroke-linejoin="round" fill="none"><title>(unnamed service) (8m)</title></path>
<path d="M549.50,-461.30 L542.80,-435.50" stroke="#fff" stroke-width="8" stroke-linecap="butt" stroke-linejoin="round" fill="none"><title>(unnamed service) (8m)</title></path>
<path d="M569.80,-455.80 L586.20,-451.40" stroke="#fff" stroke-width="8" stroke-linecap="butt" stroke-linejoin="round" fill="none"><title>(unnamed service) (8m)</title></path>
<path d="M564.80,-483.00 L561.90,-472.00 L558.50,-458.90" stroke="#fff" stroke-width="8" stroke-linecap="butt" stroke-linejoin="round" fill="none"><title>(unnamed service) (8m)</title></path>
<path d="M455.70,-466.20 L469.50,-462.50" stroke="#fff" stroke-width="8" stroke-linecap="butt" stroke-linejoin="round" fill="none"><title>(unnamed service) (8m)</title></path>
<path d="M321.20,-489.20 L331.00,-486.60 L509.60,-439.50 L511.70,-439.10 L514.80,-439.20 L518.40,-439.80 L521.70,-440.20 L526.60,-439.90 L542.80,-435.50 L562.90,-430.10 L610.40,-417.40 L618.40,-415.30" stroke="#fff" stroke-width="8" stroke-linecap="butt" stroke-linejoin="round" fill="none"><title>(unnamed service) (8m)</title></path>
<path d="M481.40,-508.70 L479.60,-501.90 L477.70,-494.30 L469.50,-462.50" stroke="#fff" stroke-width="8" stroke-linecap="butt" stroke-linejoin="round" fill="none"><title>(unnamed service) (8m)</title></path>
<path d="M250.10,-513.40 L282.80,-504.50 L313.00,-496.30 L322.50,-493.80" stroke="#fff" stroke-width="8" stroke-linecap="butt" stroke-linejoin="round" fill="none"><title>(unnamed service) (8m)</title></path>
<path d="M292.20,-540.70 L282.80,-504.50 L272.60,-464.90" stroke="#fff" stroke-width="8" stroke-linecap="butt" stroke-linejoin="round" fill="none"><title>(unnamed service) (8m)</title></path>
<path d="M383.40,-478.10 L393.50,-516.80 L395.60,-524.30 L397.40,-531.10" stroke="#fff" stroke-width="8" stroke-linecap="butt" stroke-linejoin="round" fill="none"><title>(unnamed service) (8m)</title></path>
<path d="M307.50,-438.30 L298.10,-441.20 L241.90,-458.30 L223.70,-463.80 L212.60,-467.20 L211.00,-467.20 L209.60,-466.30 L208.50,-464.90 L195.50,-423.90 L195.60,-422.70 L196.40,-422.10 L205.30,-419.50 L206.60,-419.40 L207.90,-419.70 L208.90,-420.90 L209.90,-422.80 L213.40,-429.60 L214.30,-431.50 L215.10,-433.30" stroke="#fff" stroke-width="8" stroke-linecap="butt" stroke-linejoin="round" fill="none"><title>(unnamed service) (8m)</title></path>
<path d="M150.70,-483.30 L168.50,-478.60 L186.30,-474.00 L179.10,-445.70 L161.50,-450.60 L153.30,-452.90 L142.70,-455.90" stroke="#fff" stroke-width="8" stroke-linecap="butt" stroke-linejoin="round" fill="none"><title>(unnamed service) (8m)</title></path>
<path d="M168.50,-478.60 L161.50,-450.60" stroke="#fff" stroke-width="8" stroke-linecap="butt" stroke-linejoin="round" fill="none"><title>(unnamed service) (8m)</title></path>
<path d="M215.10,-433.30 L223.70,-463.80" stroke="#fff" stroke-width="8" stroke-linecap="butt" stroke-linejoin="round" fill="none"><title>(unnamed service) (8m)</title></path>
<path d="M241.20,-479.90 L250.10,-513.40 L258.40,-545.20" stroke="#fff" stroke-width="8" stroke-linecap="butt" stroke-linejoin="round" fill="none"><title>(unnamed service) (8m)</title></path>
<path d="M169.90,-559.50 L158.00,-515.80" stroke="#fff" stroke-width="8" stroke-linecap="butt" stroke-linejoin="round" fill="none"><title>(unnamed service) (8m)</title></path>
<path d="M285.40,-557.40 L289.10,-570.40" stroke="#fff" stroke-width="8" stroke-linecap="butt" stroke-linejoin="round" fill="none"><title>(unnamed service) (8m)</title></path>
<path d="M291.70,-577.60 L289.10,-570.40" stroke="#fff" stroke-width="8" stroke-linecap="butt" stroke-linejoin="round" fill="none"><title>(unnamed service) (8m)</title></path>
<path d="M297.80,-604.40 L301.40,-621.90" stroke="#fff" stroke-width="8" stroke-linecap="butt" stroke-linejoin="round" fill="none"><title>(unnamed service) (8m)</title></path>
<path d="M-266.10,-534.50 L-254.40,-531.30 L-135.80,-499.00 L-86.30,-485.60 L-81.90,-484.40 L-77.20,-483.10 L29.10,-453.80 L34.70,-452.30" stroke="#fff" stroke-width="8" stroke-linecap="butt" stroke-linejoin="round" fill="none"><title>(unnamed service) (8m)</title></path>
<path d="M-135.80,-499.00 L-138.60,-488.40" stroke="#fff" stroke-width="8" stroke-linecap="butt" stroke-linejoin="round" fill="none"><title>(unnamed service) (8m)</title></path>
<path d="M-112.60,-481.40 L-138.60,-488.40 L-165.90,-495.60" stroke="#fff" stroke-width="8" stroke-linecap="butt" stroke-linejoin="round" fill="none"><title>(unnamed service) (8m)</title></path>
<path d="M-174.70,-567.40 L-176.70,-560.60 L-177.40,-558.40 L-184.50,-533.30" stroke="#fff" stroke-width="8" stroke-linecap="butt" stroke-linejoin="round" fill="none"><title>(unnamed service) (8m)</title></path>
<path d="M-196.40,-399.50 L-287.80,-424.00 L-299.60,-427.20" stroke="#fff" stroke-width="8" stroke-linecap="butt" stroke-linejoin="round" fill="none"><title>(unnamed service) (8m)</title></path>
<path d="M80.00,-548.30 L146.70,-530.00" stroke="#fff" stroke-width="8" stroke-linecap="butt" stroke-linejoin="round" fill="none"><title>(unnamed service) (8m)</title></path>
<path d="M85.20,-566.50 L151.50,-548.40" stroke="#fff" stroke-width="8" stroke-linecap="butt" stroke-linejoin="round" fill="none"><title>(unnamed service) (8m)</title></path>
<path d="M156.30,-567.00 L151.50,-548.40 L146.70,-530.00" stroke="#fff" stroke-width="8" stroke-linecap="butt" stroke-linejoin="round" fill="none"><title>(unnamed service) (8m)</title></path>
<path d="M121.00,-472.70 L135.80,-468.60 L145.70,-465.90" stroke="#fff" stroke-width="8" stroke-linecap="butt" stroke-linejoin="round" fill="none"><title>(unnamed service) (8m)</title></path>
<path d="M132.80,-425.30 L139.70,-446.60 L142.70,-455.90 L145.70,-465.90 L150.70,-483.30 L100.10,-497.10 L96.00,-482.30" stroke="#fff" stroke-width="8" stroke-linecap="butt" stroke-linejoin="round" fill="none"><title>(unnamed service) (8m)</title></path>
<path d="M127.40,-413.80 L128.50,-411.20" stroke="#fff" stroke-width="8" stroke-linecap="butt" stroke-linejoin="round" fill="none"><title>(unnamed service) (8m)</title></path>
<path d="M128.50,-411.20 L130.80,-412.50 L131.90,-414.10 L133.80,-420.40 L133.80,-421.40 L133.70,-423.00 L132.80,-425.30 L130.50,-423.90 L129.80,-422.60 L129.30,-421.80 L127.50,-415.50 L127.40,-413.80" stroke="#fff" stroke-width="8" stroke-linecap="butt" stroke-linejoin="round" fill="none"><title>(unnamed service) (8m)</title></path>
<path d="M111.60,-433.40 L107.00,-418.10 L104.80,-410.90" stroke="#fff" stroke-width="8" stroke-linecap="butt" stroke-linejoin="round" fill="none"><title>(unnamed service) (8m)</title></path>
<path d="M126.40,-404.10 L128.50,-411.20" stroke="#fff" stroke-width="8" stroke-linecap="butt" stroke-linejoin="round" fill="none"><title>(unnamed service) (8m)</title></path>
<path d="M103.00,-179.70 L107.70,-193.20 L111.50,-204.50 L137.50,-289.80 L158.30,-358.30 L118.90,-371.10 L114.20,-372.70" stroke="#fff" stroke-width="8" stroke-linecap="butt" stroke-linejoin="round" fill="none"><title>(unnamed service) (8m)</title></path>
<path d="M94.20,-374.20 L89.70,-375.60 L50.70,-387.50 L-9.60,-211.90 L-14.20,-198.40" stroke="#fff" stroke-width="8" stroke-linecap="butt" stroke-linejoin="round" fill="none"><title>(unnamed service) (8m)</title></path>
<path d="M-70.70,-264.20 L-38.90,-358.50 L-23.50,-404.40 L-21.00,-412.00" stroke="#fff" stroke-width="8" stroke-linecap="butt" stroke-linejoin="round" fill="none"><title>(unnamed service) (8m)</title></path>
<path d="M-38.90,-358.50 L-83.90,-371.10 L-84.70,-372.60 L-84.50,-374.60 L-71.40,-417.00 L-69.20,-424.10" stroke="#fff" stroke-width="8" stroke-linecap="butt" stroke-linejoin="round" fill="none"><title>(unnamed service) (8m)</title></path>
<path d="M-102.60,-318.20 L-87.50,-365.60" stroke="#fff" stroke-width="8" stroke-linecap="butt" stroke-linejoin="round" fill="none"><title>(unnamed service) (8m)</title></path>
<path d="M-156.60,-371.20 L-165.30,-341.70 L-167.70,-333.80" stroke="#fff" stroke-width="8" stroke-linecap="butt" stroke-linejoin="round" fill="none"><title>(unnamed service) (8m)</title></path>
<path d="M-287.10,-405.30 L-293.10,-407.10 L-304.70,-410.60" stroke="#fff" stroke-width="8" stroke-linecap="butt" stroke-linejoin="round" fill="none"><title>(unnamed service) (8m)</title></path>
<path d="M-291.70,-390.90 L-297.60,-392.80 L-309.10,-396.50" stroke="#fff" stroke-width="8" stroke-linecap="butt" stroke-linejoin="round" fill="none"><title>(unnamed service) (8m)</title></path>
<path d="M-283.50,-416.50 L-287.10,-405.30 L-291.70,-390.90 L-294.30,-382.60" stroke="#fff" stroke-width="8" stroke-linecap="butt" stroke-linejoin="round" fill="none"><title>(unnamed service) (8m)</title></path>
<path d="M-296.90,-368.50 L-299.00,-361.80 L-301.40,-353.70 L-312.50,-318.40 L-313.40,-315.70" stroke="#fff" stroke-width="8" stroke-linecap="butt" stroke-linejoin="round" fill="none"><title>(unnamed service) (8m)</title></path>
<path d="M-144.30,-443.70 L-146.90,-435.80 L-159.50,-395.80 L-194.40,-406.60 L-196.40,-399.50 L-209.80,-353.60 L-212.10,-345.90 L-214.30,-339.00 L-224.00,-309.60 L-228.30,-296.60 L-229.30,-293.60 L-244.50,-248.20 L-248.60,-236.00" stroke="#fff" stroke-width="8" stroke-linecap="butt" stroke-linejoin="round" fill="none"><title>(unnamed service) (8m)</title></path>
<path d="M-229.30,-293.60 L-313.40,-315.70 L-321.40,-317.80 L-332.90,-320.80" stroke="#fff" stroke-width="8" stroke-linecap="butt" stroke-linejoin="round" fill="none"><title>(unnamed service) (8m)</title></path>
<path d="M-224.00,-309.60 L-221.30,-308.90 L-218.50,-308.70 L-215.60,-308.40 L-178.20,-296.40 L-176.70,-295.60 L-176.40,-293.90 L-177.10,-280.70" stroke="#fff" stroke-width="8" stroke-linecap="butt" stroke-linejoin="round" fill="none"><title>(unnamed service) (8m)</title></path>
<path d="M-151.70,-272.80 L-156.00,-274.20 L-177.10,-280.70 L-228.30,-296.60" stroke="#fff" stroke-width="8" stroke-linecap="butt" stroke-linejoin="round" fill="none"><title>(unnamed service) (8m)</title></path>
<path d="M-142.80,-299.60 L-137.40,-298.00 L-117.80,-292.30 L-96.70,-286.20" stroke="#fff" stroke-width="8" stroke-linecap="butt" stroke-linejoin="round" fill="none"><title>(unnamed service) (8m)</title></path>
<path d="M-117.80,-292.30 L-123.30,-273.60" stroke="#fff" stroke-width="8" stroke-linecap="butt" stroke-linejoin="round" fill="none"><title>(unnamed service) (8m)</title></path>
<path d="M-30.40,-257.10 L-36.50,-258.20 L-70.70,-264.20 L-123.30,-273.60 L-144.20,-277.30 L-149.90,-278.30" stroke="#fff" stroke-width="8" stroke-linecap="butt" stroke-linejoin="round" fill="none"><title>(unnamed service) (8m)</title></path>
<path d="M-227.50,-181.40 L-233.80,-141.20" stroke="#fff" stroke-width="8" stroke-linecap="butt" stroke-linejoin="round" fill="none"><title>(unnamed service) (8m)</title></path>
<path d="M351.50,-116.40 L355.20,-126.70 L358.00,-134.50 L343.90,-139.20 L343.20,-140.10 L343.40,-141.50" stroke="#fff" stroke-width="8" stroke-linecap="butt" stroke-linejoin="round" fill="none"><title>(unnamed service) (8m)</title></path>
<path d="M358.00,-134.50 L359.80,-135.30 L361.10,-136.60 L368.30,-160.20 L368.00,-162.20 L366.40,-163.70 L354.60,-167.40 L352.60,-167.30 L350.70,-165.30 L343.40,-141.50" stroke="#fff" stroke-width="8" stroke-linecap="butt" stroke-linejoin="round" fill="none"><title>(unnamed service) (8m)</title></path>
<path d="M440.40,-148.30 L432.80,-150.70 L428.50,-152.10 L416.90,-155.80 L394.50,-163.00 L255.90,-207.20 L246.60,-210.10 L236.00,-213.50 L129.90,-247.50" stroke="#fff" stroke-width="6" stroke-linecap="butt" stroke-linejoin="round" fill="none"><title>Mississippi Alley (6m)</title></path>
<path d="M297.10,-246.80 L294.60,-239.10 L289.60,-223.50" stroke="#fff" stroke-width="8" stroke-linecap="butt" stroke-linejoin="round" fill="none"><title>(unnamed service) (8m)</title></path>
<path d="M296.70,-397.70 L306.90,-394.80 L486.20,-345.90 L493.70,-343.90" stroke="#fff" stroke-width="8" stroke-linecap="butt" stroke-linejoin="round" fill="none"><title>(unnamed service) (8m)</title></path>
<path d="M158.70,-342.70 L262.40,-310.00 L272.10,-306.80 L281.70,-303.80 L326.20,-289.60 L458.50,-247.50 L466.70,-244.90" stroke="#fff" stroke-width="8" stroke-linecap="butt" stroke-linejoin="round" fill="none"><title>(unnamed service) (8m)</title></path>
<path d="M326.30,-237.60 L328.60,-245.10 L329.30,-247.40 L330.10,-249.50 L331.60,-251.00 L333.40,-251.50 L339.00,-251.90 L340.10,-252.80 L341.30,-254.40 L344.60,-266.50 L344.50,-268.40 L343.10,-269.70 L324.80,-276.80 L323.60,-278.10 L323.60,-279.50 L325.00,-284.50 L326.20,-289.60" stroke="#fff" stroke-width="8" stroke-linecap="butt" stroke-linejoin="round" fill="none"><title>(unnamed service) (8m)</title></path>
<path d="M594.00,-325.40 L601.20,-323.40 L649.60,-309.80" stroke="#fff" stroke-width="8" stroke-linecap="butt" stroke-linejoin="round" fill="none"><title>(unnamed service) (8m)</title></path>
<path d="M589.50,-308.70 L596.60,-306.80 L608.60,-303.50 L611.30,-301.10 L611.80,-297.30 L610.90,-293.40 L609.10,-289.60 L606.20,-287.00 L602.10,-286.80 L591.90,-289.50 L584.80,-291.30" stroke="#fff" stroke-width="8" stroke-linecap="butt" stroke-linejoin="round" fill="none"><title>(unnamed service) (8m)</title></path>
<path d="M545.40,-146.30 L553.00,-144.00 L588.40,-133.00 L591.00,-133.00 L594.20,-134.40 L595.90,-137.70 L604.30,-170.20 L607.70,-179.10 L612.60,-187.70 L618.40,-197.00 L621.90,-204.70 L632.30,-243.70 L633.90,-249.60 L636.80,-260.90 L649.60,-309.80 L649.90,-313.10 L648.00,-323.00 L648.00,-327.00 L663.40,-383.10" stroke="#fff" stroke-width="8" stroke-linecap="butt" stroke-linejoin="round" fill="none"><title>(unnamed service) (8m)</title></path>
<path d="M563.10,-406.90 L561.70,-401.80 L529.20,-283.20 L527.50,-276.90 L526.00,-271.40 L487.40,-124.40 L487.60,-121.60 L489.40,-118.40 L492.90,-117.00 L526.50,-106.70 L534.00,-104.50" stroke="#fff" stroke-width="8" stroke-linecap="butt" stroke-linejoin="round" fill="none"><title>(unnamed service) (8m)</title></path>
<path d="M394.50,-163.00 L390.00,-149.30 L412.40,-142.00 L416.90,-155.80" stroke="#fff" stroke-width="8" stroke-linecap="butt" stroke-linejoin="round" fill="none"><title>(unnamed service) (8m)</title></path>
<path d="M428.50,-152.10 L421.20,-127.40" stroke="#fff" stroke-width="8" stroke-linecap="butt" stroke-linejoin="round" fill="none"><title>(unnamed service) (8m)</title></path>
<path d="M439.40,-144.80 L446.60,-142.70 L482.10,-132.30" stroke="#fff" stroke-width="8" stroke-linecap="butt" stroke-linejoin="round" fill="none"><title>(unnamed service) (8m)</title></path>
<path d="M534.90,-107.70 L542.60,-105.50 L543.60,-105.30 L554.00,-102.40 L571.40,-98.00 L579.30,-127.50 L561.90,-132.20" stroke="#fff" stroke-width="8" stroke-linecap="butt" stroke-linejoin="round" fill="none"><title>(unnamed service) (8m)</title></path>
<path d="M561.90,-132.20 L554.00,-102.40" stroke="#fff" stroke-width="8" stroke-linecap="butt" stroke-linejoin="round" fill="none"><title>(unnamed service) (8m)</title></path>
<path d="M615.70,-404.60 L622.90,-402.70 L624.10,-402.30 L664.10,-391.50 L677.70,-387.80 L660.40,-324.30" stroke="#fff" stroke-width="8" stroke-linecap="butt" stroke-linejoin="round" fill="none"><title>(unnamed service) (8m)</title></path>
<path d="M677.70,-387.80 L681.40,-400.90 L682.00,-405.70 L681.40,-419.80 L680.20,-421.90 L677.10,-423.20" stroke="#fff" stroke-width="8" stroke-linecap="butt" stroke-linejoin="round" fill="none"><title>(unnamed service) (8m)</title></path>
<path d="M419.90,-60.00 L426.90,-59.00 L428.80,-58.70 L431.10,-58.90 L435.40,-60.90 L438.30,-60.90 L510.80,-35.60 L511.80,-35.20 L519.40,-32.50" stroke="#fff" stroke-width="8" stroke-linecap="butt" stroke-linejoin="round" fill="none"><title>(unnamed service) (8m)</title></path>
<path d="M416.00,-35.90 L423.10,-34.90 L424.90,-34.60 L435.20,-33.20 L431.30,-5.20" stroke="#fff" stroke-width="8" stroke-linecap="butt" stroke-linejoin="round" fill="none"><title>(unnamed service) (8m)</title></path>
<path d="M517.90,-22.30 L510.10,-24.80 L483.90,-33.20 L472.10,-35.00 L468.90,-34.60 L467.40,-32.70 L452.10,59.20" stroke="#fff" stroke-width="8" stroke-linecap="butt" stroke-linejoin="round" fill="none"><title>(unnamed service) (8m)</title></path>
<path d="M402.10,50.70 L409.60,52.00 L452.10,59.20 L495.80,66.60 L503.50,67.90 L510.50,68.90 L548.10,74.70 L551.30,73.80 L553.40,70.60 L564.90,-2.00 L564.10,-4.50 L560.30,-8.50 L559.60,-11.00 L561.00,-21.40" stroke="#fff" stroke-width="8" stroke-linecap="butt" stroke-linejoin="round" fill="none"><title>(unnamed service) (8m)</title></path>
<path d="M538.00,171.90 L532.90,203.40 L529.80,221.30 L488.30,214.90 L487.20,214.70 L480.10,213.60" stroke="#fff" stroke-width="8" stroke-linecap="butt" stroke-linejoin="round" fill="none"><title>(unnamed service) (8m)</title></path>
<path d="M538.00,171.90 L495.20,165.00 L488.10,163.80 L480.10,162.60 L437.20,155.70 L428.80,205.60" stroke="#fff" stroke-width="8" stroke-linecap="butt" stroke-linejoin="round" fill="none"><title>(unnamed service) (8m)</title></path>
<path d="M385.30,31.30 L366.50,28.20 L358.20,78.40 L376.90,81.50" stroke="#fff" stroke-width="8" stroke-linecap="butt" stroke-linejoin="round" fill="none"><title>(unnamed service) (8m)</title></path>
<path d="M376.90,81.50 L385.30,31.30" stroke="#fff" stroke-width="8" stroke-linecap="butt" stroke-linejoin="round" fill="none"><title>(unnamed service) (8m)</title></path>
<path d="M280.00,82.10 L288.30,83.40 L295.30,84.60" stroke="#fff" stroke-width="8" stroke-linecap="butt" stroke-linejoin="round" fill="none"><title>(unnamed service) (8m)</title></path>
<path d="M394.50,98.80 L392.30,98.80 L386.90,99.30 L384.90,99.10 L295.30,84.60" stroke="#fff" stroke-width="8" stroke-linecap="butt" stroke-linejoin="round" fill="none"><title>(unnamed service) (8m)</title></path>
<path d="M230.20,174.80 L362.40,195.30 L371.10,196.70 L378.50,197.80 L385.60,198.90 L428.80,205.60 L472.00,212.30 L480.10,213.60" stroke="#fff" stroke-width="8" stroke-linecap="butt" stroke-linejoin="round" fill="none"><title>(unnamed service) (8m)</title></path>
<path d="M208.60,169.40 L230.50,173.00" stroke="#fff" stroke-width="8" stroke-linecap="butt" stroke-linejoin="round" fill="none"><title>(unnamed service) (8m)</title></path>
<path d="M205.00,190.50 L208.60,169.40 L213.00,143.90" stroke="#fff" stroke-width="8" stroke-linecap="butt" stroke-linejoin="round" fill="none"><title>(unnamed service) (8m)</title></path>
<path d="M220.80,234.60 L222.00,226.60 L223.40,217.70 L230.20,174.80 L230.50,173.00 L237.10,132.00 L238.10,125.30 L239.30,118.20 L268.40,-61.60 L273.00,-68.60 L282.80,-129.80 L284.90,-141.10" stroke="#fff" stroke-width="8" stroke-linecap="butt" stroke-linejoin="round" fill="none"><title>(unnamed service) (8m)</title></path>
<path d="M404.60,34.40 L397.20,33.20 L395.00,32.80 L385.30,31.30" stroke="#fff" stroke-width="8" stroke-linecap="butt" stroke-linejoin="round" fill="none"><title>(unnamed service) (8m)</title></path>
<path d="M418.60,-52.20 L410.80,-53.40 L407.10,-54.00 L400.70,-55.10 L382.60,-59.60 L374.10,-61.30 L368.60,-62.30 L363.30,-63.10 L353.90,-64.30 L336.10,-65.70 L333.50,-66.00 L329.00,-66.80 L325.40,-67.50 L321.20,-68.40" stroke="#fff" stroke-width="8" stroke-linecap="butt" stroke-linejoin="round" fill="none"><title>(unnamed service) (8m)</title></path>
<path d="M-367.70,-162.70 L-359.50,-161.40 L-353.10,-160.40 L-233.80,-141.20 L-231.70,-140.80 L-238.30,-96.40 L-239.50,-88.90 L-240.60,-81.40 L-247.80,-36.50 L-255.30,7.00 L-256.60,14.60 L-258.00,22.50 L-265.10,61.80 L-269.30,66.80 L-281.10,135.60 L-283.70,150.50" stroke="#fff" stroke-width="8" stroke-linecap="butt" stroke-linejoin="round" fill="none"><title>(unnamed service) (8m)</title></path>
<path d="M-268.60,104.70 L-221.50,113.20 L-209.50,115.30" stroke="#fff" stroke-width="8" stroke-linecap="butt" stroke-linejoin="round" fill="none"><title>(unnamed service) (8m)</title></path>
<path d="M155.30,220.20 L153.40,233.40 L143.50,296.20" stroke="#fff" stroke-width="8" stroke-linecap="butt" stroke-linejoin="round" fill="none"><title>(unnamed service) (8m)</title></path>
<path d="M19.80,198.70 L17.70,211.90 L8.70,269.70 L1.80,314.10 L9.50,319.50 L50.70,329.80 L57.80,331.60" stroke="#fff" stroke-width="8" stroke-linecap="butt" stroke-linejoin="round" fill="none"><title>(unnamed service) (8m)</title></path>
<path d="M-162.90,270.90 L-157.70,271.90 L-126.20,277.80 L-124.20,277.40 L-123.30,275.90 L-118.10,251.00 L-116.90,248.70 L-114.30,248.30 L-59.30,257.60 L-53.80,258.50 L-36.70,261.40" stroke="#fff" stroke-width="2.7" stroke-linecap="butt" stroke-linejoin="round" fill="none"><title>Waverly Place (2.7m)</title></path>
<path d="M362.40,195.30 L360.30,207.70" stroke="#fff" stroke-width="8" stroke-linecap="butt" stroke-linejoin="round" fill="none"><title>(unnamed service) (8m)</title></path>
<path d="M356.10,322.70 L358.60,320.60 L360.70,317.40 L362.30,311.30 L368.60,275.20 L368.70,272.80 L368.50,270.40 L367.40,266.00" stroke="#fff" stroke-width="12.9" stroke-linecap="butt" stroke-linejoin="round" fill="none"><title>South 18th Street (12.9m)</title></path>
<path d="M556.90,238.80 L563.60,239.80 L571.10,240.60 L574.00,240.00 L576.60,239.00 L578.50,236.90 L579.50,232.90 L580.40,228.50 L587.50,191.80" stroke="#fff" stroke-width="8" stroke-linecap="butt" stroke-linejoin="round" fill="none"><title>(unnamed service) (8m)</title></path>
<path d="M-333.70,142.30 L-335.70,155.20 L-341.20,190.90 L-342.20,197.40 L-343.20,204.10 L-342.90,206.60 L-341.90,208.10" stroke="#fff" stroke-width="8" stroke-linecap="butt" stroke-linejoin="round" fill="none"><title>(unnamed service) (8m)</title></path>
<path d="M-400.80,44.80 L-392.70,46.20 L-380.60,48.20 L-269.30,66.80" stroke="#fff" stroke-width="8" stroke-linecap="butt" stroke-linejoin="round" fill="none"><title>(unnamed service) (8m)</title></path>
<path d="M-247.80,-36.50 L-375.30,-57.40 L-378.10,-58.10 L-382.30,-60.30 L-384.30,-60.80" stroke="#fff" stroke-width="8" stroke-linecap="butt" stroke-linejoin="round" fill="none"><title>(unnamed service) (8m)</title></path>
<path d="M-353.10,-160.40 L-351.10,-172.60 L-350.30,-173.50 L-349.00,-173.80 L-322.30,-169.40" stroke="#fff" stroke-width="8" stroke-linecap="butt" stroke-linejoin="round" fill="none"><title>(unnamed service) (8m)</title></path>
<path d="M-322.70,-377.70 L-316.10,-373.60" stroke="#fff" stroke-width="8" stroke-linecap="butt" stroke-linejoin="round" fill="none"><title>(unnamed service) (8m)</title></path>
<path d="M529.75,-123.23 L528.17,-117.44 L445.73,-143.47 L446.61,-146.57 L447.34,-149.25 Z" fill="#888" stroke="none"><title>Mississippi Alley</title></path>
<path d="M395.41,-165.86 L417.81,-158.66 L429.42,-154.96 L433.70,-153.56 L435.02,-153.14 L434.17,-149.99 L434.18,-149.99 L433.42,-147.35 L431.88,-147.84 L427.59,-149.24 L415.99,-152.94 L393.59,-160.14 L364.76,-169.33 L366.78,-174.99 Z" fill="#888" stroke="none"><title>Mississippi Alley</title></path>
<path d="M256.80,-210.06 L353.43,-179.25 L351.42,-173.59 L254.99,-204.34 L254.99,-204.35 L253.08,-204.94 L253.94,-208.12 L254.64,-210.73 Z" fill="#888" stroke="none"><title>Mississippi Alley</title></path>
<path d="M236.92,-216.36 L240.14,-215.33 L239.27,-212.09 L239.26,-212.09 L238.57,-209.52 L235.08,-210.64 L30.90,-276.08 L32.73,-281.79 Z" fill="#888" stroke="none"><title>Mississippi Alley</title></path>
<path d="M822.74,-172.34 L819.68,-160.22 L774.50,-171.65 L777.84,-183.70 Z" fill="#888" stroke="none"><title>Hickory Lane</title></path>
<path d="M678.68,-209.15 L718.78,-198.65 L759.89,-188.25 L756.56,-176.19 L715.64,-186.55 L675.51,-197.06 L673.70,-197.54 L675.31,-203.55 L675.30,-203.55 L676.97,-209.60 Z" fill="#888" stroke="none"><title>Hickory Lane</title></path>
<path d="M655.03,-215.40 L651.81,-203.33 L649.54,-203.93 L652.77,-216.00 Z" fill="#888" stroke="none"><title>Hickory Lane</title></path>
<path d="M643.00,-218.58 L639.77,-206.51 L611.94,-213.87 L615.14,-225.95 Z" fill="#888" stroke="none"><title>Hickory Lane</title></path>
<path d="M777.03,-19.31 L775.36,-12.82 L733.71,-23.55 L734.51,-26.63 L734.52,-26.63 L735.45,-30.02 Z" fill="#888" stroke="none"><title>Rutger Lane</title></path>
<path d="M717.53,-34.64 L716.66,-31.49 L715.79,-28.17 L622.08,-52.31 L623.55,-57.84 L624.05,-58.73 Z" fill="#888" stroke="none"><title>Rutger Lane</title></path>
<path d="M601.84,-64.45 L600.12,-57.97 L579.47,-63.29 L581.14,-69.78 Z" fill="#888" stroke="none"><title>Rutger Lane</title></path>
</svg>