<svg xmlns="http://www.w3.org/2000/svg" viewBox="-497.7 -732.5 1308.55 1120.5" width="2617" height="2241">
<!-- Sidewalk rings from block_shapes.json — generated 2026-02-10T21:51:27.096Z -->
<rect x="-497.7" y="-732.5" width="1308.55" height="1120.5" fill="#111"/>
<path d="M-48.50,198.79 L-47.73,199.08 L-45.71,200.37 L-44.84,201.63 L-44.37,203.78 L-44.35,204.53 L-52.46,254.31 L-52.75,255.07 L-54.05,257.09 L-55.31,257.97 L-57.47,258.43 L-58.22,258.44 L-59.40,258.24 L-114.30,248.96 L-116.47,249.29 L-117.47,251.22 L-122.28,274.21 L-122.61,274.96 L-124.00,276.92 L-125.27,277.73 L-127.37,278.11 L-128.10,278.11 L-154.17,273.22 L-154.92,272.91 L-156.91,271.56 L-157.75,270.30 L-158.17,268.22 L-158.18,267.50 L-145.40,188.52 L-145.11,187.76 L-143.81,185.74 L-142.55,184.87 L-140.42,184.41 L-139.69,184.38 Z M-140.00,186.36 L-142.13,186.82 L-143.43,188.84 L-156.21,267.82 L-155.79,269.90 L-153.80,271.25 L-127.73,276.14 L-125.63,275.76 L-124.24,273.80 L-119.37,250.54 L-117.78,247.47 L-114.31,246.93 L-59.07,256.27 L-57.89,256.47 L-55.73,256.01 L-54.43,253.99 L-46.32,204.21 L-46.79,202.06 L-48.81,200.77 Z" fill="#fff" fill-rule="evenodd" stroke="none"><title>blk-0000 sidewalk</title></path>
<path d="M-31.38,201.47 L-30.62,201.76 L-28.60,203.04 L-27.72,204.30 L-27.25,206.46 L-27.23,207.21 L-35.35,257.18 L-35.64,257.94 L-36.94,259.96 L-38.20,260.84 L-40.36,261.30 L-41.11,261.31 L-49.65,259.86 L-50.42,259.56 L-52.43,258.24 L-53.29,256.99 L-53.74,254.87 L-53.75,254.13 L-45.63,204.27 L-45.34,203.51 L-44.04,201.49 L-42.78,200.62 L-40.65,200.16 L-39.92,200.13 Z M-40.23,202.11 L-42.36,202.57 L-43.66,204.59 L-51.78,254.45 L-51.33,256.57 L-49.32,257.89 L-40.78,259.34 L-38.62,258.88 L-37.32,256.86 L-29.20,206.89 L-29.67,204.73 L-31.69,203.45 Z" fill="#fff" fill-rule="evenodd" stroke="none"><title>blk-0001 sidewalk</title></path>
<path d="M474.84,170.28 L475.61,170.57 L477.63,171.86 L478.50,173.12 L478.97,175.27 L478.99,176.02 L473.14,212.48 L466.63,252.89 L466.34,253.65 L465.05,255.66 L463.79,256.53 L461.62,257.00 L460.86,257.02 L420.99,250.22 L380.60,245.05 L379.82,244.79 L377.76,243.56 L376.84,242.29 L376.32,240.06 L376.30,239.29 L377.90,229.41 L382.90,198.50 L388.76,161.67 L389.05,160.91 L390.35,158.89 L391.61,158.02 L393.74,157.56 L394.47,157.53 Z M394.16,159.51 L392.03,159.97 L390.73,161.99 L384.87,198.82 L379.87,229.73 L378.27,239.61 L378.79,241.84 L380.85,243.07 L421.33,248.25 L461.20,255.05 L463.37,254.58 L464.66,252.57 L471.17,212.16 L477.02,175.70 L476.55,173.55 L474.53,172.26 Z" fill="#fff" fill-rule="evenodd" stroke="none"><title>blk-0002 sidewalk</title></path>
<path d="M190.25,124.76 L193.98,125.36 L236.98,132.26 L276.64,138.65 L277.40,138.94 L279.42,140.24 L280.29,141.50 L280.75,143.63 L280.78,144.36 L273.95,187.52 L283.82,189.09 L290.64,145.98 L290.93,145.21 L292.22,143.19 L293.48,142.32 L295.63,141.85 L296.38,141.83 L374.91,154.48 L374.91,154.47 L375.74,154.59 L376.50,154.87 L378.54,156.13 L379.44,157.39 L379.93,159.57 L379.96,160.32 L374.11,197.09 L369.11,227.99 L368.14,234.02 L367.85,234.79 L366.56,236.81 L365.32,237.68 L363.25,238.16 L362.53,238.19 L360.91,237.97 L360.81,237.96 L360.68,237.94 L357.14,237.34 L248.47,219.93 L220.31,215.48 L220.19,215.49 L182.76,209.55 L177.06,209.27 L176.83,209.31 L176.01,209.28 L173.68,208.71 L172.31,207.52 L171.16,204.67 L171.03,203.61 L173.12,190.17 L173.13,190.11 L183.41,128.68 L183.71,127.91 L185.02,125.91 L186.27,125.06 L188.40,124.60 L189.14,124.58 Z M188.82,126.55 L186.69,127.01 L185.38,129.01 L175.10,190.44 L175.10,190.48 L173.01,203.92 L174.16,206.77 L176.49,207.34 L176.96,207.26 L182.98,207.56 L220.50,213.51 L220.54,213.50 L248.79,217.96 L357.47,235.37 L361.01,235.97 L361.11,235.98 L362.80,236.21 L364.87,235.73 L366.16,233.71 L367.13,227.68 L372.13,196.78 L377.98,160.01 L377.49,157.83 L375.45,156.57 L374.62,156.45 L296.06,143.80 L293.91,144.27 L292.62,146.29 L285.49,191.38 L271.66,189.19 L278.80,144.05 L278.34,141.92 L276.32,140.62 L236.66,134.23 L193.66,127.33 L189.93,126.73 Z" fill="#fff" fill-rule="evenodd" stroke="none"><title>blk-0003 sidewalk</title></path>
<path d="M403.56,107.41 L482.88,120.38 L483.64,120.67 L485.65,121.98 L486.51,123.24 L486.97,125.36 L486.99,126.10 L482.81,152.21 L482.53,152.97 L481.24,154.99 L479.98,155.86 L477.84,156.33 L477.10,156.36 L396.80,143.63 L396.03,143.34 L394.01,142.05 L393.14,140.79 L392.67,138.64 L392.65,137.89 L396.97,111.40 L397.26,110.64 L398.56,108.62 L399.82,107.74 L401.97,107.28 L402.72,107.27 Z M402.39,109.24 L400.24,109.70 L398.94,111.72 L394.62,138.21 L395.09,140.36 L397.11,141.65 L477.41,154.38 L479.55,153.91 L480.84,151.89 L485.02,125.78 L484.56,123.66 L482.55,122.35 L403.23,109.38 Z" fill="#fff" fill-rule="evenodd" stroke="none"><title>blk-0004 sidewalk</title></path>
<path d="M-257.75,21.61 L-208.12,29.71 L-207.69,29.78 L-206.93,30.07 L-204.92,31.37 L-204.05,32.63 L-203.59,34.78 L-203.58,35.52 L-216.51,114.13 L-221.56,144.63 L-221.85,145.40 L-223.15,147.41 L-224.41,148.28 L-226.55,148.74 L-227.29,148.75 L-259.19,143.53 L-259.19,143.54 L-281.93,139.95 L-281.93,139.94 L-281.96,139.94 L-331.98,131.73 L-352.17,128.48 L-352.30,128.46 L-352.65,128.38 L-352.76,128.35 L-367.71,123.98 L-367.78,123.96 L-372.27,122.58 L-381.22,120.83 L-387.25,120.14 L-397.55,119.71 L-398.34,119.51 L-400.50,118.46 L-401.57,117.13 L-402.21,114.48 L-402.22,113.55 L-395.54,85.53 L-389.38,46.58 L-389.38,46.56 L-383.42,5.99 L-383.14,5.22 L-381.87,3.19 L-380.61,2.30 L-378.42,1.81 L-377.65,1.79 Z M-377.98,3.76 L-380.17,4.25 L-381.44,6.28 L-387.40,46.85 L-387.39,46.85 L-393.57,85.91 L-400.27,114.01 L-399.63,116.66 L-397.47,117.71 L-387.07,118.14 L-380.99,118.84 L-371.76,120.65 L-367.19,122.05 L-367.15,122.06 L-352.20,126.43 L-351.85,126.51 L-331.66,129.76 L-281.64,137.97 L-281.62,137.97 L-258.88,141.56 L-226.97,146.78 L-224.83,146.32 L-223.53,144.31 L-218.48,113.81 L-205.55,35.20 L-206.01,33.05 L-208.02,31.75 L-208.45,31.68 L-258.08,23.58 Z" fill="#fff" fill-rule="evenodd" stroke="none"><title>blk-0005 sidewalk</title></path>
<path d="M384.07,104.17 L384.83,104.46 L386.84,105.77 L387.70,107.03 L388.16,109.16 L388.18,109.90 L383.85,136.54 L383.56,137.30 L382.26,139.32 L381.02,140.19 L378.94,140.66 L378.22,140.69 L377.16,140.54 L377.11,140.53 L377.05,140.52 L298.55,127.88 L297.79,127.59 L295.78,126.30 L294.91,125.05 L294.44,122.91 L294.41,122.17 L298.71,95.05 L299.00,94.28 L300.29,92.26 L301.55,91.39 L303.71,90.92 L304.47,90.90 Z M304.14,92.87 L301.98,93.34 L300.69,95.36 L296.39,122.48 L296.86,124.62 L298.87,125.91 L377.38,138.55 L377.44,138.56 L378.50,138.71 L380.58,138.24 L381.88,136.22 L386.21,109.58 L385.75,107.45 L383.74,106.14 Z" fill="#fff" fill-rule="evenodd" stroke="none"><title>blk-0006 sidewalk</title></path>
<path d="M533.92,-41.73 L557.40,-34.93 L557.47,-34.89 L557.49,-34.90 L567.23,-31.88 L567.38,-31.83 L567.48,-31.79 L578.73,-27.64 L578.83,-27.60 L584.70,-25.30 L585.38,-24.86 L587.08,-23.17 L587.67,-21.62 L587.50,-19.05 L587.24,-18.20 L565.11,21.31 L574.08,26.34 L597.62,-15.64 L598.15,-16.25 L600.06,-17.70 L601.41,-18.10 L603.21,-17.97 L603.80,-17.84 L613.54,-14.03 L701.27,18.84 L701.96,19.28 L703.68,20.95 L704.28,22.23 L704.42,24.09 L704.37,24.72 L686.16,98.80 L689.34,99.58 L690.07,99.93 L691.98,101.38 L692.74,102.62 L693.08,104.54 L693.09,105.20 L688.56,134.08 L688.27,134.84 L686.99,136.87 L685.73,137.75 L683.58,138.22 L682.83,138.24 L634.03,130.42 L585.37,122.51 L585.36,122.51 L585.30,122.50 L585.28,122.50 L582.48,122.00 L576.20,120.98 L576.20,120.99 L549.66,117.10 L549.51,117.07 L508.82,110.40 L508.05,110.11 L506.04,108.81 L505.17,107.55 L504.71,105.41 L504.70,104.67 L510.47,69.02 L524.89,-21.24 L524.88,-21.24 L526.33,-31.17 L526.38,-31.42 L527.56,-37.46 L527.57,-37.56 L527.83,-38.33 L529.06,-40.39 L530.44,-41.33 L533.02,-41.78 Z M533.36,-39.81 L530.78,-39.36 L529.55,-37.30 L529.52,-37.07 L528.34,-31.03 L528.31,-30.88 L526.86,-20.95 L512.44,69.34 L506.67,104.99 L507.13,107.13 L509.14,108.43 L549.90,115.11 L549.95,115.12 L576.49,119.01 L582.83,120.03 L585.63,120.53 L585.69,120.54 L634.35,128.45 L683.15,136.27 L685.30,135.80 L686.58,133.77 L691.11,104.89 L690.77,102.97 L688.86,101.52 L683.74,100.26 L702.43,24.24 L702.29,22.38 L700.57,20.71 L612.84,-12.16 L603.07,-15.98 L601.27,-16.11 L599.36,-14.66 L574.85,29.06 L562.39,22.08 L585.50,-19.18 L585.67,-21.75 L583.97,-23.44 L578.09,-25.74 L578.04,-25.76 L566.79,-29.91 L566.64,-29.97 L556.90,-32.99 L556.89,-32.97 L556.84,-33.01 Z" fill="#fff" fill-rule="evenodd" stroke="none"><title>blk-0007 sidewalk</title></path>
<path d="M237.40,-147.09 L237.44,-147.08 L237.59,-147.05 L237.66,-147.04 L241.33,-146.18 L241.39,-146.16 L241.65,-146.09 L241.75,-146.06 L245.46,-144.84 L245.58,-144.80 L245.63,-144.78 L281.38,-131.58 L318.98,-117.68 L327.25,-114.61 L327.94,-114.17 L329.67,-112.51 L330.29,-111.12 L330.34,-108.95 L330.22,-108.22 L316.46,-70.00 L313.76,-61.19 L311.86,-52.08 L292.61,69.61 L292.32,70.38 L291.03,72.40 L290.33,72.88 L287.60,89.31 L288.39,90.48 L288.84,92.59 L288.86,93.32 L284.55,120.55 L284.26,121.32 L282.97,123.34 L281.71,124.21 L279.56,124.68 L278.81,124.70 L239.21,118.33 L193.68,111.02 L192.60,110.84 L192.55,110.84 L191.46,110.66 L190.70,110.37 L188.69,109.07 L187.82,107.81 L187.36,105.66 L187.35,104.91 L199.03,34.21 L221.93,-103.99 L228.45,-143.55 L228.74,-144.31 L230.04,-146.32 L231.32,-147.19 L233.51,-147.64 L234.26,-147.65 Z M233.91,-145.68 L231.72,-145.23 L230.42,-143.22 L223.90,-103.66 L201.00,34.54 L189.32,105.24 L189.78,107.39 L191.79,108.69 L192.88,108.87 L192.89,108.87 L194.00,109.05 L239.53,116.36 L279.13,122.73 L281.28,122.26 L282.57,120.24 L286.88,93.01 L286.43,90.90 L285.42,90.23 L288.54,71.49 L289.34,71.32 L290.63,69.30 L309.90,-52.49 L311.81,-61.65 L314.58,-70.68 L328.34,-108.90 L328.29,-111.07 L326.56,-112.73 L318.29,-115.80 L280.69,-129.70 L244.94,-142.90 L244.84,-142.94 L241.13,-144.16 L240.87,-144.23 L237.20,-145.09 L237.05,-145.12 Z" fill="#fff" fill-rule="evenodd" stroke="none"><title>blk-0008 sidewalk</title></path>
<path d="M432.70,-76.66 L437.30,-75.34 L437.33,-75.33 L437.56,-75.26 L437.69,-75.22 L468.63,-63.56 L468.64,-63.55 L505.39,-50.36 L508.83,-49.32 L508.89,-49.31 L510.67,-48.76 L511.39,-48.36 L513.20,-46.79 L513.86,-45.61 L514.14,-43.94 L514.15,-43.36 L514.03,-42.40 L514.03,-42.35 L514.00,-42.15 L513.98,-42.06 L513.83,-41.30 L513.65,-39.83 L513.62,-39.70 L513.58,-39.49 L513.58,-39.47 L512.47,-33.82 L511.05,-24.12 L511.01,-23.92 L511.00,-23.88 L495.98,70.21 L495.98,70.27 L490.77,102.42 L490.48,103.18 L489.18,105.20 L487.92,106.08 L485.78,106.54 L485.04,106.55 L405.86,93.59 L404.89,93.43 L404.13,93.14 L402.11,91.84 L401.24,90.58 L400.78,88.45 L400.75,87.72 L406.49,51.37 L409.00,35.12 L409.00,35.09 L420.40,-35.20 L422.99,-51.44 L422.99,-51.46 L424.30,-59.29 L424.29,-59.29 L426.38,-72.63 L426.67,-73.39 L427.95,-75.42 L429.33,-76.33 L431.84,-76.72 Z M432.15,-74.74 L429.64,-74.35 L428.36,-72.32 L426.27,-58.98 L424.96,-51.13 L424.96,-51.12 L422.37,-34.88 L410.97,35.41 L410.98,35.43 L408.47,51.68 L402.73,88.03 L403.19,90.16 L405.21,91.46 L406.18,91.62 L485.36,104.58 L487.50,104.12 L488.80,102.10 L494.01,69.95 L494.00,69.92 L509.06,-24.37 L509.07,-24.41 L510.49,-34.11 L511.62,-39.86 L511.66,-40.07 L511.84,-41.54 L512.02,-42.45 L512.05,-42.65 L512.17,-43.61 L511.89,-45.28 L510.08,-46.85 L508.30,-47.40 L508.28,-47.40 L504.71,-48.48 L467.92,-61.68 L467.92,-61.69 L436.98,-73.35 L436.75,-73.42 Z" fill="#fff" fill-rule="evenodd" stroke="none"><title>blk-0009 sidewalk</title></path>
<path d="M346.01,-107.61 L347.94,-106.89 L398.18,-88.12 L398.22,-88.11 L409.75,-83.75 L409.83,-83.72 L409.97,-83.66 L413.42,-82.16 L414.85,-81.59 L415.53,-81.14 L417.22,-79.43 L417.79,-78.23 L417.95,-76.68 L417.94,-76.16 L415.52,-60.78 L415.51,-60.78 L415.51,-60.74 L414.20,-52.91 L414.21,-52.91 L411.61,-36.61 L400.21,33.72 L397.16,53.48 L397.16,53.50 L391.99,86.17 L391.70,86.94 L390.41,88.96 L389.15,89.83 L386.99,90.30 L386.23,90.32 L306.58,77.04 L305.82,76.75 L303.81,75.44 L302.95,74.18 L302.49,72.06 L302.46,71.33 L321.68,-50.16 L321.70,-50.27 L321.72,-50.40 L323.40,-58.44 L323.42,-58.53 L323.49,-58.80 L323.52,-58.88 L325.88,-66.61 L325.91,-66.70 L325.96,-66.84 L339.56,-104.62 L339.98,-105.32 L341.62,-107.06 L343.04,-107.69 L345.27,-107.74 Z M345.31,-105.74 L343.08,-105.69 L341.44,-103.95 L327.84,-66.17 L327.79,-66.03 L325.43,-58.30 L325.36,-58.03 L323.68,-49.99 L323.66,-49.85 L304.44,71.64 L304.90,73.76 L306.91,75.07 L386.56,88.35 L388.72,87.88 L390.01,85.86 L395.18,53.19 L395.18,53.18 L398.23,33.40 L409.63,-36.93 L412.23,-53.23 L413.54,-61.07 L413.54,-61.09 L415.96,-76.47 L415.80,-78.02 L414.11,-79.73 L412.68,-80.30 L409.18,-81.82 L409.04,-81.88 L397.51,-86.24 L397.50,-86.24 L347.24,-105.02 Z" fill="#fff" fill-rule="evenodd" stroke="none"><title>blk-0010 sidewalk</title></path>
<path d="M-240.64,-81.94 L-190.65,-73.70 L-189.89,-73.41 L-187.88,-72.11 L-187.01,-70.85 L-186.55,-68.70 L-186.54,-67.96 L-193.21,-27.37 L-199.69,11.64 L-199.98,12.41 L-201.28,14.42 L-202.54,15.29 L-204.68,15.75 L-205.42,15.76 L-205.85,15.69 L-255.44,7.59 L-375.53,-12.26 L-376.29,-12.55 L-378.31,-13.85 L-379.19,-15.11 L-379.65,-17.25 L-379.66,-17.99 L-378.40,-25.70 L-374.00,-52.28 L-372.90,-58.90 L-366.57,-97.66 L-366.28,-98.42 L-364.98,-100.44 L-363.72,-101.32 L-361.57,-101.78 L-360.82,-101.79 Z M-361.15,-99.82 L-363.30,-99.36 L-364.60,-97.34 L-370.93,-58.58 L-372.03,-51.96 L-376.43,-25.38 L-377.69,-17.67 L-377.23,-15.53 L-375.21,-14.23 L-255.12,5.62 L-205.53,13.72 L-205.10,13.79 L-202.96,13.33 L-201.66,11.32 L-195.18,-27.69 L-188.51,-68.28 L-188.97,-70.43 L-190.98,-71.73 L-240.97,-79.97 Z" fill="#fff" fill-rule="evenodd" stroke="none"><title>blk-0011 sidewalk</title></path>
<path d="M586.71,-251.60 L644.09,-233.41 L644.81,-233.00 L646.61,-231.42 L647.28,-230.10 L647.47,-228.04 L647.41,-227.34 L645.70,-220.95 L645.33,-220.22 L643.83,-218.35 L642.50,-217.61 L640.33,-217.36 L639.59,-217.42 L616.56,-223.51 L614.38,-215.29 L637.37,-209.21 L638.10,-208.85 L639.98,-207.36 L640.73,-206.02 L640.98,-203.83 L640.92,-203.08 L613.45,-100.38 L604.53,-66.80 L604.16,-66.07 L602.66,-64.20 L601.34,-63.46 L599.19,-63.20 L598.45,-63.25 L582.58,-67.33 L581.92,-64.72 L597.69,-60.65 L598.42,-60.29 L600.31,-58.82 L601.07,-57.47 L601.33,-55.27 L601.27,-54.53 L599.36,-47.34 L599.00,-46.61 L597.51,-44.73 L596.05,-43.97 L593.55,-43.83 L592.71,-43.97 L586.01,-46.59 L573.79,-51.10 L563.37,-54.33 L538.09,-61.66 L536.78,-62.04 L536.75,-62.05 L535.38,-62.46 L534.66,-62.85 L532.83,-64.39 L532.14,-65.66 L531.89,-67.58 L531.91,-68.24 L532.75,-72.40 L532.75,-72.42 L532.78,-72.56 L532.80,-72.63 L533.89,-76.98 L533.91,-77.06 L540.80,-102.63 L540.81,-102.67 L541.69,-105.83 L541.70,-105.83 L552.20,-144.45 L580.38,-248.14 L580.75,-248.87 L582.25,-250.74 L583.64,-251.48 L585.94,-251.68 Z M586.11,-249.69 L583.81,-249.49 L582.31,-247.62 L554.13,-143.93 L543.62,-105.29 L542.74,-102.13 L542.73,-102.11 L535.84,-76.54 L535.83,-76.49 L534.74,-72.14 L534.71,-72.00 L533.87,-67.84 L534.12,-65.92 L535.95,-64.38 L537.32,-63.97 L537.34,-63.96 L538.65,-63.58 L563.96,-56.24 L574.48,-52.98 L586.70,-48.47 L593.44,-45.83 L595.94,-45.97 L597.43,-47.85 L599.34,-55.04 L599.08,-57.24 L597.19,-58.71 L579.48,-63.28 L581.14,-69.77 L598.95,-65.19 L601.10,-65.45 L602.60,-67.32 L611.52,-100.90 L638.99,-203.60 L638.74,-205.79 L636.86,-207.28 L611.94,-213.87 L615.14,-225.95 L640.10,-219.35 L642.27,-219.60 L643.77,-221.47 L645.48,-227.86 L645.29,-229.92 L643.49,-231.50 Z" fill="#fff" fill-rule="evenodd" stroke="none"><title>blk-0012 sidewalk</title></path>
<path d="M449.31,-144.44 L526.01,-120.22 L526.72,-119.82 L528.53,-118.25 L529.21,-116.92 L529.40,-114.85 L529.34,-114.15 L528.13,-109.67 L528.10,-109.56 L528.09,-109.53 L527.20,-106.35 L527.19,-106.35 L520.27,-80.63 L518.99,-75.54 L518.54,-73.30 L518.22,-72.55 L516.84,-70.59 L515.44,-69.75 L512.99,-69.45 L512.15,-69.53 L511.83,-69.63 L511.68,-69.68 L511.63,-69.70 L475.57,-82.64 L475.53,-82.67 L475.49,-82.67 L443.86,-94.59 L436.31,-96.75 L435.59,-97.12 L433.74,-98.64 L433.02,-99.98 L432.79,-102.11 L432.85,-102.83 L442.98,-140.95 L443.34,-141.68 L444.83,-143.56 L446.22,-144.31 L448.53,-144.52 Z M448.71,-142.53 L446.40,-142.32 L444.91,-140.44 L434.78,-102.32 L435.01,-100.19 L436.86,-98.67 L444.52,-96.48 L476.20,-84.54 L476.21,-84.57 L476.25,-84.52 L512.31,-71.58 L512.43,-71.54 L512.75,-71.44 L515.20,-71.74 L516.58,-73.70 L517.05,-76.03 L518.34,-81.15 L525.27,-106.89 L526.19,-110.16 L526.20,-110.19 L527.41,-114.67 L527.22,-116.74 L525.41,-118.31 Z" fill="#fff" fill-rule="evenodd" stroke="none"><title>blk-0013 sidewalk</title></path>
<path d="M-308.78,-235.88 L-308.76,-235.88 L-250.24,-225.98 L-170.01,-213.07 L-169.25,-212.78 L-167.24,-211.49 L-166.66,-210.93 L-164.77,-208.12 L-164.48,-207.43 L-164.01,-205.27 L-163.99,-204.52 L-182.56,-91.74 L-182.85,-90.97 L-184.15,-88.96 L-185.41,-88.09 L-187.56,-87.63 L-188.30,-87.62 L-238.35,-95.86 L-358.58,-115.71 L-359.35,-116.00 L-361.36,-117.30 L-362.23,-118.56 L-362.69,-120.70 L-362.70,-121.44 L-356.30,-160.82 L-350.50,-196.12 L-350.48,-196.23 L-350.46,-196.32 L-345.02,-224.25 L-344.36,-236.16 L-344.15,-236.95 L-343.07,-239.09 L-341.80,-240.12 L-339.39,-240.77 L-338.54,-240.81 Z M-338.87,-238.84 L-341.28,-238.19 L-342.36,-236.05 L-343.03,-224.05 L-348.51,-195.89 L-348.53,-195.80 L-354.33,-160.50 L-360.73,-121.12 L-360.27,-118.98 L-358.26,-117.68 L-238.03,-97.83 L-187.98,-89.59 L-185.83,-90.05 L-184.53,-92.06 L-165.96,-204.84 L-166.43,-207.00 L-168.32,-209.81 L-170.33,-211.10 L-250.57,-224.01 L-309.09,-233.91 L-309.10,-233.91 Z" fill="#fff" fill-rule="evenodd" stroke="none"><title>blk-0014 sidewalk</title></path>
<path d="M368.15,-170.36 L394.20,-162.05 L416.60,-154.85 L428.20,-151.15 L428.30,-151.11 L431.32,-150.12 L432.03,-149.72 L433.82,-148.13 L434.48,-146.81 L434.66,-144.78 L434.60,-144.09 L424.41,-105.78 L424.05,-105.05 L422.56,-103.17 L421.08,-102.41 L418.51,-102.30 L417.65,-102.46 L417.62,-102.46 L405.37,-107.10 L357.01,-125.17 L356.97,-125.19 L352.73,-126.78 L352.04,-127.22 L350.32,-128.89 L349.71,-130.26 L349.65,-132.41 L349.77,-133.14 L361.92,-167.27 L362.34,-167.97 L363.98,-169.72 L365.34,-170.35 L367.44,-170.45 Z M367.54,-168.45 L365.44,-168.35 L363.80,-166.60 L351.65,-132.47 L351.71,-130.32 L353.43,-128.65 L357.71,-127.05 L357.72,-127.04 L406.08,-108.97 L418.33,-104.33 L418.33,-104.34 L418.42,-104.30 L420.99,-104.41 L422.48,-106.29 L432.67,-144.60 L432.49,-146.63 L430.70,-148.22 L427.61,-149.23 L427.59,-149.24 L415.99,-152.94 L393.59,-160.14 Z" fill="#fff" fill-rule="evenodd" stroke="none"><title>blk-0015 sidewalk</title></path>
<path d="M461.00,-187.46 L537.78,-163.53 L538.48,-163.14 L540.30,-161.58 L540.99,-160.24 L541.18,-158.15 L541.12,-157.45 L538.60,-148.16 L532.50,-125.72 L532.13,-124.99 L530.63,-123.12 L529.24,-122.38 L526.94,-122.18 L526.17,-122.26 L449.49,-146.47 L448.78,-146.87 L446.97,-148.44 L446.29,-149.77 L446.10,-151.84 L446.16,-152.54 L454.68,-183.99 L455.05,-184.72 L456.55,-186.60 L457.94,-187.34 L460.23,-187.54 Z M460.40,-185.55 L458.11,-185.35 L456.61,-183.47 L448.09,-152.02 L448.28,-149.95 L450.09,-148.38 L526.77,-124.17 L529.07,-124.37 L530.57,-126.24 L536.67,-148.68 L539.19,-157.97 L539.00,-160.06 L537.18,-161.62 Z" fill="#fff" fill-rule="evenodd" stroke="none"><title>blk-0016 sidewalk</title></path>
<path d="M256.68,-205.91 L349.07,-176.44 L349.78,-176.03 L351.58,-174.45 L352.26,-173.05 L352.38,-170.76 L352.26,-169.99 L340.44,-136.76 L340.02,-136.06 L338.38,-134.31 L336.96,-133.68 L334.73,-133.63 L333.99,-133.76 L326.02,-136.72 L288.41,-150.63 L252.33,-163.96 L247.03,-165.69 L245.84,-165.96 L245.09,-166.30 L243.16,-167.72 L242.37,-169.07 L242.07,-171.35 L242.12,-172.13 L250.33,-202.44 L250.70,-203.17 L252.20,-205.05 L253.59,-205.79 L255.90,-205.99 Z M256.07,-204.00 L253.76,-203.80 L252.26,-201.92 L244.05,-171.61 L244.35,-169.33 L246.28,-167.91 L247.56,-167.62 L252.95,-165.86 L289.11,-152.50 L326.72,-138.59 L334.69,-135.63 L336.92,-135.68 L338.56,-137.43 L350.38,-170.66 L350.26,-172.95 L348.46,-174.53 Z" fill="#fff" fill-rule="evenodd" stroke="none"><title>blk-0017 sidewalk</title></path>
<path d="M383.04,-212.24 L442.97,-193.10 L443.68,-192.70 L445.49,-191.12 L446.16,-189.78 L446.34,-187.71 L446.28,-187.02 L437.77,-155.65 L437.40,-154.91 L435.89,-153.04 L434.49,-152.31 L432.17,-152.12 L431.39,-152.21 L428.82,-153.05 L428.82,-153.04 L417.20,-156.75 L394.80,-163.95 L369.13,-172.14 L368.42,-172.55 L366.62,-174.13 L365.94,-175.53 L365.82,-177.82 L365.94,-178.59 L376.81,-209.15 L377.23,-209.85 L378.87,-211.60 L380.23,-212.23 L382.33,-212.33 Z M382.43,-210.33 L380.33,-210.23 L378.69,-208.48 L367.82,-177.92 L367.94,-175.63 L369.74,-174.05 L395.41,-165.86 L417.81,-158.66 L429.43,-154.95 L432.01,-154.11 L434.33,-154.30 L435.84,-156.17 L444.35,-187.54 L444.17,-189.61 L442.36,-191.19 Z" fill="#fff" fill-rule="evenodd" stroke="none"><title>blk-0018 sidewalk</title></path>
<path d="M37.97,-425.50 L102.92,-404.94 L124.52,-398.14 L273.21,-350.96 L273.93,-350.55 L275.73,-348.97 L276.40,-347.65 L276.59,-345.59 L276.53,-344.89 L266.68,-308.21 L266.67,-308.21 L257.32,-272.18 L256.95,-271.45 L255.47,-269.56 L254.09,-268.80 L251.76,-268.58 L250.96,-268.66 L46.55,-333.84 L42.37,-320.70 L247.92,-255.16 L248.63,-254.75 L250.43,-253.17 L251.10,-251.85 L251.29,-249.80 L251.23,-249.10 L242.88,-217.86 L242.51,-217.13 L241.01,-215.25 L239.63,-214.51 L237.32,-214.30 L236.53,-214.38 L236.31,-214.45 L34.03,-279.27 L33.42,-277.37 L235.69,-212.54 L235.70,-212.53 L236.41,-212.31 L237.14,-211.91 L238.95,-210.33 L239.62,-209.00 L239.81,-206.94 L239.75,-206.24 L231.50,-175.77 L231.48,-175.70 L231.40,-175.44 L231.37,-175.34 L230.55,-173.11 L230.11,-172.42 L228.45,-170.69 L227.22,-170.08 L225.53,-169.90 L224.97,-169.92 L217.22,-171.31 L104.62,-189.72 L53.49,-197.90 L52.73,-198.18 L50.71,-199.47 L49.81,-200.85 L49.42,-203.36 L49.48,-204.23 L50.07,-206.24 L49.13,-203.02 L48.75,-202.30 L47.22,-200.46 L45.98,-199.76 L44.16,-199.48 L43.54,-199.49 L40.79,-199.93 L-12.59,-208.43 L-33.39,-211.78 L-34.15,-212.06 L-36.17,-213.35 L-37.07,-214.77 L-37.43,-217.38 L-37.35,-218.28 L-25.16,-255.30 L-25.15,-255.33 L-15.85,-282.96 L-15.43,-283.67 L-13.82,-285.44 L-12.51,-286.08 L-10.50,-286.25 L-9.81,-286.19 L14.17,-279.78 L17.73,-293.10 L-4.80,-299.13 L-5.53,-299.50 L-7.40,-301.00 L-8.14,-302.40 L-8.33,-304.76 L-8.24,-305.56 L20.30,-390.29 L20.72,-391.00 L21.70,-392.07 L31.71,-422.30 L32.12,-423.00 L33.72,-424.79 L35.09,-425.46 L37.25,-425.59 Z M37.37,-423.59 L35.21,-423.46 L33.61,-421.67 L23.46,-391.03 L22.20,-389.65 L-6.34,-304.92 L-6.15,-302.56 L-4.28,-301.06 L20.18,-294.51 L15.58,-277.33 L-10.33,-284.26 L-12.34,-284.09 L-13.95,-282.32 L-23.25,-254.69 L-23.26,-254.67 L-35.45,-217.65 L-35.09,-215.04 L-33.07,-213.75 L-12.27,-210.40 L41.11,-201.90 L43.86,-201.46 L45.68,-201.74 L47.21,-203.58 L50.08,-213.45 L53.60,-224.83 L53.59,-224.83 L57.42,-236.52 L61.22,-235.28 L57.41,-223.62 L57.42,-223.57 L57.40,-223.58 L53.91,-212.31 L53.90,-212.26 L51.40,-203.67 L51.79,-201.16 L53.81,-199.87 L104.94,-191.69 L217.57,-173.28 L225.32,-171.89 L227.01,-172.07 L228.67,-173.80 L229.49,-176.03 L229.57,-176.29 L237.82,-206.76 L237.63,-208.82 L235.82,-210.40 L235.08,-210.63 L235.08,-210.64 L30.91,-276.08 L32.74,-281.79 L236.92,-216.36 L237.14,-216.29 L239.45,-216.50 L240.95,-218.38 L249.30,-249.62 L249.11,-251.67 L247.31,-253.25 L39.85,-319.40 L45.25,-336.36 L251.57,-270.57 L253.90,-270.79 L255.38,-272.68 L264.74,-308.73 L264.75,-308.73 L274.60,-345.41 L274.41,-347.47 L272.61,-349.05 L123.92,-396.23 L102.32,-403.03 Z" fill="#fff" fill-rule="evenodd" stroke="none"><title>blk-0019 sidewalk</title></path>
<path d="M480.39,-279.79 L480.75,-280.52 L482.23,-282.40 L483.61,-283.15 L485.94,-283.37 L486.74,-283.29 L525.62,-270.95 L563.71,-258.88 L564.42,-258.47 L566.22,-256.89 L566.89,-255.57 L567.08,-253.50 L567.02,-252.80 L547.36,-180.43 L546.99,-179.69 L545.48,-177.82 L544.09,-177.09 L541.81,-176.89 L541.04,-176.97 L464.30,-200.90 L463.59,-201.30 L461.77,-202.87 L461.09,-204.21 L460.91,-206.30 L460.97,-207.00 L468.61,-234.76 L471.01,-243.78 Z M486.13,-281.38 L483.80,-281.16 L482.32,-279.28 L472.94,-243.27 L470.54,-234.23 L462.90,-206.47 L463.08,-204.38 L464.90,-202.81 L541.64,-178.88 L543.92,-179.08 L545.43,-180.95 L565.09,-253.32 L564.90,-255.39 L563.10,-256.97 L525.01,-269.04 Z" fill="#fff" fill-rule="evenodd" stroke="none"><title>blk-0020 sidewalk</title></path>
<path d="M268.16,-248.78 L295.03,-240.23 L324.21,-231.03 L363.97,-218.33 L364.68,-217.92 L366.48,-216.34 L367.16,-214.94 L367.28,-212.65 L367.16,-211.88 L356.28,-181.31 L355.86,-180.61 L354.22,-178.86 L352.86,-178.23 L350.76,-178.13 L350.05,-178.22 L256.76,-207.96 L256.05,-208.37 L254.25,-209.95 L253.58,-211.27 L253.39,-213.32 L253.45,-214.02 L261.81,-245.30 L262.18,-246.03 L263.68,-247.91 L265.06,-248.65 L267.37,-248.86 Z M267.55,-246.87 L265.24,-246.66 L263.74,-244.78 L255.38,-213.50 L255.57,-211.45 L257.37,-209.87 L350.66,-180.13 L352.76,-180.23 L354.40,-181.98 L365.28,-212.55 L365.16,-214.84 L363.36,-216.42 L323.60,-229.12 L294.42,-238.32 Z" fill="#fff" fill-rule="evenodd" stroke="none"><title>blk-0021 sidewalk</title></path>
<path d="M293.47,-344.60 L467.63,-289.31 L468.57,-289.03 L469.28,-288.65 L471.13,-287.12 L471.85,-285.79 L472.07,-283.68 L472.02,-282.97 L462.41,-246.07 L462.40,-246.07 L462.40,-246.04 L460.02,-237.12 L459.99,-237.01 L459.98,-236.98 L452.56,-209.98 L452.19,-209.25 L450.69,-207.39 L449.30,-206.66 L447.00,-206.46 L446.22,-206.54 L328.38,-244.17 L299.16,-253.38 L271.21,-262.28 L270.51,-262.68 L268.70,-264.25 L268.02,-265.57 L267.83,-267.61 L267.88,-268.30 L277.49,-305.30 L277.51,-305.35 L287.12,-341.13 L287.49,-341.86 L288.99,-343.73 L290.37,-344.47 L292.68,-344.68 Z M292.86,-342.69 L290.55,-342.48 L289.05,-340.61 L279.44,-304.83 L279.45,-304.83 L279.43,-304.80 L269.82,-267.80 L270.01,-265.76 L271.82,-264.19 L299.77,-255.29 L328.99,-246.08 L446.83,-208.45 L449.13,-208.65 L450.63,-210.51 L458.08,-237.61 L458.09,-237.64 L460.47,-246.56 L460.47,-246.57 L470.08,-283.47 L469.86,-285.58 L468.01,-287.11 L467.02,-287.40 Z" fill="#fff" fill-rule="evenodd" stroke="none"><title>blk-0022 sidewalk</title></path>
<path d="M-124.63,-316.90 L-104.39,-311.53 L-30.24,-291.66 L-29.51,-291.30 L-27.63,-289.81 L-26.88,-288.40 L-26.69,-286.03 L-26.78,-285.23 L-35.67,-258.84 L-48.92,-218.58 L-49.33,-217.88 L-50.93,-216.09 L-52.15,-215.44 L-53.87,-215.21 L-54.46,-215.22 L-150.19,-230.53 L-151.77,-230.78 L-152.53,-231.06 L-154.55,-232.35 L-155.45,-233.74 L-155.83,-236.28 L-155.76,-237.16 L-155.47,-238.12 L-155.42,-238.28 L-155.40,-238.33 L-144.95,-270.59 L-143.18,-276.01 L-143.17,-276.03 L-143.17,-276.05 L-136.06,-297.36 L-130.66,-313.65 L-130.24,-314.36 L-128.63,-316.14 L-127.32,-316.79 L-125.31,-316.96 Z M-125.14,-314.97 L-127.15,-314.80 L-128.76,-313.02 L-134.16,-296.73 L-141.27,-275.42 L-141.26,-275.42 L-141.28,-275.39 L-143.05,-269.97 L-153.54,-237.59 L-153.56,-237.54 L-153.85,-236.58 L-153.47,-234.04 L-151.45,-232.75 L-149.87,-232.50 L-54.14,-217.19 L-52.42,-217.42 L-50.82,-219.21 L-37.57,-259.48 L-28.68,-285.87 L-28.87,-288.24 L-30.75,-289.73 L-104.90,-309.60 Z" fill="#fff" fill-rule="evenodd" stroke="none"><title>blk-0023 sidewalk</title></path>
<path d="M-302.39,-362.84 L-298.67,-361.83 L-217.24,-340.15 L-217.20,-340.14 L-213.92,-339.25 L-169.51,-327.15 L-148.58,-321.51 L-147.84,-321.14 L-145.97,-319.63 L-145.24,-318.23 L-145.05,-315.90 L-145.14,-315.11 L-149.53,-301.85 L-156.64,-280.52 L-158.45,-274.99 L-168.99,-242.47 L-170.33,-238.07 L-170.72,-237.35 L-172.28,-235.52 L-173.51,-234.84 L-175.30,-234.58 L-175.91,-234.59 L-246.93,-246.02 L-247.00,-246.03 L-305.42,-255.91 L-334.48,-260.73 L-335.24,-261.02 L-337.25,-262.33 L-338.14,-263.75 L-338.48,-266.34 L-338.40,-267.23 L-330.53,-291.09 L-321.89,-317.30 L-318.70,-327.47 L-318.70,-327.49 L-308.47,-359.53 L-308.06,-360.24 L-306.48,-362.04 L-305.16,-362.71 L-303.09,-362.90 Z M-302.91,-360.91 L-304.98,-360.72 L-306.56,-358.92 L-316.79,-326.88 L-316.79,-326.87 L-319.99,-316.67 L-328.63,-290.46 L-336.50,-266.60 L-336.16,-264.01 L-334.15,-262.70 L-305.09,-257.88 L-246.67,-248.00 L-246.65,-248.00 L-175.59,-236.56 L-173.80,-236.82 L-172.24,-238.65 L-170.89,-243.09 L-160.35,-275.62 L-158.54,-281.15 L-151.43,-302.48 L-147.04,-315.74 L-147.23,-318.07 L-149.10,-319.58 L-170.03,-325.22 L-214.44,-337.32 L-217.72,-338.21 L-217.74,-338.21 L-299.19,-359.90 Z" fill="#fff" fill-rule="evenodd" stroke="none"><title>blk-0024 sidewalk</title></path>
<path d="M514.15,-382.86 L591.48,-362.08 L592.21,-361.71 L594.08,-360.21 L594.82,-358.87 L595.06,-356.68 L595.00,-355.94 L587.20,-327.25 L582.69,-310.54 L578.00,-293.16 L572.91,-274.53 L572.54,-273.80 L571.04,-271.93 L569.65,-271.19 L567.35,-270.99 L566.58,-271.07 L529.40,-282.85 L489.66,-295.46 L488.94,-295.87 L487.14,-297.45 L486.47,-298.78 L486.29,-300.88 L486.36,-301.59 L497.99,-342.71 L502.19,-357.83 L508.02,-379.34 L508.39,-380.07 L509.89,-381.94 L511.23,-382.68 L513.41,-382.92 Z M513.63,-380.93 L511.45,-380.69 L509.95,-378.82 L504.11,-357.29 L504.12,-357.29 L499.92,-342.17 L499.91,-342.17 L488.28,-301.05 L488.46,-298.95 L490.26,-297.37 L530.00,-284.76 L567.18,-272.98 L569.48,-273.18 L570.98,-275.05 L576.07,-293.68 L580.76,-311.06 L585.27,-327.77 L593.07,-356.46 L592.83,-358.65 L590.96,-360.15 Z" fill="#fff" fill-rule="evenodd" stroke="none"><title>blk-0025 sidewalk</title></path>
<path d="M317.79,-435.68 L349.11,-427.21 L495.89,-387.76 L496.62,-387.39 L498.49,-385.89 L499.23,-384.56 L499.48,-382.38 L499.42,-381.63 L493.23,-358.77 L493.20,-358.66 L493.19,-358.63 L490.04,-347.31 L490.03,-347.31 L490.03,-347.30 L477.94,-304.57 L477.57,-303.84 L476.05,-301.99 L474.69,-301.27 L472.49,-301.06 L471.74,-301.13 L471.43,-301.22 L471.23,-301.27 L296.37,-356.77 L295.66,-357.18 L293.86,-358.76 L293.19,-360.08 L293.00,-362.14 L293.06,-362.84 L302.11,-396.25 L311.66,-432.14 L312.02,-432.86 L313.51,-434.74 L314.85,-435.49 L317.04,-435.74 Z M317.27,-433.75 L315.08,-433.50 L313.59,-431.62 L304.04,-395.73 L294.99,-362.32 L295.18,-360.26 L296.98,-358.68 L471.84,-303.18 L471.92,-303.16 L472.30,-303.05 L474.50,-303.26 L476.02,-305.11 L488.11,-347.84 L488.11,-347.85 L491.29,-359.26 L491.30,-359.29 L497.49,-382.15 L497.24,-384.33 L495.37,-385.83 L348.59,-425.28 Z" fill="#fff" fill-rule="evenodd" stroke="none"><title>blk-0026 sidewalk</title></path>
<path d="M-89.67,-422.80 L-70.72,-418.04 L-22.54,-405.94 L5.76,-398.76 L6.49,-398.40 L8.39,-396.93 L9.16,-395.52 L9.37,-393.12 L9.28,-392.31 L-19.17,-307.84 L-19.59,-307.13 L-21.20,-305.36 L-22.51,-304.72 L-24.52,-304.55 L-25.21,-304.61 L-100.83,-324.87 L-119.70,-329.87 L-120.43,-330.24 L-122.30,-331.74 L-123.04,-333.13 L-123.24,-335.47 L-123.15,-336.27 L-95.64,-419.52 L-95.23,-420.22 L-93.63,-422.01 L-92.32,-422.67 L-90.34,-422.85 Z M-90.16,-420.86 L-92.14,-420.68 L-93.74,-418.89 L-121.25,-335.64 L-121.05,-333.30 L-119.18,-331.80 L-100.31,-326.80 L-24.69,-306.54 L-22.68,-306.71 L-21.07,-308.48 L7.38,-392.95 L7.17,-395.35 L5.27,-396.82 L-23.03,-404.00 L-71.21,-416.10 Z" fill="#fff" fill-rule="evenodd" stroke="none"><title>blk-0027 sidewalk</title></path>
<path d="M-267.04,-471.94 L-265.28,-470.04 L-265.08,-469.69 L-145.91,-437.66 L-113.05,-428.91 L-112.32,-428.54 L-110.45,-427.04 L-109.71,-425.65 L-109.51,-423.31 L-109.60,-422.51 L-137.62,-337.74 L-138.03,-337.04 L-139.63,-335.25 L-140.95,-334.59 L-142.98,-334.42 L-143.67,-334.48 L-164.50,-340.08 L-164.52,-340.09 L-210.29,-352.56 L-213.60,-353.46 L-295.11,-375.17 L-297.89,-375.92 L-298.62,-376.28 L-300.50,-377.77 L-301.25,-379.15 L-301.47,-381.44 L-301.39,-382.22 L-298.05,-393.13 L-298.05,-393.16 L-293.66,-407.20 L-288.57,-423.76 L-288.57,-423.78 L-275.58,-465.45 L-274.38,-469.28 L-273.98,-469.99 L-272.41,-471.81 L-270.97,-472.50 L-268.58,-472.58 Z M-268.51,-470.58 L-270.90,-470.50 L-272.47,-468.68 L-273.67,-464.85 L-286.66,-423.18 L-286.66,-423.17 L-291.75,-406.60 L-296.14,-392.56 L-296.14,-392.54 L-299.48,-381.63 L-299.26,-379.34 L-297.38,-377.85 L-294.60,-377.10 L-213.07,-355.39 L-209.76,-354.49 L-163.99,-342.02 L-163.98,-342.01 L-143.15,-336.41 L-141.12,-336.58 L-139.52,-338.37 L-111.50,-423.14 L-111.70,-425.48 L-113.57,-426.98 L-146.43,-435.73 L-266.54,-468.01 L-266.75,-468.68 Z" fill="#fff" fill-rule="evenodd" stroke="none"><title>blk-0028 sidewalk</title></path>
<path d="M79.29,-601.99 L85.54,-600.30 L88.55,-599.50 L124.76,-589.82 L124.81,-589.81 L136.81,-586.51 L174.27,-576.49 L201.54,-569.29 L201.56,-569.28 L211.12,-566.67 L211.84,-566.30 L213.71,-564.80 L214.45,-563.46 L214.69,-561.30 L214.63,-560.57 L203.66,-519.14 L217.40,-515.50 L228.34,-556.85 L228.70,-557.58 L230.19,-559.46 L231.53,-560.21 L233.71,-560.46 L234.46,-560.40 L282.77,-547.50 L293.37,-544.74 L293.54,-544.69 L294.05,-544.51 L294.22,-544.44 L310.68,-536.82 L317.80,-534.30 L322.13,-533.19 L322.86,-532.82 L324.75,-531.34 L325.51,-530.00 L325.77,-527.79 L325.71,-527.04 L317.13,-495.39 L317.13,-495.38 L317.11,-495.33 L315.79,-490.66 L306.57,-456.42 L306.20,-455.69 L304.70,-453.82 L303.37,-453.08 L301.20,-452.83 L300.46,-452.89 L213.16,-475.98 L210.04,-464.18 L297.28,-441.11 L298.01,-440.75 L299.89,-439.26 L300.64,-437.92 L300.89,-435.74 L300.83,-435.00 L291.89,-401.41 L291.89,-401.39 L282.47,-366.61 L282.10,-365.88 L280.60,-364.00 L279.21,-363.26 L276.90,-363.06 L276.12,-363.14 L128.28,-410.06 L106.68,-416.86 L41.15,-437.61 L40.44,-438.02 L38.64,-439.60 L37.96,-440.96 L37.81,-443.13 L37.90,-443.86 L39.98,-450.55 L39.99,-450.56 L39.99,-450.62 L54.27,-494.46 L54.67,-495.17 L56.26,-496.96 L57.62,-497.63 L59.75,-497.78 L60.47,-497.69 L145.33,-471.86 L148.89,-483.54 L64.45,-509.24 L63.73,-509.63 L61.90,-511.19 L61.20,-512.58 L61.05,-514.82 L61.15,-515.57 L82.67,-581.64 L74.26,-584.38 L73.55,-584.78 L71.76,-586.37 L71.10,-587.70 L70.92,-589.75 L70.98,-590.44 L73.16,-598.47 L73.53,-599.21 L75.04,-601.08 L76.38,-601.81 L78.55,-602.05 Z M78.77,-600.06 L76.60,-599.82 L75.09,-597.95 L72.91,-589.92 L73.09,-587.87 L74.88,-586.28 L85.19,-582.92 L63.05,-514.95 L63.20,-512.71 L65.03,-511.15 L151.38,-484.87 L146.66,-469.37 L59.89,-495.78 L57.76,-495.63 L56.17,-493.84 L41.89,-450.00 L41.90,-449.96 L41.89,-449.96 L39.81,-443.27 L39.96,-441.10 L41.76,-439.52 L107.29,-418.77 L128.89,-411.97 L276.73,-365.05 L279.04,-365.25 L280.54,-367.13 L289.96,-401.91 L289.96,-401.92 L298.90,-435.51 L298.65,-437.69 L296.77,-439.18 L207.60,-462.76 L211.74,-478.42 L300.97,-454.82 L303.14,-455.07 L304.64,-456.94 L313.87,-491.20 L315.19,-495.87 L315.20,-495.91 L323.78,-527.56 L323.52,-529.77 L321.63,-531.25 L317.20,-532.39 L309.93,-534.96 L293.38,-542.62 L292.87,-542.80 L282.27,-545.56 L233.94,-558.47 L231.76,-558.22 L230.27,-556.34 L218.82,-513.06 L201.22,-517.72 L212.70,-561.08 L212.46,-563.24 L210.59,-564.74 L201.03,-567.35 L201.02,-567.36 L173.75,-574.56 L136.28,-584.58 L124.28,-587.88 L124.25,-587.89 L88.04,-597.57 L85.02,-598.37 Z" fill="#fff" fill-rule="evenodd" stroke="none"><title>blk-0029 sidewalk</title></path>
<path d="M342.69,-527.75 L381.42,-517.38 L381.42,-517.37 L392.92,-514.40 L392.96,-514.39 L476.96,-491.99 L476.99,-491.98 L487.92,-489.00 L501.43,-485.49 L501.43,-485.48 L501.45,-485.48 L501.58,-485.45 L504.09,-484.72 L515.42,-481.79 L515.52,-481.74 L515.58,-481.74 L518.67,-480.83 L526.83,-479.32 L543.04,-477.99 L543.22,-477.97 L543.74,-477.88 L543.90,-477.85 L562.21,-473.08 L562.21,-473.07 L562.23,-473.07 L586.26,-466.69 L617.40,-458.40 L618.13,-458.04 L620.01,-456.55 L620.76,-455.21 L621.01,-453.03 L620.95,-452.29 L611.57,-417.04 L609.24,-407.76 L609.16,-407.53 L608.90,-406.86 L608.81,-406.64 L607.13,-403.47 L606.61,-402.85 L604.73,-401.35 L603.47,-400.91 L601.90,-400.92 L601.38,-400.99 L564.28,-411.19 L564.18,-411.22 L564.15,-411.23 L531.11,-420.70 L524.12,-421.17 L518.40,-420.39 L512.88,-417.07 L509.15,-412.23 L506.66,-407.61 L505.26,-402.91 L504.87,-402.19 L503.33,-400.36 L502.00,-399.66 L499.89,-399.45 L499.17,-399.51 L354.52,-438.38 L354.47,-438.41 L320.94,-447.46 L320.21,-447.83 L318.34,-449.33 L317.60,-450.66 L317.35,-452.84 L317.41,-453.59 L326.60,-487.71 L326.63,-487.82 L326.64,-487.85 L327.89,-492.32 L327.90,-492.32 L336.56,-524.23 L336.93,-524.97 L338.44,-526.84 L339.78,-527.57 L341.95,-527.81 Z M342.17,-525.82 L340.00,-525.58 L338.49,-523.71 L329.82,-491.78 L328.54,-487.22 L328.53,-487.19 L319.34,-453.07 L319.59,-450.89 L321.46,-449.39 L355.02,-440.33 L355.04,-440.31 L499.69,-401.44 L501.80,-401.65 L503.34,-403.48 L504.80,-408.37 L507.45,-413.30 L511.54,-418.61 L517.71,-422.31 L524.08,-423.18 L531.42,-422.69 L564.78,-413.13 L564.81,-413.12 L601.91,-402.92 L603.48,-402.91 L605.36,-404.41 L607.04,-407.58 L607.30,-408.25 L609.64,-417.55 L619.02,-452.80 L618.77,-454.98 L616.89,-456.47 L585.75,-464.76 L561.72,-471.14 L561.71,-471.14 L543.40,-475.91 L542.88,-476.00 L526.49,-477.34 L518.25,-478.87 L515.02,-479.82 L515.01,-479.78 L514.92,-479.85 L503.59,-482.78 L501.02,-483.53 L500.93,-483.55 L487.42,-487.06 L476.46,-490.05 L476.44,-490.06 L392.44,-512.46 L392.42,-512.46 L380.90,-515.44 L380.90,-515.45 Z" fill="#fff" fill-rule="evenodd" stroke="none"><title>blk-0030 sidewalk</title></path>
<path d="M-54.81,-529.12 L-7.57,-516.50 L40.10,-503.84 L40.82,-503.48 L42.70,-501.99 L43.45,-500.59 L43.65,-498.25 L43.56,-497.46 L29.42,-454.04 L29.42,-454.02 L27.40,-447.51 L27.01,-446.79 L26.45,-446.14 L15.77,-413.90 L15.36,-413.20 L13.76,-411.41 L12.45,-410.75 L10.46,-410.57 L9.79,-410.62 L-19.47,-418.06 L-67.69,-430.16 L-85.14,-434.54 L-85.88,-434.90 L-87.77,-436.37 L-88.53,-437.77 L-88.75,-440.14 L-88.66,-440.94 L-75.15,-482.19 L-60.85,-525.84 L-60.45,-526.55 L-58.86,-528.34 L-57.54,-529.00 L-55.51,-529.18 Z M-55.33,-527.19 L-57.36,-527.01 L-58.95,-525.22 L-73.25,-481.57 L-86.76,-440.32 L-86.54,-437.95 L-84.65,-436.48 L-67.20,-432.10 L-18.98,-420.00 L10.28,-412.56 L12.27,-412.74 L13.87,-414.53 L24.68,-447.16 L25.49,-448.10 L27.51,-454.61 L27.50,-454.61 L41.66,-498.08 L41.46,-500.42 L39.58,-501.91 L-8.09,-514.57 Z" fill="#fff" fill-rule="evenodd" stroke="none"><title>blk-0031 sidewalk</title></path>
<path d="M-235.30,-577.65 L-223.91,-574.52 L-176.31,-561.52 L-141.19,-551.91 L-78.25,-535.35 L-77.53,-534.99 L-75.64,-533.51 L-74.88,-532.11 L-74.68,-529.76 L-74.77,-528.97 L-88.65,-486.61 L-102.62,-443.95 L-103.02,-443.24 L-104.61,-441.45 L-105.93,-440.79 L-107.96,-440.61 L-108.66,-440.67 L-142.68,-449.74 L-252.38,-479.23 L-253.24,-479.72 L-255.34,-481.73 L-255.87,-482.58 L-262.54,-504.10 L-262.63,-504.70 L-262.62,-506.49 L-262.53,-507.08 L-261.28,-511.04 L-261.28,-511.06 L-255.08,-531.04 L-247.92,-553.94 L-247.88,-554.03 L-241.38,-574.35 L-240.98,-575.06 L-239.39,-576.87 L-238.05,-577.54 L-235.99,-577.71 Z M-235.83,-575.72 L-237.89,-575.55 L-239.48,-573.74 L-246.00,-553.37 L-246.01,-553.35 L-253.17,-530.45 L-259.37,-510.47 L-259.36,-510.47 L-260.62,-506.48 L-260.63,-504.69 L-253.96,-483.17 L-251.86,-481.16 L-142.16,-451.67 L-108.14,-442.60 L-106.11,-442.78 L-104.52,-444.57 L-90.55,-487.23 L-76.67,-529.59 L-76.87,-531.94 L-78.76,-533.42 L-141.72,-549.98 L-176.84,-559.59 L-224.44,-572.59 Z" fill="#fff" fill-rule="evenodd" stroke="none"><title>blk-0032 sidewalk</title></path>
<path d="M-222.69,-633.93 L-222.68,-633.96 L-220.26,-641.60 L-220.25,-641.60 L-210.23,-674.46 L-209.84,-675.18 L-208.28,-677.00 L-206.95,-677.69 L-204.87,-677.89 L-204.16,-677.83 L-199.23,-676.52 L-199.19,-676.51 L-180.37,-671.40 L-144.56,-661.78 L-140.66,-660.80 L-140.64,-660.79 L-110.24,-652.69 L-73.48,-642.90 L-33.06,-632.00 L-17.63,-627.89 L4.64,-622.00 L56.09,-608.22 L56.82,-607.86 L58.70,-606.37 L59.45,-605.02 L59.69,-602.82 L59.63,-602.08 L48.41,-560.83 L57.86,-558.27 L58.59,-557.90 L60.46,-556.40 L61.20,-555.00 L61.39,-552.68 L61.30,-551.90 L50.46,-518.60 L50.06,-517.89 L48.47,-516.10 L47.15,-515.44 L45.12,-515.26 L44.43,-515.32 L-4.42,-528.30 L-50.61,-540.64 L-51.34,-541.00 L-53.22,-542.49 L-53.97,-543.88 L-54.18,-546.20 L-54.10,-546.99 L-49.43,-561.67 L-62.95,-565.97 L-67.98,-550.17 L-68.39,-549.46 L-69.97,-547.66 L-71.28,-546.99 L-73.32,-546.80 L-74.02,-546.86 L-138.05,-563.70 L-138.10,-563.71 L-173.10,-573.28 L-218.47,-585.67 L-218.52,-585.70 L-231.07,-589.14 L-231.79,-589.51 L-233.66,-591.01 L-234.40,-592.41 L-234.59,-594.74 L-234.50,-595.53 L-233.27,-599.26 L-222.70,-633.88 Z M-204.68,-675.90 L-206.76,-675.70 L-208.32,-673.88 L-218.35,-641.00 L-220.78,-633.33 L-220.79,-633.30 L-231.37,-598.63 L-232.60,-594.90 L-232.41,-592.57 L-230.54,-591.07 L-217.96,-587.62 L-217.94,-587.60 L-172.57,-575.21 L-137.57,-565.64 L-137.54,-565.63 L-73.51,-548.79 L-71.47,-548.98 L-69.89,-550.78 L-64.25,-568.49 L-46.91,-562.97 L-52.19,-546.38 L-51.98,-544.06 L-50.10,-542.57 L-3.91,-530.23 L44.94,-517.25 L46.97,-517.43 L48.56,-519.22 L59.40,-552.52 L59.21,-554.84 L57.34,-556.34 L45.96,-559.43 L57.70,-602.60 L57.46,-604.80 L55.58,-606.29 L4.13,-620.07 L-18.14,-625.96 L-33.57,-630.07 L-73.99,-640.97 L-110.75,-650.76 L-141.15,-658.86 L-145.05,-659.84 L-180.89,-669.47 L-199.71,-674.58 L-199.73,-674.58 Z" fill="#fff" fill-rule="evenodd" stroke="none"><title>blk-0033 sidewalk</title></path>
<path d="M-140.56,-204.08 L-140.18,-204.04 L197.42,-149.36 L197.80,-149.28 L198.56,-149.08 L199.33,-148.79 L200.03,-148.44 L200.63,-148.07 L201.26,-147.60 L201.90,-147.01 L202.41,-146.42 L202.83,-145.83 L203.23,-145.15 L203.57,-144.40 L203.82,-143.66 L203.99,-142.94 L204.10,-142.16 L204.13,-141.34 L204.08,-140.56 L204.04,-140.18 L149.36,197.42 L149.28,197.80 L149.08,198.56 L148.79,199.33 L148.44,200.03 L148.07,200.63 L147.60,201.26 L147.01,201.90 L146.42,202.41 L145.83,202.83 L145.15,203.23 L144.40,203.57 L143.66,203.82 L142.94,203.99 L142.16,204.10 L141.34,204.13 L140.56,204.08 L140.18,204.04 L-197.42,149.36 L-197.80,149.28 L-198.56,149.08 L-199.33,148.79 L-200.03,148.44 L-200.63,148.07 L-201.26,147.60 L-201.90,147.01 L-202.41,146.42 L-202.83,145.83 L-203.23,145.15 L-203.57,144.40 L-203.82,143.66 L-203.99,142.94 L-204.10,142.16 L-204.13,141.34 L-204.08,140.56 L-204.04,140.18 L-149.36,-197.42 L-149.28,-197.80 L-149.08,-198.56 L-148.79,-199.33 L-148.44,-200.03 L-148.07,-200.63 L-147.60,-201.26 L-147.01,-201.90 L-146.42,-202.41 L-145.83,-202.83 L-145.15,-203.23 L-144.40,-203.57 L-143.66,-203.82 L-142.94,-203.99 L-142.16,-204.10 L-141.34,-204.13 Z M-140.82,-200.09 L-141.60,-200.14 L-142.38,-200.03 L-143.12,-199.78 L-143.80,-199.38 L-144.39,-198.87 L-144.86,-198.24 L-145.21,-197.54 L-145.41,-196.78 L-145.41,-196.78 L-200.09,140.82 L-200.09,140.82 L-200.14,141.60 L-200.03,142.38 L-199.78,143.12 L-199.38,143.80 L-198.87,144.39 L-198.24,144.86 L-197.54,145.21 L-196.78,145.41 L-196.78,145.41 L140.82,200.09 L140.82,200.09 L141.60,200.14 L142.38,200.03 L143.12,199.78 L143.80,199.38 L144.39,198.87 L144.86,198.24 L145.21,197.54 L145.41,196.78 L145.41,196.78 L200.09,-140.82 L200.09,-140.82 L200.14,-141.60 L200.03,-142.38 L199.78,-143.12 L199.38,-143.80 L198.87,-144.39 L198.24,-144.86 L197.54,-145.21 L196.78,-145.41 L196.78,-145.41 L-140.82,-200.09 Z" fill="#fff" fill-rule="evenodd" stroke="none"><title>Park sidewalk</title></path>
<path d="M529.75,-123.23 L528.17,-117.44 L445.73,-143.47 L446.61,-146.57 L447.34,-149.25 Z" fill="#ccc" stroke="none"><title>Mississippi Alley</title></path>
<path d="M395.41,-165.86 L417.81,-158.66 L429.42,-154.96 L433.70,-153.56 L435.02,-153.14 L434.17,-149.99 L434.18,-149.99 L433.42,-147.35 L431.88,-147.84 L427.59,-149.24 L415.99,-152.94 L393.59,-160.14 L364.76,-169.33 L366.78,-174.99 Z" fill="#ccc" stroke="none"><title>Mississippi Alley</title></path>
<path d="M256.80,-210.06 L353.43,-179.25 L351.42,-173.59 L254.99,-204.34 L254.99,-204.35 L253.08,-204.94 L253.94,-208.12 L254.64,-210.73 Z" fill="#ccc" stroke="none"><title>Mississippi Alley</title></path>
<path d="M236.92,-216.36 L240.14,-215.33 L239.27,-212.09 L239.26,-212.09 L238.57,-209.52 L235.08,-210.64 L30.90,-276.08 L32.73,-281.79 Z" fill="#ccc" stroke="none"><title>Mississippi Alley</title></path>
<path d="M822.74,-172.34 L819.68,-160.22 L774.50,-171.65 L777.84,-183.70 Z" fill="#ccc" stroke="none"><title>Hickory Lane</title></path>
<path d="M678.68,-209.15 L718.78,-198.65 L759.89,-188.25 L756.56,-176.19 L715.64,-186.55 L675.51,-197.06 L673.70,-197.54 L675.31,-203.55 L675.30,-203.55 L676.97,-209.60 Z" fill="#ccc" stroke="none"><title>Hickory Lane</title></path>
<path d="M655.03,-215.40 L651.81,-203.33 L649.54,-203.93 L652.77,-216.00 Z" fill="#ccc" stroke="none"><title>Hickory Lane</title></path>
<path d="M643.00,-218.58 L639.77,-206.51 L611.94,-213.87 L615.14,-225.95 Z" fill="#ccc" stroke="none"><title>Hickory Lane</title></path>
<path d="M777.03,-19.31 L775.36,-12.82 L733.71,-23.55 L734.51,-26.63 L734.52,-26.63 L735.45,-30.02 Z" fill="#ccc" stroke="none"><title>Rutger Lane</title></path>
<path d="M717.53,-34.64 L716.66,-31.49 L715.79,-28.17 L622.08,-52.31 L623.55,-57.84 L624.05,-58.73 Z" fill="#ccc" stroke="none"><title>Rutger Lane</title></path>
<path d="M601.84,-64.45 L600.12,-57.97 L579.47,-63.29 L581.14,-69.78 Z" fill="#ccc" stroke="none"><title>Rutger Lane</title></path>
</svg>