<?xml version="1.0" encoding="UTF-8"?>
<svg id="Layer_1" xmlns="http://www.w3.org/2000/svg" version="1.1" viewBox="0 0 2617 2241">
  <!-- Generator: Adobe Illustrator 29.8.4, SVG Export Plug-In . SVG Version: 2.1.1 Build 6)  -->
  <defs>
    <style>
      .st0 {
        fill: #fff;
      }

      .st1, .st2, .st3 {
        stroke-linecap: round;
      }

      .st1, .st2, .st3, .st4, .st5, .st6, .st7, .st8, .st9, .st10, .st11, .st12, .st13, .st14, .st15, .st16, .st17, .st18, .st19, .st20, .st21, .st22, .st23, .st24, .st25, .st26, .st27 {
        fill: none;
        stroke: #fff;
        stroke-linejoin: round;
      }

      .st1, .st11 {
        stroke-width: 36.4px;
      }

      .st2, .st22 {
        stroke-width: 36.2px;
      }

      .st3, .st20 {
        stroke-width: 25.8px;
      }

      .st4 {
        stroke-width: 33px;
      }

      .st5 {
        stroke-width: 32.4px;
      }

      .st6 {
        stroke-width: 35.6px;
      }

      .st7 {
        stroke-width: 31.6px;
      }

      .st8 {
        stroke-width: 20.2px;
      }

      .st9 {
        stroke-width: 48.6px;
      }

      .st10 {
        stroke-width: 49px;
      }

      .st12 {
        stroke-width: 54.2px;
      }

      .st13 {
        stroke-width: 50.8px;
      }

      .st14 {
        stroke-width: 30.2px;
      }

      .st15 {
        stroke-width: 29.6px;
      }

      .st16 {
        stroke-width: 30.4px;
      }

      .st17 {
        stroke-width: 28px;
      }

      .st18 {
        stroke-width: 28.6px;
      }

      .st19 {
        stroke-width: 25px;
      }

      .st21 {
        stroke-width: 24.4px;
      }

      .st23 {
        stroke-width: 36px;
      }

      .st28 {
        display: none;
        fill: #111;
      }

      .st24 {
        stroke-width: 8px;
      }

      .st25 {
        stroke-width: 5.4px;
      }

      .st26 {
        stroke-width: 13.4px;
      }

      .st27 {
        stroke-width: 12px;
      }
    </style>
  </defs>
  <rect class="st28" x="0" y="0" width="2617" height="2240.9"/>
  <path class="st22" d="M2258.7,534.6c-7.3,27.6-25.2,93.5-32,121.2"/>
  <path class="st5" d="M1979.5,674.8c-62.7-16.8-307.9-82.8-366-98.4"/>
  <path class="st10" d="M1589.9,356.4c8.7,4,38.2,18.2,47,20.4,6.6,1.7,21.9,5.6,28.6,7.4,107.5,28.7,259,69.1,366.6,97.6,12.4,4.6,40.4,5.8,53.6,7"/>
  <path class="st10" d="M2085.7,488.8s-18.6-10-18.6-10c-6.2-2.8-18.8-7.2-25.4-8.6-109.8-30.1-262.6-70.1-372.6-99.6-12-3.3-29.1-7.8-41.2-10.4,0,0-38-3.8-38-3.8"/>
  <path class="st11" d="M1498.5,120.8c-12.1,44.2-40.2,151.5-52.4,197.2"/>
  <path class="st10" d="M1589.9,356.4c-23.4-6-606.6-162.3-655.4-175.2"/>
  <path class="st0" d="M717.2,97.7c-49.8-13.3-128.1-34-176.8-47.1l-9.6,35.7c-26.1,84-169.4,544.4-193.6,623.6l51.8,15.8c23.3-76.5,158.1-509.7,190.5-613.9,42.5,11.3,90.5,24,124.9,33.2,74.4,19.9,151.4,40.4,223.6,59.9l12.8-47.3c-72.3-19.5-149.3-40.1-223.8-59.9Z"/>
  <path class="st4" d="M1032.2,661c-70.5-18-491.8-128-556.8-145.6"/>
  <path class="st5" d="M1086.6,447.8c-60.7-16.6-474.9-126.7-589.6-158.4"/>
  <path class="st4" d="M1564.9,757.2c-132.9-42-380.6-120.3-511-162"/>
  <path class="st14" d="M899.4,1057.2c27.2-82.8,178.2-536.3,185.4-558.2"/>
  <path class="st11" d="M663.2,1019.4c1.1-6.9,3.3-20.1,5.2-26.6,17.4-55.8,179.2-544.6,198.2-603.8"/>
  <path class="st6" d="M820.8,836.8c-20.5-5.6-60.7-16-81.4-21.8-3.5-.4-8.9-1.1-12.4-1.2-7.2.8-254-67.9-333.4-89"/>
  <path class="st24" d="M1087.6,1087.4c4.6-29.6,16.2-61.9,25.2-90.4"/>
  <path class="st24" d="M1112.8,997c5.5-2.5,14.8-8,19-12.3s10.2-12.9,14.9-23.1c16.8-37.3,31.3-88.6,44.5-127.8,5.9-20.8,15.7-50.7,23.4-78.2s8.7-29.5,9.8-41.4-1.3-18.3-11.4-21.6c-11.3-4.1-22,6.8-26.4,16.2s-61.8,186.2-78.2,246,.4,31.8.4,31.8l4,10.4"/>
  <path class="st9" d="M1844.1,1287.6c-42.8-17.5-298.4-111.8-351-131.4-10.6-4.1-28.6-7-39.8-9-89.1-15.5-1049.9-170.1-1155.8-188"/>
  <path class="st27" d="M1876.1,1168.4c-179.9-57.6-441.2-140.6-621-198.4"/>
  <path class="st6" d="M1902.5,1071c-98.4-31.1-601.5-191.4-614.6-195.6"/>
  <path class="st16" d="M1665.5,384.2c-14.2,53.6-184.3,692.8-199.6,741.2-2.4,5.6-9.2,16.7-12.6,21.8"/>
  <path class="st20" d="M2212.5,682.6c-4.7-4.8-8.3-8.6-14.3-10.3-13-3.7-45.9-12.7-64.7-17.9-20.1-5.6-40-11.4-64.7-18.5-6.1-1.7-10.9-3.5-17-3.9-16.6-1.6-27.4,4.9-34.1,20.5-2.1,4.9-3.7,10.1-5.1,15.3-18.1,66.3-40.1,147.3-59.3,212.6"/>
  <path class="st4" d="M2259.9,977.6c-13.1-4.2-673.5-213.6-695-220.4"/>
  <path class="st20" d="M1953.3,880.4c-13.7,54.3-93,347.1-109.2,407.2"/>
  <path class="st8" d="M2377.1,565.2c9.8,30.7,13.3,67.8,7.6,99.2-24.9,136.3-161.2,609.3-193.4,738.6"/>
  <path class="st8" d="M2403,567.6c9.8,30.7,13.3,67.8,7.6,99.2-24.9,136.3-161.2,609.3-193.4,738.6"/>
  <path class="st19" d="M2527.7,1104.6c-52.8-13.2-143.4-36.4-195.6-50.4"/>
  <path class="st18" d="M2237.3,1329.2c14.4,4,40-69.8,45.6-92,14.2-52,113-414,113-414,12.4-45.6,44.7-205.4,17.7-208.7"/>
  <path class="st10" d="M2468.7,589.4c-8.6-2.3-334.3-88-383-100.6"/>
  <path class="st20" d="M2404.3,572c-18.3-67.4-48-153-68.4-220.2"/>
  <path class="st20" d="M2311.7,360.4c4.2,13.1,60.6,188.7,65.4,204.8"/>
  <path class="st26" d="M2446.5,1406.8l-189.4-48.8"/>
  <path class="st9" d="M2424.7,1491.2c-16.4-6.5-194.2-72.6-210-79l-23.4-9.2c-45.9-19.8-102.4-35.2-150.4-49.2-47.2-14.1-117.8-41.2-164-58.6-8.8-3-23.7-5.9-32.8-7.6"/>
  <path class="st22" d="M2148.5,942.2c-26.7,100.6-75.3,275.7-101.4,374.6-2.3,9.6-5,27.1-6.2,37l-1.8,14.6c-13.4,88.5-38,239.4-52.2,327.4"/>
  <path class="st9" d="M1844.1,1287.6s14.8,12.8,14.8,12.8l10.8,6c47.6,18.6,121.3,45.1,169.4,62,43.4,16.6,103.2,39.1,146.6,55.2l23.6,8.8c59.3,23.9,152.1,58.2,212.2,80l151.2,56"/>
  <path class="st23" d="M2511.3,1171.6l-2.6,9.4-62.2,225.8c-2.2,8.4-20.4,78-21.8,84.4l-3.2,21.2c-11.5,71.6-27.6,174.6-39,246.6-65.7-10.2-171.5-27.4-237-38.2"/>
  <path class="st8" d="M2185.7,1423.6c-55.9,184.2-90.5,433.4-117.6,601.4"/>
  <path class="st8" d="M2212.7,1423.6c-55.9,184.2-90.5,433.4-117.6,601.4"/>
  <path class="st22" d="M1986.9,1695.8c-11.9,75.8-28.7,179.1-40.8,254.8"/>
  <path class="st23" d="M2092.3,1713c-15-2.4-278.5-45.4-308-50.4"/>
  <path class="st20" d="M1844.1,1287.6c-18.2,115.8-94.9,593-101.8,634.8"/>
  <path class="st22" d="M1767.9,1763.2c-94.7-15-320.6-51.4-412.8-66.4"/>
  <path class="st17" d="M1585.9,1634.2l43-271.8,3.6-17.2c8.2-28.2,33.3-93.9,42.8-121.4"/>
  <path class="st2" d="M640.4,1307.6c-74.2-12.1-343.4-57.2-350.5-58.3"/>
  <path class="st1" d="M606.2,1514.4c-54.6-8.8-348.7-57.5-350-57.7"/>
  <path class="st11" d="M687.4,1023.2c-1.2,5.1-115.8,703-126.4,764.4"/>
  <path class="st11" d="M473.6,1773.2c-5.4,32.6-19.7,121.7-25,154.4"/>
  <path class="st13" d="M1149.2,1880.2c-51.2-8.1-812.4-129.3-863.4-137.4"/>
  <path class="st7" d="M1149.2,1880.2c-11.4,72-26.9,175.5-38.2,248"/>
  <path class="st16" d="M1288,2205.8c12.5-74.9,32.5-194.1,44.8-269.2.2-8.4-1.8-19.8-4.4-27.8-2-6.4-3.5-16.3-3.8-23,3.4-33.8,25-153.5,30.6-189,24.5-145.1,62.3-385.7,88.6-530.8,2-4.9,6.8-14.2,9.6-18.8"/>
  <path class="st25" d="M910.4,1842.8c-7.9,49.4-23.6,145.1-31.6,194,2,14.3,26.5,19.3,34,7,8.1-48.5,23.8-146.6,32-195.6"/>
  <path class="st25" d="M657.2,2007.1c10.6,1.8,79.7,14.4,89.8,12.6,4.1-4.5,10.2-53.3,14.6-57.4,35.1,1.5,126.5,21.1,160.4,25.4"/>
  <path class="st21" d="M701.4,1809.8c-2.3,14.8-28.6,177.6-31.8,197"/>
  <path class="st15" d="M1486.5,1942.2c-9.1,57.7-24.8,161-33.8,219.2"/>
  <path class="st13" d="M1149.2,1880.2s165.3,26.6,179.2,28.6c5.2,3.8,13.1,10.3,29.1,14.7s99.8,15.8,129.4,20"/>
  <path class="st3" d="M1707.5,2110.4s8.8-6,12.1-22.8,12.9-72.1,12.9-72.1c0,0,.6-5.6.6-7.6-.2-12.4-10-24.1-12.4-26.9"/>
  <path class="st13" d="M2529.7,2105c-28.3-4.7-795.8-131.2-795.8-131.2l-3.6-.6-8.4-10c-4-.5-11.9-1.7-15.8-2.4,0,0-335.3-54.2-347.6-55.4s-24.5,2.5-30.2,3.4"/>
  <path class="st12" d="M133.6,1780c-6.3,10-18.3,31.2-22.8,42-4.2,15.4-16.4,74.4-16.4,74.4-1.9,9.1-5.6,27.5-7.2,36.6"/>
  <path class="st12" d="M125.6,1933l4.8-29.6s9.9-67.6,9.6-76.4c-.9-11.5-4.4-35.5-6.4-47"/>
  <path class="st13" d="M285.8,1742.8c-14.9-4.2-41.3-12.9-56.4-15-12.5-1.9-37-2.2-49.6-2.6-25.9,4-107.6,25.6-134.4,31.6"/>
  <path class="st13" d="M142.6,1733.2c6.8,1.2,34.5,6.7,40.8,6.6,31.7,1.9,70.6,2.8,102.4,3"/>
  <path class="st12" d="M133.6,1780c2.3-11.5,6.9-35.4,9-46.8"/>
  <path class="st12" d="M142.6,1733.2c6-7.8,17.2-21.9,20.8-31,23.5-71,33-174.4,45.2-248.4,20.2-122.1,42.9-262.5,63-384.8,0,0,10.8-55.6,10.8-55.6.6-11.9,2.6-44.3,3-56.2"/>
  <path class="st12" d="M285.4,957.2c-5.7,11.6-26.1,50.5-32.4,62.8-7.8,26.7-20,87.7-24.8,115.6-10.8,61.6-25.6,153.6-35.2,215.8-18.6,107.6-38.8,237.9-55.8,345.4-.2,9,3.9,27.7,5.4,36.4"/>
  <path class="st12" d="M285.4,957.2c24.8-74,54.2-164.7,77.8-239.4"/>
  <path class="st23" d="M1189.6,38c-15.5,57-37.8,140-53.4,197"/>
  <path class="st0" d="M2204.9,660.8l-79.9-22-65.5-18.8-7.1,24.8,65.6,18.8s0,0,.1,0l41.9,11.5s33.4,7.9,36.4,16.2-.4,7.5-.4,7.5c-8.5,30.9-17.9,65.9-27.9,103-12.8,47.2-25.9,95.9-36.9,135.6l34.9,9.6c11-39.8,24.2-88.6,37-135.8,10.1-37.5,20.1-72.8,28.2-104s-5-40-26.2-46.4Z"/>
</svg>