<svg xmlns="http://www.w3.org/2000/svg" viewBox="-497.7 -732.5 1308.55 1120.5" width="2617" height="2241">
<!-- Lot/block polygons from block_shapes.json — generated 2026-02-10T21:51:27.088Z -->
<rect x="-497.7" y="-732.5" width="1308.55" height="1120.5" fill="#111"/>
<path d="M-48.81,200.77 L-46.79,202.06 L-46.32,204.21 L-54.43,253.99 L-55.73,256.01 L-57.89,256.47 L-59.07,256.27 L-114.31,246.93 L-117.78,247.47 L-119.37,250.54 L-124.24,273.80 L-125.63,275.76 L-127.73,276.14 L-153.80,271.25 L-155.79,269.90 L-156.21,267.82 L-143.43,188.84 L-142.13,186.82 L-140.00,186.36 Z" fill="#fff" stroke="none"><title>blk-0000</title></path>
<path d="M-31.69,203.45 L-29.67,204.73 L-29.20,206.89 L-37.32,256.86 L-38.62,258.88 L-40.78,259.34 L-49.32,257.89 L-51.33,256.57 L-51.78,254.45 L-43.66,204.59 L-42.36,202.57 L-40.23,202.11 Z" fill="#fff" stroke="none"><title>blk-0001</title></path>
<path d="M474.53,172.26 L476.55,173.55 L477.02,175.70 L471.17,212.16 L464.66,252.57 L463.37,254.58 L461.20,255.05 L421.33,248.25 L380.85,243.07 L378.79,241.84 L378.27,239.61 L379.87,229.73 L384.87,198.82 L390.73,161.99 L392.03,159.97 L394.16,159.51 Z" fill="#fff" stroke="none"><title>blk-0002</title></path>
<path d="M189.93,126.73 L193.66,127.33 L236.66,134.23 L276.32,140.62 L278.34,141.92 L278.80,144.05 L271.66,189.19 L285.49,191.38 L292.62,146.29 L293.91,144.27 L296.06,143.80 L374.62,156.45 L375.45,156.57 L377.49,157.83 L377.98,160.01 L372.13,196.78 L367.13,227.68 L366.16,233.71 L364.87,235.73 L362.80,236.21 L361.11,235.98 L361.01,235.97 L357.47,235.37 L248.79,217.96 L220.54,213.50 L220.50,213.51 L182.98,207.56 L176.96,207.26 L176.49,207.34 L174.16,206.77 L173.01,203.92 L175.10,190.48 L175.10,190.44 L185.38,129.01 L186.69,127.01 L188.82,126.55 Z" fill="#fff" stroke="none"><title>blk-0003</title></path>
<path d="M403.23,109.38 L482.55,122.35 L484.56,123.66 L485.02,125.78 L480.84,151.89 L479.55,153.91 L477.41,154.38 L397.11,141.65 L395.09,140.36 L394.62,138.21 L398.94,111.72 L400.24,109.70 L402.39,109.24 Z" fill="#fff" stroke="none"><title>blk-0004</title></path>
<path d="M-258.08,23.58 L-208.45,31.68 L-208.02,31.75 L-206.01,33.05 L-205.55,35.20 L-218.48,113.81 L-223.53,144.31 L-224.83,146.32 L-226.97,146.78 L-258.88,141.56 L-281.62,137.97 L-281.64,137.97 L-331.66,129.76 L-351.85,126.51 L-352.20,126.43 L-367.15,122.06 L-367.19,122.05 L-371.76,120.65 L-380.99,118.84 L-387.07,118.14 L-397.47,117.71 L-399.63,116.66 L-400.27,114.01 L-393.57,85.91 L-387.39,46.85 L-387.40,46.85 L-381.44,6.28 L-380.17,4.25 L-377.98,3.76 Z" fill="#fff" stroke="none"><title>blk-0005</title></path>
<path d="M383.74,106.14 L385.75,107.45 L386.21,109.58 L381.88,136.22 L380.58,138.24 L378.50,138.71 L377.44,138.56 L377.38,138.55 L298.87,125.91 L296.86,124.62 L296.39,122.48 L300.69,95.36 L301.98,93.34 L304.14,92.87 Z" fill="#fff" stroke="none"><title>blk-0006</title></path>
<path d="M556.84,-33.01 L556.89,-32.97 L556.90,-32.99 L566.64,-29.97 L566.79,-29.91 L578.04,-25.76 L578.09,-25.74 L583.97,-23.44 L585.67,-21.75 L585.50,-19.18 L562.39,22.08 L574.85,29.06 L599.36,-14.66 L601.27,-16.11 L603.07,-15.98 L612.84,-12.16 L700.57,20.71 L702.29,22.38 L702.43,24.24 L683.74,100.26 L688.86,101.52 L690.77,102.97 L691.11,104.89 L686.58,133.77 L685.30,135.80 L683.15,136.27 L634.35,128.45 L585.69,120.54 L585.63,120.53 L582.83,120.03 L576.49,119.01 L549.95,115.12 L549.90,115.11 L509.14,108.43 L507.13,107.13 L506.67,104.99 L512.44,69.34 L526.86,-20.95 L528.31,-30.88 L528.34,-31.03 L529.52,-37.07 L529.55,-37.30 L530.78,-39.36 L533.36,-39.81 Z" fill="#fff" stroke="none"><title>blk-0007</title></path>
<path d="M237.05,-145.12 L237.20,-145.09 L240.87,-144.23 L241.13,-144.16 L244.84,-142.94 L244.94,-142.90 L280.69,-129.70 L318.29,-115.80 L326.56,-112.73 L328.29,-111.07 L328.34,-108.90 L314.58,-70.68 L311.81,-61.65 L309.90,-52.49 L290.63,69.30 L289.34,71.32 L288.54,71.49 L285.42,90.23 L286.43,90.90 L286.88,93.01 L282.57,120.24 L281.28,122.26 L279.13,122.73 L239.53,116.36 L194.00,109.05 L192.89,108.87 L192.88,108.87 L191.79,108.69 L189.78,107.39 L189.32,105.24 L201.00,34.54 L223.90,-103.66 L230.42,-143.22 L231.72,-145.23 L233.91,-145.68 Z" fill="#fff" stroke="none"><title>blk-0008</title></path>
<path d="M436.75,-73.42 L436.98,-73.35 L467.92,-61.69 L467.92,-61.68 L504.71,-48.48 L508.28,-47.40 L508.30,-47.40 L510.08,-46.85 L511.89,-45.28 L512.17,-43.61 L512.05,-42.65 L512.02,-42.45 L511.84,-41.54 L511.66,-40.07 L511.62,-39.86 L510.49,-34.11 L509.07,-24.41 L509.06,-24.37 L494.00,69.92 L494.01,69.95 L488.80,102.10 L487.50,104.12 L485.36,104.58 L406.18,91.62 L405.21,91.46 L403.19,90.16 L402.73,88.03 L408.47,51.68 L410.98,35.43 L410.97,35.41 L422.37,-34.88 L424.96,-51.12 L424.96,-51.13 L426.27,-58.98 L428.36,-72.32 L429.64,-74.35 L432.15,-74.74 Z" fill="#fff" stroke="none"><title>blk-0009</title></path>
<path d="M347.24,-105.02 L397.50,-86.24 L397.51,-86.24 L409.04,-81.88 L409.18,-81.82 L412.68,-80.30 L414.11,-79.73 L415.80,-78.02 L415.96,-76.47 L413.54,-61.09 L413.54,-61.07 L412.23,-53.23 L409.63,-36.93 L398.23,33.40 L395.18,53.18 L395.18,53.19 L390.01,85.86 L388.72,87.88 L386.56,88.35 L306.91,75.07 L304.90,73.76 L304.44,71.64 L323.66,-49.85 L323.68,-49.99 L325.36,-58.03 L325.43,-58.30 L327.79,-66.03 L327.84,-66.17 L341.44,-103.95 L343.08,-105.69 L345.31,-105.74 Z" fill="#fff" stroke="none"><title>blk-0010</title></path>
<path d="M-240.97,-79.97 L-190.98,-71.73 L-188.97,-70.43 L-188.51,-68.28 L-195.18,-27.69 L-201.66,11.32 L-202.96,13.33 L-205.10,13.79 L-205.53,13.72 L-255.12,5.62 L-375.21,-14.23 L-377.23,-15.53 L-377.69,-17.67 L-376.43,-25.38 L-372.03,-51.96 L-370.93,-58.58 L-364.60,-97.34 L-363.30,-99.36 L-361.15,-99.82 Z" fill="#fff" stroke="none"><title>blk-0011</title></path>
<path d="M643.49,-231.50 L645.29,-229.92 L645.48,-227.86 L643.77,-221.47 L642.27,-219.60 L640.10,-219.35 L615.14,-225.95 L611.94,-213.87 L636.86,-207.28 L638.74,-205.79 L638.99,-203.60 L611.52,-100.90 L602.60,-67.32 L601.10,-65.45 L598.95,-65.19 L581.14,-69.77 L579.48,-63.28 L597.19,-58.71 L599.08,-57.24 L599.34,-55.04 L597.43,-47.85 L595.94,-45.97 L593.44,-45.83 L586.70,-48.47 L574.48,-52.98 L563.96,-56.24 L538.65,-63.58 L537.34,-63.96 L537.32,-63.97 L535.95,-64.38 L534.12,-65.92 L533.87,-67.84 L534.71,-72.00 L534.74,-72.14 L535.83,-76.49 L535.84,-76.54 L542.73,-102.11 L542.74,-102.13 L543.62,-105.29 L554.13,-143.93 L582.31,-247.62 L583.81,-249.49 L586.11,-249.69 Z" fill="#fff" stroke="none"><title>blk-0012</title></path>
<path d="M525.41,-118.31 L527.22,-116.74 L527.41,-114.67 L526.20,-110.19 L526.19,-110.16 L525.27,-106.89 L518.34,-81.15 L517.05,-76.03 L516.58,-73.70 L515.20,-71.74 L512.75,-71.44 L512.43,-71.54 L512.31,-71.58 L476.25,-84.52 L476.21,-84.57 L476.20,-84.54 L444.52,-96.48 L436.86,-98.67 L435.01,-100.19 L434.78,-102.32 L444.91,-140.44 L446.40,-142.32 L448.71,-142.53 Z" fill="#fff" stroke="none"><title>blk-0013</title></path>
<path d="M-309.10,-233.91 L-309.09,-233.91 L-250.57,-224.01 L-170.33,-211.10 L-168.32,-209.81 L-166.43,-207.00 L-165.96,-204.84 L-184.53,-92.06 L-185.83,-90.05 L-187.98,-89.59 L-238.03,-97.83 L-358.26,-117.68 L-360.27,-118.98 L-360.73,-121.12 L-354.33,-160.50 L-348.53,-195.80 L-348.51,-195.89 L-343.03,-224.05 L-342.36,-236.05 L-341.28,-238.19 L-338.87,-238.84 Z" fill="#fff" stroke="none"><title>blk-0014</title></path>
<path d="M393.59,-160.14 L415.99,-152.94 L427.59,-149.24 L427.61,-149.23 L430.70,-148.22 L432.49,-146.63 L432.67,-144.60 L422.48,-106.29 L420.99,-104.41 L418.42,-104.30 L418.33,-104.34 L418.33,-104.33 L406.08,-108.97 L357.72,-127.04 L357.71,-127.05 L353.43,-128.65 L351.71,-130.32 L351.65,-132.47 L363.80,-166.60 L365.44,-168.35 L367.54,-168.45 Z" fill="#fff" stroke="none"><title>blk-0015</title></path>
<path d="M537.18,-161.62 L539.00,-160.06 L539.19,-157.97 L536.67,-148.68 L530.57,-126.24 L529.07,-124.37 L526.77,-124.17 L450.09,-148.38 L448.28,-149.95 L448.09,-152.02 L456.61,-183.47 L458.11,-185.35 L460.40,-185.55 Z" fill="#fff" stroke="none"><title>blk-0016</title></path>
<path d="M348.46,-174.53 L350.26,-172.95 L350.38,-170.66 L338.56,-137.43 L336.92,-135.68 L334.69,-135.63 L326.72,-138.59 L289.11,-152.50 L252.95,-165.86 L247.56,-167.62 L246.28,-167.91 L244.35,-169.33 L244.05,-171.61 L252.26,-201.92 L253.76,-203.80 L256.07,-204.00 Z" fill="#fff" stroke="none"><title>blk-0017</title></path>
<path d="M442.36,-191.19 L444.17,-189.61 L444.35,-187.54 L435.84,-156.17 L434.33,-154.30 L432.01,-154.11 L429.43,-154.95 L417.81,-158.66 L395.41,-165.86 L369.74,-174.05 L367.94,-175.63 L367.82,-177.92 L378.69,-208.48 L380.33,-210.23 L382.43,-210.33 Z" fill="#fff" stroke="none"><title>blk-0018</title></path>
<path d="M102.32,-403.03 L123.92,-396.23 L272.61,-349.05 L274.41,-347.47 L274.60,-345.41 L264.75,-308.73 L264.74,-308.73 L255.38,-272.68 L253.90,-270.79 L251.57,-270.57 L45.25,-336.36 L39.85,-319.40 L247.31,-253.25 L249.11,-251.67 L249.30,-249.62 L240.95,-218.38 L239.45,-216.50 L237.14,-216.29 L236.92,-216.36 L32.74,-281.79 L30.91,-276.08 L235.08,-210.64 L235.08,-210.63 L235.82,-210.40 L237.63,-208.82 L237.82,-206.76 L229.57,-176.29 L229.49,-176.03 L228.67,-173.80 L227.01,-172.07 L225.32,-171.89 L217.57,-173.28 L104.94,-191.69 L53.81,-199.87 L51.79,-201.16 L51.40,-203.67 L53.90,-212.26 L53.91,-212.31 L57.40,-223.58 L57.42,-223.57 L57.41,-223.62 L61.22,-235.28 L57.42,-236.52 L53.59,-224.83 L53.60,-224.83 L50.08,-213.45 L47.21,-203.58 L45.68,-201.74 L43.86,-201.46 L41.11,-201.90 L-12.27,-210.40 L-33.07,-213.75 L-35.09,-215.04 L-35.45,-217.65 L-23.26,-254.67 L-23.25,-254.69 L-13.95,-282.32 L-12.34,-284.09 L-10.33,-284.26 L15.58,-277.33 L20.18,-294.51 L-4.28,-301.06 L-6.15,-302.56 L-6.34,-304.92 L22.20,-389.65 L23.46,-391.03 L33.61,-421.67 L35.21,-423.46 L37.37,-423.59 Z" fill="#fff" stroke="none"><title>blk-0019</title></path>
<path d="M525.01,-269.04 L563.10,-256.97 L564.90,-255.39 L565.09,-253.32 L545.43,-180.95 L543.92,-179.08 L541.64,-178.88 L464.90,-202.81 L463.08,-204.38 L462.90,-206.47 L470.54,-234.23 L472.94,-243.27 L482.32,-279.28 L483.80,-281.16 L486.13,-281.38 Z" fill="#fff" stroke="none"><title>blk-0020</title></path>
<path d="M294.42,-238.32 L323.60,-229.12 L363.36,-216.42 L365.16,-214.84 L365.28,-212.55 L354.40,-181.98 L352.76,-180.23 L350.66,-180.13 L257.37,-209.87 L255.57,-211.45 L255.38,-213.50 L263.74,-244.78 L265.24,-246.66 L267.55,-246.87 Z" fill="#fff" stroke="none"><title>blk-0021</title></path>
<path d="M467.02,-287.40 L468.01,-287.11 L469.86,-285.58 L470.08,-283.47 L460.47,-246.57 L460.47,-246.56 L458.09,-237.64 L458.08,-237.61 L450.63,-210.51 L449.13,-208.65 L446.83,-208.45 L328.99,-246.08 L299.77,-255.29 L271.82,-264.19 L270.01,-265.76 L269.82,-267.80 L279.43,-304.80 L279.45,-304.83 L279.44,-304.83 L289.05,-340.61 L290.55,-342.48 L292.86,-342.69 Z" fill="#fff" stroke="none"><title>blk-0022</title></path>
<path d="M-104.90,-309.60 L-30.75,-289.73 L-28.87,-288.24 L-28.68,-285.87 L-37.57,-259.48 L-50.82,-219.21 L-52.42,-217.42 L-54.14,-217.19 L-149.87,-232.50 L-151.45,-232.75 L-153.47,-234.04 L-153.85,-236.58 L-153.56,-237.54 L-153.54,-237.59 L-143.05,-269.97 L-141.28,-275.39 L-141.26,-275.42 L-141.27,-275.42 L-134.16,-296.73 L-128.76,-313.02 L-127.15,-314.80 L-125.14,-314.97 Z" fill="#fff" stroke="none"><title>blk-0023</title></path>
<path d="M-299.19,-359.90 L-217.74,-338.21 L-217.72,-338.21 L-214.44,-337.32 L-170.03,-325.22 L-149.10,-319.58 L-147.23,-318.07 L-147.04,-315.74 L-151.43,-302.48 L-158.54,-281.15 L-160.35,-275.62 L-170.89,-243.09 L-172.24,-238.65 L-173.80,-236.82 L-175.59,-236.56 L-246.65,-248.00 L-246.67,-248.00 L-305.09,-257.88 L-334.15,-262.70 L-336.16,-264.01 L-336.50,-266.60 L-328.63,-290.46 L-319.99,-316.67 L-316.79,-326.87 L-316.79,-326.88 L-306.56,-358.92 L-304.98,-360.72 L-302.91,-360.91 Z" fill="#fff" stroke="none"><title>blk-0024</title></path>
<path d="M590.96,-360.15 L592.83,-358.65 L593.07,-356.46 L585.27,-327.77 L580.76,-311.06 L576.07,-293.68 L570.98,-275.05 L569.48,-273.18 L567.18,-272.98 L530.00,-284.76 L490.26,-297.37 L488.46,-298.95 L488.28,-301.05 L499.91,-342.17 L499.92,-342.17 L504.12,-357.29 L504.11,-357.29 L509.95,-378.82 L511.45,-380.69 L513.63,-380.93 Z" fill="#fff" stroke="none"><title>blk-0025</title></path>
<path d="M348.59,-425.28 L495.37,-385.83 L497.24,-384.33 L497.49,-382.15 L491.30,-359.29 L491.29,-359.26 L488.11,-347.85 L488.11,-347.84 L476.02,-305.11 L474.50,-303.26 L472.30,-303.05 L471.92,-303.16 L471.84,-303.18 L296.98,-358.68 L295.18,-360.26 L294.99,-362.32 L304.04,-395.73 L313.59,-431.62 L315.08,-433.50 L317.27,-433.75 Z" fill="#fff" stroke="none"><title>blk-0026</title></path>
<path d="M-71.21,-416.10 L-23.03,-404.00 L5.27,-396.82 L7.17,-395.35 L7.38,-392.95 L-21.07,-308.48 L-22.68,-306.71 L-24.69,-306.54 L-100.31,-326.80 L-119.18,-331.80 L-121.05,-333.30 L-121.25,-335.64 L-93.74,-418.89 L-92.14,-420.68 L-90.16,-420.86 Z" fill="#fff" stroke="none"><title>blk-0027</title></path>
<path d="M-266.75,-468.68 L-266.54,-468.01 L-146.43,-435.73 L-113.57,-426.98 L-111.70,-425.48 L-111.50,-423.14 L-139.52,-338.37 L-141.12,-336.58 L-143.15,-336.41 L-163.98,-342.01 L-163.99,-342.02 L-209.76,-354.49 L-213.07,-355.39 L-294.60,-377.10 L-297.38,-377.85 L-299.26,-379.34 L-299.48,-381.63 L-296.14,-392.54 L-296.14,-392.56 L-291.75,-406.60 L-286.66,-423.17 L-286.66,-423.18 L-273.67,-464.85 L-272.47,-468.68 L-270.90,-470.50 L-268.51,-470.58 Z" fill="#fff" stroke="none"><title>blk-0028</title></path>
<path d="M85.02,-598.37 L88.04,-597.57 L124.25,-587.89 L124.28,-587.88 L136.28,-584.58 L173.75,-574.56 L201.02,-567.36 L201.03,-567.35 L210.59,-564.74 L212.46,-563.24 L212.70,-561.08 L201.22,-517.72 L218.82,-513.06 L230.27,-556.34 L231.76,-558.22 L233.94,-558.47 L282.27,-545.56 L292.87,-542.80 L293.38,-542.62 L309.93,-534.96 L317.20,-532.39 L321.63,-531.25 L323.52,-529.77 L323.78,-527.56 L315.20,-495.91 L315.19,-495.87 L313.87,-491.20 L304.64,-456.94 L303.14,-455.07 L300.97,-454.82 L211.74,-478.42 L207.60,-462.76 L296.77,-439.18 L298.65,-437.69 L298.90,-435.51 L289.96,-401.92 L289.96,-401.91 L280.54,-367.13 L279.04,-365.25 L276.73,-365.05 L128.89,-411.97 L107.29,-418.77 L41.76,-439.52 L39.96,-441.10 L39.81,-443.27 L41.89,-449.96 L41.90,-449.96 L41.89,-450.00 L56.17,-493.84 L57.76,-495.63 L59.89,-495.78 L146.66,-469.37 L151.38,-484.87 L65.03,-511.15 L63.20,-512.71 L63.05,-514.95 L85.19,-582.92 L74.88,-586.28 L73.09,-587.87 L72.91,-589.92 L75.09,-597.95 L76.60,-599.82 L78.77,-600.06 Z" fill="#fff" stroke="none"><title>blk-0029</title></path>
<path d="M380.90,-515.45 L380.90,-515.44 L392.42,-512.46 L392.44,-512.46 L476.44,-490.06 L476.46,-490.05 L487.42,-487.06 L500.93,-483.55 L501.02,-483.53 L503.59,-482.78 L514.92,-479.85 L515.01,-479.78 L515.02,-479.82 L518.25,-478.87 L526.49,-477.34 L542.88,-476.00 L543.40,-475.91 L561.71,-471.14 L561.72,-471.14 L585.75,-464.76 L616.89,-456.47 L618.77,-454.98 L619.02,-452.80 L609.64,-417.55 L607.30,-408.25 L607.04,-407.58 L605.36,-404.41 L603.48,-402.91 L601.91,-402.92 L564.81,-413.12 L564.78,-413.13 L531.42,-422.69 L524.08,-423.18 L517.71,-422.31 L511.54,-418.61 L507.45,-413.30 L504.80,-408.37 L503.34,-403.48 L501.80,-401.65 L499.69,-401.44 L355.04,-440.31 L355.02,-440.33 L321.46,-449.39 L319.59,-450.89 L319.34,-453.07 L328.53,-487.19 L328.54,-487.22 L329.82,-491.78 L338.49,-523.71 L340.00,-525.58 L342.17,-525.82 Z" fill="#fff" stroke="none"><title>blk-0030</title></path>
<path d="M-8.09,-514.57 L39.58,-501.91 L41.46,-500.42 L41.66,-498.08 L27.50,-454.61 L27.51,-454.61 L25.49,-448.10 L24.68,-447.16 L13.87,-414.53 L12.27,-412.74 L10.28,-412.56 L-18.98,-420.00 L-67.20,-432.10 L-84.65,-436.48 L-86.54,-437.95 L-86.76,-440.32 L-73.25,-481.57 L-58.95,-525.22 L-57.36,-527.01 L-55.33,-527.19 Z" fill="#fff" stroke="none"><title>blk-0031</title></path>
<path d="M-224.44,-572.59 L-176.84,-559.59 L-141.72,-549.98 L-78.76,-533.42 L-76.87,-531.94 L-76.67,-529.59 L-90.55,-487.23 L-104.52,-444.57 L-106.11,-442.78 L-108.14,-442.60 L-142.16,-451.67 L-251.86,-481.16 L-253.96,-483.17 L-260.63,-504.69 L-260.62,-506.48 L-259.36,-510.47 L-259.37,-510.47 L-253.17,-530.45 L-246.01,-553.35 L-246.00,-553.37 L-239.48,-573.74 L-237.89,-575.55 L-235.83,-575.72 Z" fill="#fff" stroke="none"><title>blk-0032</title></path>
<path d="M-199.73,-674.58 L-199.71,-674.58 L-180.89,-669.47 L-145.05,-659.84 L-141.15,-658.86 L-110.75,-650.76 L-73.99,-640.97 L-33.57,-630.07 L-18.14,-625.96 L4.13,-620.07 L55.58,-606.29 L57.46,-604.80 L57.70,-602.60 L45.96,-559.43 L57.34,-556.34 L59.21,-554.84 L59.40,-552.52 L48.56,-519.22 L46.97,-517.43 L44.94,-517.25 L-3.91,-530.23 L-50.10,-542.57 L-51.98,-544.06 L-52.19,-546.38 L-46.91,-562.97 L-64.25,-568.49 L-69.89,-550.78 L-71.47,-548.98 L-73.51,-548.79 L-137.54,-565.63 L-137.57,-565.64 L-172.57,-575.21 L-217.94,-587.60 L-217.96,-587.62 L-230.54,-591.07 L-232.41,-592.57 L-232.60,-594.90 L-231.37,-598.63 L-220.79,-633.30 L-220.78,-633.33 L-218.35,-641.00 L-208.32,-673.88 L-206.76,-675.70 L-204.68,-675.90 Z" fill="#fff" stroke="none"><title>blk-0033</title></path>
<path d="M417.55,273.37 L417.67,273.39 L442.97,277.70 L444.98,279.02 L445.47,280.66 L445.47,499.25 L444.51,501.45 L441.49,502.08 L382.09,481.49 L380.32,479.87 L380.07,478.66 L380.07,271.99 L381.03,269.79 L383.45,269.01 Z" fill="#fff" stroke="none"><title>blk-0034</title></path>
<path d="M479.80,283.93 L522.07,291.12 L522.10,291.13 L525.90,291.81 L525.90,291.80 L537.73,293.83 L539.73,295.15 L540.22,296.79 L540.22,508.52 L539.26,510.72 L537.22,511.52 L469.23,511.52 L468.25,511.36 L460.39,508.64 L458.63,507.01 L458.37,505.80 L458.37,283.88 L459.33,281.68 L461.87,280.92 Z" fill="#fff" stroke="none"><title>blk-0035</title></path>
<path d="M539.42,141.70 L540.22,143.74 L540.22,264.93 L539.26,267.13 L536.71,267.89 L530.24,266.78 L530.24,266.77 L530.21,266.78 L526.41,266.09 L484.96,259.04 L482.95,257.72 L482.50,255.60 L489.04,215.03 L497.04,165.23 L500.55,143.26 L501.84,141.24 L503.51,140.74 L537.22,140.74 Z" fill="#fff" stroke="none"><title>blk-0036</title></path>
<path d="M-177.35,269.49 L-175.38,270.85 L-174.92,272.44 L-174.92,297.00 L-175.88,299.20 L-177.92,300.00 L-227.00,300.00 L-229.20,299.04 L-230.00,297.00 L-230.00,263.01 L-229.04,260.81 L-226.43,260.06 Z" fill="#fff" stroke="none"><title>blk-0037</title></path>
<path d="M-219.22,173.83 L-177.45,180.44 L-175.43,181.73 L-174.92,183.40 L-174.92,263.57 L-175.88,265.77 L-178.49,266.52 L-227.57,257.09 L-229.54,255.73 L-230.00,254.14 L-230.00,175.57 L-229.04,173.37 L-226.50,172.61 Z" fill="#fff" stroke="none"><title>blk-0038</title></path>
<path d="M17.84,211.25 L59.14,217.69 L61.17,218.97 L61.68,220.65 L61.68,254.11 L61.65,254.56 L59.69,267.39 L58.09,277.69 L45.28,361.04 L44.00,363.07 L41.33,363.42 L-139.98,300.60 L-143.07,300.50 L-145.24,299.47 L-145.98,297.50 L-145.98,279.09 L-145.02,276.89 L-142.43,276.14 L-126.19,279.18 L-123.35,278.61 L-122.04,276.42 L-116.97,252.15 L-115.58,250.19 L-113.53,249.80 L-59.52,258.93 L-58.31,259.13 L-56.30,260.43 L-55.84,262.58 L-59.69,286.01 L-58.36,289.75 L-55.16,292.95 L-46.20,294.50 L-42.58,292.81 L-40.02,290.02 L-36.08,265.94 L-34.78,263.92 L-32.62,263.46 L38.60,275.54 L39.05,272.87 L-32.21,260.79 L-34.22,259.48 L-34.67,257.35 L-26.54,207.34 L-25.24,205.32 L-23.12,204.86 Z" fill="#fff" stroke="none"><title>blk-0039</title></path>
<path d="M133.89,229.64 L153.34,232.75 L153.34,232.74 L158.35,233.50 L160.38,234.78 L160.87,236.89 L160.72,237.96 L160.71,238.04 L150.70,297.46 L141.30,354.45 L141.30,354.46 L138.33,371.93 L137.01,373.94 L135.37,374.43 L80.48,374.43 L78.28,373.47 L77.48,371.43 L77.48,255.84 L77.51,255.39 L82.21,224.60 L82.24,224.42 L83.50,222.38 L85.69,221.88 Z" fill="#fff" stroke="none"><title>blk-0040</title></path>
<path d="M180.20,232.85 L180.50,232.89 L220.02,239.14 L220.04,239.14 L220.65,239.24 L222.66,240.54 L223.16,242.20 L223.16,335.30 L223.13,335.76 L217.57,371.89 L216.28,373.91 L214.60,374.43 L156.89,374.43 L154.69,373.47 L153.93,370.93 L156.30,356.96 L166.28,296.45 L166.28,296.44 L175.71,240.43 L176.32,236.19 L176.31,235.92 L177.19,233.69 L179.48,232.81 Z" fill="#fff" stroke="none"><title>blk-0041</title></path>
<path d="M353.22,260.42 L353.25,260.42 L355.63,260.82 L357.43,261.85 L360.23,265.19 L360.84,266.39 L362.05,271.21 L362.13,271.70 L362.22,272.80 L362.23,273.15 L362.19,274.27 L362.15,274.68 L356.02,309.79 L355.96,310.03 L354.84,314.28 L354.45,315.16 L353.98,315.88 L353.40,316.54 L331.70,334.77 L340.00,344.65 L363.47,324.93 L366.68,320.05 L368.59,312.77 L370.22,303.41 L371.55,301.41 L373.91,301.02 L375.81,302.49 L376.18,303.93 L376.18,371.43 L375.22,373.63 L373.18,374.43 L250.70,374.43 L248.50,373.47 L247.70,371.43 L247.70,273.63 L247.73,273.17 L251.61,247.96 L251.61,247.95 L251.73,247.19 L253.02,245.17 L255.16,244.70 Z" fill="#fff" stroke="none"><title>blk-0042</title></path>
<path d="M-140.82,-200.09 L196.78,-145.41 L196.78,-145.41 L197.54,-145.21 L198.24,-144.86 L198.87,-144.39 L199.38,-143.80 L199.78,-143.12 L200.03,-142.38 L200.14,-141.60 L200.09,-140.82 L200.09,-140.82 L145.41,196.78 L145.41,196.78 L145.21,197.54 L144.86,198.24 L144.39,198.87 L143.80,199.38 L143.12,199.78 L142.38,200.03 L141.60,200.14 L140.82,200.09 L140.82,200.09 L-196.78,145.41 L-196.78,145.41 L-197.54,145.21 L-198.24,144.86 L-198.87,144.39 L-199.38,143.80 L-199.78,143.12 L-200.03,142.38 L-200.14,141.60 L-200.09,140.82 L-200.09,140.82 L-145.41,-196.78 L-145.41,-196.78 L-145.21,-197.54 L-144.86,-198.24 L-144.39,-198.87 L-143.80,-199.38 L-143.12,-199.78 L-142.38,-200.03 L-141.60,-200.14 L-140.82,-200.09 Z" fill="#2a5a2a" stroke="none"><title>Park</title></path>
</svg>