<svg xmlns="http://www.w3.org/2000/svg" width="600" height="600" viewBox="0 0 600 600"><rect width="600" height="600" fill="#1a2530"/><path d="M-2228.3,-1921.5L-2238.7,-1919.9L-2248.7,-1916.9L-2258.3,-1912.7L-2267.2,-1907.2L-2275.4,-1900.6L-2282.6,-1893.0L-2288.8,-1884.6L-2293.8,-1875.4L-2297.6,-1865.6L-2300.0,-1855.4L-2547.2,-431.5L-2548.3,-421.0L-2548.1,-410.5L-2546.4,-400.1L-2543.4,-390.1L-2539.2,-380.5L-2533.7,-371.5L-2527.0,-363.3L-2519.4,-356.1L-2510.9,-349.9L-2501.7,-344.9L-2491.8,-341.2L-2481.6,-338.7L43.1,88.3L56.1,91.5L127.0,114.3L137.7,116.9L148.7,118.1L159.7,117.7L170.6,115.9L181.1,112.5L191.1,107.7L200.3,101.6L216.5,98.3L223.6,95.5L239.0,90.3L246.4,88.3L262.3,84.9L269.9,83.7L286.1,82.0L293.8,81.6L310.2,81.7L317.9,82.2L334.3,84.1L342.1,85.5L358.3,89.3L366.0,91.6L382.0,97.3L389.4,100.5L404.9,108.1L412.0,112.1L426.4,121.5L433.0,126.3L446.0,137.0L451.9,142.5L463.5,154.5L468.6,160.5L478.7,173.5L483.1,180.0L491.5,194.0L495.2,200.8L502.0,215.6L504.8,222.8L510.0,238.1L512.0,245.5L515.5,261.4L516.7,268.9L518.4,285.1L518.8,292.9L518.7,309.2L518.2,317.0L516.3,333.3L514.9,341.1L511.2,357.3L508.9,365.1L503.2,381.0L500.0,388.4L492.4,403.9L488.3,411.0L479.0,425.5L474.2,432.0L463.4,445.1L457.9,451.0L446.0,462.6L440.0,467.7L427.0,477.7L420.4,482.2L406.5,490.6L399.6,494.2L384.8,501.0L377.7,503.9L362.4,509.0L355.0,511.0L339.2,514.5L331.5,515.7L315.3,517.4L307.6,517.8L291.3,517.7L283.5,517.2L267.2,515.3L259.3,514.0L243.1,510.2L235.3,507.9L219.4,502.2L212.0,499.1L196.5,491.4L189.5,487.4L175.0,478.0L168.5,473.3L155.4,462.5L149.4,457.0L137.9,445.0L132.7,439.0L122.7,426.0L118.3,419.5L109.8,405.5L106.2,398.7L99.3,383.9L96.5,376.9L91.3,361.5L82.2,355.0L81.6,344.9L79.7,335.0L76.6,325.4L72.3,316.2L66.9,307.7L60.5,299.9L53.1,293.0L44.9,287.0L36.1,282.2L26.6,278.5L5.2,271.5L-2683.9,-113.7L-2682.8,-124.2L-2683.1,-134.7L-2684.8,-145.0L-2687.8,-155.1L-2692.1,-164.6L-2697.6,-173.6L-2704.3,-181.7L-2711.9,-188.9L-2720.4,-195.0L-2729.6,-200.0L-2739.4,-203.8L-2749.6,-206.2L-4232.6,-456.2L-4243.1,-457.2L-4253.6,-456.9L-4264.0,-455.2L-4274.1,-452.2L-4283.7,-447.9L-4292.6,-442.3L-4300.8,-435.6L-4308.0,-427.9L-4314.1,-419.4L-4319.0,-410.1L-4322.7,-400.2L-4325.1,-389.9L-4457.2,426.9L-4464.2,448.1L-4484.0,471.6L-4568.9,536.6L-4588.6,547.2L-4612.3,551.2L-4688.4,550.6L-4717.9,543.9L-4779.2,515.1L-4797.6,502.4L-4806.1,500.0L-4810.4,490.6L-4815.8,481.8L-4822.3,473.9L-4829.7,466.8L-4838.0,460.7L-4847.1,455.8L-4856.6,452.0L-4866.6,449.5L-4876.8,448.3L-5078.9,437.5L-5078.8,437.2L-5092.8,435.8L-5111.1,430.2L-5128.0,421.2L-5142.8,409.0L-5155.0,394.2L-5164.0,377.3L-5169.6,359.0L-5171.5,339.9L-5169.6,320.8L-5164.0,302.5L-5155.0,285.6L-5142.8,270.8L-5128.0,258.6L-5111.1,249.6L-5092.8,244.0L-5073.7,242.1L-5068.5,242.6L-5068.5,242.3L-4912.8,250.5L-4902.2,250.4L-4891.6,248.8L-4881.4,245.9L-4871.6,241.6L-4862.5,236.0L-4854.2,229.3L-4846.8,221.6L-4840.6,212.9L-4835.6,203.5L-4831.8,193.5L-4829.4,183.1L-4727.4,-456.4L-4726.4,-466.8L-4726.8,-477.3L-4728.6,-487.6L-4731.7,-497.6L-4736.0,-507.1L-4741.6,-516.0L-4748.3,-524.0L-4755.9,-531.2L-4764.4,-537.2L-4773.7,-542.1L-4783.5,-545.8L-4793.7,-548.1L-6039.6,-750.5L-6050.0,-751.5L-6060.5,-751.2L-6070.8,-749.4L-6080.9,-746.4L-6090.4,-742.0L-6099.3,-736.5L-6107.4,-729.8L-6114.5,-722.1L-6120.6,-713.6L-6125.5,-704.4L-6129.2,-694.5L-6131.6,-684.3L-6392.2,910.5L-6687.9,2713.1L-6946.7,4290.8L-6947.7,4301.3L-6947.3,4311.8L-6945.6,4322.2L-6942.5,4332.3L-6938.1,4341.8L-6932.5,4350.8L-6925.7,4358.9L-6918.0,4366.0L-6909.4,4372.1L-6900.1,4377.0L-6890.2,4380.6L-6879.9,4382.9L-5350.5,4620.8L-3654.6,4884.5L-3644.2,4885.4L-3633.9,4885.0L-3623.6,4883.2L-3613.7,4880.2L-3604.2,4875.9L-3595.4,4870.3L-3587.4,4863.7L-3580.3,4856.2L-3574.3,4847.7L-3569.3,4838.6L-3565.7,4828.8L-3563.2,4818.7L-3330.6,3451.3L-3329.5,3440.9L-3329.8,3430.4L-3331.5,3420.0L-3334.5,3409.9L-3338.8,3400.3L-3344.3,3391.4L-3350.9,3383.3L-3358.6,3376.1L-3367.1,3369.9L-3376.3,3364.9L-3386.2,3361.2L-3396.4,3358.8L-5318.3,3037.1L-5321.3,3036.8L-5339.6,3031.2L-5356.5,3022.2L-5371.4,3010.0L-5383.5,2995.2L-5392.6,2978.3L-5398.1,2960.0L-5400.0,2940.9L-5398.1,2921.8L-5392.6,2903.5L-5383.5,2886.6L-5371.4,2871.7L-5356.5,2859.6L-5339.6,2850.5L-5321.3,2845.0L-5302.2,2843.1L-5286.1,2844.4L-3200.9,3193.2L-3203.9,3210.8L-3204.9,3221.2L-3204.6,3231.7L-3202.9,3242.0L-3199.9,3252.0L-3195.6,3261.6L-3190.1,3270.5L-3183.5,3278.6L-3175.9,3285.8L-3167.4,3291.9L-3158.2,3296.9L-3148.4,3300.6L-3138.3,3303.0L-3133.5,3303.9L-3395.3,4842.7L-3396.4,4853.2L-3396.1,4863.7L-3394.4,4874.2L-3391.3,4884.3L-3386.9,4893.9L-3381.3,4902.9L-3374.6,4911.1L-3366.9,4918.3L-3358.2,4924.4L-3348.9,4929.3L-3339.0,4933.0L-3328.6,4935.3L-551.1,5369.0L-208.9,5398.0L-198.6,5398.2L-188.4,5397.1L-178.4,5394.6L-168.8,5391.0L-159.7,5386.1L-151.3,5380.1L-143.8,5373.1L-137.2,5365.1L-131.8,5356.4L-127.4,5347.1L-124.3,5337.3L-122.5,5327.1L-122.0,5316.8L-122.8,5306.6L-134.3,5227.5L-134.1,5202.7L675.4,205.0L676.2,200.9L897.8,-828.7L1008.6,-1197.2L1011.0,-1207.6L1011.9,-1218.2L1011.5,-1228.9L1009.6,-1239.4L1006.4,-1249.6L1001.8,-1259.3L996.0,-1268.2L989.1,-1276.3L981.1,-1283.5L972.3,-1289.4L962.7,-1294.2L952.6,-1297.7L942.1,-1299.7L883.0,-1307.4L-181.0,-1572.8L-2015.2,-1887.5L-2207.4,-1920.7L-2217.8,-1921.8Z" fill="#333" stroke="none" stroke-width="0"/><path d="M288.2,223.6L280.0,225.4L271.8,228.1L264.1,231.7L256.9,236.0L250.0,241.3L243.8,247.2L238.4,253.8L233.2,261.8L229.4,269.6L226.4,277.9L224.5,286.1L223.5,294.7L223.5,303.2L224.4,311.7L226.2,320.0L228.9,328.1L232.5,335.8L236.9,343.1L242.2,349.9L248.2,356.2L255.0,361.8L262.6,366.7L270.9,370.8L279.0,373.7L287.6,375.7L295.9,376.7L304.6,376.7L312.8,375.8L321.1,374.0L329.2,371.3L336.9,367.8L344.2,363.4L350.9,358.2L357.2,352.1L362.7,345.5L367.7,337.8L371.7,329.6L374.7,321.4L376.7,312.9L377.6,304.6L377.7,296.0L376.8,287.6L375.0,279.2L372.3,271.3L368.7,263.6L364.3,256.3L359.2,249.6L353.1,243.2L346.5,237.8L338.7,232.8L330.5,228.7L322.3,225.8L313.8,223.8L305.3,222.8L296.7,222.7Z" fill="#333" stroke="none" stroke-width="0"/><path d="M-2207.4,-1920.7L-2015.2,-1887.5L-181.0,-1572.8L883.0,-1307.4L942.1,-1299.7L952.6,-1297.7L962.7,-1294.2L972.3,-1289.4L981.1,-1283.5L989.1,-1276.3L996.0,-1268.2L1001.8,-1259.3L1006.4,-1249.6L1009.6,-1239.4L1011.5,-1228.9L1011.9,-1218.2L1011.0,-1207.6L1008.6,-1197.2L897.8,-828.7L676.2,200.9L675.4,205.0L-134.1,5202.7L-134.3,5227.5L-122.8,5306.6L-122.0,5316.8L-122.5,5327.1L-124.3,5337.3L-127.4,5347.1L-131.8,5356.4L-137.2,5365.1L-143.8,5373.1L-151.3,5380.1L-159.7,5386.1L-168.8,5391.0L-178.4,5394.6L-188.4,5397.1L-198.6,5398.2L-208.9,5398.0L-551.1,5369.0L-3328.6,4935.3L-3339.0,4933.0L-3348.9,4929.3L-3358.2,4924.4L-3366.9,4918.3L-3374.6,4911.1L-3381.3,4902.9L-3386.9,4893.9L-3391.3,4884.3L-3394.4,4874.2L-3396.1,4863.7L-3396.4,4853.2L-3395.3,4842.7L-3133.5,3303.9L-3138.3,3303.0L-3148.4,3300.6L-3158.2,3296.9L-3167.4,3291.9L-3175.9,3285.8L-3183.5,3278.6L-3190.1,3270.5L-3195.6,3261.6L-3199.9,3252.0L-3202.9,3242.0L-3204.6,3231.7L-3204.9,3221.2L-3203.9,3210.8L-3200.9,3193.2L-5286.1,2844.4L-5302.2,2843.1L-5321.3,2845.0L-5339.6,2850.5L-5356.5,2859.6L-5371.4,2871.7L-5383.5,2886.6L-5392.6,2903.5L-5398.1,2921.8L-5400.0,2940.9L-5398.1,2960.0L-5392.6,2978.3L-5383.5,2995.2L-5371.4,3010.0L-5356.5,3022.2L-5339.6,3031.2L-5321.3,3036.8L-5318.3,3037.1L-3396.4,3358.8L-3386.2,3361.2L-3376.3,3364.9L-3367.1,3369.9L-3358.6,3376.1L-3350.9,3383.3L-3344.3,3391.4L-3338.8,3400.3L-3334.5,3409.9L-3331.5,3420.0L-3329.8,3430.4L-3329.5,3440.9L-3330.6,3451.3L-3563.2,4818.7L-3565.7,4828.8L-3569.3,4838.6L-3574.3,4847.7L-3580.3,4856.2L-3587.4,4863.7L-3595.4,4870.3L-3604.2,4875.9L-3613.7,4880.2L-3623.6,4883.2L-3633.9,4885.0L-3644.2,4885.4L-3654.6,4884.5L-5350.5,4620.8L-6879.9,4382.9L-6890.2,4380.6L-6900.1,4377.0L-6909.4,4372.1L-6918.0,4366.0L-6925.7,4358.9L-6932.5,4350.8L-6938.1,4341.8L-6942.5,4332.3L-6945.6,4322.2L-6947.3,4311.8L-6947.7,4301.3L-6946.7,4290.8L-6687.9,2713.1L-6392.2,910.5L-6131.6,-684.3L-6129.2,-694.5L-6125.5,-704.4L-6120.6,-713.6L-6114.5,-722.1L-6107.4,-729.8L-6099.3,-736.5L-6090.4,-742.0L-6080.9,-746.4L-6070.8,-749.4L-6060.5,-751.2L-6050.0,-751.5L-6039.6,-750.5L-4793.7,-548.1L-4783.5,-545.8L-4773.7,-542.1L-4764.4,-537.2L-4755.9,-531.2L-4748.3,-524.0L-4741.6,-516.0L-4736.0,-507.1L-4731.7,-497.6L-4728.6,-487.6L-4726.8,-477.3L-4726.4,-466.8L-4727.4,-456.4L-4829.4,183.1L-4831.8,193.5L-4835.6,203.5L-4840.6,212.9L-4846.8,221.6L-4854.2,229.3L-4862.5,236.0L-4871.6,241.6L-4881.4,245.9L-4891.6,248.8L-4902.2,250.4L-4912.8,250.5L-5068.5,242.3L-5068.5,242.6L-5073.7,242.1L-5092.8,244.0L-5111.1,249.6L-5128.0,258.6L-5142.8,270.8L-5155.0,285.6L-5164.0,302.5L-5169.6,320.8L-5171.5,339.9L-5169.6,359.0L-5164.0,377.3L-5155.0,394.2L-5142.8,409.0L-5128.0,421.2L-5111.1,430.2L-5092.8,435.8L-5078.8,437.2L-5078.9,437.5L-4876.8,448.3L-4866.6,449.5L-4856.6,452.0L-4847.1,455.8L-4838.0,460.7L-4829.7,466.8L-4822.3,473.9L-4815.8,481.8L-4810.4,490.6L-4806.1,500.0L-4797.6,502.4L-4779.2,515.1L-4717.9,543.9L-4688.4,550.6L-4612.3,551.2L-4588.6,547.2L-4568.9,536.6L-4484.0,471.6L-4464.2,448.1L-4457.2,426.9L-4325.1,-389.9L-4322.7,-400.2L-4319.0,-410.1L-4314.1,-419.4L-4308.0,-427.9L-4300.8,-435.6L-4292.6,-442.3L-4283.7,-447.9L-4274.1,-452.2L-4264.0,-455.2L-4253.6,-456.9L-4243.1,-457.2L-4232.6,-456.2L-2749.6,-206.2L-2739.4,-203.8L-2729.6,-200.0L-2720.4,-195.0L-2711.9,-188.9L-2704.3,-181.7L-2697.6,-173.6L-2692.1,-164.6L-2687.8,-155.1L-2684.8,-145.0L-2683.1,-134.7L-2682.8,-124.2L-2683.9,-113.7L5.2,271.5L26.6,278.5L36.1,282.2L44.9,287.0L53.1,293.0L60.5,299.9L66.9,307.7L72.3,316.2L76.6,325.4L79.7,335.0L81.6,344.9L82.2,355.0L91.3,361.5L96.5,376.9L99.3,383.9L106.2,398.7L109.8,405.5L118.3,419.5L122.7,426.0L132.7,439.0L137.9,445.0L149.4,457.0L155.4,462.5L168.5,473.3L175.0,478.0L189.5,487.4L196.5,491.4L212.0,499.1L219.4,502.2L235.3,507.9L243.1,510.2L259.3,514.0L267.2,515.3L283.5,517.2L291.3,517.7L307.6,517.8L315.3,517.4L331.5,515.7L339.2,514.5L355.0,511.0L362.4,509.0L377.7,503.9L384.8,501.0L399.6,494.2L406.5,490.6L420.4,482.2L427.0,477.7L440.0,467.7L446.0,462.6L457.9,451.0L463.4,445.1L474.2,432.0L479.0,425.5L488.3,411.0L492.4,403.9L500.0,388.4L503.2,381.0L508.9,365.1L511.2,357.3L514.9,341.1L516.3,333.3L518.2,317.0L518.7,309.2L518.8,292.9L518.4,285.1L516.7,268.9L515.5,261.4L512.0,245.5L510.0,238.1L504.8,222.8L502.0,215.6L495.2,200.8L491.5,194.0L483.1,180.0L478.7,173.5L468.6,160.5L463.5,154.5L451.9,142.5L446.0,137.0L433.0,126.3L426.4,121.5L412.0,112.1L404.9,108.1L389.4,100.5L382.0,97.3L366.0,91.6L358.3,89.3L342.1,85.5L334.3,84.1L317.9,82.2L310.2,81.7L293.8,81.6L286.1,82.0L269.9,83.7L262.3,84.9L246.4,88.3L239.0,90.3L223.6,95.5L216.5,98.3L200.3,101.6L191.1,107.7L181.1,112.5L170.6,115.9L159.7,117.7L148.7,118.1L137.7,116.9L127.0,114.3L56.1,91.5L43.1,88.3L-2481.6,-338.7L-2491.8,-341.2L-2501.7,-344.9L-2510.9,-349.9L-2519.4,-356.1L-2527.0,-363.3L-2533.7,-371.5L-2539.2,-380.5L-2543.4,-390.1L-2546.4,-400.1L-2548.1,-410.5L-2548.3,-421.0L-2547.2,-431.5L-2300.0,-1855.4L-2297.6,-1865.6L-2293.8,-1875.4L-2288.8,-1884.6L-2282.6,-1893.0L-2275.4,-1900.6L-2267.2,-1907.2L-2258.3,-1912.7L-2248.7,-1916.9L-2238.7,-1919.9L-2228.3,-1921.5L-2217.8,-1921.8Z" fill="none" stroke="#4af" stroke-width="1.5"/><path d="M-2227.8,-1914.7L-2237.2,-1913.3L-2246.4,-1910.5L-2255.1,-1906.7L-2263.4,-1901.6L-2270.7,-1895.7L-2277.4,-1888.6L-2283.1,-1880.9L-2287.6,-1872.5L-2291.1,-1863.6L-2293.4,-1854.0L-2540.5,-430.8L-2541.5,-420.7L-2541.3,-411.1L-2539.8,-401.6L-2537.1,-392.4L-2533.2,-383.6L-2528.1,-375.4L-2522.0,-367.9L-2515.1,-361.4L-2507.2,-355.7L-2498.8,-351.1L-2489.9,-347.7L-2480.3,-345.4L44.2,81.6L44.7,81.7L57.7,84.9L58.2,85.0L128.9,107.7L138.9,110.2L148.9,111.3L159.1,111.0L168.9,109.3L178.6,106.2L187.7,101.8L196.5,96.0L198.9,95.0L214.6,91.8L221.1,89.2L221.5,89.0L236.9,83.9L237.2,83.8L244.7,81.8L245.0,81.7L260.9,78.3L261.2,78.2L268.8,77.0L269.2,76.9L285.4,75.3L285.7,75.2L293.5,74.8L293.8,74.8L310.2,75.0L310.6,75.0L318.3,75.5L318.7,75.5L335.1,77.4L335.5,77.5L343.3,78.8L343.7,78.9L359.9,82.7L360.3,82.8L368.0,85.1L368.3,85.2L384.2,90.9L384.6,91.0L392.1,94.2L392.4,94.4L407.9,102.0L408.2,102.2L415.3,106.2L415.6,106.4L430.1,115.8L430.4,116.0L437.0,120.8L437.3,121.0L450.3,131.8L450.6,132.0L456.5,137.5L456.8,137.8L468.4,149.8L468.6,150.0L473.8,156.0L474.0,156.3L484.0,169.4L484.3,169.7L488.7,176.2L488.9,176.5L497.3,190.5L497.5,190.8L501.2,197.7L501.3,198.0L508.1,212.7L508.3,213.1L511.1,220.3L511.3,220.6L516.4,236.0L516.5,236.3L518.6,243.7L518.6,244.1L522.1,259.9L522.2,260.3L523.4,267.8L523.4,268.2L525.1,284.3L525.2,284.7L525.6,292.5L525.6,292.9L525.5,309.2L525.5,309.6L525.0,317.4L524.9,317.8L523.0,334.1L523.0,334.4L521.6,342.3L521.6,342.7L517.8,358.9L517.7,359.2L515.4,367.0L515.3,367.4L509.6,383.3L509.4,383.7L506.3,391.1L506.1,391.4L498.5,406.9L498.3,407.3L494.2,414.4L494.0,414.7L484.7,429.2L484.4,429.5L479.7,436.0L479.4,436.3L468.7,449.4L468.4,449.7L462.9,455.6L462.6,455.9L450.7,467.4L450.4,467.7L444.4,472.8L444.1,473.1L431.1,483.1L430.8,483.3L424.3,487.8L424.0,488.0L410.0,496.4L409.7,496.6L402.8,500.2L402.4,500.4L387.7,507.2L387.4,507.3L380.2,510.2L379.9,510.3L364.5,515.4L364.2,515.5L356.8,517.6L356.4,517.7L340.6,521.1L340.2,521.2L332.5,522.4L332.2,522.5L316.0,524.2L315.7,524.2L307.9,524.6L307.6,524.6L291.2,524.5L290.9,524.5L283.1,524.0L282.7,524.0L266.4,522.1L266.0,522.0L258.2,520.7L257.8,520.6L241.6,516.8L241.2,516.7L233.4,514.4L233.0,514.3L217.1,508.6L216.8,508.4L209.4,505.3L209.0,505.1L193.5,497.5L193.2,497.3L186.1,493.3L185.8,493.1L171.3,483.7L171.0,483.5L164.5,478.7L164.2,478.5L151.1,467.8L150.8,467.5L144.9,462.0L144.6,461.7L133.0,449.7L132.7,449.5L127.6,443.5L127.3,443.2L117.3,430.1L117.1,429.8L112.7,423.4L112.5,423.0L104.0,409.0L103.8,408.7L100.2,401.9L100.0,401.5L93.2,386.7L93.0,386.4L90.2,379.4L90.1,379.0L85.6,365.8L78.3,360.6L75.5,355.4L74.9,345.7L73.2,336.7L70.3,327.9L66.4,319.5L61.5,311.7L55.5,304.5L48.7,298.2L41.3,292.8L33.2,288.3L24.6,284.9L3.6,278.2L-2684.9,-107.0L-2690.7,-114.4L-2689.6,-124.4L-2689.9,-134.1L-2691.4,-143.5L-2694.2,-152.7L-2698.2,-161.5L-2703.2,-169.6L-2709.2,-177.0L-2716.2,-183.7L-2724.0,-189.3L-2732.5,-193.9L-2741.3,-197.2L-2751.0,-199.5L-4233.6,-449.5L-4243.3,-450.4L-4253.0,-450.2L-4262.4,-448.6L-4271.7,-445.8L-4280.4,-441.9L-4288.6,-436.8L-4296.2,-430.6L-4302.7,-423.6L-4308.3,-415.8L-4312.8,-407.3L-4316.2,-398.2L-4318.4,-388.7L-4450.5,427.9L-4450.8,429.0L-4457.8,450.2L-4459.0,452.5L-4478.8,476.0L-4479.8,477.0L-4564.8,542.0L-4565.7,542.6L-4585.4,553.2L-4587.5,553.9L-4611.2,557.9L-4612.3,557.9L-4688.4,557.4L-4689.9,557.2L-4719.4,550.5L-4720.8,550.1L-4782.1,521.2L-4783.0,520.7L-4800.6,508.7L-4808.0,506.5L-4812.3,502.8L-4816.4,493.8L-4821.3,485.8L-4827.3,478.4L-4834.0,472.1L-4841.7,466.5L-4850.0,461.9L-4858.7,458.5L-4867.9,456.2L-4877.5,455.0L-5079.2,444.3L-5080.7,443.8L-5093.4,442.6L-5094.7,442.3L-5113.1,436.7L-5114.3,436.2L-5131.2,427.2L-5132.3,426.5L-5147.1,414.3L-5148.1,413.4L-5160.2,398.5L-5161.0,397.4L-5170.0,380.5L-5170.5,379.3L-5176.1,361.0L-5176.3,359.6L-5178.2,340.6L-5178.2,339.2L-5176.3,320.2L-5176.1,318.8L-5170.5,300.5L-5170.0,299.3L-5161.0,282.4L-5160.2,281.3L-5148.1,266.4L-5147.1,265.5L-5132.3,253.3L-5131.2,252.6L-5114.3,243.6L-5113.1,243.1L-5094.7,237.5L-5093.4,237.2L-5074.3,235.4L-5073.0,235.4L-5068.7,235.8L-5068.1,235.5L-4912.8,243.7L-4902.7,243.6L-4893.0,242.1L-4883.7,239.5L-4874.8,235.6L-4866.4,230.4L-4858.8,224.4L-4852.1,217.2L-4846.4,209.3L-4841.8,200.7L-4838.3,191.5L-4836.1,181.9L-4734.1,-457.3L-4733.2,-466.9L-4733.6,-476.6L-4735.2,-486.1L-4738.0,-495.2L-4742.0,-503.9L-4747.0,-511.9L-4753.2,-519.4L-4760.3,-525.9L-4768.0,-531.4L-4776.5,-535.9L-4785.5,-539.3L-4794.9,-541.5L-6040.5,-743.8L-6050.2,-744.7L-6059.8,-744.4L-6069.4,-742.8L-6078.4,-740.0L-6087.2,-736.0L-6095.3,-730.9L-6102.6,-724.9L-6109.2,-717.8L-6114.8,-710.1L-6119.3,-701.5L-6122.7,-692.5L-6124.9,-683.1L-6385.5,911.6L-6681.2,2714.2L-6940.0,4291.7L-6940.9,4301.4L-6940.5,4311.1L-6938.9,4320.7L-6936.2,4329.8L-6932.2,4338.5L-6926.9,4346.9L-6920.9,4354.1L-6913.7,4360.8L-6905.8,4366.3L-6897.4,4370.7L-6888.3,4374.1L-6878.5,4376.3L-5349.5,4614.1L-3653.8,4877.8L-3644.2,4878.6L-3634.5,4878.2L-3625.2,4876.6L-3616.1,4873.8L-3607.5,4869.9L-3599.4,4864.8L-3592.0,4858.8L-3585.6,4851.9L-3580.0,4844.1L-3575.5,4835.7L-3572.2,4826.9L-3569.9,4817.4L-3337.3,3450.2L-3336.3,3440.6L-3336.6,3430.9L-3338.1,3421.5L-3340.8,3412.3L-3344.8,3403.5L-3349.8,3395.3L-3355.9,3387.9L-3362.8,3381.3L-3370.7,3375.6L-3379.2,3371.1L-3388.1,3367.7L-3397.7,3365.5L-5319.3,3043.8L-5321.9,3043.6L-5323.3,3043.3L-5341.6,3037.7L-5342.8,3037.2L-5359.7,3028.2L-5360.8,3027.4L-5375.7,3015.3L-5376.6,3014.3L-5388.8,2999.5L-5389.5,2998.4L-5398.5,2981.5L-5399.1,2980.3L-5404.6,2961.9L-5404.9,2960.6L-5406.8,2941.5L-5406.8,2940.2L-5404.9,2921.1L-5404.6,2919.8L-5399.1,2901.5L-5398.5,2900.3L-5389.5,2883.3L-5388.8,2882.2L-5376.6,2867.4L-5375.7,2866.5L-5360.8,2854.3L-5359.7,2853.6L-5342.8,2844.6L-5341.6,2844.0L-5323.3,2838.5L-5321.9,2838.2L-5302.9,2836.3L-5301.7,2836.3L-5285.5,2837.7L-5284.9,2837.7L-3199.8,3186.5L-3196.6,3188.0L-3194.2,3194.3L-3197.2,3211.9L-3198.1,3221.4L-3197.9,3231.0L-3196.3,3240.5L-3193.5,3249.6L-3189.6,3258.5L-3184.6,3266.5L-3178.5,3274.0L-3171.6,3280.5L-3163.8,3286.2L-3155.4,3290.7L-3146.5,3294.1L-3136.9,3296.4L-3132.3,3297.2L-3129.1,3298.7L-3126.8,3305.0L-3388.6,4843.7L-3388.6,4843.8L-3388.6,4843.8L-3389.6,4853.4L-3389.3,4863.1L-3387.7,4872.6L-3384.9,4881.9L-3381.0,4890.7L-3375.8,4899.0L-3369.7,4906.4L-3362.7,4912.9L-3354.6,4918.7L-3346.1,4923.1L-3337.1,4926.4L-3327.2,4928.6L-550.5,5362.2L-208.5,5391.2L-199.0,5391.4L-189.5,5390.3L-180.4,5388.2L-171.6,5384.8L-163.4,5380.4L-155.6,5374.8L-148.8,5368.4L-142.7,5361.1L-137.8,5353.2L-133.8,5344.6L-130.9,5335.6L-129.3,5326.4L-128.8,5316.8L-129.6,5307.3L-141.1,5228.4L-141.1,5227.4L-140.9,5202.6L-140.8,5201.6L668.7,203.9L668.8,203.7L669.6,199.6L669.6,199.5L891.2,-830.1L891.3,-830.6L1002.1,-1199.2L1004.2,-1208.7L1005.1,-1218.3L1004.7,-1228.2L1003.0,-1237.8L1000.0,-1247.2L995.9,-1255.9L990.5,-1264.2L984.2,-1271.6L976.9,-1278.1L968.9,-1283.6L960.0,-1288.0L950.9,-1291.1L941.0,-1293.0L882.1,-1300.7L881.4,-1300.8L-182.5,-1566.2L-2016.4,-1880.8L-2208.2,-1913.9L-2218.1,-1915.0Z" fill="none" stroke="#4af" stroke-width="1.5"/><path d="M305.3,222.8L313.8,223.8L322.3,225.8L330.5,228.7L338.7,232.8L346.5,237.8L353.1,243.2L359.2,249.6L364.3,256.3L368.7,263.6L372.3,271.3L375.0,279.2L376.8,287.6L377.7,296.0L377.6,304.6L376.7,312.9L374.7,321.4L371.7,329.6L367.7,337.8L362.7,345.5L357.2,352.1L350.9,358.2L344.2,363.4L336.9,367.8L329.2,371.3L321.1,374.0L312.8,375.8L304.6,376.7L295.9,376.7L287.6,375.7L279.0,373.7L270.9,370.8L262.6,366.7L255.0,361.8L248.2,356.2L242.2,349.9L236.9,343.1L232.5,335.8L228.9,328.1L226.2,320.0L224.4,311.7L223.5,303.2L223.5,294.7L224.5,286.1L226.4,277.9L229.4,269.6L233.2,261.8L238.4,253.8L243.8,247.2L250.0,241.3L256.9,236.0L264.1,231.7L271.8,228.1L280.0,225.4L288.2,223.6L296.7,222.7Z" fill="none" stroke="#4af" stroke-width="1.5"/><path d="M289.2,230.3L281.9,231.9L274.2,234.5L267.4,237.6L260.7,241.6L254.3,246.5L248.8,251.8L243.8,257.9L239.2,265.1L235.6,272.3L232.9,279.9L231.2,287.4L230.3,295.0L230.3,302.8L231.1,310.7L232.7,318.1L235.3,325.5L238.5,332.7L242.6,339.3L247.3,345.4L252.8,351.2L259.0,356.3L266.0,360.8L273.6,364.5L281.0,367.2L288.8,369.0L296.2,369.9L304.2,369.9L311.8,369.1L319.3,367.5L326.7,365.0L333.7,361.8L340.4,357.8L346.5,353.0L352.1,347.6L357.2,341.4L361.7,334.5L365.5,326.9L368.2,319.4L370.0,311.6L370.8,304.2L370.9,296.4L370.1,288.7L368.4,281.0L366.0,273.9L362.7,266.7L358.7,260.1L354.1,254.0L348.5,248.3L342.4,243.2L335.4,238.7L327.8,235.0L320.4,232.3L312.6,230.5L305.0,229.6L297.1,229.5Z" fill="none" stroke="#4af" stroke-width="1.5"/><circle cx="300" cy="300" r="2" fill="red"/></svg>