<svg xmlns="http://www.w3.org/2000/svg" width="600" height="600" viewBox="0 0 600 600"><rect width="600" height="600" fill="#1a2530"/><path d="M-1927.2,-1672.3L-1756.4,-1642.9L-125.9,-1363.2L825.2,-1126.3L931.1,-1133.2L940.5,-1133.2L949.8,-1132.0L958.8,-1129.5L967.5,-1125.9L975.6,-1121.2L983.0,-1115.4L989.6,-1108.7L995.3,-1101.2L999.9,-1093.0L1003.4,-1084.3L1005.7,-1075.2L1006.8,-1065.9L1006.7,-1056.5L1005.4,-1047.2L1002.8,-1038.2L999.1,-1029.6L835.6,-710.9L635.6,215.3L-85.2,4670.5L-73.8,4752.3L-73.1,4761.4L-73.6,4770.5L-75.2,4779.5L-78.0,4788.1L-81.9,4796.4L-86.7,4804.1L-92.6,4811.1L-99.3,4817.4L-106.7,4822.7L-114.7,4827.0L-123.3,4830.2L-132.1,4832.4L-141.2,4833.4L-150.3,4833.2L-455.0,4807.4L-2923.9,4421.8L-2933.1,4419.8L-2941.9,4416.5L-2950.2,4412.2L-2957.9,4406.7L-2964.8,4400.3L-2970.7,4393.1L-2975.7,4385.1L-2979.6,4376.5L-2982.3,4367.5L-2983.8,4358.2L-2984.1,4348.9L-2983.1,4339.5L-2735.8,2885.8L-4663.8,2563.3L-4680.8,2562.2L-4697.7,2564.3L-4713.9,2569.8L-4728.6,2578.3L-4741.5,2589.5L-4751.9,2603.0L-4759.4,2618.2L-4763.9,2634.7L-4765.0,2651.7L-4762.9,2668.6L-4757.4,2684.7L-4748.9,2699.5L-4737.7,2712.4L-4724.2,2722.8L-4709.0,2730.3L-4692.5,2734.8L-2984.1,3020.5L-2975.0,3022.7L-2966.3,3026.0L-2958.1,3030.4L-2950.5,3035.9L-2943.7,3042.3L-2937.8,3049.5L-2932.9,3057.4L-2929.1,3066.0L-2926.4,3074.9L-2924.9,3084.1L-2924.6,3093.5L-2925.6,3102.8L-3132.4,4318.2L-3134.6,4327.2L-3137.8,4335.9L-3142.2,4344.0L-3147.6,4351.5L-3153.9,4358.2L-3161.0,4364.1L-3168.8,4369.0L-3177.3,4372.9L-3186.1,4375.6L-3195.2,4377.1L-3204.4,4377.5L-3213.6,4376.7L-4721.1,4142.3L-6080.5,3930.9L-6089.7,3928.8L-6098.5,3925.6L-6106.8,3921.2L-6114.4,3915.8L-6121.3,3909.5L-6127.3,3902.3L-6132.3,3894.3L-6136.2,3885.8L-6138.9,3876.8L-6140.5,3867.6L-6140.8,3858.3L-6139.9,3848.9L-5909.9,2446.6L-5647.1,844.2L-5415.4,-573.4L-5413.3,-582.5L-5410.0,-591.2L-5405.6,-599.4L-5400.2,-607.0L-5393.9,-613.8L-5386.7,-619.7L-5378.8,-624.7L-5370.3,-628.5L-5361.4,-631.3L-5352.2,-632.8L-5342.9,-633.1L-5333.6,-632.2L-4226.1,-452.3L-4217.1,-450.2L-4208.4,-447.0L-4200.1,-442.6L-4192.6,-437.2L-4185.8,-430.9L-4179.8,-423.7L-4174.9,-415.9L-4171.0,-407.4L-4168.3,-398.5L-4166.7,-389.3L-4166.4,-380.0L-4167.2,-370.8L-4257.9,197.7L-4260.0,206.9L-4263.4,215.8L-4267.8,224.2L-4273.4,231.9L-4279.9,238.8L-4287.3,244.7L-4295.4,249.6L-4304.1,253.5L-4313.2,256.1L-4322.6,257.5L-4332.1,257.6L-4470.4,250.3L-4487.4,251.0L-4504.0,255.1L-4519.4,262.3L-4533.1,272.4L-4544.6,285.0L-4553.4,299.6L-4559.3,315.6L-4561.8,332.4L-4561.1,349.5L-4557.0,366.0L-4549.8,381.4L-4539.7,395.2L-4527.1,406.7L-4512.5,415.5L-4496.5,421.3L-4479.6,423.8L-4295.3,433.6L-4285.9,434.8L-4276.8,437.1L-4268.1,440.7L-4259.9,445.3L-4252.4,451.0L-4245.7,457.7L-4239.9,465.1L-4235.2,473.3L-4232.6,478.6L-4146.0,522.8L-4044.6,521.6L-3935.1,436.5L-3809.9,-311.9L-3807.8,-321.0L-3804.5,-329.7L-3800.0,-337.9L-3794.6,-345.5L-3788.2,-352.3L-3780.9,-358.2L-3772.9,-363.1L-3764.4,-366.9L-3755.5,-369.6L-3746.2,-371.1L-3736.9,-371.3L-3727.6,-370.3L-2339.7,-131.4L-129.5,685.6L-124.5,677.8L-118.5,670.7L-111.6,664.5L-104.0,659.2L-95.8,655.0L-87.1,651.8L-78.0,649.9L-68.8,649.1L-59.6,649.5L-50.5,651.1L-41.6,653.8L-33.2,657.7L-25.4,662.7L-18.3,668.6L-12.0,675.4L-6.6,682.9L-2.3,691.1L0.9,699.8L3.0,708.8L3.9,718.0L3.6,727.3L2.1,736.4L444.5,433.2L458.6,416.1L470.9,397.2L480.9,376.9L488.4,356.0L493.3,334.7L495.9,313.2L496.0,291.8L493.7,270.6L466.6,-126.0L459.3,-119.9L451.3,-114.8L442.6,-110.8L433.5,-108.0L424.1,-106.4L414.6,-106.1L405.1,-107.1L395.9,-109.4L387.0,-112.8L378.6,-117.4L371.0,-123.1L364.2,-129.8L358.3,-137.3L353.5,-145.5L349.8,-154.3L347.3,-163.5L346.1,-172.9L346.2,-182.5L347.5,-191.9L350.0,-201.1L353.8,-209.8L-2171.0,-266.2L-2180.0,-268.4L-2188.8,-271.7L-2197.0,-276.1L-2204.6,-281.6L-2211.4,-288.1L-2217.2,-295.3L-2222.1,-303.3L-2225.9,-311.8L-2228.6,-320.8L-2230.0,-330.0L-2230.3,-339.4L-2229.3,-348.6L-2009.5,-1614.3L-2007.4,-1623.4L-2004.0,-1632.1L-1999.5,-1640.2L-1994.1,-1647.8L-1987.6,-1654.5L-1980.4,-1660.4L-1972.4,-1665.2L-1963.9,-1669.0L-1955.0,-1671.6L-1945.8,-1673.1L-1936.5,-1673.3Z" fill="none" stroke="#456" stroke-width="1"/><path d="M-1945.3,-1667.1L-1953.7,-1665.8L-1961.9,-1663.3L-1969.6,-1659.9L-1977.0,-1655.4L-1983.5,-1650.1L-1989.5,-1643.9L-1994.5,-1637.0L-1998.5,-1629.5L-2001.6,-1621.6L-2003.7,-1613.1L-2223.3,-348.0L-2224.2,-339.1L-2224.0,-330.5L-2222.7,-322.1L-2220.3,-313.9L-2216.8,-306.1L-2212.3,-298.8L-2206.9,-292.2L-2200.7,-286.3L-2193.7,-281.2L-2186.3,-277.2L-2178.3,-274.1L-2170.2,-272.2L353.9,-215.9L358.7,-213.4L359.3,-207.4L355.7,-199.1L353.4,-190.6L352.2,-182.1L352.1,-173.3L353.3,-164.7L355.5,-156.3L358.9,-148.1L363.3,-140.7L368.6,-133.9L374.9,-127.7L381.9,-122.6L389.6,-118.3L397.7,-115.1L406.1,-113.1L414.8,-112.2L423.5,-112.4L432.2,-113.9L440.5,-116.4L448.4,-120.1L455.8,-124.7L462.7,-130.6L469.3,-131.4L472.6,-126.4L499.7,269.9L502.0,291.1L502.0,291.8L501.9,313.3L501.8,313.9L499.3,335.4L499.2,336.1L494.2,357.4L494.0,358.0L486.6,379.0L486.3,379.6L476.3,399.8L476.0,400.4L463.7,419.4L463.3,419.9L449.2,437.1L447.9,438.2L5.5,741.4L-1.8,741.0L-3.9,735.4L-2.4,726.7L-2.1,718.2L-3.0,709.8L-4.9,701.5L-7.8,693.7L-11.8,686.0L-16.7,679.2L-22.5,673.0L-29.0,667.5L-36.1,663.1L-43.8,659.5L-52.0,656.9L-60.2,655.5L-68.7,655.1L-77.2,655.9L-85.4,657.6L-93.3,660.5L-101.0,664.5L-107.9,669.2L-114.1,674.9L-119.6,681.4L-124.4,688.8L-131.6,691.2L-2341.3,-125.6L-3728.3,-364.3L-3737.1,-365.3L-3745.7,-365.0L-3754.1,-363.7L-3762.2,-361.3L-3770.1,-357.7L-3777.4,-353.3L-3784.0,-347.9L-3789.9,-341.6L-3794.9,-334.7L-3799.0,-327.2L-3802.0,-319.2L-3804.0,-310.7L-3929.2,437.5L-3931.4,441.3L-4040.9,526.4L-4044.5,527.6L-4145.9,528.8L-4148.7,528.2L-4235.3,483.9L-4238.0,481.2L-4240.6,475.9L-4244.9,468.5L-4250.2,461.7L-4256.4,455.5L-4263.2,450.4L-4270.7,446.1L-4278.7,442.9L-4287.1,440.7L-4295.8,439.6L-4479.9,429.9L-4480.5,429.8L-4497.4,427.3L-4498.5,427.0L-4514.6,421.1L-4515.6,420.6L-4530.2,411.8L-4531.1,411.1L-4543.7,399.6L-4544.5,398.7L-4554.6,385.0L-4555.2,384.0L-4562.4,368.6L-4562.8,367.4L-4566.9,350.9L-4567.1,349.7L-4567.8,332.7L-4567.8,331.5L-4565.2,314.7L-4564.9,313.5L-4559.1,297.5L-4558.6,296.5L-4549.8,281.9L-4549.1,280.9L-4537.6,268.3L-4536.7,267.5L-4523.0,257.5L-4522.0,256.9L-4506.5,249.6L-4505.4,249.2L-4488.9,245.2L-4487.7,245.0L-4470.7,244.2L-4470.1,244.2L-4332.1,251.6L-4323.1,251.4L-4314.4,250.2L-4306.2,247.8L-4298.2,244.3L-4290.7,239.8L-4284.0,234.3L-4278.0,228.0L-4273.0,221.0L-4268.9,213.3L-4265.8,205.1L-4263.8,196.6L-4173.2,-371.6L-4172.4,-380.1L-4172.7,-388.7L-4174.2,-397.2L-4176.7,-405.2L-4180.2,-413.0L-4184.7,-420.1L-4190.2,-426.8L-4196.4,-432.6L-4203.3,-437.5L-4210.9,-441.5L-4218.8,-444.5L-4227.3,-446.4L-5334.4,-626.3L-5343.0,-627.1L-5351.6,-626.8L-5360.1,-625.3L-5368.1,-622.9L-5375.9,-619.3L-5383.2,-614.8L-5389.7,-609.5L-5395.5,-603.2L-5400.5,-596.3L-5404.5,-588.7L-5407.5,-580.7L-5409.4,-572.3L-5641.1,845.2L-5904.0,2447.5L-6133.9,3849.8L-6134.8,3858.4L-6134.5,3867.0L-6133.0,3875.5L-6130.6,3883.6L-6127.0,3891.4L-6122.3,3898.8L-6117.0,3905.2L-6110.6,3911.2L-6103.6,3916.1L-6096.1,3920.0L-6088.0,3923.0L-6079.3,3924.9L-4720.2,4136.4L-3212.9,4370.7L-3204.3,4371.5L-3195.7,4371.1L-3187.5,4369.7L-3179.4,4367.2L-3171.7,4363.7L-3164.5,4359.2L-3158.0,4353.8L-3152.3,4347.7L-3147.3,4340.8L-3143.3,4333.3L-3140.3,4325.5L-3138.3,4317.1L-2931.6,3101.7L-2930.7,3093.3L-2930.9,3084.7L-2932.3,3076.3L-2934.8,3068.0L-2938.2,3060.3L-2942.7,3053.0L-2948.1,3046.3L-2954.3,3040.6L-2961.3,3035.5L-2968.8,3031.5L-2976.7,3028.5L-2985.2,3026.5L-4693.5,2740.7L-4694.1,2740.6L-4710.5,2736.1L-4711.6,2735.7L-4726.9,2728.2L-4727.9,2727.5L-4741.4,2717.1L-4742.3,2716.3L-4753.5,2703.5L-4754.1,2702.5L-4762.6,2687.7L-4763.1,2686.7L-4768.6,2670.5L-4768.8,2669.4L-4771.0,2652.5L-4771.1,2651.3L-4769.9,2634.3L-4769.7,2633.1L-4765.3,2616.7L-4764.8,2615.6L-4757.3,2600.3L-4756.7,2599.3L-4746.3,2585.8L-4745.5,2584.9L-4732.6,2573.7L-4731.6,2573.0L-4716.9,2564.6L-4715.8,2564.1L-4699.6,2558.6L-4698.5,2558.4L-4681.6,2556.2L-4680.4,2556.1L-4663.4,2557.3L-4662.8,2557.3L-2734.8,2879.8L-2731.9,2881.2L-2729.8,2886.8L-2977.2,4340.4L-2977.2,4340.5L-2977.2,4340.5L-2978.1,4349.0L-2977.8,4357.7L-2976.4,4366.1L-2973.9,4374.4L-2970.4,4382.2L-2965.8,4389.5L-2960.4,4396.2L-2954.1,4402.0L-2947.0,4407.0L-2939.5,4411.0L-2931.3,4414.0L-2922.6,4415.9L-454.4,4801.4L-150.0,4827.1L-141.5,4827.3L-133.1,4826.4L-125.1,4824.5L-117.3,4821.5L-109.9,4817.5L-103.0,4812.6L-97.0,4807.0L-91.7,4800.6L-87.1,4793.5L-83.6,4786.0L-81.1,4778.0L-79.6,4769.7L-79.1,4761.5L-79.8,4752.7L-91.2,4671.4L-91.2,4669.6L629.7,214.3L629.7,214.0L829.7,-712.1L830.2,-713.6L993.6,-1032.1L997.1,-1040.2L999.5,-1048.6L1000.7,-1057.0L1000.8,-1065.6L999.8,-1074.1L997.7,-1082.4L994.5,-1090.3L990.2,-1097.9L985.0,-1104.8L979.1,-1110.8L972.2,-1116.2L964.7,-1120.5L957.0,-1123.8L948.6,-1126.0L940.0,-1127.2L931.2,-1127.2L825.6,-1120.3L823.8,-1120.5L-127.3,-1357.3L-1757.4,-1636.9L-1927.9,-1666.4L-1936.7,-1667.3Z" fill="none" stroke="#456" stroke-width="1"/><path d="M306.3,233.0L313.9,233.8L321.4,235.6L328.7,238.2L336.0,241.8L342.9,246.3L348.8,251.1L354.2,256.7L358.8,262.7L362.7,269.2L365.9,276.0L368.2,283.1L369.8,290.6L370.6,298.0L370.6,305.6L369.7,313.0L368.0,320.6L365.3,327.9L361.7,335.2L357.3,342.0L352.5,347.9L346.9,353.3L340.9,357.9L334.4,361.8L327.6,365.0L320.3,367.4L313.0,369.0L305.6,369.8L297.9,369.7L290.5,368.9L282.9,367.1L275.8,364.5L268.4,360.9L261.6,356.5L255.6,351.5L250.2,346.0L245.5,339.9L241.6,333.4L238.4,326.6L236.0,319.3L234.4,312.0L233.6,304.4L233.6,296.9L234.5,289.3L236.2,282.0L238.8,274.5L242.2,267.7L246.8,260.5L251.7,254.6L257.2,249.4L263.2,244.7L269.7,240.8L276.6,237.7L283.8,235.3L291.1,233.7L298.7,232.9Z" fill="none" stroke="#456" stroke-width="1"/><path d="M292.0,239.7L285.5,241.1L278.7,243.3L272.6,246.2L266.7,249.7L261.0,254.1L256.1,258.7L251.6,264.1L247.5,270.5L244.4,276.9L241.9,283.7L240.4,290.3L239.6,297.2L239.6,304.1L240.3,311.1L241.8,317.7L244.0,324.3L247.0,330.6L250.5,336.5L254.7,342.0L259.7,347.1L265.2,351.6L271.3,355.6L278.1,358.9L284.7,361.3L291.6,362.9L298.2,363.7L305.3,363.7L312.0,363.0L318.7,361.6L325.3,359.4L331.5,356.5L337.5,352.9L343.0,348.7L347.9,343.9L352.5,338.4L356.4,332.3L359.8,325.5L362.2,318.8L363.8,311.9L364.6,305.3L364.6,298.4L363.9,291.5L362.4,284.7L360.3,278.3L357.3,272.0L353.8,266.1L349.7,260.7L344.7,255.6L339.3,251.1L333.1,247.1L326.3,243.8L319.7,241.4L312.8,239.8L306.0,239.0L299.0,238.9Z" fill="none" stroke="#456" stroke-width="1"/><path d="M254.1,178.7L250.3,180.0L238.8,185.5L227.9,192.0L217.6,199.6L208.2,208.2L199.6,217.6L192.0,227.9L185.5,238.8L180.0,250.3L175.8,262.3L172.7,274.7L170.8,287.3L170.2,300.0L170.7,310.7L291.8,379.0L368.4,243.1L254.1,178.7L262.3,175.8L274.7,172.7L287.3,170.8L300.0,170.2L312.7,170.8L325.3,172.7L337.7,175.8L349.7,180.0L361.2,185.5L372.1,192.0L382.4,199.6L391.8,208.2L400.4,217.6L408.0,227.9L414.5,238.8L420.0,250.3L424.2,262.3L427.3,274.7L429.2,287.3L429.8,300.0L429.2,312.7L427.3,325.3L424.2,337.7L420.0,349.7L414.5,361.2L408.0,372.1L400.4,382.4L391.8,391.8L382.4,400.4L372.1,408.0L361.2,414.5L349.7,420.0L337.7,424.2L325.3,427.3L312.7,429.2L300.0,429.8L287.3,429.2L274.7,427.3L262.3,424.2L250.3,420.0L238.8,414.5L227.9,408.0L217.6,400.4L208.2,391.8L199.6,382.4L192.0,372.1L185.5,361.2L180.0,349.7L175.8,337.7L172.7,325.3L170.8,312.7L170.7,310.7L-149.6,130.3L-73.0,-5.6Z" fill="none" stroke="#fa0" stroke-width="1"/><path d="M-71.6,-4.6L-70.4,-4.1L233.7,167.3L251.3,173.6L272.1,172.7L272.2,173.2L276.0,172.5L286.1,171.0L288.5,170.7L298.7,170.2L301.3,170.2L311.5,170.7L313.9,171.0L324.0,172.5L326.8,173.0L336.1,175.4L339.1,176.3L348.5,179.6L350.8,180.6L360.1,185.0L362.3,186.1L370.8,191.2L373.4,193.0L381.2,198.8L383.4,200.6L390.8,207.3L392.7,209.2L399.4,216.6L401.2,218.8L407.0,226.6L408.8,229.2L413.9,237.7L415.0,239.9L419.4,249.2L420.4,251.5L423.7,260.9L424.6,263.9L427.0,273.2L427.5,276.0L429.0,286.1L429.3,288.5L429.8,298.7L429.8,301.3L429.3,311.5L429.0,313.9L427.5,324.0L427.0,326.8L424.6,336.1L423.7,339.1L420.4,348.5L419.4,350.8L415.0,360.1L413.9,362.3L408.8,370.8L407.0,373.4L401.2,381.2L399.4,383.4L392.7,390.8L390.8,392.7L383.4,399.4L381.2,401.2L373.4,407.0L370.8,408.8L362.3,413.9L360.1,415.0L350.8,419.4L348.5,420.4L339.1,423.7L336.1,424.6L326.8,427.0L324.0,427.5L313.9,429.0L311.5,429.3L301.3,429.8L298.7,429.8L288.5,429.3L286.1,429.0L276.0,427.5L273.2,427.0L263.9,424.6L260.9,423.7L251.5,420.4L249.2,419.4L239.9,415.0L237.7,413.9L229.2,408.8L226.6,407.0L218.8,401.2L216.6,399.4L209.2,392.7L207.3,390.8L200.6,383.4L198.8,381.2L193.0,373.4L191.2,370.8L186.1,362.3L185.0,360.1L180.6,350.8L179.6,348.5L176.3,339.1L175.4,336.1L174.5,332.7L167.0,315.6L148.0,297.9L-145.5,132.6L-148.7,130.0L-148.6,128.9L-148.1,127.6L-75.3,-1.5L-72.7,-4.7Z" fill="none" stroke="#0f8" stroke-width="2.5"/><path d="M220.3,197.7L219.6,198.2L215.7,201.4L210.2,206.4L206.4,210.2L201.4,215.7L198.0,219.8L193.7,225.6L190.6,230.2L186.9,236.4L184.4,241.1L181.2,247.8L179.1,253.0L176.6,259.9L175.0,265.2L174.7,266.4L173.4,285.1L178.3,303.1L188.9,318.4L201.3,328.0L243.6,351.8L261.1,358.1L279.8,358.2L297.5,352.1L312.1,340.5L319.1,330.7L341.2,291.4L347.5,273.8L347.6,255.1L341.5,237.5L329.8,222.9L320.1,215.9L280.7,193.7L263.1,187.4L244.5,187.3Z" fill="none" stroke="#0f8" stroke-width="2.5"/><circle cx="300" cy="300" r="2" fill="red"/></svg>